<svg width="112" height="75" viewBox="0 0 112 75" fill="none" xmlns="http://www.w3.org/2000/svg">
<path d="M111.5 45.1829C111.5 57.0055 102.195 67.446 90.7737 68.4599L24.8175 74.2657C20.8577 74.6215 17.1986 73.5548 14.2708 71.5014C13.6483 71.083 13.7767 71.0184 6.06375 64.7207C2.3711 61.7057 0 57.0452 0 51.6077C0 42.8574 6.16807 33.9403 16.5827 32.2148C17.2504 32.1038 17.7839 31.5803 17.916 30.912C20.0951 19.8877 30.5068 11.7756 41.1899 13.2527C41.8219 13.3401 42.4561 13.0475 42.802 12.5071C47.2638 5.54336 54.5974 0.81013 62.6629 0.091109C68.204 -0.39559 73.3262 1.09177 77.4174 3.97521L86.2644 11.2691C88.4034 13.0328 90.1104 15.2796 91.5502 17.7417C93.136 20.4546 93.8899 21.0435 95.9092 22.6573L104.547 29.793C108.809 33.3337 111.5 38.8242 111.5 45.1829Z" fill="url(#paint0_linear_647_5430)"/>
<path d="M27.3492 38.5799C29.1273 28.1487 38.5051 20.3209 48.9761 22.194C49.9883 22.3751 51.0121 21.9494 51.5507 21.0738C62.833 2.73516 87.0104 5.58832 91.2696 26.1105C91.4903 27.176 92.368 27.9625 93.4496 28.0844C115.579 30.5761 111.169 63.7058 90.2816 65.5468L24.2345 71.3138C5.25537 72.9504 4.16793 42.3613 25.2087 40.6254C26.3093 40.5349 27.1643 39.6673 27.3492 38.5799Z" fill="white"/>
<defs>
<linearGradient id="paint0_linear_647_5430" x1="55.75" y1="0" x2="55.75" y2="74.3333" gradientUnits="userSpaceOnUse">
<stop stop-color="#2EA6E2"/>
<stop offset="1" stop-color="#3956CB"/>
</linearGradient>
</defs>
</svg>
