<svg width="124" height="112" viewBox="0 0 124 112" fill="none" xmlns="http://www.w3.org/2000/svg">
<path d="M81.2104 58.6761L63.4413 48.4158C62.2932 47.7527 60.8647 47.7527 59.7166 48.4158L26.0193 67.8707C25.4519 68.1973 25.1121 68.7846 25.1121 69.4411C25.1121 70.0976 25.4519 70.6849 26.0193 71.0115L43.7884 81.2718C44.3624 81.605 45.0091 81.7699 45.6524 81.7699C46.2957 81.7699 46.9424 81.605 47.5164 81.2718L81.2137 61.8168C81.7811 61.4902 82.1209 60.903 82.1209 60.2465C82.1176 59.5932 81.7778 59.006 81.2104 58.6761Z" fill="url(#paint0_linear_647_5645)"/>
<path d="M81.3324 11.5479V11.4225L81.3159 11.4258C81.2796 11.1223 81.1179 10.832 80.8144 10.6571L63.0454 0.396838C62.1348 -0.127722 61.0131 -0.127722 60.1025 0.396838L26.4053 19.8518C26.0622 20.0497 25.8906 20.3961 25.8906 20.7458V68.9295C25.8906 69.2759 26.0622 69.6257 26.4053 69.8236L44.1744 80.0839C45.0849 80.6084 46.2066 80.6084 47.1172 80.0839L80.8144 60.6289C81.1872 60.4145 81.3522 60.0219 81.3192 59.6458L81.3258 59.6425L81.3324 11.5479Z" fill="url(#paint1_linear_647_5645)"/>
<path d="M81.3193 11.4263C81.283 11.1228 81.1213 10.8325 80.8178 10.6576L63.0487 0.397327C62.1382 -0.127234 61.0165 -0.127234 60.1059 0.397327L45.6624 8.73751V80.477C46.1671 80.4737 46.6686 80.345 47.1206 80.0844L80.8178 60.6294C81.1906 60.415 81.3556 60.0224 81.3226 59.6463L81.3292 59.643L81.3358 11.5517V11.4263H81.3193Z" fill="white"/>
<path d="M44.1778 31.8968L26.4087 21.6365C25.7225 21.2406 25.7225 20.2475 26.4087 19.8484L60.106 0.393421C61.0165 -0.13114 62.1382 -0.13114 63.0488 0.393421L80.8179 10.6537C81.5041 11.0496 81.5041 12.0426 80.8179 12.4418L47.1206 31.8968C46.21 32.4213 45.0883 32.4213 44.1778 31.8968Z" fill="url(#paint2_linear_647_5645)"/>
<path d="M47.1205 31.8967C46.2099 32.4213 45.0882 32.4213 44.1777 31.8967L44.1084 31.8571V80.0408L44.1777 80.0804C45.0882 80.605 46.2099 80.605 47.1205 80.0804L47.3415 79.9518V31.7681L47.1205 31.8967Z" fill="#4C6786"/>
<path d="M59.5581 16.9813L50.1292 11.5377C49.344 11.0857 48.3807 11.0857 47.5955 11.5377L38.1666 16.9813C37.8762 17.1495 37.7278 17.4431 37.7278 17.7401V18.9673C37.7278 19.261 37.8729 19.5579 38.1666 19.7261L47.5955 25.1697C48.3807 25.6217 49.344 25.6217 50.1292 25.1697L59.5581 19.7261C59.8484 19.5579 59.9969 19.2643 59.9969 18.9673V17.7401C59.9969 17.4464 59.8517 17.1495 59.5581 16.9813Z" fill="#328CDB"/>
<path d="M47.5956 23.943L38.1667 18.4995C37.5828 18.163 37.5828 17.3217 38.1667 16.9852L47.5956 11.5416C48.3808 11.0896 49.3442 11.0896 50.1293 11.5416L59.5582 16.9852C60.1422 17.3217 60.1422 18.163 59.5582 18.4995L50.1293 23.943C49.3442 24.395 48.3808 24.395 47.5956 23.943Z" fill="white"/>
<path d="M55.1339 17.7897L48.2487 13.8143C47.9583 13.646 47.9946 13.3491 48.3311 13.1544C48.6677 12.9598 49.179 12.94 49.4726 13.1083L56.3579 17.0837C56.6482 17.252 56.6119 17.5489 56.2754 17.7435C55.9389 17.9382 55.4243 17.958 55.1339 17.7897Z" fill="#96C8FA"/>
<path d="M52.7685 19.2345L45.8832 15.2591C45.5929 15.0908 45.6292 14.7939 45.9657 14.5993C46.3022 14.4046 46.8135 14.3848 47.1072 14.5531L53.9924 18.5285C54.2828 18.6968 54.2465 18.9937 53.91 19.1884C53.5734 19.3797 53.0588 19.4028 52.7685 19.2345Z" fill="#96C8FA"/>
<path d="M50.403 20.6798L43.5177 16.7044C43.2274 16.5362 43.2637 16.2392 43.6002 16.0446C43.9367 15.8499 44.4481 15.8301 44.7417 15.9984L51.627 19.9738C51.9173 20.1421 51.881 20.439 51.5445 20.6337C51.208 20.825 50.6933 20.8481 50.403 20.6798Z" fill="#96C8FA"/>
<path d="M48.0377 22.1217L41.1525 18.1463C40.8622 17.978 40.8984 17.6811 41.235 17.4865C41.5715 17.2918 42.0828 17.272 42.3765 17.4403L49.2617 21.4157C49.552 21.584 49.5158 21.8809 49.1792 22.0756C48.8427 22.2702 48.3281 22.29 48.0377 22.1217Z" fill="#96C8FA"/>
<path d="M71.6003 8.5157L60.9837 2.38593C60.1028 1.87787 59.0141 1.87787 58.1332 2.38593L53.0724 5.25947C52.7425 5.44752 52.5808 5.78073 52.5808 6.11394V9.19202C52.5808 9.52524 52.7458 9.85515 53.0724 10.0465L63.689 16.1763C64.5698 16.6843 65.6585 16.6843 66.5394 16.1763L71.6003 13.3027C71.9302 13.1147 72.0918 12.7815 72.0918 12.4483V9.37017C72.0951 9.03696 71.9302 8.70705 71.6003 8.5157Z" fill="#395BCD"/>
<path d="M63.6888 13.0949L53.0722 6.96511C52.4157 6.58572 52.4157 5.63887 53.0722 5.25947L58.1331 2.38593C59.0139 1.87787 60.1027 1.87787 60.9835 2.38593L71.6001 8.5157C72.2566 8.8951 72.2566 9.84195 71.6001 10.2213L66.5392 13.0949C65.6551 13.6063 64.5697 13.6063 63.6888 13.0949Z" fill="white"/>
<path d="M41.9673 36.2877L27.8603 28.096C27.4941 27.8848 27.2004 27.3207 27.2004 26.8324V25.4468C27.2004 24.9618 27.4974 24.7375 27.8603 24.9486L41.9673 33.1403C42.3335 33.3515 42.6271 33.9156 42.6271 34.4039V35.7895C42.6304 36.2745 42.3335 36.4988 41.9673 36.2877Z" fill="white"/>
<path d="M41.1789 35.2614L28.6521 27.9802C28.2364 27.7394 27.8999 27.0961 27.8999 26.5451C27.8999 25.9908 28.2364 25.7368 28.6521 25.9777L41.1789 33.2588C41.5946 33.4997 41.9311 34.143 41.9311 34.6939C41.9311 35.2449 41.5946 35.4989 41.1789 35.2614Z" fill="#392B4F"/>
<path d="M40.9842 34.0971C40.9842 34.4237 40.7532 34.5556 40.4728 34.394C40.1891 34.229 39.9614 33.8331 39.9614 33.5065C39.9614 33.1799 40.1924 33.0479 40.4728 33.2096C40.7532 33.3746 40.9842 33.7705 40.9842 34.0971Z" fill="#574278"/>
<path d="M38.7537 32.8109C38.7537 33.1375 38.5227 33.2695 38.2423 33.1079C37.9586 32.9429 37.731 32.547 37.731 32.2204C37.731 31.8938 37.9619 31.7618 38.2423 31.9235C38.5227 32.0851 38.7537 32.4843 38.7537 32.8109Z" fill="#43325C"/>
<path d="M36.5237 31.5238C36.5237 31.8504 36.2928 31.9824 36.0123 31.8207C35.7286 31.6558 35.501 31.2599 35.501 30.9333C35.501 30.6067 35.7319 30.4747 36.0123 30.6364C36.2928 30.798 36.5237 31.1939 36.5237 31.5238Z" fill="#96C8FA"/>
<path d="M34.2935 30.2338C34.2935 30.5604 34.0625 30.6924 33.7821 30.5307C33.4984 30.3657 33.2708 29.9699 33.2708 29.6432C33.2708 29.3166 33.5017 29.1847 33.7821 29.3463C34.0625 29.5113 34.2935 29.9072 34.2935 30.2338Z" fill="#43325C"/>
<path d="M29.8328 27.661C29.8328 27.9876 29.6018 28.1196 29.3214 27.958C29.0377 27.793 28.8101 27.3971 28.8101 27.0705C28.8101 26.7439 29.041 26.6119 29.3214 26.7736C29.6018 26.9352 29.8328 27.3344 29.8328 27.661Z" fill="#96C8FA"/>
<path d="M32.0633 28.9477C32.0633 29.2743 31.8323 29.4062 31.5519 29.2446C31.2682 29.0796 31.0405 28.6837 31.0405 28.3571C31.0405 28.0305 31.2715 27.8985 31.5519 28.0602C31.8323 28.2251 32.0633 28.621 32.0633 28.9477Z" fill="#574278"/>
<path d="M51.8152 35.1827L77.0106 20.7556C77.4263 20.5148 77.7628 19.8714 77.7628 19.3205C77.7628 18.7662 77.4263 18.5122 77.0106 18.753L51.8152 33.1801C51.3995 33.4209 51.063 34.0643 51.063 34.6152C51.063 35.1695 51.3995 35.4235 51.8152 35.1827Z" fill="#395ACD"/>
<path d="M51.8152 40.0489L77.0106 25.6218C77.4263 25.381 77.7628 24.7377 77.7628 24.1867C77.7628 23.6324 77.4263 23.3784 77.0106 23.6193L51.8152 38.0463C51.3995 38.2872 51.063 38.9305 51.063 39.4814C51.063 40.0324 51.3995 40.2864 51.8152 40.0489Z" fill="#395ACD"/>
<path d="M51.8152 44.9156L77.0106 30.4885C77.4263 30.2477 77.7628 29.6044 77.7628 29.0534C77.7628 28.4991 77.4263 28.2451 77.0106 28.486L51.8152 42.913C51.3995 43.1539 51.063 43.7972 51.063 44.3481C51.063 44.8991 51.3995 45.1531 51.8152 44.9156Z" fill="#395ACD"/>
<path d="M51.8152 49.7779L77.0106 35.3508C77.4263 35.11 77.7628 34.4667 77.7628 33.9157C77.7628 33.3615 77.4263 33.1074 77.0106 33.3483L51.8152 47.7753C51.3995 48.0162 51.063 48.6595 51.063 49.2104C51.063 49.7647 51.3995 50.0187 51.8152 49.7779Z" fill="#395ACD"/>
<path d="M51.8152 54.6441L77.0106 40.217C77.4263 39.9762 77.7628 39.3329 77.7628 38.7819C77.7628 38.2277 77.4263 37.9736 77.0106 38.2145L51.8152 52.6415C51.3995 52.8824 51.063 53.5257 51.063 54.0767C51.063 54.6309 51.3995 54.8849 51.8152 54.6441Z" fill="#395ACD"/>
<path d="M51.8152 59.5103L77.0106 45.0832C77.4263 44.8424 77.7628 44.1991 77.7628 43.6481C77.7628 43.0939 77.4263 42.8398 77.0106 43.0807L51.8152 57.5077C51.3995 57.7486 51.063 58.3919 51.063 58.9429C51.063 59.4938 51.3995 59.7512 51.8152 59.5103Z" fill="#395ACD"/>
<path d="M51.8152 64.3765L77.0106 49.9495C77.4263 49.7086 77.7628 49.0653 77.7628 48.5143C77.7628 47.9601 77.4263 47.7061 77.0106 47.9469L51.8152 62.374C51.3995 62.6148 51.063 63.2581 51.063 63.8091C51.063 64.36 51.3995 64.6141 51.8152 64.3765Z" fill="#395ACD"/>
<path d="M51.8152 69.2432L77.0106 54.8162C77.4263 54.5753 77.7628 53.932 77.7628 53.381C77.7628 52.8268 77.4263 52.5728 77.0106 52.8136L51.8152 67.2407C51.3995 67.4815 51.063 68.1248 51.063 68.6758C51.063 69.2267 51.3995 69.4808 51.8152 69.2432Z" fill="#395ACD"/>
<path d="M41.9673 41.359L27.8603 33.1673C27.4941 32.9561 27.2004 32.392 27.2004 31.9037V30.5181C27.2004 30.0331 27.4974 29.8088 27.8603 30.0199L41.9673 38.2116C42.3335 38.4228 42.6271 38.9869 42.6271 39.4752V40.8608C42.6304 41.3458 42.3335 41.5701 41.9673 41.359Z" fill="white"/>
<path d="M41.1789 40.3327L28.6521 33.0515C28.2364 32.8107 27.8999 32.1673 27.8999 31.6164C27.8999 31.0621 28.2364 30.8081 28.6521 31.0489L41.1789 38.3301C41.5946 38.5709 41.9311 39.2143 41.9311 39.7652C41.9311 40.3162 41.5946 40.5702 41.1789 40.3327Z" fill="#392B4F"/>
<path d="M40.9842 39.1684C40.9842 39.495 40.7532 39.6269 40.4728 39.4653C40.1891 39.3003 39.9614 38.9044 39.9614 38.5778C39.9614 38.2512 40.1924 38.1192 40.4728 38.2809C40.7532 38.4425 40.9842 38.8417 40.9842 39.1684Z" fill="#43325C"/>
<path d="M38.7537 37.8817C38.7537 38.2083 38.5227 38.3403 38.2423 38.1787C37.9586 38.0137 37.731 37.6178 37.731 37.2912C37.731 36.9646 37.9619 36.8326 38.2423 36.9943C38.5227 37.1559 38.7537 37.5551 38.7537 37.8817Z" fill="#6C5194"/>
<path d="M36.5237 36.5917C36.5237 36.9183 36.2928 37.0503 36.0123 36.8886C35.7286 36.7237 35.501 36.3278 35.501 36.0011C35.501 35.6745 35.7319 35.5426 36.0123 35.7042C36.2928 35.8692 36.5237 36.2651 36.5237 36.5917Z" fill="#43325C"/>
<path d="M34.2935 35.3051C34.2935 35.6317 34.0625 35.7636 33.7821 35.602C33.4984 35.437 33.2708 35.0411 33.2708 34.7145C33.2708 34.3879 33.5017 34.256 33.7821 34.4176C34.0625 34.5826 34.2935 34.9785 34.2935 35.3051Z" fill="#96C8FA"/>
<path d="M29.8328 32.7313C29.8328 33.058 29.6018 33.1899 29.3214 33.0283C29.0377 32.8633 28.8101 32.4674 28.8101 32.1408C28.8101 31.8142 29.041 31.6822 29.3214 31.8439C29.6018 32.0055 29.8328 32.4047 29.8328 32.7313Z" fill="#6C5194"/>
<path d="M32.0633 34.0189C32.0633 34.3456 31.8323 34.4775 31.5519 34.3159C31.2682 34.1509 31.0405 33.755 31.0405 33.4284C31.0405 33.1018 31.2715 32.9698 31.5519 33.1315C31.8323 33.2964 32.0633 33.6923 32.0633 34.0189Z" fill="#43325C"/>
<path d="M41.9673 47.1085L27.8603 38.9168C27.4941 38.7056 27.2004 38.1415 27.2004 37.6532V36.2676C27.2004 35.7826 27.4974 35.5583 27.8603 35.7694L41.9673 43.9611C42.3335 44.1723 42.6271 44.7364 42.6271 45.2247V46.6103C42.6304 47.0953 42.3335 47.3196 41.9673 47.1085Z" fill="white"/>
<path d="M41.1789 46.0797L28.6521 38.7986C28.2364 38.5577 27.8999 37.9144 27.8999 37.3635C27.8999 36.8092 28.2364 36.5552 28.6521 36.796L41.1789 44.0772C41.5946 44.318 41.9311 44.9613 41.9311 45.5123C41.9311 46.0665 41.5946 46.3206 41.1789 46.0797Z" fill="#392B4F"/>
<path d="M40.9842 44.9179C40.9842 45.2445 40.7532 45.3764 40.4728 45.2148C40.1891 45.0498 39.9614 44.6539 39.9614 44.3273C39.9614 44.0007 40.1924 43.8687 40.4728 44.0304C40.7532 44.1921 40.9842 44.5912 40.9842 44.9179Z" fill="#574278"/>
<path d="M38.7537 43.6278C38.7537 43.9544 38.5227 44.0864 38.2423 43.9247C37.9586 43.7598 37.731 43.3639 37.731 43.0373C37.731 42.7107 37.9619 42.5787 38.2423 42.7404C38.5227 42.9053 38.7537 43.3012 38.7537 43.6278Z" fill="#96C8FA"/>
<path d="M36.5237 42.3412C36.5237 42.6678 36.2928 42.7998 36.0123 42.6381C35.7286 42.4732 35.501 42.0773 35.501 41.7507C35.501 41.4241 35.7319 41.2921 36.0123 41.4537C36.2928 41.6187 36.5237 42.0146 36.5237 42.3412Z" fill="#574278"/>
<path d="M34.2935 41.0551C34.2935 41.3817 34.0625 41.5136 33.7821 41.352C33.4984 41.187 33.2708 40.7911 33.2708 40.4645C33.2708 40.1379 33.5017 40.006 33.7821 40.1676C34.0625 40.3293 34.2935 40.7285 34.2935 41.0551Z" fill="#43325C"/>
<path d="M29.8328 38.4779C29.8328 38.8045 29.6018 38.9365 29.3214 38.7748C29.0377 38.6099 28.8101 38.214 28.8101 37.8874C28.8101 37.5608 29.041 37.4288 29.3214 37.5905C29.6018 37.7554 29.8328 38.1513 29.8328 38.4779Z" fill="#43325C"/>
<path d="M32.0633 39.768C32.0633 40.0946 31.8323 40.2265 31.5519 40.0649C31.2682 39.8999 31.0405 39.504 31.0405 39.1774C31.0405 38.8508 31.2715 38.7188 31.5519 38.8805C31.8323 39.0422 32.0633 39.4413 32.0633 39.768Z" fill="#96C8FA"/>
<path d="M41.9673 52.1798L27.8603 43.9881C27.4941 43.7769 27.2004 43.2128 27.2004 42.7245V41.3389C27.2004 40.8539 27.4974 40.6296 27.8603 40.8407L41.9673 49.0324C42.3335 49.2436 42.6271 49.8077 42.6271 50.296V51.6816C42.6304 52.1666 42.3335 52.3909 41.9673 52.1798Z" fill="white"/>
<path d="M41.1789 51.1506L28.6521 43.8694C28.2364 43.6285 27.8999 42.9852 27.8999 42.4343C27.8999 41.88 28.2364 41.626 28.6521 41.8668L41.1789 49.148C41.5946 49.3888 41.9311 50.0321 41.9311 50.5831C41.9311 51.1374 41.5946 51.3914 41.1789 51.1506Z" fill="#392B4F"/>
<path d="M40.9842 49.9892C40.9842 50.3158 40.7532 50.4477 40.4728 50.2861C40.1891 50.1211 39.9614 49.7252 39.9614 49.3986C39.9614 49.072 40.1924 48.94 40.4728 49.1017C40.7532 49.2633 40.9842 49.6625 40.9842 49.9892Z" fill="#43325C"/>
<path d="M38.7537 48.6991C38.7537 49.0257 38.5227 49.1577 38.2423 48.996C37.9586 48.8311 37.731 48.4352 37.731 48.1086C37.731 47.782 37.9619 47.65 38.2423 47.8117C38.5227 47.9766 38.7537 48.3725 38.7537 48.6991Z" fill="#6C5194"/>
<path d="M36.5237 47.4125C36.5237 47.7391 36.2928 47.8711 36.0123 47.7094C35.7286 47.5445 35.501 47.1486 35.501 46.8219C35.501 46.4953 35.7319 46.3634 36.0123 46.525C36.2928 46.69 36.5237 47.0859 36.5237 47.4125Z" fill="#43325C"/>
<path d="M34.2935 46.1259C34.2935 46.4525 34.0625 46.5845 33.7821 46.4228C33.4984 46.2578 33.2708 45.8619 33.2708 45.5353C33.2708 45.2087 33.5017 45.0768 33.7821 45.2384C34.0625 45.4001 34.2935 45.7993 34.2935 46.1259Z" fill="#96C8FA"/>
<path d="M29.8328 43.5492C29.8328 43.8758 29.6018 44.0078 29.3214 43.8461C29.0377 43.6812 28.8101 43.2853 28.8101 42.9587C28.8101 42.6321 29.041 42.5001 29.3214 42.6617C29.6018 42.8267 29.8328 43.2226 29.8328 43.5492Z" fill="#6C5194"/>
<path d="M32.0633 44.8393C32.0633 45.1659 31.8323 45.2978 31.5519 45.1362C31.2682 44.9712 31.0405 44.5753 31.0405 44.2487C31.0405 43.9221 31.2715 43.7901 31.5519 43.9518C31.8323 44.1134 32.0633 44.5126 32.0633 44.8393Z" fill="#43325C"/>
<path d="M41.9673 63.651L27.8603 55.4593C27.4941 55.2481 27.2004 54.684 27.2004 54.1957V46.6968C27.2004 46.2118 27.4974 45.9875 27.8603 46.1986L41.9673 54.3903C42.3335 54.6015 42.6271 55.1656 42.6271 55.6539V63.1528C42.6304 63.6378 42.3335 63.8621 41.9673 63.651Z" fill="white"/>
<path d="M41.2577 57.749L28.5726 50.382C28.246 50.194 27.9788 49.6859 27.9788 49.2471V48.0001C27.9788 47.5613 28.246 47.36 28.5726 47.5514L41.2577 54.9183C41.5843 55.1064 41.8516 55.6144 41.8516 56.0532V57.3003C41.8516 57.7391 41.5843 57.9403 41.2577 57.749Z" fill="#392B4F"/>
<path d="M40.5488 56.8253L29.2823 50.2798C28.9095 50.0654 28.606 49.4847 28.606 48.9866C28.606 48.4884 28.9095 48.2607 29.2823 48.4752L40.5488 55.0206C40.9216 55.2351 41.2251 55.8157 41.2251 56.3139C41.2251 56.8121 40.9216 57.043 40.5488 56.8253Z" fill="#91C8FE"/>
<path d="M41.2577 62.0043L28.5726 54.6374C28.246 54.4493 27.9788 53.9413 27.9788 53.5025V52.2554C27.9788 51.8166 28.246 51.6154 28.5726 51.8067L41.2577 59.1737C41.5843 59.3617 41.8516 59.8698 41.8516 60.3086V61.5557C41.8516 61.9944 41.5843 62.1957 41.2577 62.0043Z" fill="#392B4F"/>
<path d="M40.5488 61.0806L29.2823 54.5352C28.9095 54.3207 28.606 53.7401 28.606 53.2419C28.606 52.7438 28.9095 52.5161 29.2823 52.7306L40.5488 59.276C40.9216 59.4905 41.2251 60.0711 41.2251 60.5693C41.2251 61.0674 40.9216 61.2984 40.5488 61.0806Z" fill="#91C8FE"/>
<path d="M122.42 67.8439L102.83 56.5345C101.586 55.8186 100.045 55.8186 98.8014 56.5345L61.65 77.9821C61.0495 78.3285 60.6899 78.9487 60.6899 79.6449C60.6899 80.3377 61.0495 80.9612 61.65 81.3076L81.2402 92.617C81.8604 92.9766 82.5565 93.1548 83.2527 93.1548C83.9488 93.1548 84.6449 92.9766 85.2651 92.617L122.417 71.1694C123.017 70.823 123.377 70.2028 123.377 69.5066C123.38 68.8138 123.02 68.1903 122.42 67.8439Z" fill="url(#paint3_linear_647_5645)"/>
<path d="M122.073 30.4024V30.2671L122.057 30.2704C122.017 29.9405 121.842 29.6238 121.516 29.4358L102.262 18.3177C101.275 17.747 100.058 17.747 99.0716 18.3177L62.5602 39.3991C62.1874 39.6136 62.0027 39.9897 62.0027 40.3658V79.0117C62.0027 79.3878 62.1874 79.7639 62.5602 79.9783L81.8139 91.0964C82.8004 91.6671 84.0177 91.6671 85.0042 91.0964L121.516 70.015C121.921 69.7807 122.096 69.3584 122.063 68.9494L122.07 68.9461L122.073 30.4024Z" fill="url(#paint4_linear_647_5645)"/>
<path d="M122.057 30.2709C122.017 29.941 121.842 29.6276 121.516 29.4362L102.262 18.3182C101.276 17.7474 100.058 17.7474 99.0719 18.3182L83.9224 27.0642V91.4796C84.2985 91.4169 84.6647 91.2948 85.0045 91.1002L121.516 70.0188C121.922 69.7845 122.097 69.3622 122.064 68.9532L122.07 68.9498L122.077 30.4029V30.2676L122.057 30.2709Z" fill="white"/>
<path d="M118.735 35.5429L89.2768 52.6357C88.2112 53.2526 87.5547 54.3875 87.5547 55.6181V85.5147C87.5547 86.4022 88.5147 86.9565 89.2834 86.5111L118.741 69.4183C119.807 68.8014 120.463 67.6665 120.463 66.4359V36.5392C120.46 35.6518 119.5 35.0975 118.735 35.5429Z" fill="#3765D0"/>
<path d="M81.8107 52.4508L62.557 41.3328C61.8114 40.9039 61.8114 39.8284 62.557 39.3962L99.0684 18.3148C100.055 17.744 101.272 17.744 102.259 18.3148L121.512 29.4328C122.258 29.8617 122.258 30.9372 121.512 31.3694L85.0009 52.4508C84.0145 53.0216 82.7971 53.0216 81.8107 52.4508Z" fill="url(#paint5_linear_647_5645)"/>
<path d="M85.001 52.4502C84.0146 53.021 82.7972 53.021 81.8107 52.4502L81.7349 52.4073V91.0532L81.8107 91.0961C82.7972 91.6669 84.0146 91.6669 85.001 91.0961L85.2385 90.9576V52.3149L85.001 52.4502Z" fill="#4C6786"/>
<path d="M114.918 27.7992L102.612 20.6929C101.589 20.1024 100.329 20.1024 99.3062 20.6929L87.0004 27.7992C86.621 28.0203 86.4297 28.403 86.4297 28.789V30.389C86.4297 30.775 86.621 31.1577 87.0004 31.3788L99.3062 38.4851C100.329 39.0756 101.589 39.0756 102.612 38.4851L114.918 31.3788C115.297 31.1577 115.488 30.775 115.488 30.389V28.7857C115.492 28.403 115.3 28.0203 114.918 27.7992Z" fill="#395BCD"/>
<path d="M99.3092 36.8821L87.0035 29.7758C86.2414 29.337 86.2414 28.2384 87.0035 27.7963L99.3092 20.69C100.332 20.0994 101.592 20.0994 102.615 20.69L114.921 27.7963C115.683 28.2351 115.683 29.3337 114.921 29.7758L102.615 36.8821C101.592 37.4726 100.332 37.4726 99.3092 36.8821Z" fill="white"/>
<path d="M109.144 28.8549L100.16 23.6687C99.7811 23.4509 99.8273 23.0616 100.266 22.8109C100.705 22.5569 101.375 22.5305 101.754 22.7482L110.737 27.9344C111.117 28.1522 111.071 28.5415 110.632 28.7922C110.193 29.0463 109.523 29.0726 109.144 28.8549Z" fill="#96C8FA"/>
<path d="M106.059 30.7392L97.0755 25.553C96.6961 25.3352 96.7423 24.9459 97.1811 24.6952C97.6199 24.4412 98.2896 24.4148 98.669 24.6325L107.653 29.8187C108.032 30.0365 107.986 30.4258 107.547 30.6765C107.108 30.9305 106.438 30.9569 106.059 30.7392Z" fill="#96C8FA"/>
<path d="M102.971 32.623L93.9876 27.4367C93.6082 27.219 93.6544 26.8297 94.0932 26.579C94.532 26.3249 95.2017 26.2985 95.5811 26.5163L104.565 31.7025C104.944 31.9203 104.898 32.3096 104.459 32.5603C104.02 32.8143 103.351 32.844 102.971 32.623Z" fill="#96C8FA"/>
<path d="M99.8833 34.5102L90.8997 29.324C90.5203 29.1062 90.5665 28.7169 91.0053 28.4662C91.4441 28.2121 92.1138 28.1858 92.4932 28.4035L101.477 33.5897C101.856 33.8075 101.81 34.1968 101.371 34.4475C100.932 34.7015 100.263 34.7279 99.8833 34.5102Z" fill="#96C8FA"/>
<path d="M118.174 36.5092L89.8341 52.9521C88.8081 53.5426 88.178 54.6379 88.178 55.8223V84.5841C88.178 85.4385 89.1017 85.9697 89.8407 85.5441L118.18 69.1013C119.206 68.5107 119.836 67.4154 119.836 66.231V37.4693C119.836 36.6148 118.913 36.0836 118.174 36.5092Z" fill="#96C8FA"/>
<path d="M115.016 41.9763L92.9947 54.7538C92.1963 55.2124 91.708 56.0636 91.708 56.984V79.3356C91.708 79.9987 92.4272 80.4144 93.0013 80.0812L115.023 67.3037C115.821 66.8451 116.31 65.9939 116.31 65.0735V42.7219C116.306 42.0588 115.59 41.6431 115.016 41.9763Z" fill="#BBDBFA"/>
<path d="M92.9947 54.7506C92.1963 55.2092 91.708 56.0603 91.708 56.9808V62.3353L107.992 46.0508L92.9947 54.7506Z" fill="#D1E8FF"/>
<path d="M116.165 42.25L91.7048 66.7097V68.422C99.8999 60.2137 108.092 51.9989 116.306 43.8072V42.7185C116.306 42.5436 116.254 42.3853 116.165 42.25Z" fill="#D1E8FF"/>
<path d="M91.7048 79.3318C91.7048 79.995 92.424 80.4107 92.9981 80.0774L94.4662 79.2263L116.306 57.3861V48.1782C108.095 56.3732 99.9032 64.5947 91.7048 72.8029V79.3318Z" fill="#D1E8FF"/>
<path d="M109.497 70.5067C111.764 68.2171 114.03 65.9308 116.306 63.6544V61.7607C112.499 65.5679 108.695 69.3718 104.888 73.179L109.497 70.5067Z" fill="#D1E8FF"/>
<path d="M79.4187 57.2109L64.1339 48.333C63.738 48.1054 63.418 47.4917 63.418 46.9639V45.4628C63.418 44.9349 63.738 44.6941 64.1339 44.9217L79.4187 53.7996C79.8146 54.0273 80.1346 54.6409 80.1346 55.1688V56.6699C80.1346 57.1977 79.8146 57.4386 79.4187 57.2109Z" fill="white"/>
<path d="M78.5609 56.0999L64.9851 48.2117C64.5364 47.951 64.1702 47.2549 64.1702 46.6545C64.1702 46.0541 64.5364 45.7802 64.9851 46.0376L78.5609 53.9258C79.0096 54.1864 79.3758 54.8825 79.3758 55.483C79.3758 56.0834 79.0129 56.3572 78.5609 56.0999Z" fill="#392B4F"/>
<path d="M78.1859 55.1891C78.4021 55.0643 78.4015 54.6587 78.1847 54.2832C77.9679 53.9076 77.6169 53.7044 77.4007 53.8292C77.1845 53.954 77.185 54.3596 77.4019 54.7352C77.6187 55.1107 77.9697 55.314 78.1859 55.1891Z" fill="#7D5EAB"/>
<path d="M75.9352 53.4401C75.9352 53.7931 75.6877 53.9383 75.3809 53.7601C75.0741 53.582 74.8267 53.1531 74.8267 52.8001C74.8267 52.4471 75.0741 52.3019 75.3809 52.48C75.6844 52.6582 75.9352 53.0871 75.9352 53.4401Z" fill="#574278"/>
<path d="M73.5167 52.0475C73.5167 52.4005 73.2693 52.5457 72.9625 52.3675C72.6556 52.1894 72.4082 51.7605 72.4082 51.4075C72.4082 51.0545 72.6556 50.9093 72.9625 51.0875C73.2693 51.2623 73.5167 51.6912 73.5167 52.0475Z" fill="#7D5EAB"/>
<path d="M71.1019 50.6525C71.1019 51.0055 70.8545 51.1507 70.5477 50.9725C70.2408 50.7944 69.9934 50.3655 69.9934 50.0125C69.9934 49.6595 70.2408 49.5143 70.5477 49.6924C70.8512 49.8673 71.1019 50.2962 71.1019 50.6525Z" fill="#96C8FA"/>
<path d="M66.2687 47.8615C66.2687 48.2145 66.0212 48.3596 65.7144 48.1815C65.4076 48.0033 65.1602 47.5745 65.1602 47.2214C65.1602 46.8684 65.4076 46.7233 65.7144 46.9014C66.0212 47.0763 66.2687 47.5085 66.2687 47.8615Z" fill="#96C8FA"/>
<path d="M68.6837 49.257C68.6837 49.61 68.4363 49.7551 68.1294 49.577C67.8226 49.3988 67.5752 48.97 67.5752 48.6169C67.5752 48.2639 67.8226 48.1188 68.1294 48.2969C68.4363 48.4718 68.6837 48.904 68.6837 49.257Z" fill="#7D5EAB"/>
<path d="M79.4187 62.7046L64.1339 53.8266C63.738 53.599 63.418 52.9854 63.418 52.4575V50.9564C63.418 50.4286 63.738 50.1877 64.1339 50.4154L79.4187 59.2933C79.8146 59.5209 80.1346 60.1346 80.1346 60.6624V62.1635C80.1346 62.6914 79.8146 62.9322 79.4187 62.7046Z" fill="white"/>
<path d="M78.5609 61.5926L64.9851 53.7043C64.5364 53.4437 64.1702 52.7476 64.1702 52.1472C64.1702 51.5467 64.5364 51.2729 64.9851 51.5302L78.5609 59.4184C79.0096 59.6791 79.3758 60.3752 79.3758 60.9756C79.3758 61.5761 79.0129 61.8532 78.5609 61.5926Z" fill="#392B4F"/>
<path d="M78.35 60.3322C78.35 60.6852 78.1025 60.8303 77.7957 60.6522C77.4889 60.474 77.2415 60.0452 77.2415 59.6922C77.2415 59.3391 77.4889 59.194 77.7957 59.3721C78.1025 59.5503 78.35 59.9759 78.35 60.3322Z" fill="#574278"/>
<path d="M75.9352 58.9367C75.9352 59.2897 75.6877 59.4348 75.3809 59.2567C75.0741 59.0785 74.8267 58.6496 74.8267 58.2966C74.8267 57.9436 75.0741 57.7985 75.3809 57.9766C75.6844 58.1515 75.9352 58.5837 75.9352 58.9367Z" fill="#7D5EAB"/>
<path d="M73.5167 57.5412C73.5167 57.8942 73.2693 58.0393 72.9625 57.8612C72.6556 57.683 72.4082 57.2541 72.4082 56.9011C72.4082 56.5481 72.6556 56.403 72.9625 56.5811C73.2693 56.756 73.5167 57.1882 73.5167 57.5412Z" fill="#96C8FA"/>
<path d="M71.1019 56.1452C71.1019 56.4982 70.8545 56.6433 70.5477 56.4652C70.2408 56.287 69.9934 55.8581 69.9934 55.5051C69.9934 55.1521 70.2408 55.007 70.5477 55.1851C70.8512 55.36 71.1019 55.7922 71.1019 56.1452Z" fill="#7D5EAB"/>
<path d="M66.2687 53.3546C66.2687 53.7076 66.0212 53.8528 65.7144 53.6747C65.4076 53.4965 65.1602 53.0676 65.1602 52.7146C65.1602 52.3616 65.4076 52.2164 65.7144 52.3946C66.0212 52.5727 66.2687 53.0016 66.2687 53.3546Z" fill="#7D5EAB"/>
<path d="M68.6837 54.7502C68.6837 55.1032 68.4363 55.2483 68.1294 55.0702C67.8226 54.892 67.5752 54.4631 67.5752 54.1101C67.5752 53.7571 67.8226 53.612 68.1294 53.7901C68.4363 53.965 68.6837 54.3971 68.6837 54.7502Z" fill="#574278"/>
<path d="M79.4187 68.936L64.1339 60.0581C63.738 59.8305 63.418 59.2168 63.418 58.689V57.1879C63.418 56.66 63.738 56.4192 64.1339 56.6468L79.4187 65.5247C79.8146 65.7524 80.1346 66.366 80.1346 66.8939V68.395C80.1346 68.9195 79.8146 69.1637 79.4187 68.936Z" fill="white"/>
<path d="M78.5609 67.8211L64.9851 59.9329C64.5364 59.6722 64.1702 58.9761 64.1702 58.3757C64.1702 57.7752 64.5364 57.5014 64.9851 57.7587L78.5609 65.647C79.0096 65.9076 79.3758 66.6037 79.3758 67.2041C79.3758 67.8046 79.0129 68.0817 78.5609 67.8211Z" fill="#392B4F"/>
<path d="M78.1869 66.9138C78.403 66.7889 78.4025 66.3833 78.1857 66.0078C77.9689 65.6322 77.6178 65.429 77.4017 65.5538C77.1855 65.6786 77.186 66.0842 77.4029 66.4598C77.6197 66.8353 77.9707 67.0386 78.1869 66.9138Z" fill="#7D5EAB"/>
<path d="M75.9352 65.1652C75.9352 65.5182 75.6877 65.6634 75.3809 65.4852C75.0741 65.3071 74.8267 64.8782 74.8267 64.5252C74.8267 64.1722 75.0741 64.027 75.3809 64.2051C75.6844 64.38 75.9352 64.8122 75.9352 65.1652Z" fill="#96C8FA"/>
<path d="M73.5167 63.7702C73.5167 64.1232 73.2693 64.2683 72.9625 64.0902C72.6556 63.912 72.4082 63.4831 72.4082 63.1301C72.4082 62.7771 72.6556 62.632 72.9625 62.8101C73.2693 62.9883 73.5167 63.4172 73.5167 63.7702Z" fill="#574278"/>
<path d="M71.1019 62.3742C71.1019 62.7272 70.8545 62.8723 70.5477 62.6942C70.2408 62.516 69.9934 62.0871 69.9934 61.7341C69.9934 61.3811 70.2408 61.236 70.5477 61.4141C70.8512 61.5923 71.1019 62.0212 71.1019 62.3742Z" fill="#7D5EAB"/>
<path d="M66.2687 59.5866C66.2687 59.9396 66.0212 60.0847 65.7144 59.9066C65.4076 59.7284 65.1602 59.2996 65.1602 58.9465C65.1602 58.5935 65.4076 58.4484 65.7144 58.6265C66.0212 58.8014 66.2687 59.2303 66.2687 59.5866Z" fill="#96C8FA"/>
<path d="M68.6837 60.9826C68.6837 61.3356 68.4363 61.4807 68.1294 61.3026C67.8226 61.1244 67.5752 60.6955 67.5752 60.3425C67.5752 59.9895 67.8226 59.8444 68.1294 60.0225C68.4363 60.1974 68.6837 60.6263 68.6837 60.9826Z" fill="#574278"/>
<path d="M79.4187 74.4292L64.1339 65.5513C63.738 65.3236 63.418 64.71 63.418 64.1821V62.681C63.418 62.1532 63.738 61.9123 64.1339 62.14L79.4187 71.0179C79.8146 71.2455 80.1346 71.8592 80.1346 72.387V73.8881C80.1346 74.416 79.8146 74.6568 79.4187 74.4292Z" fill="white"/>
<path d="M78.5609 73.3172L64.9851 65.429C64.5364 65.1683 64.1702 64.4722 64.1702 63.8718C64.1702 63.2713 64.5364 62.9975 64.9851 63.2548L78.5609 71.143C79.0096 71.4037 79.3758 72.0998 79.3758 72.7002C79.3758 73.3007 79.0129 73.5745 78.5609 73.3172Z" fill="#392B4F"/>
<path d="M78.35 72.0539C78.35 72.4069 78.1025 72.552 77.7957 72.3739C77.4889 72.1957 77.2415 71.7668 77.2415 71.4138C77.2415 71.0608 77.4889 70.9157 77.7957 71.0938C78.1025 71.272 78.35 71.7009 78.35 72.0539Z" fill="#574278"/>
<path d="M75.9352 70.6618C75.9352 71.0148 75.6877 71.1599 75.3809 70.9818C75.0741 70.8036 74.8267 70.3747 74.8267 70.0217C74.8267 69.6687 75.0741 69.5236 75.3809 69.7017C75.6844 69.8766 75.9352 70.3055 75.9352 70.6618Z" fill="#7D5EAB"/>
<path d="M73.5165 69.2658C73.5165 69.6188 73.269 69.7639 72.9622 69.5858C72.6554 69.4076 72.408 68.9788 72.408 68.6257C72.408 68.2727 72.6554 68.1276 72.9622 68.3057C73.269 68.4806 73.5165 68.9095 73.5165 69.2658Z" fill="#574278"/>
<path d="M71.1019 67.8703C71.1019 68.2233 70.8545 68.3684 70.5477 68.1903C70.2408 68.0121 69.9934 67.5832 69.9934 67.2302C69.9934 66.8772 70.2408 66.7321 70.5477 66.9102C70.8512 67.0851 71.1019 67.5173 71.1019 67.8703Z" fill="#7D5EAB"/>
<path d="M66.2684 65.0793C66.2684 65.4323 66.021 65.5774 65.7142 65.3993C65.4073 65.2211 65.1599 64.7922 65.1599 64.4392C65.1599 64.0862 65.4073 63.9411 65.7142 64.1192C66.021 64.2941 66.2684 64.7262 66.2684 65.0793Z" fill="#7D5EAB"/>
<path d="M68.6835 66.4752C68.6835 66.8283 68.436 66.9734 68.1292 66.7953C67.8224 66.6171 67.575 66.1882 67.575 65.8352C67.575 65.4822 67.8224 65.337 68.1292 65.5152C68.436 65.6901 68.6835 66.1222 68.6835 66.4752Z" fill="#574278"/>
<path d="M79.4187 86.8571L64.1339 77.9791C63.738 77.7515 63.418 77.1378 63.418 76.61V68.4842C63.418 67.9564 63.738 67.7155 64.1339 67.9432L79.4187 76.8211C79.8146 77.0488 80.1346 77.6624 80.1346 78.1903V86.316C80.1346 86.8439 79.8146 87.088 79.4187 86.8571Z" fill="white"/>
<path d="M78.6468 80.464L64.9026 72.4834C64.5463 72.2789 64.2593 71.7279 64.2593 71.2528V69.9035C64.2593 69.4284 64.5463 69.2107 64.9026 69.4152L78.6468 77.3958C79.0031 77.6003 79.2901 78.1513 79.2901 78.6264V79.9757C79.2901 80.4541 79.0031 80.6718 78.6468 80.464Z" fill="#392B4F"/>
<path d="M77.8784 79.4641L65.6716 72.371C65.2658 72.1368 64.9392 71.5099 64.9392 70.9722C64.9392 70.4311 65.2658 70.1837 65.6716 70.4179L77.8784 77.5111C78.2842 77.7453 78.6108 78.3721 78.6108 78.9099C78.6108 79.4509 78.2842 79.6984 77.8784 79.4641Z" fill="#91C8FE"/>
<path d="M78.6468 85.0758L64.9026 77.0952C64.5463 76.8907 64.2593 76.3397 64.2593 75.8646V74.5153C64.2593 74.0402 64.5463 73.8225 64.9026 74.027L78.6468 82.0076C79.0031 82.2122 79.2901 82.7631 79.2901 83.2382V84.5875C79.2901 85.0659 79.0031 85.2836 78.6468 85.0758Z" fill="#392B4F"/>
<path d="M77.8784 84.0759L65.6716 76.9828C65.2658 76.7486 64.9392 76.1218 64.9392 75.584C64.9392 75.0429 65.2658 74.7955 65.6716 75.0298L77.8784 82.1229C78.2842 82.3571 78.6108 82.9839 78.6108 83.5217C78.6108 84.0628 78.2842 84.3102 77.8784 84.0759Z" fill="#91C8FE"/>
<path d="M116.864 39.8877C116.864 40.409 117.23 40.6201 117.682 40.3595C118.134 40.0989 118.5 39.4621 118.5 38.9409C118.5 38.4196 118.134 38.2085 117.682 38.4691C117.23 38.7297 116.864 39.3664 116.864 39.8877Z" fill="#574278"/>
<path d="M89.5967 55.5811C89.5967 56.1023 89.9629 56.3135 90.4149 56.0528C90.8668 55.7922 91.233 55.1588 91.233 54.6342C91.233 54.113 90.8668 53.9018 90.4149 54.1624C89.9629 54.4231 89.5967 55.0598 89.5967 55.5811Z" fill="#574278"/>
<path d="M116.864 67.7686C116.864 68.2898 117.23 68.501 117.682 68.2403C118.134 67.9797 118.5 67.3463 118.5 66.8217C118.5 66.3005 118.134 66.0893 117.682 66.3499C117.23 66.6139 116.864 67.2473 116.864 67.7686Z" fill="#574278"/>
<path d="M89.5967 83.4624C89.5967 83.9837 89.9629 84.1948 90.4149 83.9342C90.8668 83.6736 91.233 83.0368 91.233 82.5156C91.233 81.9943 90.8668 81.7832 90.4149 82.0438C89.9629 82.3077 89.5967 82.9412 89.5967 83.4624Z" fill="#574278"/>
<path opacity="0.2" d="M24.3962 111.161L1.08129 97.7008C-0.360429 96.8695 -0.360429 94.7877 1.08129 93.953L24.3962 80.4926C26.3328 79.3742 28.7213 79.3742 30.6579 80.4926L53.9728 93.953C55.4146 94.7844 55.4146 96.8695 53.9728 97.7008L30.6579 111.161C28.7213 112.28 26.3328 112.28 24.3962 111.161Z" fill="black"/>
<path d="M50.9077 89.8693L30.2948 77.9694C28.5826 76.9796 26.4711 76.9796 24.7589 77.9694L4.14596 89.8693C3.50922 90.2388 3.18921 90.8821 3.18921 91.5255V95.7483C3.18921 96.3917 3.50922 97.0383 4.14596 97.4045L24.7589 109.304C26.4711 110.294 28.5826 110.294 30.2948 109.304L50.9077 97.4045C51.5445 97.035 51.8645 96.3917 51.8645 95.7483V91.5255C51.8645 90.8821 51.5478 90.2355 50.9077 89.8693Z" fill="url(#paint6_linear_647_5645)"/>
<path d="M24.759 105.084L4.14605 93.1841C2.86929 92.4484 2.86929 90.6074 4.14605 89.8717L24.759 77.9718C26.4712 76.9821 28.5827 76.9821 30.2949 77.9718L50.9078 89.8717C52.1846 90.6074 52.1846 92.4484 50.9078 93.1841L30.2949 105.084C28.5827 106.07 26.4712 106.07 24.759 105.084Z" fill="white"/>
<path d="M46.8005 86.9984L29.8101 77.1868C28.398 76.372 26.6594 76.372 25.2474 77.1868L8.25358 86.9984C7.72902 87.302 7.46509 87.8331 7.46509 88.3643V90.5747C7.46509 91.1059 7.72902 91.637 8.25358 91.9405L25.2441 101.752C26.6561 102.567 28.3947 102.567 29.8068 101.752L46.8005 91.9405C47.3251 91.637 47.589 91.1059 47.589 90.5747V88.361C47.589 87.8331 47.3284 87.302 46.8005 86.9984Z" fill="#4C6786"/>
<path d="M25.2473 99.5417L8.25684 89.7301C7.20442 89.1231 7.20442 87.6055 8.25684 86.9984L25.2506 77.1868C26.6627 76.372 28.4013 76.372 29.8133 77.1868L46.8038 86.9984C47.8562 87.6055 47.8562 89.1231 46.8038 89.7301L29.81 99.5417C28.398 100.357 26.6594 100.357 25.2473 99.5417Z" fill="url(#paint7_linear_647_5645)"/>
<path d="M27.5269 94.1578C33.321 94.1578 38.0181 91.4459 38.0181 88.1007C38.0181 84.7554 33.321 82.0435 27.5269 82.0435C21.7327 82.0435 17.0356 84.7554 17.0356 88.1007C17.0356 91.4459 21.7327 94.1578 27.5269 94.1578Z" fill="#D1E8FF"/>
<path d="M31.2679 90.2616C29.2027 91.4559 25.8541 91.4559 23.7855 90.2616C21.7203 89.0673 21.7203 87.1341 23.7855 85.9431C25.8508 84.7488 29.1994 84.7488 31.2679 85.9431C33.3332 87.1341 33.3332 89.0706 31.2679 90.2616Z" fill="white"/>
<path d="M49.1461 97.1304L41.248 101.706C40.928 101.891 40.6641 101.693 40.6641 101.264C40.6641 100.835 40.9247 100.337 41.248 100.152L49.1461 95.5765C49.4661 95.3918 49.7301 95.5897 49.7301 96.0186C49.7301 96.4442 49.4694 96.9457 49.1461 97.1304Z" fill="#8762BD"/>
<path d="M8.71212 98.6416L12.6612 100.895C12.9812 101.08 13.2451 100.882 13.2451 100.453C13.2451 100.024 12.9845 99.5258 12.6612 99.341L8.71212 97.0878C8.3921 96.903 8.12817 97.1009 8.12817 97.5298C8.12817 97.9554 8.3921 98.4569 8.71212 98.6416Z" fill="#6738AE"/>
<path d="M49.2614 96.3059C49.2614 96.5237 49.1096 96.7876 48.9216 96.8965C48.7335 97.0054 48.5818 96.9163 48.5818 96.6985C48.5818 96.4808 48.7335 96.2169 48.9216 96.108C49.1063 95.9991 49.2614 96.0882 49.2614 96.3059Z" fill="white"/>
<path d="M46.8632 97.6945C46.8632 97.9123 46.7115 98.1762 46.5234 98.2851C46.3354 98.394 46.1836 98.3049 46.1836 98.0871C46.1836 97.8694 46.3354 97.6055 46.5234 97.4966C46.7115 97.391 46.8632 97.4801 46.8632 97.6945Z" fill="white"/>
<path d="M44.4682 99.0867C44.4682 99.3045 44.3164 99.5684 44.1284 99.6773C43.9403 99.7861 43.7886 99.6971 43.7886 99.4793C43.7886 99.2616 43.9403 98.9976 44.1284 98.8888C44.3164 98.7832 44.4682 98.869 44.4682 99.0867Z" fill="white"/>
<path d="M42.0727 100.479C42.0727 100.697 41.9209 100.961 41.7329 101.07C41.5448 101.179 41.3931 101.09 41.3931 100.872C41.3931 100.654 41.5448 100.39 41.7329 100.281C41.9176 100.176 42.0727 100.262 42.0727 100.479Z" fill="white"/>
<path d="M41.7297 100.677C41.7297 100.677 48.5919 107.588 56.4405 105.167C64.6158 102.64 67.4101 81.4 77.7925 71.7368" stroke="#96C8FA" stroke-width="2.8467" stroke-miterlimit="10" stroke-linecap="round" stroke-linejoin="round"/>
<path d="M44.1282 99.2849C44.1282 99.2849 50.4163 103.762 54.9361 100.618C63.1575 94.9037 65.7143 75.8413 75.3808 70.3384" stroke="#3389DA" stroke-width="2.8467" stroke-miterlimit="10" stroke-linecap="round" stroke-linejoin="round"/>
<defs>
<linearGradient id="paint0_linear_647_5645" x1="53.6165" y1="47.9185" x2="53.6165" y2="81.7699" gradientUnits="userSpaceOnUse">
<stop stop-color="#2EA6E2"/>
<stop offset="1" stop-color="#3956CB"/>
</linearGradient>
<linearGradient id="paint1_linear_647_5645" x1="53.6115" y1="0.00341797" x2="53.6115" y2="80.4773" gradientUnits="userSpaceOnUse">
<stop stop-color="#2EA6E2"/>
<stop offset="1" stop-color="#3956CB"/>
</linearGradient>
<linearGradient id="paint2_linear_647_5645" x1="53.6133" y1="0" x2="53.6133" y2="32.2902" gradientUnits="userSpaceOnUse">
<stop stop-color="#2EA6E2"/>
<stop offset="1" stop-color="#3956CB"/>
</linearGradient>
<linearGradient id="paint3_linear_647_5645" x1="92.0333" y1="55.9976" x2="92.0333" y2="93.1548" gradientUnits="userSpaceOnUse">
<stop stop-color="#2EA6E2"/>
<stop offset="1" stop-color="#3956CB"/>
</linearGradient>
<linearGradient id="paint4_linear_647_5645" x1="92.0379" y1="17.8896" x2="92.0379" y2="91.5244" gradientUnits="userSpaceOnUse">
<stop stop-color="#2EA6E2"/>
<stop offset="1" stop-color="#3956CB"/>
</linearGradient>
<linearGradient id="paint5_linear_647_5645" x1="92.0347" y1="17.8867" x2="92.0347" y2="52.8789" gradientUnits="userSpaceOnUse">
<stop stop-color="#2EA6E2"/>
<stop offset="1" stop-color="#3956CB"/>
</linearGradient>
<linearGradient id="paint6_linear_647_5645" x1="27.5268" y1="77.2271" x2="27.5268" y2="110.047" gradientUnits="userSpaceOnUse">
<stop stop-color="#2EA6E2"/>
<stop offset="1" stop-color="#3956CB"/>
</linearGradient>
<linearGradient id="paint7_linear_647_5645" x1="27.5303" y1="76.5757" x2="27.5303" y2="100.153" gradientUnits="userSpaceOnUse">
<stop stop-color="#2EA6E2"/>
<stop offset="1" stop-color="#3956CB"/>
</linearGradient>
</defs>
</svg>
