<svg width="95" height="121" viewBox="0 0 95 121" fill="none" xmlns="http://www.w3.org/2000/svg">
<path d="M39.4893 120.702L94.1099 89.1517L73.062 77L15.3943 110.284C15.3943 110.284 27.6009 117.267 31.632 119.655C34.3315 121.258 38.0078 121.155 39.4893 120.702Z" fill="#E2E7E8"/>
<path d="M92.431 85.6982L73.2559 74.5158L73.2157 74.4902H73.212V74.4939L18.6755 106.446L39.4052 120.73L94.3221 88.9721C94.3221 87.7686 93.4771 86.2981 92.431 85.6982Z" fill="url(#paint0_linear_647_6674)"/>
<path d="M37.5104 117.454L18.6719 106.432V108.612L39.4015 120.727C39.4052 119.524 38.5565 118.057 37.5104 117.454Z" fill="url(#paint1_linear_647_6674)"/>
<path d="M26.946 106.845L25.1134 107.925L23.2734 106.864L25.1024 105.799L26.946 106.845Z" fill="#DDE4E8"/>
<path d="M31.0976 104.428L29.265 105.499L27.4177 104.442L29.2504 103.367L31.0976 104.428Z" fill="#DDE4E8"/>
<path d="M33.2009 103.191L31.3719 104.266L29.5283 103.209L31.361 102.141L33.2009 103.191Z" fill="#DDE4E8"/>
<path d="M35.312 101.969L33.472 103.037L31.6357 101.991L33.4574 100.912L35.312 101.969Z" fill="#DDE4E8"/>
<path d="M39.8913 114.143L38.0514 115.208L36.2041 114.169L38.0404 113.086L39.8913 114.143Z" fill="#DDE4E8"/>
<path d="M41.9873 112.911L40.1473 113.979L38.3074 112.929L40.1364 111.861L41.9873 112.911Z" fill="#DDE4E8"/>
<path d="M44.0984 111.678L42.2621 112.749L40.4221 111.699L42.2511 110.624L44.0984 111.678Z" fill="#DDE4E8"/>
<path d="M37.4192 100.733L35.5829 101.802L33.7429 100.752L35.5719 99.6836L37.4192 100.733Z" fill="#DDE4E8"/>
<path d="M30.0808 108.605L28.2445 109.684L26.4009 108.627L28.2335 107.559L30.0808 108.605Z" fill="#DDE4E8"/>
<path d="M32.1877 107.368L30.3514 108.447L28.5005 107.39L30.3404 106.329L32.1877 107.368Z" fill="#DDE4E8"/>
<path d="M34.2873 106.147L32.4584 107.211L30.6111 106.165L32.4474 105.097L34.2873 106.147Z" fill="#DDE4E8"/>
<path d="M36.3835 104.914L34.5582 105.993L32.7109 104.932L34.5472 103.864L36.3835 104.914Z" fill="#DDE4E8"/>
<path d="M38.5456 103.667L36.713 104.728L34.8621 103.685L36.702 102.61L38.5456 103.667Z" fill="#DDE4E8"/>
<path d="M40.6413 102.437L38.816 103.502L36.9761 102.456L38.8051 101.376L40.6413 102.437Z" fill="#DDE4E8"/>
<path d="M42.7522 101.198L40.9269 102.273L39.0759 101.219L40.9159 100.144L42.7522 101.198Z" fill="#DDE4E8"/>
<path d="M44.8591 99.9719L43.0228 101.044L41.1865 99.9902L43.0118 98.9111L44.8591 99.9719Z" fill="#DDE4E8"/>
<path d="M46.937 98.7503L45.1043 99.8294L43.2571 98.7686L45.0861 97.7114L46.937 98.7503Z" fill="#DDE4E8"/>
<path d="M49.0403 97.521L47.1966 98.6001L45.364 97.543L47.1857 96.4785L49.0403 97.521Z" fill="#DDE4E8"/>
<path d="M51.1472 96.3037L49.3109 97.3719L47.4709 96.322L49.2999 95.2466L51.1472 96.3037Z" fill="#DDE4E8"/>
<path d="M53.2505 95.0708L51.4178 96.1463L49.5669 95.0855L51.4068 94.021L53.2505 95.0708Z" fill="#DDE4E8"/>
<path d="M55.4013 93.8123L53.5724 94.8804L51.7178 93.8379L53.5577 92.7588L55.4013 93.8123Z" fill="#DDE4E8"/>
<path d="M57.501 92.5838L55.6647 93.6482L53.832 92.6021L55.6537 91.5303L57.501 92.5838Z" fill="#DDE4E8"/>
<path d="M59.6079 91.3579L57.7862 92.4224L55.9243 91.3762L57.7752 90.2935L59.6079 91.3579Z" fill="#DDE4E8"/>
<path d="M61.7038 90.1248L59.8822 91.1929L58.0349 90.1431L59.8712 89.064L61.7038 90.1248Z" fill="#DDE4E8"/>
<path d="M41.6111 98.2825L39.7858 99.347L37.9495 98.3044L39.7748 97.2217L41.6111 98.2825Z" fill="#DDE4E8"/>
<path d="M43.7212 97.053L41.8922 98.1175L40.0376 97.0713L41.8812 95.9922L43.7212 97.053Z" fill="#DDE4E8"/>
<path d="M45.8252 95.8094L43.9925 96.8848L42.1562 95.8313L43.9816 94.7632L45.8252 95.8094Z" fill="#DDE4E8"/>
<path d="M47.935 94.5874L46.0914 95.6555L44.2515 94.6057L46.0804 93.5303L47.935 94.5874Z" fill="#DDE4E8"/>
<path d="M52.1824 92.1004L50.3534 93.1758L48.5098 92.1187L50.3424 91.0469L52.1824 92.1004Z" fill="#DDE4E8"/>
<path d="M54.2966 90.8714L52.4567 91.9358L50.613 90.8897L52.4457 89.8252L54.2966 90.8714Z" fill="#DDE4E8"/>
<path d="M56.3889 89.6416L54.5526 90.7171L52.7126 89.6636L54.5416 88.5918L56.3889 89.6416Z" fill="#DDE4E8"/>
<path d="M58.4995 88.4021L56.6632 89.4739L54.8159 88.4241L56.6522 87.3486L58.4995 88.4021Z" fill="#DDE4E8"/>
<path d="M65.1533 99.3765L63.328 100.441L61.4771 99.3948L63.317 98.3267L65.1533 99.3765Z" fill="#DDE4E8"/>
<path d="M67.2605 98.1463L65.4242 99.2107L63.5842 98.1682L65.4132 97.0928L67.2605 98.1463Z" fill="#DDE4E8"/>
<path d="M69.3711 96.9182L67.5311 97.9827L65.6875 96.9365L67.5201 95.8574L69.3711 96.9182Z" fill="#DDE4E8"/>
<path d="M71.467 95.6848L69.6344 96.7456L67.7908 95.7031L69.6198 94.6313L71.467 95.6848Z" fill="#DDE4E8"/>
<path d="M62.2126 86.2246L60.391 87.3001L58.54 86.2429L60.38 85.1748L62.2126 86.2246Z" fill="#DDE4E8"/>
<path d="M64.3196 84.9971L62.4869 86.0689L60.647 85.0154L62.476 83.9473L64.3196 84.9971Z" fill="#DDE4E8"/>
<path d="M66.4265 83.7676L64.5938 84.8357L62.7393 83.7896L64.5829 82.7104L66.4265 83.7676Z" fill="#DDE4E8"/>
<path d="M78.6733 83.9434L76.837 85.0188L74.9934 83.9617L76.826 82.8936L78.6733 83.9434Z" fill="#DDE4E8"/>
<path d="M80.7732 82.7139L78.9406 83.7893L77.1042 82.7358L78.9296 81.6641L80.7732 82.7139Z" fill="#DDE4E8"/>
<path d="M82.8801 81.4917L81.0401 82.5672L79.2039 81.5137L81.0292 80.4346L82.8801 81.4917Z" fill="#DDE4E8"/>
<path d="M80.8645 85.1978L79.0392 86.2732L77.1882 85.2197L79.0282 84.1553L80.8645 85.1978Z" fill="#DDE4E8"/>
<path d="M82.9751 83.9649L81.1424 85.0476L79.2915 83.9868L81.1315 82.9224L82.9751 83.9649Z" fill="#DDE4E8"/>
<path d="M85.0822 82.7434L83.2386 83.8079L81.395 82.769L83.2277 81.6899L85.0822 82.7434Z" fill="#DDE4E8"/>
<path d="M65.3108 88L63.4855 89.0718L61.6455 88.0183L63.4745 86.9575L65.3108 88Z" fill="#DDE4E8"/>
<path d="M67.4177 86.7637L65.596 87.8318L63.7415 86.7857L65.5814 85.7212L67.4177 86.7637Z" fill="#DDE4E8"/>
<path d="M69.5359 85.5379L67.6922 86.6023L65.8486 85.5562L67.6813 84.4917L69.5359 85.5379Z" fill="#DDE4E8"/>
<path d="M67.5166 89.25L65.6876 90.3218L63.8477 89.2683L65.6766 88.1929L67.5166 89.25Z" fill="#DDE4E8"/>
<path d="M69.6235 88.022L67.7836 89.0901L65.9509 88.0403L67.7726 86.9722L69.6235 88.022Z" fill="#DDE4E8"/>
<path d="M71.7343 86.8035L69.8944 87.8606L68.0508 86.8254L69.8834 85.7427L71.7343 86.8035Z" fill="#DDE4E8"/>
<path d="M83.0593 86.4561L81.2303 87.5279L79.3794 86.4744L81.2193 85.4062L83.0593 86.4561Z" fill="#DDE4E8"/>
<path d="M85.1699 85.22L83.33 86.2991L81.4937 85.2383L83.319 84.1665L85.1699 85.22Z" fill="#DDE4E8"/>
<path d="M89.4682 85.2452L87.6282 86.3133L83.5898 84.0125L85.4225 82.9443L89.4682 85.2452Z" fill="#DDE4E8"/>
<path d="M85.2578 87.6995L83.4215 88.7786L81.5742 87.7178L83.4105 86.6533L85.2578 87.6995Z" fill="#DDE4E8"/>
<path d="M87.3684 86.4744L85.5394 87.5425L83.6921 86.4964L85.5248 85.4282L87.3684 86.4744Z" fill="#DDE4E8"/>
<path d="M72.4036 80.377L70.5636 81.4414L68.7273 80.3989L70.5526 79.3125L72.4036 80.377Z" fill="#DDE4E8"/>
<path d="M74.5031 79.1438L72.6705 80.2046L70.8196 79.1658L72.6595 78.0903L74.5031 79.1438Z" fill="#DDE4E8"/>
<path d="M76.5991 77.9151L74.7775 78.9868L72.9338 77.9334L74.7665 76.8579L76.5991 77.9151Z" fill="#DDE4E8"/>
<path d="M74.2141 91.449L72.3814 92.5244L70.5378 91.4709L72.3705 90.3955L74.2141 91.449Z" fill="#DDE4E8"/>
<path d="M74.313 93.9361L72.4767 95.0078L70.6257 93.9544L72.4657 92.8862L74.313 93.9361Z" fill="#DDE4E8"/>
<path d="M76.4162 92.7117L74.5836 93.7762L72.7327 92.7263L74.5726 91.6582L76.4162 92.7117Z" fill="#DDE4E8"/>
<path d="M78.5161 91.471L76.6835 92.5464L74.8398 91.4893L76.6725 90.4248L78.5161 91.471Z" fill="#DDE4E8"/>
<path d="M33.1204 109.362L30.4354 110.927L28.5991 109.881L31.2767 108.319L33.1204 109.362Z" fill="#DDE4E8"/>
<path d="M35.239 108.133L33.4027 109.212L31.5444 108.155L33.388 107.087L35.239 108.133Z" fill="#DDE4E8"/>
<path d="M37.3276 106.9L35.4986 107.979L33.655 106.922L35.4877 105.861L37.3276 106.9Z" fill="#DDE4E8"/>
<path d="M39.4455 105.671L37.6129 106.747L35.7583 105.693L37.6019 104.629L39.4455 105.671Z" fill="#DDE4E8"/>
<path d="M41.5888 104.417L39.7599 105.485L37.9163 104.438L39.7489 103.367L41.5888 104.417Z" fill="#DDE4E8"/>
<path d="M43.6958 103.191L41.8668 104.266L40.0195 103.209L41.8558 102.13L43.6958 103.191Z" fill="#DDE4E8"/>
<path d="M45.8064 101.963L43.9737 103.023L42.1228 101.985L43.9591 100.902L45.8064 101.963Z" fill="#DDE4E8"/>
<path d="M47.9023 100.726L46.077 101.794L44.2334 100.748L46.066 99.6763L47.9023 100.726Z" fill="#DDE4E8"/>
<path d="M49.9765 99.5142L48.1402 100.593L46.304 99.5325L48.1293 98.4644L49.9765 99.5142Z" fill="#DDE4E8"/>
<path d="M52.0871 98.2859L50.2399 99.3614L48.3999 98.3079L50.2289 97.2397L52.0871 98.2859Z" fill="#DDE4E8"/>
<path d="M54.1831 97.0494L52.3541 98.1321L50.5178 97.0676L52.3395 96.0068L54.1831 97.0494Z" fill="#DDE4E8"/>
<path d="M56.2939 95.8316L54.454 96.8997L52.603 95.8535L54.443 94.7817L56.2939 95.8316Z" fill="#DDE4E8"/>
<path d="M58.4519 94.5725L56.6119 95.6407L54.761 94.5908L56.6009 93.5117L58.4519 94.5725Z" fill="#DDE4E8"/>
<path d="M60.541 93.3365L58.7267 94.4119L56.8757 93.3584L58.712 92.2793L60.541 93.3365Z" fill="#DDE4E8"/>
<path d="M63.9131 91.3755L60.8185 93.1752L58.9749 92.129L62.0695 90.3184L63.9131 91.3755Z" fill="#DDE4E8"/>
<path d="M36.2994 110.042L32.6341 112.182L30.7869 111.125L34.4631 108.978L36.2994 110.042Z" fill="#DDE4E8"/>
<path d="M38.4394 108.785L36.5995 109.864L34.7668 108.803L36.5922 107.746L38.4394 108.785Z" fill="#DDE4E8"/>
<path d="M40.5464 107.558L38.7137 108.634L36.8701 107.58L38.7028 106.505L40.5464 107.558Z" fill="#DDE4E8"/>
<path d="M42.6389 106.33L40.8099 107.405L38.9736 106.348L40.799 105.28L42.6389 106.33Z" fill="#DDE4E8"/>
<path d="M44.8042 105.075L42.9679 106.14L41.1243 105.093L42.9569 104.011L44.8042 105.075Z" fill="#DDE4E8"/>
<path d="M46.9075 103.843L45.0785 104.918L43.2349 103.861L45.0638 102.793L46.9075 103.843Z" fill="#DDE4E8"/>
<path d="M49.0107 102.614L47.1817 103.686L45.3345 102.636L47.1708 101.557L49.0107 102.614Z" fill="#DDE4E8"/>
<path d="M51.1213 101.385L49.2887 102.449L47.4341 101.406L49.2813 100.324L51.1213 101.385Z" fill="#DDE4E8"/>
<path d="M53.1845 100.173L51.3556 101.241L49.5046 100.195L51.3446 99.1235L53.1845 100.173Z" fill="#DDE4E8"/>
<path d="M55.2954 98.9397L53.4554 100.012L51.6191 98.958L53.4408 97.8862L55.2954 98.9397Z" fill="#DDE4E8"/>
<path d="M57.406 97.7122L55.566 98.7876L53.7224 97.7305L55.555 96.6587L57.406 97.7122Z" fill="#DDE4E8"/>
<path d="M59.5019 96.4832L57.6693 97.5513L55.8257 96.5051L57.6583 95.4297L59.5019 96.4832Z" fill="#DDE4E8"/>
<path d="M61.6565 95.2273L59.8165 96.2991L57.9802 95.2456L59.8019 94.1738L61.6565 95.2273Z" fill="#DDE4E8"/>
<path d="M66.108 92.6197L61.9928 95.0266L60.1345 93.9804L64.257 91.5698L66.108 92.6197Z" fill="#DDE4E8"/>
<path d="M39.6173 110.642L34.8656 113.419L33.022 112.365L37.77 109.596L39.6173 110.642Z" fill="#DDE4E8"/>
<path d="M62.6115 100.865L44.8192 111.257L42.9792 110.207L60.7569 99.811L62.6115 100.865Z" fill="#DDE4E8"/>
<path d="M41.6948 109.432L39.8585 110.507L38.0149 109.45L39.8439 108.378L41.6948 109.432Z" fill="#DDE4E8"/>
<path d="M43.7944 108.199L41.9581 109.274L40.1218 108.217L41.9471 107.145L43.7944 108.199Z" fill="#DDE4E8"/>
<path d="M45.9458 106.948L44.1131 108.009L42.2695 106.962L44.1022 105.891L45.9458 106.948Z" fill="#DDE4E8"/>
<path d="M48.0527 105.711L46.2237 106.783L44.3728 105.733L46.2128 104.658L48.0527 105.711Z" fill="#DDE4E8"/>
<path d="M50.1631 104.487L48.3231 105.555L46.4795 104.505L48.3121 103.426L50.1631 104.487Z" fill="#DDE4E8"/>
<path d="M52.2593 103.249L50.4266 104.324L48.594 103.267L50.4157 102.199L52.2593 103.249Z" fill="#DDE4E8"/>
<path d="M54.3332 102.043L52.5006 103.115L50.6643 102.061L52.486 100.986L54.3332 102.043Z" fill="#DDE4E8"/>
<path d="M56.4331 100.813L54.6078 101.885L52.7642 100.832L54.5968 99.7524L56.4331 100.813Z" fill="#DDE4E8"/>
<path d="M58.5473 99.5884L56.7037 100.649L54.8674 99.6067L56.6927 98.5239L58.5473 99.5884Z" fill="#DDE4E8"/>
<path d="M60.6545 98.3479L58.8146 99.4234L56.9709 98.3699L58.8036 97.3018L60.6545 98.3479Z" fill="#DDE4E8"/>
<path d="M62.8013 97.0933L60.9686 98.1578L59.125 97.1116L60.954 96.0435L62.8013 97.0933Z" fill="#DDE4E8"/>
<path d="M68.3321 93.8594L63.1085 96.9138L61.2539 95.8676L66.4811 92.8022L68.3321 93.8594Z" fill="#DDE4E8"/>
<path d="M26.9643 106.739L25.1317 107.818L23.2917 106.757L25.1207 105.693L26.9643 106.739Z" fill="#E2ECF2"/>
<path d="M26.7376 106.604L25.1354 107.544L23.5332 106.622L25.1281 105.697L26.7376 106.604Z" fill="white"/>
<path d="M31.1162 104.322L29.2799 105.393L27.4399 104.34L29.2726 103.261L31.1162 104.322Z" fill="#E2ECF2"/>
<path d="M30.8855 104.187L29.287 105.12L27.6812 104.205L29.276 103.265L30.8855 104.187Z" fill="white"/>
<path d="M33.2195 103.081L31.3868 104.16L29.5469 103.103L31.3759 102.035L33.2195 103.081Z" fill="#E2ECF2"/>
<path d="M32.9888 102.949L31.3939 103.89L29.7917 102.968L31.383 102.039L32.9888 102.949Z" fill="white"/>
<path d="M35.3303 101.867L33.4903 102.931L31.6541 101.882L33.4794 100.806L35.3303 101.867Z" fill="#E2ECF2"/>
<path d="M35.1031 101.732L33.4972 102.661L31.895 101.746L33.4862 100.806L35.1031 101.732Z" fill="white"/>
<path d="M39.9101 114.041L38.0702 115.101L36.2266 114.059L38.0592 112.983L39.9101 114.041Z" fill="#E2ECF2"/>
<path d="M39.6792 113.905L38.0734 114.831L36.4675 113.923L38.0661 112.983L39.6792 113.905Z" fill="white"/>
<path d="M42.0061 112.805L40.1661 113.873L38.3262 112.823L40.1552 111.755L42.0061 112.805Z" fill="#E2ECF2"/>
<path d="M41.7752 112.673L40.173 113.602L38.5671 112.688L40.162 111.755L41.7752 112.673Z" fill="white"/>
<path d="M44.1203 111.572L42.2804 112.647L40.4404 111.59L42.2694 110.519L44.1203 111.572Z" fill="#E2ECF2"/>
<path d="M43.8894 111.44L42.2836 112.373L40.6851 111.455L42.2763 110.519L43.8894 111.44Z" fill="white"/>
<path d="M37.4372 100.627L35.6046 101.699L33.761 100.649L35.59 99.5806L37.4372 100.627Z" fill="#E2ECF2"/>
<path d="M37.2027 100.495L35.6078 101.424L34.002 100.51L35.5968 99.5806L37.2027 100.495Z" fill="white"/>
<path d="M30.0989 108.499L28.2626 109.578L26.4189 108.521L28.2516 107.453L30.0989 108.499Z" fill="#E2ECF2"/>
<path d="M29.8687 108.367L28.2665 109.307L26.6606 108.385L28.2555 107.453L29.8687 108.367Z" fill="white"/>
<path d="M32.206 107.262L30.3734 108.341L28.5188 107.284L30.3588 106.223L32.206 107.262Z" fill="#E2ECF2"/>
<path d="M31.9756 107.127L30.3771 108.07L28.7639 107.145L30.3661 106.223L31.9756 107.127Z" fill="white"/>
<path d="M34.3061 106.037L32.4772 107.105L30.6299 106.063L32.4662 104.995L34.3061 106.037Z" fill="#E2ECF2"/>
<path d="M34.0752 105.905L32.484 106.835L30.8745 105.924L32.473 104.995L34.0752 105.905Z" fill="white"/>
<path d="M36.4016 104.808L34.5799 105.887L32.729 104.826L34.5653 103.758L36.4016 104.808Z" fill="#E2ECF2"/>
<path d="M36.1751 104.676L34.5839 105.616L32.9707 104.69L34.5729 103.761L36.1751 104.676Z" fill="white"/>
<path d="M38.5674 103.561L36.7311 104.622L34.8801 103.583L36.7201 102.504L38.5674 103.561Z" fill="#E2ECF2"/>
<path d="M38.3333 103.426L36.7384 104.351L35.1252 103.444L36.7274 102.504L38.3333 103.426Z" fill="white"/>
<path d="M40.6633 102.331L38.8343 103.399L36.9944 102.345L38.8234 101.27L40.6633 102.331Z" fill="#E2ECF2"/>
<path d="M40.4295 102.196L38.8419 103.125L37.2397 102.214L38.8346 101.274L40.4295 102.196Z" fill="white"/>
<path d="M42.7666 101.095L40.9449 102.167L39.094 101.114L40.9339 100.038L42.7666 101.095Z" fill="#E2ECF2"/>
<path d="M42.5401 100.96L40.9489 101.897L39.3394 100.975L40.9415 100.042L42.5401 100.96Z" fill="white"/>
<path d="M44.8772 99.8628L43.0409 100.938L41.2046 99.8848L43.0299 98.8057L44.8772 99.8628Z" fill="#E2ECF2"/>
<path d="M44.647 99.7304L43.0485 100.663L41.4463 99.7487L43.0375 98.8086L44.647 99.7304Z" fill="white"/>
<path d="M46.9516 98.648L45.1227 99.7234L43.2754 98.6626L45.1044 97.6055L46.9516 98.648Z" fill="#E2ECF2"/>
<path d="M46.7207 98.5126L45.1259 99.4527L43.5164 98.5309L45.1112 97.6055L46.7207 98.5126Z" fill="white"/>
<path d="M49.0586 97.4156L47.215 98.4947L45.3787 97.4375L47.204 96.373L49.0586 97.4156Z" fill="#E2ECF2"/>
<path d="M48.8277 97.2875L47.2218 98.224L45.6233 97.3022L47.2108 96.373L48.8277 97.2875Z" fill="white"/>
<path d="M51.1655 96.1973L49.3292 97.2617L47.4893 96.2156L49.3182 95.1401L51.1655 96.1973Z" fill="#E2ECF2"/>
<path d="M50.9353 96.0612L49.3331 96.9903L47.7346 96.0795L49.3258 95.1431L50.9353 96.0612Z" fill="white"/>
<path d="M53.269 94.9612L51.4364 96.0403L49.5854 94.9795L51.4254 93.915L53.269 94.9612Z" fill="#E2ECF2"/>
<path d="M53.0379 94.8288L51.4393 95.7689L49.8298 94.8434L51.432 93.918L53.0379 94.8288Z" fill="white"/>
<path d="M55.4231 93.71L53.5868 94.7745L51.7358 93.7319L53.5758 92.6528L55.4231 93.71Z" fill="#E2ECF2"/>
<path d="M55.1892 93.5746L53.5944 94.5001L51.9812 93.5929L53.5834 92.6528L55.1892 93.5746Z" fill="white"/>
<path d="M57.519 92.4763L55.6827 93.5408L53.8501 92.4983L55.6754 91.4229L57.519 92.4763Z" fill="#E2ECF2"/>
<path d="M57.2886 92.341L55.6901 93.2701L54.0916 92.3593L55.6828 91.4229L57.2886 92.341Z" fill="white"/>
<path d="M59.6259 91.252L57.8043 92.3164L55.9424 91.2703L57.7933 90.1875L59.6259 91.252Z" fill="#E2ECF2"/>
<path d="M59.3958 91.1164L57.8082 92.0418L56.1877 91.131L57.7972 90.1909L59.3958 91.1164Z" fill="white"/>
<path d="M61.7222 90.0186L59.9005 91.0867L58.0532 90.0405L59.8895 88.9614L61.7222 90.0186Z" fill="#E2ECF2"/>
<path d="M61.4954 89.8835L59.9042 90.8163L58.2983 89.9018L59.8969 88.9653L61.4954 89.8835Z" fill="white"/>
<path d="M41.6291 98.1802L39.8038 99.241L37.9675 98.1985L39.7929 97.1157L41.6291 98.1802Z" fill="#E2ECF2"/>
<path d="M41.3985 98.0448L39.8109 98.9703L38.2087 98.0595L39.7999 97.1157L41.3985 98.0448Z" fill="white"/>
<path d="M43.74 96.9439L41.911 98.0156L40.0564 96.9621L41.9 95.8867L43.74 96.9439Z" fill="#E2ECF2"/>
<path d="M43.5093 96.8085L41.9144 97.7413L40.3013 96.8268L41.9035 95.8867L43.5093 96.8085Z" fill="white"/>
<path d="M45.8469 95.7029L44.0106 96.7747L42.1743 95.7212L43.9996 94.6567L45.8469 95.7029Z" fill="#E2ECF2"/>
<path d="M45.616 95.572L44.0175 96.5047L42.4153 95.5866L44.0065 94.6611L45.616 95.572Z" fill="white"/>
<path d="M47.9575 94.4815L46.1102 95.5496L44.2739 94.4998L46.1029 93.4243L47.9575 94.4815Z" fill="#E2ECF2"/>
<path d="M47.7232 94.3459L46.1173 95.2787L44.5151 94.3642L46.1064 93.4277L47.7232 94.3459Z" fill="white"/>
<path d="M52.2041 91.9937L50.3751 93.0691L48.5278 92.012L50.3641 90.9438L52.2041 91.9937Z" fill="#E2ECF2"/>
<path d="M51.9739 91.8583L50.379 92.7984L48.7732 91.8766L50.3717 90.9438L51.9739 91.8583Z" fill="white"/>
<path d="M54.3147 90.7649L52.4747 91.8294L50.6348 90.7832L52.4637 89.7188L54.3147 90.7649Z" fill="#E2ECF2"/>
<path d="M54.0845 90.6298L52.4787 91.5589L50.8801 90.6481L52.4713 89.7227L54.0845 90.6298Z" fill="white"/>
<path d="M56.4072 89.5391L54.5709 90.6109L52.731 89.5537L54.5599 88.4893L56.4072 89.5391Z" fill="#E2ECF2"/>
<path d="M56.1768 89.4037L54.5783 90.3365L52.9724 89.4184L54.5673 88.4893L56.1768 89.4037Z" fill="white"/>
<path d="M58.5178 88.2993L56.6815 89.3711L54.8342 88.3176L56.6705 87.2422L58.5178 88.2993Z" fill="#E2ECF2"/>
<path d="M58.2876 88.1603L56.6891 89.1004L55.0796 88.1823L56.6781 87.2422L58.2876 88.1603Z" fill="white"/>
<path d="M65.1755 99.2701L63.3465 100.335L61.4956 99.2883L63.3356 98.2202L65.1755 99.2701Z" fill="#E2ECF2"/>
<path d="M64.9414 99.1345L63.3539 100.064L61.7407 99.1528L63.3429 98.2236L64.9414 99.1345Z" fill="white"/>
<path d="M67.2786 98.044L65.4423 99.1084L63.6023 98.0623L65.4276 96.9868L67.2786 98.044Z" fill="#E2ECF2"/>
<path d="M67.052 97.9089L65.4462 98.8343L63.8477 97.9235L65.4389 96.9907L67.052 97.9089Z" fill="white"/>
<path d="M69.3891 96.8086L67.5492 97.8804L65.7056 96.8269L67.5382 95.7515L69.3891 96.8086Z" fill="#E2ECF2"/>
<path d="M69.1553 96.6769L67.5568 97.6061L65.9473 96.6916L67.5458 95.7515L69.1553 96.6769Z" fill="white"/>
<path d="M71.489 95.5784L69.649 96.6429L67.8091 95.5967L69.6417 94.5249L71.489 95.5784Z" fill="#E2ECF2"/>
<path d="M71.2549 95.443L69.6564 96.3722L68.0542 95.4613L69.6491 94.5249L71.2549 95.443Z" fill="white"/>
<path d="M62.2307 86.1197L60.409 87.1988L58.5581 86.1379L60.3981 85.0698L62.2307 86.1197Z" fill="#E2ECF2"/>
<path d="M62.0003 85.9843L60.4127 86.9244L58.8032 86.0026L60.4054 85.0698L62.0003 85.9843Z" fill="white"/>
<path d="M64.3413 84.8902L62.505 85.962L60.665 84.9121L62.494 83.8403L64.3413 84.8902Z" fill="#E2ECF2"/>
<path d="M64.1111 84.7551L62.5089 85.6879L60.9067 84.7734L62.5016 83.8442L64.1111 84.7551Z" fill="white"/>
<path d="M66.4448 83.6614L64.6122 84.7295L62.7576 83.6834L64.6012 82.6079L66.4448 83.6614Z" fill="#E2ECF2"/>
<path d="M66.2144 83.5297L64.6158 84.4625L63.0027 83.548L64.6085 82.6079L66.2144 83.5297Z" fill="white"/>
<path d="M78.6916 83.833L76.8553 84.9122L75.0117 83.855L76.8444 82.7905L78.6916 83.833Z" fill="#E2ECF2"/>
<path d="M78.4612 83.7014L76.8627 84.6415L75.2568 83.7197L76.8517 82.7905L78.4612 83.7014Z" fill="white"/>
<path d="M80.7912 82.6079L78.9586 83.6834L77.1223 82.6262L78.9476 81.5581L80.7912 82.6079Z" fill="#E2ECF2"/>
<path d="M80.5611 82.4763L78.9662 83.4127L77.364 82.4909L78.9552 81.5581L80.5611 82.4763Z" fill="white"/>
<path d="M82.8945 81.3889L81.0619 82.457L79.2219 81.4072L81.0472 80.3281L82.8945 81.3889Z" fill="#E2ECF2"/>
<path d="M82.668 81.2585L81.0658 82.1876L79.4673 81.2694L81.0548 80.333L82.668 81.2585Z" fill="white"/>
<path d="M80.8826 85.0913L79.0572 86.1668L77.2063 85.1133L79.0463 84.0488L80.8826 85.0913Z" fill="#E2ECF2"/>
<path d="M80.6524 84.9597L79.0648 85.8961L77.4517 84.978L79.0575 84.0488L80.6524 84.9597Z" fill="white"/>
<path d="M82.9934 83.8589L81.1607 84.938L79.3135 83.8809L81.1461 82.8164L82.9934 83.8589Z" fill="#E2ECF2"/>
<path d="M82.7632 83.7265L81.1647 84.6666L79.5588 83.7448L81.1537 82.8193L82.7632 83.7265Z" fill="white"/>
<path d="M85.1003 82.6375L83.2567 83.7019L81.4131 82.6594L83.2457 81.584L85.1003 82.6375Z" fill="#E2ECF2"/>
<path d="M84.8665 82.5058L83.2643 83.4312L81.6584 82.5241L83.2533 81.584L84.8665 82.5058Z" fill="white"/>
<path d="M65.3328 87.8931L63.5038 88.9649L61.6638 87.9114L63.4928 86.8506L65.3328 87.8931Z" fill="#E2ECF2"/>
<path d="M65.0989 87.7578L63.5114 88.6942L61.9092 87.776L63.5004 86.8506L65.0989 87.7578Z" fill="white"/>
<path d="M67.4326 86.6614L65.6146 87.7259L63.76 86.6797L65.6 85.6152L67.4326 86.6614Z" fill="#E2ECF2"/>
<path d="M67.2051 86.5261L65.6176 87.4515L64.0044 86.5444L65.6066 85.6152L67.2051 86.5261Z" fill="white"/>
<path d="M69.5539 85.4314L67.7067 86.4996L65.8667 85.4497L67.6957 84.3853L69.5539 85.4314Z" fill="#E2ECF2"/>
<path d="M69.3201 85.2963L67.7142 86.2291L66.1121 85.3146L67.7069 84.3892L69.3201 85.2963Z" fill="white"/>
<path d="M67.5312 89.1445L65.7059 90.22L63.866 89.1628L65.6913 88.0874L67.5312 89.1445Z" fill="#E2ECF2"/>
<path d="M67.3045 89.0092L65.7096 89.9456L64.1074 89.0275L65.7023 88.0874L67.3045 89.0092Z" fill="white"/>
<path d="M69.6418 87.916L67.8019 88.9878L65.9692 87.9343L67.7909 86.8662L69.6418 87.916Z" fill="#E2ECF2"/>
<path d="M69.4114 87.7836L67.8092 88.7128L66.2144 87.7983L67.7982 86.8691L69.4114 87.7836Z" fill="white"/>
<path d="M71.7488 86.6975L69.9088 87.7547L68.0688 86.7195L69.8978 85.6367L71.7488 86.6975Z" fill="#E2ECF2"/>
<path d="M71.5183 86.5656L69.9162 87.4801L68.314 86.5802L69.9052 85.6401L71.5183 86.5656Z" fill="white"/>
<path d="M83.0776 86.3496L81.2486 87.4214L79.3977 86.3679L81.2377 85.2998L83.0776 86.3496Z" fill="#E2ECF2"/>
<path d="M82.8467 86.2143L81.2555 87.1471L79.6423 86.2326L81.2445 85.2998L82.8467 86.2143Z" fill="white"/>
<path d="M85.1882 85.114L83.3483 86.1931L81.5156 85.1323L83.3373 84.0605L85.1882 85.114Z" fill="#E2ECF2"/>
<path d="M84.958 84.9823L83.3558 85.9224L81.7537 84.997L83.3485 84.0605L84.958 84.9823Z" fill="white"/>
<path d="M89.4863 85.1392L87.65 86.2074L83.6079 83.9065L85.4442 82.8384L89.4863 85.1392Z" fill="#E2ECF2"/>
<path d="M89.2561 85.0075L87.6539 85.9403L83.8533 83.7675L85.4518 82.8384L89.2561 85.0075Z" fill="white"/>
<path d="M85.2761 87.5938L83.4398 88.6729L81.5925 87.6157L83.4288 86.5439L85.2761 87.5938Z" fill="#E2ECF2"/>
<path d="M85.045 87.4621L83.4464 88.4022L81.8369 87.4767L83.4391 86.5513L85.045 87.4621Z" fill="white"/>
<path d="M76.57 85.157L74.7374 86.2361L72.8901 85.1753L74.7264 84.1108L76.57 85.157Z" fill="#DDE4E8"/>
<path d="M78.7649 86.4126L76.9359 87.4881L75.0886 86.4346L76.9286 85.3701L78.7649 86.4126Z" fill="#DDE4E8"/>
<path d="M80.956 87.6709L79.127 88.7391L77.2761 87.6929L79.1161 86.6211L80.956 87.6709Z" fill="#DDE4E8"/>
<path d="M83.1543 88.9143L81.318 89.9934L79.4707 88.9363L81.307 87.8682L83.1543 88.9143Z" fill="#DDE4E8"/>
<path d="M76.5881 85.0472L74.7555 86.1262L72.9082 85.0691L74.7408 84.001L76.5881 85.0472Z" fill="#E2ECF2"/>
<path d="M76.3579 84.9162L74.7594 85.8563L73.1536 84.9345L74.7521 84.0054L76.3579 84.9162Z" fill="white"/>
<path d="M76.5593 82.7359L74.7267 83.815L72.8831 82.7542L74.7157 81.6934L76.5593 82.7359Z" fill="#DDE4E8"/>
<path d="M78.6623 81.5071L76.8297 82.5862L74.9934 81.5291L76.8187 80.4609L78.6623 81.5071Z" fill="#DDE4E8"/>
<path d="M80.7656 80.2888L78.9293 81.357L77.093 80.3071L78.9183 79.228L80.7656 80.2888Z" fill="#DDE4E8"/>
<path d="M76.581 82.6299L74.7447 83.7127L72.9011 82.6519L74.7338 81.5874L76.581 82.6299Z" fill="#E2ECF2"/>
<path d="M76.3467 82.4982L74.7518 83.4347L73.146 82.5165L74.7409 81.5874L76.3467 82.4982Z" fill="white"/>
<path d="M78.677 81.4043L76.848 82.4798L75.0081 81.4226L76.837 80.3545L78.677 81.4043Z" fill="#E2ECF2"/>
<path d="M78.4461 81.2683L76.8512 82.2083L75.2527 81.2865L76.8439 80.3574L78.4461 81.2683Z" fill="white"/>
<path d="M80.7839 80.1826L78.9476 81.2544L77.115 80.2046L78.9367 79.1255L80.7839 80.1826Z" fill="#E2ECF2"/>
<path d="M80.5567 80.0475L78.9545 80.984L77.356 80.0658L78.9399 79.1294L80.5567 80.0475Z" fill="white"/>
<path d="M74.4597 83.9502L72.627 85.0293L70.7798 83.9722L72.6161 82.9077L74.4597 83.9502Z" fill="#DDE4E8"/>
<path d="M74.4778 83.8443L72.6451 84.9234L70.7979 83.8662L72.6341 82.8018L74.4778 83.8443Z" fill="#E2ECF2"/>
<path d="M74.2468 83.7126L72.6483 84.649L71.0425 83.7272L72.6373 82.8018L74.2468 83.7126Z" fill="white"/>
<path d="M78.7793 86.3062L76.9576 87.3816L75.103 86.3281L76.943 85.2637L78.7793 86.3062Z" fill="#E2ECF2"/>
<path d="M78.5491 86.1745L76.9615 87.1109L75.3484 86.1928L76.9506 85.2637L78.5491 86.1745Z" fill="white"/>
<path d="M80.9743 87.5645L79.1454 88.6326L77.2944 87.5828L79.1344 86.5146L80.9743 87.5645Z" fill="#E2ECF2"/>
<path d="M80.7432 87.4289L79.152 88.3653L77.5388 87.4472L79.141 86.5181L80.7432 87.4289Z" fill="white"/>
<path d="M83.1728 88.8116L81.3402 89.887L79.4893 88.8298L81.3292 87.7617L83.1728 88.8116Z" fill="#E2ECF2"/>
<path d="M82.9417 88.6762L81.3431 89.6163L79.7336 88.6945L81.3358 87.7617L82.9417 88.6762Z" fill="white"/>
<path d="M87.3867 86.3716L85.5541 87.4397L83.7104 86.3899L85.5431 85.3218L87.3867 86.3716Z" fill="#E2ECF2"/>
<path d="M87.1526 86.2363L85.5614 87.1654L83.9556 86.2546L85.5504 85.3218L87.1526 86.2363Z" fill="white"/>
<path d="M72.4216 80.2708L70.5853 81.3352L68.7454 80.2927L70.5707 79.21L72.4216 80.2708Z" fill="#E2ECF2"/>
<path d="M72.1878 80.1357L70.5892 81.0648L68.9871 80.154L70.5783 79.2139L72.1878 80.1357Z" fill="white"/>
<path d="M74.5214 79.0371L72.6888 80.098L70.8379 79.0554L72.6778 77.9873L74.5214 79.0371Z" fill="#E2ECF2"/>
<path d="M74.291 78.9055L72.6925 79.8273L71.0793 78.9201L72.6852 77.9873L74.291 78.9055Z" fill="white"/>
<path d="M76.6172 77.812L74.7955 78.8802L72.9519 77.8303L74.7845 76.7549L76.6172 77.812Z" fill="#E2ECF2"/>
<path d="M76.387 77.6767L74.8031 78.6058L73.1973 77.6913L74.7921 76.7549L76.387 77.6767Z" fill="white"/>
<path d="M74.2324 91.3467L72.3998 92.4185L70.5562 91.365L72.3888 90.2896L74.2324 91.3467Z" fill="#E2ECF2"/>
<path d="M74.0022 91.2116L72.4037 92.148L70.8015 91.2299L72.3964 90.2935L74.0022 91.2116Z" fill="white"/>
<path d="M74.3313 93.8313L72.495 94.9031L70.6477 93.8496L72.484 92.7778L74.3313 93.8313Z" fill="#E2ECF2"/>
<path d="M74.1008 93.695L72.4987 94.6314L70.8892 93.7133L72.4913 92.7842L74.1008 93.695Z" fill="white"/>
<path d="M76.4345 92.6014L74.6019 93.6695L72.751 92.6233L74.5909 91.5552L76.4345 92.6014Z" fill="#E2ECF2"/>
<path d="M76.2044 92.466L74.6095 93.3988L72.9963 92.4843L74.5985 91.5552L76.2044 92.466Z" fill="white"/>
<path d="M78.5378 91.3645L76.7015 92.4436L74.8579 91.3828L76.6906 90.3184L78.5378 91.3645Z" fill="#E2ECF2"/>
<path d="M78.3076 91.2292L76.7091 92.1693L75.0996 91.2475L76.6981 90.3184L78.3076 91.2292Z" fill="white"/>
<path d="M33.1392 109.256L30.4542 110.822L28.6216 109.775L31.2955 108.213L33.1392 109.256Z" fill="#E2ECF2"/>
<path d="M32.9085 109.124L30.4613 110.551L28.8628 109.64L31.3027 108.213L32.9085 109.124Z" fill="white"/>
<path d="M35.257 108.027L33.4207 109.106L31.5625 108.045L33.4061 106.981L35.257 108.027Z" fill="#E2ECF2"/>
<path d="M35.0261 107.895L33.4239 108.836L31.8071 107.91L33.413 106.981L35.0261 107.895Z" fill="white"/>
<path d="M37.3457 106.794L35.5167 107.873L33.6731 106.812L35.5057 105.759L37.3457 106.794Z" fill="#E2ECF2"/>
<path d="M37.115 106.662L35.5238 107.602L33.918 106.681L35.5128 105.759L37.115 106.662Z" fill="white"/>
<path d="M39.4638 105.569L37.6312 106.645L35.7766 105.587L37.6202 104.523L39.4638 105.569Z" fill="#E2ECF2"/>
<path d="M39.2329 105.434L37.6381 106.37L36.0212 105.452L37.6271 104.526L39.2329 105.434Z" fill="white"/>
<path d="M41.6069 104.314L39.7779 105.379L37.9343 104.333L39.7633 103.257L41.6069 104.314Z" fill="#E2ECF2"/>
<path d="M41.3765 104.179L39.7816 105.104L38.1794 104.194L39.7743 103.261L41.3765 104.179Z" fill="white"/>
<path d="M43.7138 103.085L41.8849 104.16L40.0376 103.103L41.8739 102.024L43.7138 103.085Z" fill="#E2ECF2"/>
<path d="M43.4873 102.949L41.8925 103.889L40.2793 102.967L41.8815 102.031L43.4873 102.949Z" fill="white"/>
<path d="M45.8244 101.857L43.9918 102.918L42.1409 101.879L43.9808 100.796L45.8244 101.857Z" fill="#E2ECF2"/>
<path d="M45.5945 101.725L43.996 102.643L42.3828 101.74L43.9887 100.796L45.5945 101.725Z" fill="white"/>
<path d="M47.9204 100.62L46.0951 101.692L44.2515 100.642L46.0841 99.5737L47.9204 100.62Z" fill="#E2ECF2"/>
<path d="M47.6902 100.488L46.1027 101.417L44.4932 100.507L46.0917 99.5737L47.6902 100.488Z" fill="white"/>
<path d="M49.9985 99.4119L48.1586 100.484L46.3223 99.4302L48.1476 98.3584L49.9985 99.4119Z" fill="#E2ECF2"/>
<path d="M49.7644 99.2765L48.1659 100.217L46.5637 99.2912L48.1549 98.3584L49.7644 99.2765Z" fill="white"/>
<path d="M52.1091 98.1802L50.2582 99.2593L48.4182 98.1985L50.2472 97.1377L52.1091 98.1802Z" fill="#E2ECF2"/>
<path d="M51.8753 98.0485L50.2658 98.9886L48.6636 98.0668L50.2548 97.1377L51.8753 98.0485Z" fill="white"/>
<path d="M54.2014 96.9434L52.3724 98.0262L50.5361 96.9617L52.3615 95.9009L54.2014 96.9434Z" fill="#E2ECF2"/>
<path d="M53.9747 96.811L52.3761 97.7547L50.7776 96.8256L52.3688 95.9038L53.9747 96.811Z" fill="white"/>
<path d="M56.3122 95.7256L54.4723 96.7937L52.625 95.7439L54.4613 94.6758L56.3122 95.7256Z" fill="#E2ECF2"/>
<path d="M56.0818 95.5903L54.4796 96.5231L52.8665 95.6086L54.4686 94.6758L56.0818 95.5903Z" fill="white"/>
<path d="M58.4704 94.4661L56.6305 95.5342L54.7832 94.4844L56.6195 93.4053L58.4704 94.4661Z" fill="#E2ECF2"/>
<path d="M58.2359 94.3307L56.6337 95.2599L55.0242 94.349L56.6264 93.4053L58.2359 94.3307Z" fill="white"/>
<path d="M60.563 93.2342L58.745 94.3059L56.894 93.2524L58.7303 92.1733L60.563 93.2342Z" fill="#E2ECF2"/>
<path d="M60.3357 93.0988L58.7482 94.0352L57.1387 93.1171L58.7372 92.1733L60.3357 93.0988Z" fill="white"/>
<path d="M63.9319 91.2695L60.8373 93.0693L58.9973 92.0231L62.0883 90.2124L63.9319 91.2695Z" fill="#E2ECF2"/>
<path d="M63.701 91.1342L60.8441 92.7986L59.2383 91.8877L62.0988 90.2124L63.701 91.1342Z" fill="white"/>
<path d="M36.3175 109.937L32.6522 112.077L30.8049 111.02L34.4812 108.873L36.3175 109.937Z" fill="#E2ECF2"/>
<path d="M36.091 109.8L32.6598 111.805L31.0503 110.883L34.4888 108.875L36.091 109.8Z" fill="white"/>
<path d="M38.4577 108.679L36.6178 109.754L34.7852 108.697L36.6068 107.64L38.4577 108.679Z" fill="#E2ECF2"/>
<path d="M38.2237 108.547L36.6251 109.483L35.0303 108.561L36.6142 107.64L38.2237 108.547Z" fill="white"/>
<path d="M40.5647 107.453L38.732 108.529L36.8921 107.475L38.7211 106.403L40.5647 107.453Z" fill="#E2ECF2"/>
<path d="M40.3343 107.321L38.7357 108.258L37.1335 107.34L38.7284 106.403L40.3343 107.321Z" fill="white"/>
<path d="M42.6606 106.223L40.828 107.299L38.9917 106.245L40.817 105.173L42.6606 106.223Z" fill="#E2ECF2"/>
<path d="M42.4305 106.088L40.8356 107.028L39.2371 106.106L40.8246 105.173L42.4305 106.088Z" fill="white"/>
<path d="M44.8222 104.969L42.9859 106.033L41.1423 104.987L42.9713 103.908L44.8222 104.969Z" fill="#E2ECF2"/>
<path d="M44.5918 104.834L42.9896 105.763L41.3875 104.852L42.9823 103.908L44.5918 104.834Z" fill="white"/>
<path d="M46.926 103.737L45.0934 104.816L43.2534 103.755L45.0824 102.687L46.926 103.737Z" fill="#E2ECF2"/>
<path d="M46.6953 103.604L45.1005 104.541L43.4983 103.619L45.0895 102.69L46.6953 103.604Z" fill="white"/>
<path d="M49.0295 102.507L47.2005 103.579L45.3569 102.529L47.1896 101.45L49.0295 102.507Z" fill="#E2ECF2"/>
<path d="M48.7986 102.376L47.2074 103.305L45.5979 102.39L47.1964 101.45L48.7986 102.376Z" fill="white"/>
<path d="M51.1364 101.279L49.3111 102.343L47.4565 101.301L49.2965 100.218L51.1364 101.279Z" fill="#E2ECF2"/>
<path d="M50.9092 101.146L49.3143 102.072L47.6975 101.161L49.307 100.221L50.9092 101.146Z" fill="white"/>
<path d="M53.2065 100.067L51.3739 101.135L49.5266 100.089L51.3629 99.0171L53.2065 100.067Z" fill="#E2ECF2"/>
<path d="M52.9727 99.9352L51.3815 100.864L49.7683 99.9535L51.3705 99.0171L52.9727 99.9352Z" fill="white"/>
<path d="M55.3135 98.8313L53.4735 99.9068L51.6372 98.8533L53.4589 97.7852L55.3135 98.8313Z" fill="#E2ECF2"/>
<path d="M55.083 98.6996L53.4772 99.6361L51.8787 98.7179L53.4662 97.7852L55.083 98.6996Z" fill="white"/>
<path d="M57.424 97.6055L55.5878 98.6809L53.7405 97.6238L55.5731 96.5557L57.424 97.6055Z" fill="#E2ECF2"/>
<path d="M57.1936 97.4702L55.5914 98.4103L53.9856 97.4884L55.5805 96.5557L57.1936 97.4702Z" fill="white"/>
<path d="M59.52 96.3767L57.6837 97.4449L55.8438 96.395L57.6764 95.3232L59.52 96.3767Z" fill="#E2ECF2"/>
<path d="M59.2898 96.2402L57.6913 97.1729L56.0891 96.2585L57.684 95.3257L59.2898 96.2402Z" fill="white"/>
<path d="M61.6709 95.1214L59.8346 96.1931L57.9983 95.1397L59.8236 94.0679L61.6709 95.1214Z" fill="#E2ECF2"/>
<path d="M61.4402 94.986L59.8417 95.9188L58.2395 95.0006L59.8307 94.0679L61.4402 94.986Z" fill="white"/>
<path d="M66.1263 92.5176L62.0111 94.9209L60.1528 93.8747L64.2754 91.4604L66.1263 92.5176Z" fill="#E2ECF2"/>
<path d="M65.8961 92.382L62.0187 94.65L60.3982 93.7355L64.2829 91.4639L65.8961 92.382Z" fill="white"/>
<path d="M39.6356 110.536L34.8839 113.309L33.0439 112.259L37.792 109.486L39.6356 110.536Z" fill="#E2ECF2"/>
<path d="M39.4054 110.401L34.8915 113.042L33.2856 112.127L37.7996 109.486L39.4054 110.401Z" fill="white"/>
<path d="M62.6296 100.758L44.8373 111.151L42.9973 110.101L60.775 99.7085L62.6296 100.758Z" fill="#E2ECF2"/>
<path d="M62.3987 100.623L44.8441 110.88L43.2383 109.965L60.7819 99.7085L62.3987 100.623Z" fill="white"/>
<path d="M41.7131 109.326L39.8732 110.401L38.0332 109.344L39.8658 108.272L41.7131 109.326Z" fill="#E2ECF2"/>
<path d="M41.4827 109.19L39.8805 110.13L38.2783 109.205L39.8732 108.275L41.4827 109.19Z" fill="white"/>
<path d="M43.8132 108.093L41.9769 109.168L40.1406 108.111L41.9659 107.039L43.8132 108.093Z" fill="#E2ECF2"/>
<path d="M43.5823 107.962L41.9801 108.894L40.3816 107.976L41.9728 107.043L43.5823 107.962Z" fill="white"/>
<path d="M45.9638 106.838L44.1349 107.902L42.2876 106.856L44.1202 105.784L45.9638 106.838Z" fill="#E2ECF2"/>
<path d="M45.7334 106.706L44.1386 107.631L42.5327 106.721L44.1276 105.784L45.7334 106.706Z" fill="white"/>
<path d="M48.0708 105.606L46.2418 106.674L44.3909 105.628L46.2308 104.552L48.0708 105.606Z" fill="#E2ECF2"/>
<path d="M47.8404 105.474L46.2455 106.403L44.636 105.488L46.2382 104.556L47.8404 105.474Z" fill="white"/>
<path d="M50.1814 104.38L48.3414 105.449L46.4978 104.399L48.3341 103.323L50.1814 104.38Z" fill="#E2ECF2"/>
<path d="M49.951 104.245L48.3488 105.174L46.7393 104.263L48.3378 103.323L49.951 104.245Z" fill="white"/>
<path d="M52.2773 103.143L50.4447 104.219L48.6121 103.161L50.4337 102.093L52.2773 103.143Z" fill="#E2ECF2"/>
<path d="M52.0472 103.008L50.4523 103.948L48.8538 103.026L50.4413 102.097L52.0472 103.008Z" fill="white"/>
<path d="M54.3515 101.937L52.5152 103.008L50.6826 101.955L52.5043 100.879L54.3515 101.937Z" fill="#E2ECF2"/>
<path d="M54.1209 101.801L52.5224 102.738L50.9238 101.816L52.5114 100.883L54.1209 101.801Z" fill="white"/>
<path d="M56.4512 100.707L54.6258 101.779L52.7822 100.725L54.6149 99.646L56.4512 100.707Z" fill="#E2ECF2"/>
<path d="M56.2205 100.571L54.6329 101.508L53.0234 100.59L54.622 99.646L56.2205 100.571Z" fill="white"/>
<path d="M58.5654 99.4824L56.7218 100.543L54.8892 99.5007L56.7108 98.418L58.5654 99.4824Z" fill="#E2ECF2"/>
<path d="M58.3347 99.3471L56.7289 100.273L55.1304 99.3617L56.7216 98.418L58.3347 99.3471Z" fill="white"/>
<path d="M60.6726 98.2417L58.8326 99.3172L56.989 98.2637L58.8217 97.1919L60.6726 98.2417Z" fill="#E2ECF2"/>
<path d="M60.4417 98.111L58.8395 99.0475L57.23 98.1293L58.8285 97.2002L60.4417 98.111Z" fill="white"/>
<path d="M62.8193 96.9868L60.9867 98.0513L59.1431 97.0051L60.9757 95.937L62.8193 96.9868Z" fill="#E2ECF2"/>
<path d="M62.5891 96.8515L60.9906 97.7806L59.3884 96.8698L60.9833 95.937L62.5891 96.8515Z" fill="white"/>
<path d="M68.3506 93.7529L63.127 96.8073L61.2725 95.7648L66.4997 92.6958L68.3506 93.7529Z" fill="#E2ECF2"/>
<path d="M68.1197 93.6176L63.1339 96.5367L61.5171 95.6258L66.5065 92.6958L68.1197 93.6176Z" fill="white"/>
<path d="M43.1437 75.8182C47.4748 78.3092 47.4748 82.3586 43.1437 84.8497L39.8223 86.7774C35.4986 89.2721 28.4827 89.2721 24.1772 86.7774C19.8608 84.279 19.8608 80.2406 24.1772 77.7496L27.5096 75.8218C31.8407 73.3198 38.8347 73.3198 43.1437 75.8182Z" fill="#E2E7E8"/>
<path d="M47.2114 78.5662H47.065C46.7139 77.2749 45.6896 76.0348 43.9631 75.0399C39.654 72.5525 32.66 72.5525 28.329 75.0399L24.9966 76.9749C23.3029 77.9516 22.2824 79.1697 21.9202 80.439H21.7593V81.5218H21.7666C21.7812 83.1459 22.8567 84.77 25.0002 86.0064C29.3056 88.5012 36.3253 88.5012 40.649 86.0064L43.9667 84.086C46.2018 82.7948 47.2735 81.0901 47.2004 79.4038H47.215V78.5662H47.2114Z" fill="url(#paint2_linear_647_6674)"/>
<path d="M43.9589 73.9752C48.29 76.4663 48.29 80.5156 43.9589 83.0067L40.6412 84.9344C36.3175 87.4328 29.3015 87.4328 24.9924 84.9344C20.676 82.4361 20.676 78.3977 24.9924 75.9066L28.3248 73.9789C32.6558 71.4732 39.6535 71.4732 43.9589 73.9752Z" fill="url(#paint3_linear_647_6674)"/>
<path d="M30.1723 81.009L38.6807 76.1V56.4678L30.1723 61.3841L29.2175 69.4499L30.1723 81.009Z" fill="#C4CED6"/>
<path d="M30.154 81.0086L28.4128 79.9916V60.3594L30.154 61.3763V81.0086Z" fill="#AFBBC4"/>
<path d="M64.3925 47.1986L1.46469 41.1923L0.678223 35.8882L63.1744 0L64.3925 0.695013V47.1986Z" fill="#3672D4"/>
<path d="M2.24731 83.0545L64.3924 47.1809V0.68457L2.24731 36.5618V83.0545Z" fill="url(#paint4_linear_647_6674)"/>
<path d="M6.12451 76.9123L61.667 44.8467L61.6377 7.19531L6.29278 39.2573L6.12451 76.9123Z" fill="#BEC7D0"/>
<path d="M6.12451 75.8702L60.1233 44.6934V8.17969L6.12451 39.3528V75.8702Z" fill="url(#paint5_linear_647_6674)"/>
<path d="M0.678223 35.8887L2.24749 36.5617V83.0544L0.839174 82.3484L0.678223 35.8887Z" fill="#8AC6F9"/>
<mask id="mask0_647_6674" style="mask-type:luminance" maskUnits="userSpaceOnUse" x="6" y="8" width="55" height="68">
<path d="M6.12451 75.8702L37.3196 57.8584L44.7196 64.5305L54.2194 61.0408L53.0269 48.7903L60.1233 44.6934V8.17969L6.12451 39.3528V75.8702Z" fill="white"/>
</mask>
<g mask="url(#mask0_647_6674)">
<path d="M45.4402 27.4819L59.0551 34.2309V44.0525L49.7749 49.4114L42.1773 47.2971L26.5103 38.9277L45.4402 27.4819Z" fill="#E2E7E8"/>
<path d="M34.7371 7.59379L52.7818 18.0409L58.3383 14.8292L40.2679 4.38942L40.6191 4.18457L59.0552 14.8292L52.7818 18.4506L34.342 7.80595L34.7371 7.59379Z" fill="#656565"/>
<path d="M35.4026 8.00005L52.7815 18.0412L58.338 14.8295L40.2677 4.38965H40.264V5.32974L35.4026 8.00005Z" fill="#252728"/>
<path d="M52.7782 47.6711L34.3457 37.0301V7.80664L52.7782 18.4513L53.1988 31.5358L52.7782 47.6711Z" fill="#252728"/>
<path d="M52.7778 47.6705L59.0549 44.0491V14.8257L52.7778 18.4507V47.6705Z" fill="url(#paint6_linear_647_6674)"/>
<path d="M35.4026 8.00039L52.7815 18.0415L57.5479 15.287L40.264 5.33008L35.4026 8.00039Z" fill="#FCFBFA"/>
<path d="M54.2192 19.9763L57.6138 18.0156V30.9465L54.2192 32.9035V19.9763Z" fill="#FCFBFA"/>
<path d="M54.7314 29.2167L57.0981 27.8486V28.0059L54.7314 29.374V29.2167Z" fill="#BBBCBB"/>
<path d="M54.7314 28.5253L57.0981 27.1572V27.3145L54.7314 28.6826V28.5253Z" fill="#BBBCBB"/>
<path d="M54.7314 27.8329L57.0981 26.4648V26.6221L54.7314 27.9902V27.8329Z" fill="#BBBCBB"/>
<path d="M54.7314 27.1427L57.0981 25.7783V25.9356L54.7314 27.3V27.1427Z" fill="#BBBCBB"/>
<path d="M54.7314 26.4508L57.0981 25.0864V25.2401L54.7314 26.6081V26.4508Z" fill="#BBBCBB"/>
<path d="M54.7314 25.7594L57.0981 24.395V24.5523L54.7314 25.9167V25.7594Z" fill="#BBBCBB"/>
<path d="M54.7314 25.0685L57.0981 23.7041V23.8577L54.7314 25.2258V25.0685Z" fill="#BBBCBB"/>
<path d="M54.7314 24.3798L57.0981 23.0117V23.169L54.7314 24.5334V24.3798Z" fill="#BBBCBB"/>
<path d="M54.7314 23.6889L57.0981 22.3208V22.4781L54.7314 23.8462V23.6889Z" fill="#BBBCBB"/>
<path d="M54.7314 21.2094L57.0981 19.8413V21.0704L54.7314 22.4385V21.2094Z" fill="#BBBCBB"/>
<path d="M54.5996 40.6146C54.5996 41.5766 55.2727 41.9644 56.1067 41.4852C56.9407 41.0023 57.6138 39.8354 57.6138 38.8734C57.6138 37.9114 56.937 37.52 56.1067 38.0028C55.2727 38.4857 54.5996 39.6526 54.5996 40.6146Z" fill="#252728"/>
<path d="M54.7788 41.3421C55.0385 41.7372 55.536 41.814 56.103 41.4848C56.937 41.0056 57.6137 39.835 57.6137 38.873C57.6137 38.434 57.4747 38.1194 57.2406 37.9512C57.354 38.1304 57.4199 38.3755 57.4199 38.6718C57.4199 39.6302 56.7468 40.8007 55.9128 41.2799C55.4628 41.5396 55.0568 41.5469 54.7788 41.3421Z" fill="#5A5A5A"/>
<path d="M36.3284 8.95068L52.6392 18.4504L52.7782 44.6597L52.9099 18.5821L58.5907 15.0961L52.7782 18.337L36.3284 8.95068Z" fill="#B6BDBF"/>
<path d="M38.3106 31.4512L51.9255 38.2001V48.0181L42.6452 53.377L35.0477 51.2627L19.3806 42.8969L38.3106 31.4512Z" fill="#E2E7E8"/>
<path d="M27.6114 11.563L45.6524 22.0065L51.2089 18.7948L33.1385 8.35865L33.4897 8.15381L51.9258 18.7948L45.6524 22.4162L27.2126 11.7752L27.6114 11.563Z" fill="#656565"/>
<path d="M28.2737 11.9683L45.6526 22.0058L51.2091 18.7941L33.1388 8.35791H33.1351V9.29801L28.2737 11.9683Z" fill="#252728"/>
<path d="M45.649 51.6357L27.2166 40.9947V11.7749L45.649 22.4159L46.0733 35.5041L45.649 51.6357Z" fill="#252728"/>
<path d="M45.6492 51.6366L51.9262 48.0152V18.7954L45.6492 22.4168V51.6366Z" fill="url(#paint7_linear_647_6674)"/>
<path d="M28.2737 11.9687L45.6526 22.0061L50.419 19.2516L33.1351 9.29834L28.2737 11.9687Z" fill="#FCFBFA"/>
<path d="M47.0898 23.9419L50.4844 21.9849V34.9121L47.0898 36.8728V23.9419Z" fill="#FCFBFA"/>
<path d="M47.6023 33.1855L49.9727 31.8174V31.971L47.6023 33.3391V33.1855Z" fill="#BBBCBB"/>
<path d="M47.6023 32.4945L49.9727 31.1265V31.2838L47.6023 32.6482V32.4945Z" fill="#BBBCBB"/>
<path d="M47.6023 31.8026L49.9727 30.4346V30.5919L47.6023 31.9599V31.8026Z" fill="#BBBCBB"/>
<path d="M47.6023 31.1117L49.9727 29.7437V29.9009L47.6023 31.2654V31.1117Z" fill="#BBBCBB"/>
<path d="M47.6023 30.4196L49.9727 29.0552V29.2088L47.6023 30.5769V30.4196Z" fill="#BBBCBB"/>
<path d="M47.6023 29.7292L49.9727 28.3647V28.5184L47.6023 29.8865V29.7292Z" fill="#BBBCBB"/>
<path d="M47.6023 29.0382L49.9727 27.6738V27.8275L47.6023 29.1955V29.0382Z" fill="#BBBCBB"/>
<path d="M47.6023 28.35L49.9727 26.9819V27.1356L47.6023 28.5036V28.35Z" fill="#BBBCBB"/>
<path d="M47.6023 27.6586L49.9727 26.2905V26.4478L47.6023 27.8122V27.6586Z" fill="#BBBCBB"/>
<path d="M47.6023 25.175L49.9727 23.8105V25.0396L47.6023 26.404V25.175Z" fill="#BBBCBB"/>
<path d="M47.4707 44.5833C47.4707 45.5454 48.1438 45.9331 48.9778 45.4539C49.8081 44.9711 50.4849 43.8042 50.4849 42.8422C50.4849 41.8801 49.8081 41.4887 48.9778 41.9716C48.1474 42.4508 47.4707 43.6213 47.4707 44.5833Z" fill="#252728"/>
<path d="M47.6494 45.3113C47.9091 45.7064 48.4066 45.7832 48.9736 45.454C49.8076 44.9748 50.4843 43.8043 50.4843 42.8422C50.4843 42.4069 50.3453 42.0887 50.1112 41.9204C50.2246 42.0997 50.2905 42.3447 50.2905 42.641C50.2905 43.5994 49.6174 44.77 48.7834 45.2492C48.3335 45.5089 47.9274 45.5162 47.6494 45.3113Z" fill="#5A5A5A"/>
<path d="M29.1992 12.9204L45.5101 22.4165L45.6491 48.6294L45.7807 22.5482L51.4616 19.0621L45.6491 22.3031L29.1992 12.9204Z" fill="#B6BDBF"/>
<path d="M28.7127 23.2315L46.7537 33.675L52.3102 30.4633L34.2399 20.0235L34.5947 19.8223L53.0271 30.4633L46.7537 34.0846L28.3176 23.4436L28.7127 23.2315Z" fill="#359DB5"/>
<path d="M29.3748 23.6375L46.7537 33.6749L52.3102 30.4633L34.2398 20.0234H34.2362V20.9635L29.3748 23.6375Z" fill="#1D7085"/>
<path d="M46.7533 63.3051L28.3171 52.6641V23.4443L46.7533 34.0853L47.1703 47.1699L46.7533 63.3051Z" fill="#1D7085"/>
<path d="M46.7534 63.3045L53.0268 59.6831V30.4634L46.7534 34.0848V63.3045Z" fill="#46B4C6"/>
<path d="M29.3748 23.6378L46.7537 33.6753L51.52 30.9208L34.2362 20.9639L29.3748 23.6378Z" fill="#FCFBFA"/>
<path d="M48.1907 35.6096L51.5853 33.6489V46.5798L48.1907 48.5405V35.6096Z" fill="#FCFBFA"/>
<path d="M48.7065 44.8512L51.0732 43.4868V43.6405L48.7065 45.0085V44.8512Z" fill="#BBBCBB"/>
<path d="M48.7065 44.1584L51.0732 42.7939V42.9476L48.7065 44.3157V44.1584Z" fill="#BBBCBB"/>
<path d="M48.7065 43.467L51.0732 42.1025V42.2562L48.7065 43.6243V43.467Z" fill="#BBBCBB"/>
<path d="M48.7065 42.7802L51.0732 41.4121V41.5657L48.7065 42.9338V42.7802Z" fill="#BBBCBB"/>
<path d="M48.7065 42.0893L51.0732 40.7212V40.8785L48.7065 42.2429V42.0893Z" fill="#BBBCBB"/>
<path d="M48.7065 41.3964L51.0732 40.0283V40.1856L48.7065 41.55V41.3964Z" fill="#BBBCBB"/>
<path d="M48.7065 40.706L51.0732 39.3379V39.4952L48.7065 40.8596V40.706Z" fill="#BBBCBB"/>
<path d="M48.7065 40.0146L51.0732 38.6465V38.8038L48.7065 40.1682V40.0146Z" fill="#BBBCBB"/>
<path d="M48.7065 39.3227L51.0732 37.9546V38.1119L48.7065 39.48V39.3227Z" fill="#BBBCBB"/>
<path d="M48.7065 36.8432L51.0732 35.4751V36.7042L48.7065 38.0722V36.8432Z" fill="#BBBCBB"/>
<path d="M48.5718 56.2479C48.5718 56.5479 48.6376 56.7929 48.7583 56.9758C49.0327 57.1807 49.4351 57.1734 49.8923 56.91C50.7263 56.4308 51.3994 55.2603 51.3994 54.3019C51.3994 54.0056 51.3335 53.7605 51.2201 53.5813C50.9458 53.3691 50.5398 53.3728 50.0825 53.6361C49.2485 54.119 48.5718 55.2895 48.5718 56.2479Z" fill="#252728"/>
<path d="M48.7546 56.9759C48.8827 57.1734 49.0765 57.2941 49.3033 57.3197C49.3363 57.3234 49.3655 57.3271 49.4021 57.3271C49.607 57.3271 49.8374 57.2576 50.0752 57.1222C50.9092 56.643 51.5859 55.4725 51.5859 54.5068C51.5859 54.5031 51.5859 54.5031 51.5859 54.4995C51.5859 54.4482 51.5822 54.397 51.5786 54.3495C51.5749 54.3056 51.5713 54.2653 51.564 54.2288C51.5457 54.1263 51.5237 54.0276 51.4871 53.9471C51.4725 53.9069 51.4542 53.8703 51.4359 53.8337C51.4213 53.8044 51.403 53.7788 51.3847 53.7532C51.3554 53.7166 51.3262 53.6837 51.2969 53.6581C51.2713 53.6289 51.2421 53.6069 51.2128 53.585C51.3262 53.7642 51.392 54.0093 51.392 54.3056C51.392 55.264 50.719 56.4345 49.8849 56.9137C49.4314 57.1734 49.0326 57.1807 48.7546 56.9759Z" fill="#359DB5"/>
<path d="M30.3037 24.5884L46.6145 34.0844L46.7536 60.2937L46.8816 34.2161L52.566 30.7264L46.7536 33.971L30.3037 24.5884Z" fill="#B6BDBF"/>
<path d="M28.3171 23.4443L46.5082 34.2426L46.7533 63.3051L35.4465 56.7793L28.3171 30.731V23.4443Z" fill="#E2E7E8"/>
<path d="M21.8354 40.8555L35.4467 47.6007V57.4224L26.1665 62.7813L18.5725 60.667L2.90186 52.3012L21.8354 40.8555Z" fill="#E2E7E8"/>
<path d="M11.1326 20.9673L29.1773 31.4108L34.7338 28.1991L16.6598 17.7593L17.0146 17.5581L35.4471 28.1991L29.1773 31.8205L10.7375 21.1795L11.1326 20.9673Z" fill="#656565"/>
<path d="M11.7986 21.3743L29.1775 31.4118L34.734 28.2001L16.66 17.7603H16.6564V18.7004L11.7986 21.3743Z" fill="#252728"/>
<path d="M29.1737 61.0405L10.7375 50.3995V21.1797L29.1737 31.8207L29.5943 44.9052L29.1737 61.0405Z" fill="#252728"/>
<path d="M29.1738 61.0409L35.4472 57.4195V28.1997L29.1738 31.8211V61.0409Z" fill="url(#paint8_linear_647_6674)"/>
<path d="M11.7986 21.3737L29.1775 31.4111L33.9402 28.6567L16.6564 18.6997L11.7986 21.3737Z" fill="#FCFBFA"/>
<path d="M30.6108 33.3469L34.0091 31.3862V44.3171L30.6108 46.2778V33.3469Z" fill="#FCFBFA"/>
<path d="M31.127 42.5893L33.4937 41.2212V41.3748L31.127 42.7429V42.5893Z" fill="#BBBCBB"/>
<path d="M31.127 41.8988L33.4937 40.5308V40.6844L31.127 42.0525V41.8988Z" fill="#BBBCBB"/>
<path d="M31.127 41.2065L33.4937 39.8384V39.9957L31.127 41.3601V41.2065Z" fill="#BBBCBB"/>
<path d="M31.127 40.5155L33.4937 39.1475V39.3048L31.127 40.6692V40.5155Z" fill="#BBBCBB"/>
<path d="M31.127 39.8251L33.4937 38.457V38.6143L31.127 39.9787V39.8251Z" fill="#BBBCBB"/>
<path d="M31.127 39.133L33.4937 37.7686V37.9222L31.127 39.2903V39.133Z" fill="#BBBCBB"/>
<path d="M31.127 38.4408L33.4937 37.0728V37.23L31.127 38.5945V38.4408Z" fill="#BBBCBB"/>
<path d="M31.127 37.7497L33.4937 36.3853V36.5389L31.127 37.907V37.7497Z" fill="#BBBCBB"/>
<path d="M31.127 37.0595L33.4937 35.6914V35.8487L31.127 37.2168V37.0595Z" fill="#BBBCBB"/>
<path d="M31.127 34.5793L33.4937 33.2148V34.4439L31.127 35.8083V34.5793Z" fill="#BBBCBB"/>
<path d="M30.9915 53.9876C30.9915 54.9497 31.6682 55.3374 32.4985 54.8582C33.3325 54.3754 34.0056 53.2085 34.0056 52.2464C34.0056 51.2844 33.3289 50.893 32.4985 51.3759C31.6682 51.8551 30.9915 53.0256 30.9915 53.9876Z" fill="#252728"/>
<path d="M31.1743 54.7127C31.434 55.1078 31.9315 55.1846 32.4985 54.8554C33.3325 54.3762 34.0092 53.2056 34.0092 52.2436C34.0092 51.8046 33.8702 51.49 33.6361 51.3218C33.7495 51.501 33.8154 51.7461 33.8154 52.0424C33.8154 53.0008 33.1423 54.1713 32.3083 54.6505C31.8547 54.9139 31.4523 54.9176 31.1743 54.7127Z" fill="#5A5A5A"/>
<path d="M12.7239 22.3242L29.0347 31.8203L29.1737 58.0296L29.3017 31.952L34.9862 28.4659L29.1737 31.7069L12.7239 22.3242Z" fill="#B6BDBF"/>
<path d="M14.4539 45L28.0688 51.7489V61.5706L18.7885 66.9295L11.1946 64.8152L-4.47607 56.4458L14.4539 45Z" fill="#E2E7E8"/>
<path d="M3.75395 25.1119L21.795 35.5553L27.3551 32.3473L9.28112 21.9075L9.63595 21.7026L28.0684 32.3473L21.795 35.9687L3.35889 25.324L3.75395 25.1119Z" fill="#656565"/>
<path d="M4.41626 25.5176L21.7952 35.5551L27.3553 32.347L9.28135 21.9072H9.27769V22.8473L4.41626 25.5176Z" fill="#252728"/>
<path d="M21.7913 65.1887L3.35889 54.544V25.3242L21.7913 35.9689L22.2157 49.0534L21.7913 65.1887Z" fill="#252728"/>
<path d="M21.7915 65.1886L28.0686 61.5635V32.3438L21.7915 35.9688V65.1886Z" fill="url(#paint9_linear_647_6674)"/>
<path d="M4.41626 25.518L21.7952 35.5554L26.5615 32.8046L9.27769 22.8477L4.41626 25.518Z" fill="#FCFBFA"/>
<path d="M23.2329 37.4939L26.6312 35.5332V48.4604L23.2329 50.4211V37.4939Z" fill="#FCFBFA"/>
<path d="M23.7483 46.7338L26.115 45.3657V45.523L23.7483 46.8874V46.7338Z" fill="#BBBCBB"/>
<path d="M23.7483 46.0434L26.115 44.6753V44.8326L23.7483 46.2007V46.0434Z" fill="#BBBCBB"/>
<path d="M23.7483 45.352L26.115 43.9839V44.1412L23.7483 45.5093V45.352Z" fill="#BBBCBB"/>
<path d="M23.7483 44.6596L26.115 43.2915V43.4525L23.7483 44.8132V44.6596Z" fill="#BBBCBB"/>
<path d="M23.7483 43.9694L26.115 42.605V42.7586L23.7483 44.1267V43.9694Z" fill="#BBBCBB"/>
<path d="M23.7483 43.2775L26.115 41.9131V42.0667L23.7483 43.4348V43.2775Z" fill="#BBBCBB"/>
<path d="M23.7483 42.5856L26.115 41.2212V41.3748L23.7483 42.7429V42.5856Z" fill="#BBBCBB"/>
<path d="M23.7483 41.8988L26.115 40.5308V40.6844L23.7483 42.0525V41.8988Z" fill="#BBBCBB"/>
<path d="M23.7483 41.2065L26.115 39.8384V39.9957L23.7483 41.3601V41.2065Z" fill="#BBBCBB"/>
<path d="M23.7483 38.7275L26.115 37.3594V38.5884L23.7483 39.9529V38.7275Z" fill="#BBBCBB"/>
<path d="M23.6135 58.1317C23.6135 59.0937 24.2903 59.4815 25.1206 59.0023C25.951 58.5194 26.6277 57.3525 26.6277 56.3905C26.6277 55.4284 25.951 55.0371 25.1206 55.5199C24.2903 55.9991 23.6135 57.1696 23.6135 58.1317Z" fill="#252728"/>
<path d="M23.7964 58.8597C24.0524 59.2547 24.5536 59.3316 25.1206 59.0023C25.9546 58.5231 26.6313 57.3526 26.6313 56.3906C26.6313 55.9516 26.4923 55.637 26.2582 55.4688C26.3716 55.648 26.4374 55.8931 26.4374 56.1894C26.4374 57.1478 25.7644 58.3183 24.9304 58.7975C24.4768 59.0572 24.0707 59.0645 23.7964 58.8597Z" fill="#5A5A5A"/>
<path d="M5.3418 26.4692L21.6563 35.969L21.7916 62.1782L21.9233 36.1006L27.6078 32.611L21.7916 35.8519L5.3418 26.4692Z" fill="#B6BDBF"/>
<path d="M7.07545 49.2329L20.6904 55.9818V65.7998L11.4101 71.1624L3.81255 69.0481L-11.8545 60.6787L7.07545 49.2329Z" fill="#E2E7E8"/>
<path d="M-3.62423 29.3443L14.4168 39.7877L19.9733 36.5761L1.90295 26.1399L2.25411 25.9351L20.6902 36.5761L14.4168 40.2011L-4.02295 29.5564L-3.62423 29.3443Z" fill="#656565"/>
<path d="M-2.96191 29.7505L14.417 39.788L19.9735 36.5763L1.90317 26.1401H1.89951V27.0766L-2.96191 29.7505Z" fill="#252728"/>
<path d="M14.4132 69.4179L-4.01929 58.7769V29.5571L14.4132 40.2018L14.8338 53.2863L14.4132 69.4179Z" fill="#252728"/>
<path d="M14.4133 69.4168L20.6904 65.7955V36.5757L14.4133 40.2007V69.4168Z" fill="url(#paint10_linear_647_6674)"/>
<path d="M-2.96191 29.7501L14.417 39.7876L19.1834 37.0368L1.89951 27.0762L-2.96191 29.7501Z" fill="#FCFBFA"/>
<path d="M15.8547 41.7231L19.2493 39.7661V52.6933L15.8547 54.654V41.7231Z" fill="#FCFBFA"/>
<path d="M16.3701 50.9667L18.7368 49.5986V49.7523L16.3701 51.1203V50.9667Z" fill="#BBBCBB"/>
<path d="M16.3701 50.2748L18.7368 48.9067V49.064L16.3701 50.4284V50.2748Z" fill="#BBBCBB"/>
<path d="M16.3701 49.5839L18.7368 48.2158V48.3731L16.3701 49.7412V49.5839Z" fill="#BBBCBB"/>
<path d="M16.3701 48.8925L18.7368 47.5244V47.6817L16.3701 49.0461V48.8925Z" fill="#BBBCBB"/>
<path d="M16.3701 48.2013L18.7368 46.8369V46.9905L16.3701 48.3586V48.2013Z" fill="#BBBCBB"/>
<path d="M16.3701 47.5099L18.7368 46.1455V46.2991L16.3701 47.6672V47.5099Z" fill="#BBBCBB"/>
<path d="M16.3701 46.8175L18.7368 45.4531V45.6068L16.3701 46.9748V46.8175Z" fill="#BBBCBB"/>
<path d="M16.3701 46.1266L18.7368 44.7622V44.9158L16.3701 46.2839V46.1266Z" fill="#BBBCBB"/>
<path d="M16.3701 45.4357L18.7368 44.0713V44.2249L16.3701 45.593V45.4357Z" fill="#BBBCBB"/>
<path d="M16.3701 42.9552L18.7368 41.5908V42.8199L16.3701 44.1843V42.9552Z" fill="#BBBCBB"/>
<path d="M16.2351 62.3641C16.2351 63.3261 16.9118 63.7139 17.7422 63.2347C18.5762 62.7519 19.2493 61.585 19.2493 60.6229C19.2493 59.6609 18.5725 59.2695 17.7422 59.7523C16.9082 60.2315 16.2351 61.4021 16.2351 62.3641Z" fill="#252728"/>
<path d="M16.4143 63.0889C16.674 63.484 17.1715 63.5645 17.7385 63.2352C18.5725 62.7561 19.2492 61.5855 19.2492 60.6235C19.2492 60.1845 19.1102 59.8699 18.8761 59.7017C18.9895 59.8772 19.0554 60.126 19.0554 60.4223C19.0554 61.3807 18.3823 62.5512 17.5483 63.0304C17.0983 63.2901 16.6923 63.2974 16.4143 63.0889Z" fill="#5A5A5A"/>
<path d="M-2.03662 30.7007L14.2742 40.2004L14.4132 66.4097L14.5449 40.3284L20.2257 36.8424L14.4132 40.0833L-2.03662 30.7007Z" fill="#B6BDBF"/>
<path d="M-0.313469 53.5669L13.2978 60.3158V70.1374L4.01756 75.4964L-3.57637 73.3821L-19.2434 65.0127L-0.313469 53.5669Z" fill="#E2E7E8"/>
<path d="M-11.0166 33.6788L7.02449 44.1259L12.5846 40.9142L-5.48939 30.4744L-5.13457 30.2695L13.2979 40.9142L7.02449 44.5356L-11.4116 33.8909L-11.0166 33.6788Z" fill="#656565"/>
<path d="M-10.3511 34.085L7.02423 44.1261L12.5843 40.9144L-5.48965 30.4746H-5.49331V31.4147L-10.3511 34.085Z" fill="#252728"/>
<path d="M7.02449 73.7556L-11.4116 63.1145V33.8911L7.02449 44.5358L7.44515 57.6203L7.02449 73.7556Z" fill="#252728"/>
<path d="M7.02441 73.7559L13.2978 70.1346V40.9111L7.02441 44.5362V73.7559Z" fill="url(#paint11_linear_647_6674)"/>
<path d="M-10.3511 34.0858L7.02423 44.1269L11.7942 41.3725L-5.49331 31.4155L-10.3511 34.0858Z" fill="#FCFBFA"/>
<path d="M8.46191 46.0613L11.8602 44.1006V57.0315L8.46191 58.9885V46.0613Z" fill="#FCFBFA"/>
<path d="M8.97778 55.3007L11.3445 53.9326V54.0899L8.97778 55.458V55.3007Z" fill="#BBBCBB"/>
<path d="M8.97778 54.61L11.3445 53.2456V53.3992L8.97778 54.7673V54.61Z" fill="#BBBCBB"/>
<path d="M8.97778 53.9181L11.3445 52.5537V52.7073L8.97778 54.0754V53.9181Z" fill="#BBBCBB"/>
<path d="M8.97778 53.2272L11.3445 51.8628V52.0201L8.97778 53.3845V53.2272Z" fill="#BBBCBB"/>
<path d="M8.97778 52.539L11.3445 51.1709V51.3245L8.97778 52.6926V52.539Z" fill="#BBBCBB"/>
<path d="M8.97778 51.8444L11.3445 50.48V50.6373L8.97778 52.0017V51.8444Z" fill="#BBBCBB"/>
<path d="M8.97778 51.1571L11.3445 49.7891V49.9427L8.97778 51.3108V51.1571Z" fill="#BBBCBB"/>
<path d="M8.97778 50.4657L11.3445 49.0977V49.255L8.97778 50.6194V50.4657Z" fill="#BBBCBB"/>
<path d="M8.97778 49.7738L11.3445 48.4058V48.5631L8.97778 49.9311V49.7738Z" fill="#BBBCBB"/>
<path d="M8.97778 47.2943L11.3445 45.9263V47.1553L8.97778 48.5234V47.2943Z" fill="#BBBCBB"/>
<path d="M8.84229 66.6991C8.84229 67.6611 9.51901 68.0488 10.3494 67.5697C11.1834 67.0868 11.8564 65.9199 11.8564 64.9579C11.8564 63.9958 11.1797 63.6044 10.3494 64.0873C9.51901 64.5701 8.84229 65.737 8.84229 66.6991Z" fill="#252728"/>
<path d="M9.02515 67.4275C9.28486 67.8226 9.78234 67.8994 10.3493 67.5702C11.1833 67.091 11.8601 65.9205 11.8601 64.9584C11.8601 64.5231 11.7211 64.2049 11.487 64.0366C11.6003 64.2159 11.6662 64.4609 11.6662 64.7572C11.6662 65.7156 10.9931 66.8862 10.1591 67.3654C9.70552 67.6251 9.30315 67.6324 9.02515 67.4275Z" fill="#5A5A5A"/>
<path d="M-9.42554 35.0356L6.8853 44.5354L7.02431 70.7446L7.15233 44.667L12.8368 41.181L7.02431 44.422L-9.42554 35.0356Z" fill="#B6BDBF"/>
</g>
<mask id="mask1_647_6674" style="mask-type:luminance" maskUnits="userSpaceOnUse" x="6" y="8" width="55" height="68">
<path d="M6.12451 75.8702L37.3196 57.8584L44.7196 64.5305L54.2194 61.0409L53.0269 48.7903L60.1233 44.6934V8.17969L6.12451 39.3528V75.8702Z" fill="white"/>
</mask>
<g mask="url(#mask1_647_6674)">
<path d="M65.8406 8.69405L-11.8069 53.5223V43.591L65.8406 -1.2373V8.69405Z" fill="#E2E7E8"/>
</g>
<defs>
<linearGradient id="paint0_linear_647_6674" x1="56.2275" y1="78.0497" x2="62.3897" y2="119.149" gradientUnits="userSpaceOnUse">
<stop stop-color="#2FA4E2"/>
<stop offset="1" stop-color="#3958CC"/>
</linearGradient>
<linearGradient id="paint1_linear_647_6674" x1="18.6722" y1="113.581" x2="39.4034" y2="113.581" gradientUnits="userSpaceOnUse">
<stop stop-color="#D3D7DD"/>
<stop offset="0.6042" stop-color="#D1D6DC"/>
<stop offset="0.8216" stop-color="#CAD1D8"/>
<stop offset="0.9763" stop-color="#BFC8D1"/>
<stop offset="1" stop-color="#BCC6CF"/>
</linearGradient>
<linearGradient id="paint2_linear_647_6674" x1="21.7547" y1="80.5247" x2="47.2099" y2="80.5247" gradientUnits="userSpaceOnUse">
<stop stop-color="#C2CCD3"/>
<stop offset="0.3166" stop-color="#B2BBC1"/>
<stop offset="1" stop-color="#C4CED6"/>
</linearGradient>
<linearGradient id="paint3_linear_647_6674" x1="34.3899" y1="73.2314" x2="36.2475" y2="86.3358" gradientUnits="userSpaceOnUse">
<stop stop-color="#2FA4E2"/>
<stop offset="1" stop-color="#3958CC"/>
</linearGradient>
<linearGradient id="paint4_linear_647_6674" x1="33.097" y1="7.02518" x2="55.1076" y2="74.7274" gradientUnits="userSpaceOnUse">
<stop stop-color="#2FA4E2"/>
<stop offset="1" stop-color="#3958CC"/>
</linearGradient>
<linearGradient id="paint5_linear_647_6674" x1="6.12345" y1="42.0255" x2="60.1246" y2="42.0255" gradientUnits="userSpaceOnUse">
<stop stop-color="#1C819F"/>
<stop offset="0.5" stop-color="#00719A"/>
<stop offset="1" stop-color="#005C86"/>
</linearGradient>
<linearGradient id="paint6_linear_647_6674" x1="59.0534" y1="31.248" x2="52.7776" y2="31.248" gradientUnits="userSpaceOnUse">
<stop stop-color="#4F5050"/>
<stop offset="1" stop-color="#3F4142"/>
</linearGradient>
<linearGradient id="paint7_linear_647_6674" x1="51.9253" y1="35.2164" x2="45.6503" y2="35.2164" gradientUnits="userSpaceOnUse">
<stop stop-color="#4F5050"/>
<stop offset="1" stop-color="#3F4142"/>
</linearGradient>
<linearGradient id="paint8_linear_647_6674" x1="35.4485" y1="44.62" x2="29.1727" y2="44.62" gradientUnits="userSpaceOnUse">
<stop stop-color="#4F5050"/>
<stop offset="1" stop-color="#3F4142"/>
</linearGradient>
<linearGradient id="paint9_linear_647_6674" x1="28.0686" y1="48.7657" x2="21.7931" y2="48.7657" gradientUnits="userSpaceOnUse">
<stop stop-color="#4F5050"/>
<stop offset="1" stop-color="#3F4142"/>
</linearGradient>
<linearGradient id="paint10_linear_647_6674" x1="20.6894" y1="52.9968" x2="14.4139" y2="52.9968" gradientUnits="userSpaceOnUse">
<stop stop-color="#4F5050"/>
<stop offset="1" stop-color="#3F4142"/>
</linearGradient>
<linearGradient id="paint11_linear_647_6674" x1="13.299" y1="57.3337" x2="7.0235" y2="57.3337" gradientUnits="userSpaceOnUse">
<stop stop-color="#4F5050"/>
<stop offset="1" stop-color="#3F4142"/>
</linearGradient>
</defs>
</svg>
