<svg width="108" height="98" viewBox="0 0 108 98" fill="none" xmlns="http://www.w3.org/2000/svg">
<path d="M107.029 64.7416L107.024 67.1483C107.002 75.0322 101.816 82.9054 91.4664 88.9222C70.6369 101.026 36.7593 101.026 15.7949 88.9222C5.24524 82.8298 -0.0268782 74.838 0.000103035 66.8515L0.00550455 64.4448C-0.0160804 72.4259 5.25065 80.4231 15.8003 86.5155C36.7647 98.6192 70.6423 98.6192 91.4718 86.5155C101.822 80.4932 107.002 72.6255 107.029 64.7416Z" fill="#CEE3F6"/>
<mask id="mask0_2932_8279" style="mask-type:luminance" maskUnits="userSpaceOnUse" x="0" y="64" width="108" height="34">
<path d="M107.029 64.7416L107.024 67.1483C107.002 75.0322 101.816 82.9054 91.4664 88.9222C70.6369 101.026 36.7593 101.026 15.7949 88.9222C5.24524 82.8298 -0.0268782 74.838 0.000103035 66.8515L0.00550455 64.4448C-0.0160804 72.4259 5.25065 80.4231 15.8003 86.5155C36.7647 98.6192 70.6423 98.6192 91.4718 86.5155C101.822 80.4932 107.002 72.6255 107.029 64.7416Z" fill="white"/>
</mask>
<g mask="url(#mask0_2932_8279)">
<path d="M107.029 64.7416L107.024 67.1483C107.002 75.0322 101.816 82.9054 91.4664 88.9222C70.6369 101.026 36.7593 101.026 15.7949 88.9222C5.24524 82.8298 -0.0268782 74.838 0.000103035 66.8515L0.00550455 64.4448C-0.0160804 72.4259 5.25065 80.4231 15.8003 86.5155C36.7647 98.6192 70.6423 98.6192 91.4718 86.5155C101.822 80.4932 107.002 72.6255 107.029 64.7416Z" fill="url(#paint0_linear_2932_8279)"/>
</g>
<path d="M91.2344 42.6763C112.199 54.7801 112.312 74.4062 91.4718 86.5154C70.6423 98.6192 36.7647 98.6192 15.8003 86.5154C-5.16411 74.4116 -5.27743 54.7855 15.5521 42.6817C36.387 30.5672 70.27 30.5726 91.2344 42.6763Z" fill="#F3F2FA"/>
<path d="M55.112 81.4052L43.3428 74.6113L75.0889 56.2803L86.8635 63.0741L55.112 81.4052Z" fill="white"/>
<path d="M30.413 83.7858L18.6384 76.9919L75.3367 44.2583L87.1113 51.0522L30.413 83.7858Z" fill="white"/>
<path d="M77.5981 25.8245L82.3737 23.0508C79.681 21.4967 77.2419 21.351 75.4773 22.3763L70.7017 25.1499C72.4662 24.1246 74.9053 24.2703 77.5981 25.8245Z" fill="url(#paint1_linear_2932_8279)"/>
<path d="M77.5981 25.8244L82.3738 23.0508C87.7269 26.1428 92.0493 33.6274 92.0331 39.7791C92.0223 42.8334 90.9484 44.9811 89.2054 45.9956L84.4298 48.7693C86.1674 47.7602 87.2466 45.6071 87.2574 42.5528C87.2736 36.4011 82.9512 28.9165 77.5981 25.8244Z" fill="url(#paint2_linear_2932_8279)"/>
<path d="M77.5981 25.8241C82.9511 28.9161 87.2735 36.4007 87.2573 42.5524C87.2412 48.6987 82.8864 51.181 77.5387 48.0889C72.1856 45.0023 67.8633 37.5123 67.8794 31.3606C67.8956 25.2143 72.245 22.7374 77.5981 25.8241Z" fill="url(#paint3_linear_2932_8279)"/>
<path d="M77.1611 28.9488C73.1948 26.6554 69.9679 28.4955 69.9517 33.0554C69.9409 37.6152 73.1463 43.1679 77.1125 45.4613C81.0787 47.7547 84.3057 45.9146 84.3219 41.3548C84.3327 36.7949 81.1273 31.2422 77.1611 28.9488Z" fill="url(#paint4_linear_2932_8279)"/>
<path d="M79.2004 17.8858L72.8706 14.2056C72.9084 14.3459 74.1009 18.2851 74.5219 25.1114C75.531 25.4729 78.6122 27.0216 80.8517 28.8186C80.4361 21.9762 79.2382 18.0261 79.2004 17.8858Z" fill="#919BBD"/>
<path d="M73.8476 9.97028L67.5178 6.29004C70.1134 7.79559 72.0129 10.4721 72.8709 14.2009L79.2007 17.8812C78.3373 14.1524 76.4432 11.4758 73.8476 9.97028Z" fill="#919BBD"/>
<path d="M64.6846 4.46043C68.0249 3.50529 71.1925 3.41356 73.95 4.24458C78.4397 5.59364 81.6019 9.31165 82.87 14.7241C83.0319 15.2583 84.0518 18.8576 84.532 24.9661C84.5482 25.1982 84.7263 25.1712 84.6346 25.4032C82.843 26.1209 80.8518 28.7489 80.8518 28.7489C80.4309 21.9496 79.2437 18.0266 79.2059 17.8863C77.5061 10.5312 71.7861 7.29346 64.6469 8.97169C64.6361 7.46614 64.6523 5.96598 64.6846 4.46043Z" fill="#A5B0D6"/>
<path d="M81.1949 51.6642C85.2738 49.2936 85.2625 41.6629 81.1696 34.6207C77.0768 27.5785 70.4522 23.7914 66.3732 26.1621C62.2942 28.5328 62.3055 36.1634 66.3984 43.2056C70.4913 50.2479 77.1159 54.0349 81.1949 51.6642Z" fill="#45414A"/>
<path d="M69.2389 24.5087C71.1438 23.4024 73.7772 23.5589 76.6858 25.2372C82.4651 28.572 87.1329 36.661 87.1167 43.2984C87.1059 46.5955 85.9403 48.9159 84.0624 50.0113L81.197 51.6788C83.0749 50.5887 84.2405 48.2683 84.2513 44.9658C84.2675 38.3284 79.5997 30.2395 73.8204 26.9046C70.9118 25.2264 68.2784 25.0699 66.3735 26.1761L69.2389 24.5087Z" fill="url(#paint5_linear_2932_8279)"/>
<path d="M80.8467 63.1339C80.496 62.6752 80.1452 62.2111 79.7944 61.7524C80.2477 62.3406 80.728 62.8964 81.2298 63.4145L81.8396 64.2887C81.4997 63.9487 81.1705 63.5602 80.8467 63.1339Z" fill="#61A2F7"/>
<path d="M65.0408 62.227L57.103 57.6132C56.2827 57.1329 55.5003 56.5825 54.761 55.9619L62.6989 60.5757C63.4327 61.2017 64.2152 61.7521 65.0408 62.227Z" fill="#61A2F7"/>
<path d="M72.9411 64.639C72.2126 64.5149 71.4841 64.3908 70.7556 64.2721C67.7121 63.7594 64.987 62.5129 62.6936 60.5811L64.7388 60.8455C67.1239 62.8529 69.8868 64.121 72.9411 64.639Z" fill="#3B8CF7"/>
<path d="M63.1898 8.25974C63.8913 8.38386 64.5982 8.50797 65.2997 8.63208C61.2471 7.91978 56.1585 9.0422 50.6381 12.226L48.8196 11.7835C54.2428 8.65907 59.2235 7.56363 63.1898 8.25974Z" fill="#61A2F7"/>
<path d="M69.0126 9.95359L76.9505 14.5674C72.5525 12.0096 65.9529 12.5816 58.5817 16.8338L50.6438 12.22C58.0097 7.96777 64.6147 7.40117 69.0126 9.95359Z" fill="#257FF7"/>
<path d="M79.6431 16.8497C80.1018 17.4001 80.5551 17.9505 81.0137 18.5009C77.0529 13.7198 69.3147 13.3637 60.4001 18.5063L58.5762 16.8281C67.6634 11.5883 75.5797 11.9445 79.6431 16.8497Z" fill="#3B8CF7"/>
<path d="M29.7064 58.5794C29.2477 58.029 28.7945 57.4785 28.3358 56.9281C26.5496 54.7696 25.5297 51.71 25.5189 47.8409C25.4758 35.4241 35.8797 19.2624 48.8199 11.7886L50.6384 12.2311C37.4392 19.8506 26.7655 36.4116 26.8032 49.2115C26.8194 53.1993 27.8663 56.3561 29.7064 58.5794Z" fill="#61A2F7"/>
<path d="M40.3368 65.4757L32.399 60.8619C28.9184 58.8383 26.8193 54.8613 26.8031 49.206C26.7653 36.4008 37.4391 19.8451 50.6383 12.2256L58.5762 16.8394C45.3769 24.4589 34.7032 41.0199 34.7409 53.8198C34.7571 59.4751 36.8617 63.4521 40.3368 65.4757Z" fill="#257FF7"/>
<path d="M60.4002 18.5116C73.3404 11.0486 83.7983 15.166 83.8253 27.5881C83.8469 34.1284 80.9761 41.6993 76.1141 48.8601L76.3191 50.506C77.0908 56.7062 79.2816 61.6816 81.8341 64.2934L82.7568 63.9534C75.7093 65.9122 69.4659 64.833 64.7388 60.8452C63.1631 62.0107 61.8302 62.8687 60.5243 63.6458C47.5841 71.1088 37.1262 66.9915 37.0992 54.5693C37.0614 42.1472 47.46 25.9854 60.4002 18.5116Z" fill="#61A2F7"/>
<path d="M69.7195 40.6587L67.7013 41.7973C67.4747 42.6553 67.1725 43.5133 66.8163 44.3605L67.8956 45.8283C67.1617 47.3338 66.2767 48.7854 65.2676 50.1129L63.7189 49.4815C63.0497 50.2964 62.332 51.041 61.5712 51.6886L61.242 54.2302C60.67 54.6673 60.0872 55.0613 59.4882 55.4066C58.8892 55.752 58.3064 56.0326 57.7344 56.2538L57.3891 54.1061C56.6282 54.3328 55.9051 54.4245 55.236 54.3813L53.6981 56.7934C52.689 56.6316 51.7986 56.2052 51.0539 55.5523L52.1223 52.8488C51.7608 52.4225 51.4586 51.9098 51.2266 51.3163L49.203 52.5088C48.9224 51.5699 48.7659 50.496 48.7605 49.2981C48.7605 49.039 48.7659 48.7746 48.7821 48.5102L50.8003 46.5244C50.8812 45.8984 50.9999 45.2617 51.1618 44.6249L49.5861 44.0475C50.088 42.3747 50.8057 40.7072 51.6907 39.1261L53.6981 38.8347C53.9733 38.3977 54.2647 37.966 54.5722 37.5558L54.1891 35.4405C55.3169 34.0591 56.5797 32.8233 57.9179 31.8304L58.9594 33.3414C59.1159 33.2442 59.2724 33.1417 59.4343 33.05C59.5908 32.9582 59.7472 32.8773 59.9037 32.7964L60.9344 30.0874C62.2781 29.5316 63.5354 29.3104 64.674 29.3859L64.3017 31.9384C64.6093 31.9977 64.9007 32.0894 65.1813 32.2028L67.1833 30.1792C68.0736 30.7404 68.7967 31.5714 69.3094 32.6614L67.7391 35.0574C67.9064 35.5053 68.0305 35.9963 68.1114 36.5306L70.1296 36.1852C70.1458 36.4334 70.1566 36.6816 70.1566 36.9461C70.1458 38.144 69.9947 39.396 69.7195 40.6587Z" fill="#257FF7"/>
<path d="M46.1595 67.1696C45.458 67.0455 44.7511 66.9214 44.0496 66.7973C38.4051 65.8044 34.7627 61.2662 34.7411 53.8139C34.7033 41.0087 45.3771 24.453 58.5763 16.8335L60.4002 18.5117C47.46 25.9855 37.0614 42.1473 37.0992 54.564C37.1154 61.7896 40.6607 66.2037 46.1595 67.1696Z" fill="#3B8CF7"/>
<path d="M38.0823 77.3234C42.1613 74.9527 42.15 67.3221 38.0571 60.2799C33.9642 53.2377 27.3396 49.4506 23.2606 51.8213C19.1817 54.192 19.1929 61.8226 23.2858 68.8648C27.3787 75.907 34.0033 79.6941 38.0823 77.3234Z" fill="#4D4852"/>
<path d="M26.1183 50.161C28.0232 49.0548 30.6566 49.2113 33.5652 50.8895C39.3445 54.2244 44.0123 62.3134 43.9961 68.9507C43.9853 72.2478 42.8197 74.5682 40.9418 75.6637L38.0764 77.3311C39.9543 76.2411 41.1199 73.9207 41.1307 70.6182C41.1469 63.9808 36.4791 55.8918 30.6998 52.5569C27.7912 50.8787 25.1578 50.7222 23.2529 51.8285L26.1183 50.161Z" fill="url(#paint6_linear_2932_8279)"/>
<path d="M25.0065 56.5188L29.7822 53.7451C27.0895 52.191 24.6504 52.0453 22.8858 53.0706L18.1101 55.8443C19.8693 54.819 22.3138 54.9647 25.0065 56.5188Z" fill="#BFC0E3"/>
<path d="M25.0066 56.5188L29.7823 53.7451C35.1353 56.8372 39.4577 64.3218 39.4415 70.4735C39.4307 73.5277 38.3569 75.6754 36.6139 76.6899L31.8382 79.4636C33.5758 78.4545 34.6551 76.3014 34.6659 73.2471C34.6767 67.0954 30.3543 59.6108 25.0066 56.5188Z" fill="url(#paint7_linear_2932_8279)"/>
<path d="M25.0065 56.5179C30.3596 59.6099 34.682 67.0945 34.6658 73.2463C34.6496 79.3926 30.2948 81.8748 24.9472 78.7828C19.5941 75.6961 15.2717 68.2062 15.2879 62.0544C15.3041 55.9081 19.6534 53.4312 25.0065 56.5179Z" fill="url(#paint8_linear_2932_8279)"/>
<path d="M24.9957 58.5956C29.3504 61.1102 32.8688 67.2026 32.8526 72.2049C32.8364 77.2072 29.2965 79.2254 24.9417 76.7108C20.5869 74.1961 17.0686 68.1038 17.0848 63.1015C17.101 58.0991 20.6463 56.0809 24.9957 58.5956Z" fill="#61A2F7"/>
<path d="M29.6349 76.6496C32.4358 75.0218 32.4277 69.7813 29.6167 64.9448C26.8058 60.1083 22.2564 57.5071 19.4555 59.135C16.6546 60.7629 16.6628 66.0033 19.4737 70.8398C22.2847 75.6764 26.834 78.2775 29.6349 76.6496Z" fill="#EDEAFB"/>
<path d="M67.6205 0.564492C68.5325 0.8397 69.3905 1.20664 70.1837 1.67072L76.5135 5.35096C75.7149 4.88688 74.8569 4.51454 73.9503 4.24473C69.52 2.91725 64.0158 3.94793 58.4631 7.1587L52.1333 3.47846C57.6914 0.267697 63.1902 -0.762984 67.6205 0.564492Z" fill="url(#paint9_linear_2932_8279)"/>
<path d="M58.463 7.15336L52.1332 3.47852L44.2439 8.03294L50.5737 11.7078L58.463 7.15336Z" fill="url(#paint10_linear_2932_8279)"/>
<path d="M50.5738 11.7076L44.244 8.02734C41.125 9.82429 38.0815 12.2526 35.1999 15.2367C31.0826 19.4944 27.4941 24.7395 24.8229 30.4002C22.1734 36.0177 20.5275 41.824 20.0634 47.1879C19.7828 50.4094 19.3295 55.9945 19.3134 56.7068C19.308 56.8094 19.3241 58.1099 19.3241 58.1099L19.7882 58.9679L25.6647 60.3709C25.5244 61.3368 26.0748 54.5537 26.3932 50.8681C26.8573 45.4988 28.5032 39.6925 31.1527 34.0804C33.8239 28.4197 37.4123 23.1746 41.5297 18.917C44.4167 15.9328 47.4601 13.5099 50.5738 11.7076Z" fill="url(#paint11_linear_2932_8279)"/>
<path d="M26.3931 50.8683C26.8571 45.499 28.503 39.6926 31.1525 34.0806C33.8237 28.4199 37.4122 23.1747 41.5295 18.9171C44.4111 15.933 47.4546 13.5101 50.5736 11.7077L58.4575 7.15331C64.0157 3.94794 69.5144 2.91186 73.9447 4.23934C77.0368 5.16749 79.4975 7.22346 81.1487 10.1806C79.9616 11.3678 78.7744 12.5549 77.5818 13.7475C74.0796 7.83863 66.6652 6.77017 58.4683 11.5027L50.5844 16.0571C47.9456 17.5788 45.3716 19.6294 42.9379 22.1549C35.8581 29.4776 30.9637 39.833 30.1542 49.1738C30.0463 50.4204 29.9114 52.0231 29.7765 53.7499C29.5876 56.189 26.9057 59.9717 26.9057 59.9717L25.6592 60.3818C25.7725 56.367 26.0747 54.5593 26.3931 50.8683Z" fill="url(#paint12_linear_2932_8279)"/>
<path d="M74.3281 73.7376C73.2866 73.7376 72.2451 73.4732 71.317 72.9444L70.6208 72.5505L71.6246 70.7967L72.3207 71.1906C73.5618 71.8975 75.1105 71.8975 76.3517 71.1852L82.6653 67.5697C86.6585 65.2871 89.0328 60.3226 88.4446 55.5037L86.9499 46.5514L88.9465 46.2168L90.4467 55.2123C91.1374 60.8622 88.3475 66.647 83.669 69.3235L77.3554 72.939C76.4218 73.4732 75.3749 73.7376 74.3281 73.7376Z" fill="#DEE0F1"/>
<path d="M75.8443 72.7179C75.812 74.4015 71.9482 75.6966 68.9156 75.6318C68.4191 75.6211 67.9766 75.5833 67.5935 75.5131C67.1186 75.4322 66.7301 75.3135 66.4063 75.1516C65.3918 74.6551 65.068 73.7971 65.0896 72.7287C65.1112 71.7304 65.4296 70.7698 66.3146 70.1654C66.6168 69.9604 66.9837 69.7931 67.4262 69.6852C67.8795 69.5719 68.4137 69.5179 69.0397 69.5287C72.0724 69.5881 75.8767 71.0288 75.8443 72.7179Z" fill="#5B545F"/>
<path d="M68.1169 74.5637C67.9712 74.9523 67.7985 75.2706 67.5988 75.5189C67.124 75.4379 66.7355 75.3192 66.4117 75.1573C65.3972 74.6609 65.0734 73.8029 65.095 72.7344C65.1166 71.7361 65.435 70.7756 66.3199 70.1712C66.6221 69.9661 66.9891 69.7988 67.4316 69.6909C67.5341 69.7665 67.6312 69.8582 67.723 69.9769C68.5108 70.959 68.6889 73.015 68.1169 74.5637Z" fill="#4D4852"/>
<path d="M72.0563 37.1347L69.6226 35.7209L71.6408 35.3755L74.0745 36.7947L72.0563 37.1347Z" fill="#D8E3E3"/>
<path d="M61.6897 56.853L59.256 55.4392L58.9106 53.2915L61.3443 54.7053L61.6897 56.853Z" fill="#B8C9D6"/>
<path d="M64.0968 36.9409L66.5305 38.3547C67.3237 38.8134 67.8148 39.7901 67.8148 41.1824C67.8202 43.9776 65.8559 47.3826 63.4222 48.7857L60.9885 47.3719C63.4222 45.9688 65.3865 42.5638 65.3811 39.7686C65.3757 38.3763 64.8846 37.3996 64.0968 36.9409Z" fill="#D8E3E3"/>
<mask id="mask1_2932_8279" style="mask-type:luminance" maskUnits="userSpaceOnUse" x="60" y="36" width="8" height="13">
<path d="M64.0968 36.9409L66.5305 38.3547C67.3237 38.8134 67.8148 39.7901 67.8148 41.1824C67.8202 43.9776 65.8559 47.3826 63.4222 48.7857L60.9885 47.3719C63.4222 45.9688 65.3865 42.5638 65.3811 39.7686C65.3757 38.3763 64.8846 37.3996 64.0968 36.9409Z" fill="white"/>
</mask>
<g mask="url(#mask1_2932_8279)">
<path d="M63.4222 48.7857L60.9885 47.3719C63.4222 45.9688 65.3865 42.5638 65.3811 39.7686C65.3757 38.3763 64.8846 37.3996 64.0968 36.9409L66.5305 38.3547C67.3237 38.8134 67.8148 39.7901 67.8148 41.1824C67.8202 43.9776 65.8559 47.3826 63.4222 48.7857Z" fill="#D8E3E3"/>
</g>
<path d="M60.287 49.0935L57.8533 47.6797C58.6573 48.1437 59.7635 48.079 60.9885 47.3721L63.4222 48.7859C62.1972 49.4928 61.0856 49.5575 60.287 49.0935Z" fill="#D8E3E3"/>
<mask id="mask2_2932_8279" style="mask-type:luminance" maskUnits="userSpaceOnUse" x="57" y="47" width="7" height="3">
<path d="M60.287 49.0935L57.8533 47.6797C58.6573 48.1437 59.7635 48.079 60.9885 47.3721L63.4222 48.7859C62.1972 49.4928 61.0856 49.5575 60.287 49.0935Z" fill="white"/>
</mask>
<g mask="url(#mask2_2932_8279)">
<path d="M60.287 49.0935L57.8533 47.6797C58.6573 48.1437 59.7635 48.079 60.9885 47.3721L63.4222 48.7859C62.1972 49.4928 61.0856 49.5575 60.287 49.0935Z" fill="#D8E3E3"/>
</g>
<path d="M69.1258 32.807L65.4941 30.6971L68.6941 29.3696L71.1278 30.7834L69.1258 32.807Z" fill="#D8E3E3"/>
<path d="M55.8404 56.7506L53.4067 55.3368C53.1099 55.1641 52.8347 54.9644 52.5757 54.7378L55.0094 56.1516C55.2684 56.3836 55.5436 56.5833 55.8404 56.7506Z" fill="#B8C9D6"/>
<mask id="mask3_2932_8279" style="mask-type:luminance" maskUnits="userSpaceOnUse" x="52" y="54" width="4" height="3">
<path d="M55.8404 56.7506L53.4067 55.3368C53.1099 55.1641 52.8347 54.9644 52.5757 54.7378L55.0094 56.1516C55.2684 56.3836 55.5436 56.5833 55.8404 56.7506Z" fill="white"/>
</mask>
<g mask="url(#mask3_2932_8279)">
<path d="M55.8404 56.7506L53.4067 55.3368C53.1099 55.1641 52.8347 54.9644 52.5757 54.7378L55.0094 56.1516C55.2684 56.3836 55.5436 56.5833 55.8404 56.7506Z" fill="#D8E3E3"/>
</g>
<path d="M68.2464 32.543L64.6094 30.4331C64.917 30.4925 65.2084 30.5842 65.489 30.6975L69.1206 32.8075C68.8508 32.6887 68.554 32.597 68.2464 32.543Z" fill="#D8E3E3"/>
<mask id="mask4_2932_8279" style="mask-type:luminance" maskUnits="userSpaceOnUse" x="64" y="30" width="6" height="3">
<path d="M68.2464 32.543L64.6094 30.4331C64.917 30.4925 65.2084 30.5842 65.489 30.6975L69.1206 32.8075C68.8508 32.6887 68.554 32.597 68.2464 32.543Z" fill="white"/>
</mask>
<g mask="url(#mask4_2932_8279)">
<path d="M68.2464 32.543L64.6094 30.4331C64.917 30.4925 65.2084 30.5842 65.489 30.6975L69.126 32.8075C68.8508 32.6887 68.554 32.597 68.2464 32.543Z" fill="#D8E3E3"/>
</g>
<path d="M55.0095 56.1509L52.5758 54.7371L52.4463 51.332L56.078 53.4474L55.0095 56.1509Z" fill="#CAD8E3"/>
<path d="M56.0779 53.4473L52.4409 51.3374C52.0793 50.9111 52.9751 51.1 52.7431 50.501L55.1768 51.9148C55.4142 52.5084 55.7164 53.021 56.0779 53.4473Z" fill="#D8E3E3"/>
<mask id="mask5_2932_8279" style="mask-type:luminance" maskUnits="userSpaceOnUse" x="52" y="50" width="5" height="4">
<path d="M56.0779 53.4473L52.4409 51.3374C52.0793 50.9111 52.9751 51.1 52.7431 50.501L55.1768 51.9148C55.4142 52.5084 55.7164 53.021 56.0779 53.4473Z" fill="white"/>
</mask>
<g mask="url(#mask5_2932_8279)">
<path d="M56.0779 53.4473L52.4409 51.3374C52.0793 50.9111 52.9751 51.1 52.7431 50.501L55.1768 51.9148C55.4142 52.5084 55.7164 53.021 56.0779 53.4473Z" fill="#B8C9D6"/>
</g>
<path d="M63.8539 33.3952L61.4202 31.9814L62.4509 29.2778L64.8845 30.6916L63.8539 33.3952Z" fill="#B8C9D6"/>
<path d="M64.8844 30.6922L62.4507 29.2784C63.7943 28.7225 65.0517 28.5013 66.1903 28.5768L68.624 29.9907C67.4854 29.9097 66.2226 30.131 64.8844 30.6922Z" fill="#D8E3E3"/>
<mask id="mask6_2932_8279" style="mask-type:luminance" maskUnits="userSpaceOnUse" x="62" y="28" width="7" height="3">
<path d="M64.8844 30.6922L62.4507 29.2784C63.7943 28.7225 65.0517 28.5013 66.1903 28.5768L68.624 29.9907C67.4854 29.9097 66.2226 30.131 64.8844 30.6922Z" fill="white"/>
</mask>
<g mask="url(#mask6_2932_8279)">
<path d="M64.8844 30.6922L62.4507 29.2784C63.7943 28.7225 65.0517 28.5013 66.1903 28.5768L68.624 29.9907C67.4854 29.9097 66.2226 30.131 64.8844 30.6922Z" fill="#E2EDED"/>
</g>
<path d="M62.9039 33.9457L60.4702 32.5318C60.6267 32.4347 60.7832 32.3322 60.9451 32.2404C61.1016 32.1487 61.2581 32.0678 61.4146 31.9868L63.8483 33.4006C63.6918 33.4816 63.5353 33.5679 63.3788 33.6543C63.2223 33.746 63.0604 33.8431 62.9039 33.9457Z" fill="#D8E3E3"/>
<mask id="mask7_2932_8279" style="mask-type:luminance" maskUnits="userSpaceOnUse" x="60" y="31" width="4" height="3">
<path d="M62.9039 33.9457L60.4702 32.5318C60.6267 32.4347 60.7832 32.3322 60.9451 32.2404C61.1016 32.1487 61.2581 32.0678 61.4146 31.9868L63.8483 33.4006C63.6918 33.4816 63.5353 33.5679 63.3788 33.6543C63.2223 33.746 63.0604 33.8431 62.9039 33.9457Z" fill="white"/>
</mask>
<g mask="url(#mask7_2932_8279)">
<path d="M62.9039 33.9457L60.4702 32.5318C60.6267 32.4347 60.7832 32.3322 60.9451 32.2404C61.1016 32.1487 61.2581 32.0678 61.4146 31.9868L63.8483 33.4006C63.6918 33.4816 63.5353 33.5679 63.3788 33.6543C63.2223 33.746 63.0604 33.8431 62.9039 33.9457Z" fill="#D8E3E3"/>
</g>
<path d="M54.7557 47.1292L52.322 45.7154C52.403 45.0894 52.5217 44.4527 52.6836 43.8159L55.1173 45.2297C54.9554 45.8665 54.8313 46.4978 54.7557 47.1292Z" fill="#D8E3E3"/>
<mask id="mask8_2932_8279" style="mask-type:luminance" maskUnits="userSpaceOnUse" x="52" y="43" width="4" height="5">
<path d="M54.7557 47.1292L52.322 45.7154C52.403 45.0894 52.5217 44.4527 52.6836 43.8159L55.1173 45.2297C54.9554 45.8665 54.8313 46.4978 54.7557 47.1292Z" fill="white"/>
</mask>
<g mask="url(#mask8_2932_8279)">
<path d="M54.7557 47.1292L52.322 45.7154C52.403 45.0894 52.5217 44.4527 52.6836 43.8159L55.1173 45.2297C54.9554 45.8665 54.8313 46.4978 54.7557 47.1292Z" fill="#B8C9D6"/>
</g>
<path d="M53.1584 53.1077L50.7247 51.6939C50.4441 50.755 50.2876 49.6811 50.2822 48.4832C50.2822 48.2241 50.2876 47.9597 50.3038 47.6953L52.7375 49.1091C52.7213 49.3735 52.7159 49.6326 52.7159 49.897C52.7213 51.0949 52.8778 52.1688 53.1584 53.1077Z" fill="#D8E3E3"/>
<mask id="mask9_2932_8279" style="mask-type:luminance" maskUnits="userSpaceOnUse" x="50" y="47" width="4" height="7">
<path d="M53.1584 53.1077L50.7247 51.6939C50.4441 50.755 50.2876 49.6811 50.2822 48.4832C50.2822 48.2241 50.2876 47.9597 50.3038 47.6953L52.7375 49.1091C52.7213 49.3735 52.7159 49.6326 52.7159 49.897C52.7213 51.0949 52.8778 52.1688 53.1584 53.1077Z" fill="white"/>
</mask>
<g mask="url(#mask9_2932_8279)">
<path d="M53.1584 53.1077L50.7247 51.6939C50.4441 50.755 50.2876 49.6811 50.2822 48.4832C50.2822 48.2241 50.2876 47.9597 50.3038 47.6953L52.7375 49.1091C52.7213 49.3735 52.7159 49.6326 52.7159 49.897C52.7213 51.0949 52.8778 52.1688 53.1584 53.1077Z" fill="#B8C9D6"/>
</g>
<path d="M52.7377 49.1145L50.304 47.6953L52.3221 45.7148L54.7559 47.1287L52.7377 49.1145Z" fill="#CAD8E3"/>
<path d="M57.6483 39.4339L55.2146 38.0201C55.4898 37.583 55.7812 37.1513 56.0888 36.7412L58.5225 38.155C58.2203 38.5651 57.9235 38.9968 57.6483 39.4339Z" fill="#D8E3E3"/>
<mask id="mask10_2932_8279" style="mask-type:luminance" maskUnits="userSpaceOnUse" x="55" y="36" width="4" height="4">
<path d="M57.6483 39.4339L55.2146 38.0201C55.4898 37.583 55.7812 37.1513 56.0888 36.7412L58.5225 38.155C58.2203 38.5651 57.9235 38.9968 57.6483 39.4339Z" fill="white"/>
</mask>
<g mask="url(#mask10_2932_8279)">
<path d="M57.6483 39.4339L55.2146 38.0201C55.4898 37.583 55.7812 37.1513 56.0888 36.7412L58.5225 38.155C58.2203 38.5651 57.9235 38.9968 57.6483 39.4339Z" fill="#D8E3E3"/>
</g>
<path d="M58.5224 38.1551L56.0887 36.7413L55.7056 34.626L58.1393 36.0398L58.5224 38.1551Z" fill="#B8C9D6"/>
<path d="M58.1393 36.0395L55.7056 34.6257C56.8334 33.2443 58.0961 32.0085 59.4344 31.0156L61.8681 32.4294C60.5244 33.4223 59.2671 34.6581 58.1393 36.0395Z" fill="#D8E3E3"/>
<mask id="mask11_2932_8279" style="mask-type:luminance" maskUnits="userSpaceOnUse" x="55" y="31" width="7" height="6">
<path d="M58.1393 36.0395L55.7056 34.6257C56.8334 33.2443 58.0961 32.0085 59.4344 31.0156L61.8681 32.4294C60.5244 33.4223 59.2671 34.6581 58.1393 36.0395Z" fill="white"/>
</mask>
<g mask="url(#mask11_2932_8279)">
<path d="M58.1393 36.0395L55.7056 34.6257C56.8334 33.2443 58.0961 32.0085 59.4344 31.0156L61.8681 32.4294C60.5244 33.4223 59.2671 34.6581 58.1393 36.0395Z" fill="#E2EDED"/>
</g>
<path d="M53.5362 44.6521L51.1025 43.2383C51.6044 41.5655 52.3221 39.898 53.2071 38.3115L55.6408 39.7253C54.7612 41.3064 54.0381 42.9739 53.5362 44.6521Z" fill="#D8E3E3"/>
<mask id="mask12_2932_8279" style="mask-type:luminance" maskUnits="userSpaceOnUse" x="51" y="38" width="5" height="7">
<path d="M53.5362 44.6521L51.1025 43.2383C51.6044 41.5655 52.3221 39.898 53.2071 38.3115L55.6408 39.7253C54.7612 41.3064 54.0381 42.9739 53.5362 44.6521Z" fill="white"/>
</mask>
<g mask="url(#mask12_2932_8279)">
<path d="M53.5362 44.6521L51.1025 43.2383C51.6044 41.5655 52.3221 39.898 53.2071 38.3115L55.6408 39.7253C54.7612 41.3064 54.0381 42.9739 53.5362 44.6521Z" fill="#D8E3E3"/>
</g>
<path d="M73.6751 41.2637L71.6569 42.4023C71.4302 43.2603 71.128 44.1183 70.7719 44.9655L71.8511 46.4333C71.1172 47.9388 70.2323 49.3904 69.2232 50.7179L67.6744 50.0865C67.0053 50.9013 66.2876 51.646 65.5267 52.2936L65.1976 54.8352C64.6256 55.2723 64.0428 55.6662 63.4438 56.0116C62.8448 56.3569 62.262 56.6375 61.69 56.8588L61.3446 54.7111C60.5838 54.9377 59.8607 55.0295 59.1916 54.9863L57.6536 57.3984C56.6445 57.2365 55.7541 56.8102 55.0095 56.1573L56.0779 53.4538C55.7164 53.0275 55.4142 52.5148 55.1822 51.9212L53.1586 53.1138C52.878 52.1749 52.7215 51.101 52.7161 49.903C52.7161 49.644 52.7215 49.3796 52.7377 49.1152L54.7558 47.1294C54.8368 46.5034 54.9555 45.8666 55.1174 45.2299L53.5417 44.6525C54.0435 42.9797 54.7612 41.3122 55.6462 39.7311L57.6536 39.4397C57.9288 39.0026 58.2202 38.5709 58.5278 38.1608L58.1447 36.0455C59.2725 34.6641 60.5352 33.4283 61.8735 32.4354L62.915 33.9464C63.0714 33.8492 63.2279 33.7467 63.3898 33.655C63.5463 33.5632 63.7028 33.4823 63.8593 33.4013L64.89 30.6924C66.2336 30.1366 67.491 29.9154 68.6296 29.9909L68.2572 32.5433C68.5648 32.6027 68.8562 32.6944 69.1368 32.8077L71.1388 30.7842C72.0292 31.3454 72.7523 32.1764 73.2649 33.2664L71.6947 35.6624C71.8619 36.1102 71.9861 36.6013 72.067 37.1355L74.0852 36.7902C74.1014 37.0384 74.1122 37.2866 74.1122 37.551C74.1068 38.749 73.9557 40.0009 73.6751 41.2637ZM63.4222 48.786C65.8559 47.383 67.8202 43.978 67.8148 41.1827C67.8094 38.3821 65.8289 37.2542 63.3952 38.6627C60.9615 40.0657 58.9919 43.4761 59.0027 46.2714C59.0081 49.0666 60.9939 50.189 63.4222 48.786Z" fill="#FEFFFF"/>
<path d="M55.6407 39.7247L53.207 38.3109L55.2144 38.0195L57.6481 39.4333L55.6407 39.7247Z" fill="#E2EDED"/>
<path d="M67.329 74.04C67.1024 74.6498 66.7678 75.0383 66.4117 75.157C65.3972 74.6606 65.0734 73.8026 65.095 72.7341C65.1166 71.7358 65.435 70.7753 66.3199 70.1709C66.5682 70.1709 66.8164 70.295 67.0322 70.5702C67.6258 71.3149 67.7607 72.869 67.329 74.04Z" fill="#45414A"/>
<defs>
<linearGradient id="paint0_linear_2932_8279" x1="53.1307" y1="67.0278" x2="55.462" y2="97.3436" gradientUnits="userSpaceOnUse">
<stop stop-color="#2FA4E2"/>
<stop offset="1" stop-color="#3958CC"/>
</linearGradient>
<linearGradient id="paint1_linear_2932_8279" x1="70.7042" y1="23.7734" x2="82.3729" y2="23.7734" gradientUnits="userSpaceOnUse">
<stop offset="0.1372" stop-color="#AABBD6"/>
<stop offset="0.198" stop-color="#AEBDD8"/>
<stop offset="0.7099" stop-color="#CCCDE8"/>
<stop offset="1" stop-color="#D7D3EE"/>
</linearGradient>
<linearGradient id="paint2_linear_2932_8279" x1="84.7639" y1="25.0305" x2="93.3403" y2="44.6555" gradientUnits="userSpaceOnUse">
<stop stop-color="#2FA4E2"/>
<stop offset="1" stop-color="#3958CC"/>
</linearGradient>
<linearGradient id="paint3_linear_2932_8279" x1="84.3951" y1="48.7851" x2="70.738" y2="25.1303" gradientUnits="userSpaceOnUse">
<stop offset="0.1372" stop-color="#AABBD6"/>
<stop offset="0.198" stop-color="#AEBDD8"/>
<stop offset="0.7099" stop-color="#CCCDE8"/>
<stop offset="1" stop-color="#D7D3EE"/>
</linearGradient>
<linearGradient id="paint4_linear_2932_8279" x1="69.9517" y1="37.2064" x2="84.3211" y2="37.2064" gradientUnits="userSpaceOnUse">
<stop offset="0.1372" stop-color="#AABBD6"/>
<stop offset="0.198" stop-color="#AEBDD8"/>
<stop offset="0.7099" stop-color="#CCCDE8"/>
<stop offset="1" stop-color="#D7D3EE"/>
</linearGradient>
<linearGradient id="paint5_linear_2932_8279" x1="86.2727" y1="48.7425" x2="71.5191" y2="23.189" gradientUnits="userSpaceOnUse">
<stop offset="0.1651" stop-color="#5A545E"/>
<stop offset="0.4528" stop-color="#615B66"/>
<stop offset="0.7863" stop-color="#706875"/>
</linearGradient>
<linearGradient id="paint6_linear_2932_8279" x1="43.1562" y1="74.3965" x2="28.4029" y2="48.8429" gradientUnits="userSpaceOnUse">
<stop offset="0.1651" stop-color="#5A545E"/>
<stop offset="0.4528" stop-color="#615B66"/>
<stop offset="0.7863" stop-color="#706875"/>
</linearGradient>
<linearGradient id="paint7_linear_2932_8279" x1="32.1723" y1="55.7249" x2="40.7487" y2="75.3499" gradientUnits="userSpaceOnUse">
<stop stop-color="#2FA4E2"/>
<stop offset="1" stop-color="#3958CC"/>
</linearGradient>
<linearGradient id="paint8_linear_2932_8279" x1="31.8009" y1="79.4793" x2="18.144" y2="55.8245" gradientUnits="userSpaceOnUse">
<stop stop-color="#D8DCED"/>
<stop offset="0.8163" stop-color="#EDEAFB"/>
</linearGradient>
<linearGradient id="paint9_linear_2932_8279" x1="64.236" y1="0.551057" x2="64.7021" y2="7.02333" gradientUnits="userSpaceOnUse">
<stop stop-color="#2FA4E2"/>
<stop offset="1" stop-color="#3958CC"/>
</linearGradient>
<linearGradient id="paint10_linear_2932_8279" x1="51.3024" y1="4.11198" x2="52.3431" y2="11.443" gradientUnits="userSpaceOnUse">
<stop stop-color="#2FA4E2"/>
<stop offset="1" stop-color="#3958CC"/>
</linearGradient>
<linearGradient id="paint11_linear_2932_8279" x1="34.8309" y1="12.0638" x2="51.5989" y2="52.8196" gradientUnits="userSpaceOnUse">
<stop stop-color="#2FA4E2"/>
<stop offset="1" stop-color="#3958CC"/>
</linearGradient>
<linearGradient id="paint12_linear_2932_8279" x1="57.4742" y1="42.3181" x2="42.4949" y2="16.3735" gradientUnits="userSpaceOnUse">
<stop stop-color="#D5CEEE"/>
<stop offset="0.1009" stop-color="#CECAEA"/>
<stop offset="0.5871" stop-color="#B0B7DC"/>
<stop offset="0.8628" stop-color="#A5B0D6"/>
</linearGradient>
</defs>
</svg>
