<svg width="100" height="126" viewBox="0 0 100 126" fill="none" xmlns="http://www.w3.org/2000/svg">
<path d="M57.0546 21.5169C57.0983 21.4949 57.142 21.4803 57.1858 21.4656C57.2878 21.4217 57.3898 21.3777 57.4845 21.3485C57.5428 21.3265 57.6011 21.3192 57.6594 21.2972C57.7396 21.2753 57.8271 21.2459 57.9072 21.2313C57.9655 21.2167 58.0238 21.2167 58.0821 21.202C58.155 21.1874 58.2352 21.1727 58.308 21.1654C58.3663 21.1581 58.4246 21.1654 58.4757 21.1581C58.5485 21.1581 58.6214 21.1508 58.687 21.1508C58.7453 21.1508 58.7963 21.1654 58.8473 21.1727C58.9129 21.1801 58.9785 21.1874 59.0441 21.1947H59.0514C59.1024 21.202 59.1461 21.224 59.1971 21.2386C59.2554 21.2533 59.321 21.2679 59.3793 21.2899C59.4303 21.3119 59.4741 21.3338 59.5251 21.3558C59.5834 21.3778 59.6344 21.4071 59.6927 21.4363H59.7L57.7396 20.2941C56.9525 19.8328 55.8594 19.8987 54.6497 20.6016L56.61 21.7438C56.7631 21.6633 56.9088 21.5901 57.0546 21.5169Z" fill="#358DB8"/>
<path d="M56.2312 26.8032L6.69727 55.5346L6.81387 94.4948L56.3405 65.7634L56.2312 26.8032Z" fill="white"/>
<path d="M2.08426 101.334L1.96037 58.4708L0 57.3213L0.123889 100.199L2.08426 101.341V101.334Z" fill="#358DB8"/>
<path d="M56.61 21.7511L54.6496 20.6089L4.32861 49.7942L6.28898 50.9364L56.61 21.7511Z" fill="#2EA6E1"/>
<path d="M59.3794 21.2968C59.3211 21.2749 59.2555 21.2602 59.1972 21.2456C59.1462 21.2309 59.0951 21.2163 59.0441 21.2016C58.9785 21.187 58.913 21.187 58.8474 21.1797C58.7964 21.1724 58.7381 21.165 58.687 21.1577C58.6215 21.1577 58.5486 21.1577 58.4757 21.165C58.4174 21.165 58.3664 21.165 58.3081 21.1724C58.2352 21.1797 58.155 21.1943 58.0822 21.209C58.0239 21.2163 57.9656 21.2236 57.9073 21.2382C57.8271 21.2529 57.7469 21.2822 57.6595 21.3041C57.6012 21.3188 57.5429 21.3334 57.4846 21.3554C57.3898 21.392 57.2878 21.4359 57.1858 21.4726C57.1421 21.4945 57.0983 21.5092 57.0546 21.5238C56.9089 21.5897 56.7558 21.6702 56.6101 21.7581L6.29639 50.9434C3.89877 52.3346 1.96026 55.7027 1.96755 58.4777L2.09144 101.341L61.092 67.1177L60.9681 24.2476C60.9608 22.8711 60.4798 21.8972 59.6927 21.4433C59.6417 21.414 59.5834 21.392 59.5251 21.3627C59.4814 21.3408 59.4304 21.3188 59.3794 21.2968ZM56.3404 65.7631L6.81381 94.4945L6.7045 55.5343L56.2311 26.8029L56.3404 65.7631Z" fill="#06195E"/>
<path d="M6.28923 50.9367L4.32886 49.7944C1.93124 51.1856 -0.00726713 54.561 2.04806e-05 57.3287L1.96039 58.4709C1.9531 55.7032 3.89889 52.3278 6.28923 50.9367Z" fill="#358DB8"/>
<path d="M99.1479 91.1489V91.1563C99.1479 91.2295 99.1333 91.31 99.126 91.3832C99.1187 91.4491 99.1187 91.515 99.1114 91.5809C99.0969 91.6542 99.075 91.7347 99.0531 91.8079C99.0385 91.8738 99.024 91.9397 99.0021 92.0056C98.9803 92.0788 98.9365 92.1594 98.9074 92.2326C98.8782 92.2985 98.8564 92.3571 98.8272 92.423C98.7908 92.4962 98.7398 92.5767 98.6887 92.65C98.6523 92.7085 98.6232 92.7744 98.5794 92.833C98.5284 92.9062 98.4628 92.9794 98.4045 93.0527C98.3608 93.1112 98.3171 93.1698 98.2661 93.2211C98.1932 93.3016 98.113 93.3748 98.0329 93.448C97.9818 93.4993 97.9381 93.5505 97.8798 93.5945C97.7851 93.675 97.683 93.7556 97.581 93.8288C97.53 93.8727 97.479 93.9093 97.4207 93.9532C97.2604 94.0704 97.0855 94.1802 96.896 94.2901L96.9033 96.5672C98.3972 95.7032 99.1479 94.561 99.1406 93.4261L99.1479 91.1489Z" fill="#358DB8"/>
<path d="M57.8126 112.975L79.6463 100.308L70.1068 94.7363L48.2659 107.403L57.8126 112.975Z" fill="white"/>
<path d="M8.96387 101.297L29.3546 113.202L80.6594 83.446L60.2687 71.5405L8.96387 101.297Z" fill="white"/>
<path d="M2.08423 101.333V101.341L2.09152 103.611L37.9539 124.551L37.9466 122.274L2.08423 101.333Z" fill="#358DB8"/>
<path d="M48.6667 122.282L48.674 124.559L96.918 96.5745L96.9107 94.2974L48.6667 122.282Z" fill="#2EA6E1"/>
<path d="M2.08423 101.333L37.9466 122.274C40.8981 123.995 45.7006 124.002 48.6739 122.274L96.9179 94.2895C97.1074 94.1796 97.2823 94.0698 97.4426 93.9527C97.501 93.916 97.5447 93.8721 97.603 93.8282C97.705 93.7476 97.807 93.6744 97.9018 93.5939C97.9601 93.5426 98.0038 93.4914 98.0548 93.4474C98.135 93.3742 98.2151 93.2937 98.288 93.2205C98.339 93.1619 98.3755 93.1033 98.4265 93.0521C98.4848 92.9788 98.5504 92.9056 98.6014 92.8324C98.6451 92.7738 98.6742 92.7153 98.7107 92.6494C98.7544 92.5761 98.8054 92.5029 98.8492 92.4224C98.8783 92.3565 98.9002 92.2979 98.9293 92.232C98.9585 92.1588 98.9949 92.0856 99.0241 92.005C99.0459 91.9391 99.0532 91.8732 99.0751 91.8073C99.0969 91.7341 99.1188 91.6536 99.1334 91.5803C99.1407 91.5144 99.1479 91.4485 99.1479 91.3826C99.1552 91.3094 99.1625 91.2289 99.1698 91.1557C99.1698 90.0281 98.4338 88.9005 96.9689 88.0438L61.1066 67.103L2.08423 101.333ZM60.2685 71.5401L80.6593 83.4457L29.3545 113.209L8.96374 101.304L60.2685 71.5401ZM70.1068 94.7361L79.6463 100.308L57.8053 112.975L48.2658 107.403L70.1068 94.7361Z" fill="#36689A"/>
<path d="M37.9465 122.274L37.9538 124.552C40.9053 126.272 45.7078 126.28 48.6812 124.552L48.6739 122.274C45.7006 124.002 40.898 123.995 37.9465 122.274Z" fill="#358DB8"/>
<path d="M55.2161 35.8355C55.264 35.8129 55.3091 35.7987 55.357 35.7789C55.45 35.7392 55.543 35.6968 55.6361 35.6656C55.6924 35.6458 55.746 35.6345 55.7996 35.6203C55.8813 35.5976 55.963 35.5693 56.0391 35.5523C56.0955 35.541 56.1491 35.5353 56.2054 35.5268C56.2787 35.5155 56.3548 35.4985 56.4281 35.4929C56.4845 35.4872 56.538 35.49 56.5916 35.49C56.6593 35.4872 56.7297 35.4815 56.7974 35.4872C56.8509 35.49 56.9017 35.5014 56.9552 35.507C57.02 35.5155 57.0849 35.5184 57.1441 35.5297C57.1948 35.541 57.2427 35.558 57.2935 35.5722C57.3526 35.5892 57.4118 35.6033 57.4682 35.6231C57.5161 35.6401 57.5612 35.6656 57.6063 35.6883C57.6599 35.7138 57.7163 35.7364 57.767 35.7647C57.7698 35.7676 57.7726 35.7676 57.7754 35.7676L55.1625 34.2411C54.3958 33.7937 53.336 33.856 52.1663 34.5357L54.782 36.0621C54.9314 35.9743 55.0751 35.9007 55.2161 35.8355Z" fill="#004C69"/>
<path d="M51.4248 45.7672C51.3882 45.7304 51.3487 45.6992 51.3121 45.6596C51.2698 45.6142 51.236 45.5576 51.1965 45.5066C51.1655 45.4641 51.1317 45.4245 51.1007 45.3792C51.0641 45.3226 51.0359 45.2602 51.002 45.2008C50.9767 45.1526 50.9457 45.1073 50.9231 45.0563C50.8921 44.9912 50.8696 44.9176 50.8414 44.8496C50.8216 44.7958 50.7991 44.7476 50.7794 44.6938C50.754 44.6174 50.7371 44.5324 50.7174 44.4531C50.7033 44.3993 50.6864 44.3455 50.6751 44.2889C50.6553 44.1954 50.6441 44.0935 50.6328 43.9944C50.6272 43.9434 50.6159 43.8952 50.6102 43.8442C50.5962 43.6885 50.5877 43.5271 50.5877 43.36C50.5792 40.6753 52.4537 37.4072 54.7791 36.0592L52.1633 34.5327C49.8379 35.8807 47.9635 39.1488 47.972 41.8336C47.9748 42.3348 48.0396 42.7794 48.1636 43.1646C48.2454 43.4195 48.3525 43.6488 48.4821 43.8499C48.547 43.949 48.6174 44.0425 48.6907 44.1274C48.8401 44.2974 49.012 44.439 49.2009 44.5494L51.8138 46.0758C51.7659 46.0475 51.7208 46.0107 51.6757 45.9796C51.6334 45.9512 51.5883 45.9229 51.5489 45.8918C51.5094 45.855 51.4699 45.8096 51.4248 45.7672Z" fill="#004C69"/>
<path d="M57.7727 35.7617C57.722 35.7334 57.6656 35.7107 57.612 35.6853C57.567 35.6626 57.5218 35.6371 57.4739 35.6201C57.4176 35.5975 57.3584 35.5861 57.2992 35.5691C57.2484 35.555 57.2005 35.538 57.1498 35.5267C57.0878 35.5153 57.0229 35.5097 56.9609 35.504C56.9074 35.4984 56.8566 35.487 56.8031 35.4842C56.7354 35.4814 56.665 35.487 56.5973 35.487C56.5438 35.4898 56.4902 35.487 56.4338 35.4898C56.3606 35.4955 56.2844 35.5125 56.2112 35.5238C56.1548 35.5323 56.1012 35.538 56.0449 35.5493C55.9659 35.5663 55.8842 35.5946 55.8053 35.6173C55.7517 35.6343 55.6953 35.6456 55.6418 35.6626C55.5516 35.6938 55.4557 35.7362 55.3627 35.7759C55.3148 35.7957 55.2697 35.8099 55.2218 35.8325C55.0809 35.8977 54.9343 35.9741 54.7905 36.0591C52.4651 37.4071 50.5907 40.6752 50.5991 43.3599C50.5991 43.527 50.6076 43.6884 50.6217 43.8442C50.6273 43.8951 50.6358 43.9433 50.6442 43.9943C50.6583 44.0934 50.6696 44.1953 50.6865 44.2888C50.6978 44.3454 50.7147 44.3964 50.7288 44.4531C50.7485 44.5352 50.7655 44.6173 50.7908 44.6938C50.8077 44.7476 50.8303 44.7986 50.8528 44.8495C50.8782 44.9203 50.9036 44.9911 50.9346 45.0563C50.9571 45.1072 50.9881 45.1526 51.0135 45.2007C51.0445 45.2602 51.0755 45.3225 51.1121 45.3791C51.1403 45.4244 51.177 45.4641 51.208 45.5065C51.2446 45.5575 51.2813 45.6113 51.3236 45.6595C51.3574 45.6991 51.3968 45.7303 51.4363 45.7671C51.4786 45.8096 51.5209 45.8549 51.566 45.8917C51.6054 45.9257 51.6505 45.9512 51.6928 45.9795C52.4651 46.5232 53.5785 46.5034 54.8215 45.7812C57.147 44.4332 59.027 41.1623 59.0186 38.4776C59.0045 37.1409 58.5338 36.2007 57.7727 35.7617Z" fill="#00AEEF"/>
<path d="M61.3099 26.654C61.3719 26.6681 61.4255 26.6936 61.479 26.722C61.4847 26.7248 61.4931 26.7276 61.4988 26.7304L58.8858 25.204C58.8295 25.17 58.7646 25.1445 58.697 25.1276C56.8507 24.6603 54.5873 25.0681 52.1492 26.4841L54.7649 28.0105C57.2003 26.5945 59.4637 26.1867 61.3099 26.654Z" fill="#004C69"/>
<path d="M48.2312 34.2412C50.069 31.6357 52.3212 29.4268 54.7621 28.0108L52.1464 26.4844C49.7082 27.9004 47.4561 30.1093 45.6155 32.7147C45.3759 33.0574 45.204 33.4227 45.1025 33.7767C45.063 33.9183 45.032 34.0571 45.0151 34.193C45.0067 34.261 45.001 34.3261 44.9982 34.3941C44.9954 34.4592 44.9954 34.5243 44.9982 34.5866C45.0151 35.0228 45.1701 35.3768 45.4689 35.5467L48.0847 37.0731C47.4054 36.6823 47.4617 35.3343 48.2312 34.2412Z" fill="#004C69"/>
<path d="M61.4792 26.7248C61.4257 26.6965 61.3721 26.671 61.3101 26.6568C59.4639 26.1896 57.2005 26.5974 54.7623 28.0134C52.3241 29.4294 50.072 31.6383 48.2314 34.2437C47.4619 35.3369 47.4027 36.6849 48.082 37.0729C48.3893 37.2484 48.7895 37.1946 49.1926 36.9596C49.5167 36.7727 49.8409 36.4696 50.1199 36.076C51.4278 34.2324 53.0373 32.6578 54.7708 31.6525C56.5099 30.6443 58.1166 30.3526 59.4357 30.6726C59.7176 30.7405 60.0417 30.6669 60.363 30.48C60.7661 30.245 61.1664 29.8343 61.4764 29.2962C62.0965 28.2201 62.0881 27.0562 61.4792 26.7248Z" fill="#00AEEF"/>
<path d="M54.7397 19.6566C59.1932 17.0738 63.2859 16.5358 66.4852 17.728C66.5274 17.745 66.5669 17.762 66.6035 17.7847L63.9906 16.2582C63.954 16.2356 63.9145 16.2186 63.8722 16.2016C60.9746 15.1198 57.3413 15.4653 53.3754 17.459C53.0034 17.7025 52.6369 17.9546 52.2705 18.2151L54.7397 19.6566Z" fill="#004C69"/>
<path d="M70.6314 10.6338C70.6624 10.6451 70.6905 10.6621 70.7159 10.6762L68.103 9.1498C68.0748 9.13281 68.0466 9.11865 68.0184 9.10732C63.7538 7.29203 58.184 7.92072 52.1069 11.4465L54.7227 12.973C60.797 9.44716 66.3639 8.81846 70.6314 10.6338Z" fill="#004C69"/>
<path d="M43.0251 31.3353C46.2046 26.4416 50.2917 22.2333 54.7396 19.6534L52.2704 18.2119C47.9691 21.2903 44.0596 25.6459 40.959 30.565C40.6546 31.0493 40.2797 31.4203 39.902 31.6383C39.8794 31.6496 39.8597 31.661 39.8372 31.6723C39.8597 32.0858 40.0091 32.4199 40.2938 32.5842L42.9067 34.1106C42.2471 33.7311 42.3063 32.4426 43.0251 31.3353Z" fill="#004C69"/>
<path d="M54.7399 19.6562C50.292 22.2362 46.2049 26.4416 43.0254 31.3381C42.3066 32.4454 42.2503 33.734 42.9098 34.1163C43.2171 34.289 43.6145 34.2324 44.0176 34.0002C44.3868 33.7878 44.7561 33.4253 45.0605 32.958C47.6903 28.9111 51.0728 25.4335 54.7483 23.301C58.4295 21.1657 61.8204 20.7154 64.4643 21.7009C64.7716 21.8142 65.1437 21.7462 65.5101 21.531C65.9103 21.2988 66.3078 20.8938 66.6094 20.3671C67.2689 19.2173 67.2041 17.9995 66.4825 17.7277C63.2833 16.5326 59.1906 17.0735 54.7399 19.6562Z" fill="#00AEEF"/>
<path d="M38.8478 29.0697C43.0928 22.3182 48.6484 16.4957 54.7199 12.9727L52.1041 11.4463C46.0327 14.9693 40.477 20.7918 36.2321 27.5432C35.5528 28.6279 35.5359 29.8569 36.1785 30.2308L38.7915 31.7572C38.1516 31.3834 38.1685 30.1543 38.8478 29.0697Z" fill="#004C69"/>
<path d="M70.6314 10.6337C66.3667 8.81839 60.7969 9.44709 54.7199 12.9729C48.6484 16.4959 43.0928 22.3184 38.8478 29.0698C38.1685 30.1545 38.1516 31.3836 38.7943 31.7574C39.0846 31.9216 39.4595 31.8763 39.8372 31.6753C39.8597 31.6639 39.8795 31.6526 39.902 31.6413C40.2769 31.4232 40.6546 31.0522 40.959 30.5679C44.0596 25.646 47.9691 21.2932 52.2704 18.2149C52.6368 17.9543 53.0033 17.6995 53.3753 17.4587C53.8235 17.1642 54.2745 16.881 54.7311 16.6177C60.0021 13.5591 64.8361 13.0125 68.5399 14.573C68.8443 14.7032 69.222 14.6381 69.5969 14.42C69.9972 14.1878 70.3946 13.78 70.7018 13.2476C71.3417 12.1318 71.3191 10.9254 70.6314 10.6337Z" fill="#00AEEF"/>
<path d="M50.3818 16.7456L50.4185 30.2626L51.7912 31.064L51.7489 15.9526L50.3818 16.7456Z" fill="#808080"/>
<path d="M53.4485 0.962891L47.2869 16.9466L48.6567 17.748L54.8212 1.76151L53.4485 0.962891Z" fill="#818181"/>
<path d="M61.0505 10.5573L54.8212 1.76123L48.6567 17.7477L50.3818 16.7452L51.7488 15.9522L51.7911 31.0637L58.0035 27.4614L57.9612 12.35L61.0505 10.5573Z" fill="#F1F2F2"/>
</svg>
