<svg width="92" height="96" viewBox="0 0 92 96" fill="none" xmlns="http://www.w3.org/2000/svg">
<path d="M55.4418 11.5479V11.4225L55.4253 11.4258C55.389 11.1223 55.2273 10.832 54.9238 10.6571L37.1547 0.396838C36.2442 -0.127722 35.1225 -0.127722 34.2119 0.396838L0.514663 19.8518C0.171554 20.0497 0 20.3961 0 20.7458V68.9295C0 69.2759 0.171554 69.6257 0.514663 69.8236L18.2837 80.0839C19.1943 80.6084 20.316 80.6084 21.2266 80.0839L54.9238 60.6289C55.2966 60.4145 55.4616 60.0219 55.4286 59.6458L55.4352 59.6425L55.4418 11.5479Z" fill="url(#paint0_linear_2932_8281)"/>
<path d="M55.4287 11.4263C55.3924 11.1228 55.2307 10.8325 54.9272 10.6576L37.1581 0.397327C36.2476 -0.127234 35.1259 -0.127234 34.2153 0.397327L19.7717 8.73751V80.477C20.2765 80.4737 20.778 80.345 21.2299 80.0844L54.9272 60.6294C55.3 60.415 55.465 60.0224 55.432 59.6463L55.4386 59.643L55.4452 11.5517V11.4263H55.4287Z" fill="white"/>
<path d="M18.2872 31.8968L0.518081 21.6365C-0.168136 21.2406 -0.168136 20.2475 0.518081 19.8484L34.2153 0.393421C35.1259 -0.13114 36.2476 -0.13114 37.1582 0.393421L54.9272 10.6537C55.6134 11.0496 55.6134 12.0426 54.9272 12.4418L21.23 31.8968C20.3194 32.4213 19.1977 32.4213 18.2872 31.8968Z" fill="url(#paint1_linear_2932_8281)"/>
<path d="M21.2299 31.8967C20.3193 32.4213 19.1976 32.4213 18.2871 31.8967L18.2178 31.8571V80.0408L18.2871 80.0804C19.1976 80.605 20.3193 80.605 21.2299 80.0804L21.4509 79.9518V31.7681L21.2299 31.8967Z" fill="#4C6786"/>
<path d="M33.6675 16.9813L24.2386 11.5377C23.4534 11.0857 22.49 11.0857 21.7048 11.5377L12.2759 16.9813C11.9856 17.1495 11.8372 17.4431 11.8372 17.7401V18.9673C11.8372 19.261 11.9823 19.5579 12.2759 19.7261L21.7048 25.1697C22.49 25.6217 23.4534 25.6217 24.2386 25.1697L33.6675 19.7261C33.9578 19.5579 34.1062 19.2643 34.1062 18.9673V17.7401C34.1062 17.4464 33.9611 17.1495 33.6675 16.9813Z" fill="#328CDB"/>
<path d="M21.705 23.943L12.2761 18.4995C11.6921 18.163 11.6921 17.3217 12.2761 16.9852L21.705 11.5416C22.4902 11.0896 23.4535 11.0896 24.2387 11.5416L33.6676 16.9852C34.2516 17.3217 34.2516 18.163 33.6676 18.4995L24.2387 23.943C23.4535 24.395 22.4902 24.395 21.705 23.943Z" fill="white"/>
<path d="M29.2433 17.7897L22.358 13.8143C22.0677 13.646 22.104 13.3491 22.4405 13.1544C22.777 12.9598 23.2884 12.94 23.582 13.1083L30.4673 17.0837C30.7576 17.252 30.7213 17.5489 30.3848 17.7435C30.0483 17.9382 29.5336 17.958 29.2433 17.7897Z" fill="#96C8FA"/>
<path d="M26.8778 19.2345L19.9926 15.2591C19.7022 15.0908 19.7385 14.7939 20.075 14.5993C20.4116 14.4046 20.9229 14.3848 21.2165 14.5531L28.1018 18.5285C28.3921 18.6968 28.3558 18.9937 28.0193 19.1884C27.6828 19.3797 27.1682 19.4028 26.8778 19.2345Z" fill="#96C8FA"/>
<path d="M24.5124 20.6798L17.6271 16.7044C17.3368 16.5362 17.3731 16.2392 17.7096 16.0446C18.0461 15.8499 18.5574 15.8301 18.8511 15.9984L25.7363 19.9738C26.0267 20.1421 25.9904 20.439 25.6539 20.6337C25.3173 20.825 24.8027 20.8481 24.5124 20.6798Z" fill="#96C8FA"/>
<path d="M22.1471 22.1217L15.2618 18.1463C14.9715 17.978 15.0078 17.6811 15.3443 17.4865C15.6808 17.2918 16.1922 17.272 16.4858 17.4403L23.3711 21.4157C23.6614 21.584 23.6251 21.8809 23.2886 22.0756C22.9521 22.2702 22.4374 22.29 22.1471 22.1217Z" fill="#96C8FA"/>
<path d="M45.7096 8.5157L35.0931 2.38593C34.2122 1.87787 33.1235 1.87787 32.2426 2.38593L27.1818 5.25947C26.8518 5.44752 26.6902 5.78073 26.6902 6.11394V9.19202C26.6902 9.52524 26.8551 9.85515 27.1818 10.0465L37.7983 16.1763C38.6792 16.6843 39.7679 16.6843 40.6488 16.1763L45.7096 13.3027C46.0395 13.1147 46.2012 12.7815 46.2012 12.4483V9.37017C46.2045 9.03696 46.0395 8.70705 45.7096 8.5157Z" fill="#395BCD"/>
<path d="M37.7982 13.0949L27.1816 6.96511C26.5251 6.58572 26.5251 5.63887 27.1816 5.25947L32.2425 2.38593C33.1233 1.87787 34.212 1.87787 35.0929 2.38593L45.7095 8.5157C46.366 8.8951 46.366 9.84195 45.7095 10.2213L40.6486 13.0949C39.7645 13.6063 38.6791 13.6063 37.7982 13.0949Z" fill="white"/>
<path d="M16.0767 36.2877L1.96964 28.096C1.60344 27.8848 1.30981 27.3207 1.30981 26.8324V25.4468C1.30981 24.9618 1.60674 24.7375 1.96964 24.9486L16.0767 33.1403C16.4429 33.3515 16.7365 33.9156 16.7365 34.4039V35.7895C16.7398 36.2745 16.4429 36.4988 16.0767 36.2877Z" fill="white"/>
<path d="M15.2882 35.2614L2.76148 27.9802C2.34579 27.7394 2.00928 27.0961 2.00928 26.5451C2.00928 25.9908 2.34579 25.7368 2.76148 25.9777L15.2882 33.2588C15.7039 33.4997 16.0405 34.143 16.0405 34.6939C16.0405 35.2449 15.7039 35.4989 15.2882 35.2614Z" fill="#392B4F"/>
<path d="M15.0935 34.0971C15.0935 34.4237 14.8626 34.5556 14.5822 34.394C14.2984 34.229 14.0708 33.8331 14.0708 33.5065C14.0708 33.1799 14.3017 33.0479 14.5822 33.2096C14.8626 33.3746 15.0935 33.7705 15.0935 34.0971Z" fill="#574278"/>
<path d="M12.8631 32.8109C12.8631 33.1375 12.6321 33.2695 12.3517 33.1079C12.068 32.9429 11.8403 32.547 11.8403 32.2204C11.8403 31.8938 12.0713 31.7618 12.3517 31.9235C12.6321 32.0851 12.8631 32.4843 12.8631 32.8109Z" fill="#43325C"/>
<path d="M10.6331 31.5238C10.6331 31.8504 10.4021 31.9824 10.1217 31.8207C9.83799 31.6558 9.61035 31.2599 9.61035 30.9333C9.61035 30.6067 9.84129 30.4747 10.1217 30.6364C10.4021 30.798 10.6331 31.1939 10.6331 31.5238Z" fill="#96C8FA"/>
<path d="M8.40286 30.2338C8.40286 30.5604 8.17192 30.6924 7.89149 30.5307C7.60777 30.3657 7.38013 29.9699 7.38013 29.6432C7.38013 29.3166 7.61107 29.1847 7.89149 29.3463C8.17192 29.5113 8.40286 29.9072 8.40286 30.2338Z" fill="#43325C"/>
<path d="M3.94216 27.661C3.94216 27.9876 3.71122 28.1196 3.4308 27.958C3.14707 27.793 2.91943 27.3971 2.91943 27.0705C2.91943 26.7439 3.15037 26.6119 3.4308 26.7736C3.71122 26.9352 3.94216 27.3344 3.94216 27.661Z" fill="#96C8FA"/>
<path d="M6.17263 28.9477C6.17263 29.2743 5.94169 29.4062 5.66126 29.2446C5.37754 29.0796 5.1499 28.6837 5.1499 28.3571C5.1499 28.0305 5.38084 27.8985 5.66126 28.0602C5.94169 28.2251 6.17263 28.621 6.17263 28.9477Z" fill="#574278"/>
<path d="M25.9246 35.1827L51.12 20.7556C51.5357 20.5148 51.8722 19.8714 51.8722 19.3205C51.8722 18.7662 51.5357 18.5122 51.12 18.753L25.9246 33.1801C25.5089 33.4209 25.1724 34.0643 25.1724 34.6152C25.1724 35.1695 25.5089 35.4235 25.9246 35.1827Z" fill="#395ACD"/>
<path d="M25.9246 40.0489L51.12 25.6218C51.5357 25.381 51.8722 24.7377 51.8722 24.1867C51.8722 23.6324 51.5357 23.3784 51.12 23.6193L25.9246 38.0463C25.5089 38.2872 25.1724 38.9305 25.1724 39.4814C25.1724 40.0324 25.5089 40.2864 25.9246 40.0489Z" fill="#395ACD"/>
<path d="M25.9246 44.9156L51.12 30.4885C51.5357 30.2477 51.8722 29.6044 51.8722 29.0534C51.8722 28.4991 51.5357 28.2451 51.12 28.486L25.9246 42.913C25.5089 43.1539 25.1724 43.7972 25.1724 44.3481C25.1724 44.8991 25.5089 45.1531 25.9246 44.9156Z" fill="#395ACD"/>
<path d="M25.9246 49.7779L51.12 35.3508C51.5357 35.11 51.8722 34.4667 51.8722 33.9157C51.8722 33.3615 51.5357 33.1074 51.12 33.3483L25.9246 47.7753C25.5089 48.0162 25.1724 48.6595 25.1724 49.2104C25.1724 49.7647 25.5089 50.0187 25.9246 49.7779Z" fill="#395ACD"/>
<path d="M25.9246 54.6441L51.12 40.217C51.5357 39.9762 51.8722 39.3329 51.8722 38.7819C51.8722 38.2277 51.5357 37.9736 51.12 38.2145L25.9246 52.6415C25.5089 52.8824 25.1724 53.5257 25.1724 54.0767C25.1724 54.6309 25.5089 54.8849 25.9246 54.6441Z" fill="#395ACD"/>
<path d="M25.9246 59.5103L51.12 45.0832C51.5357 44.8424 51.8722 44.1991 51.8722 43.6481C51.8722 43.0939 51.5357 42.8398 51.12 43.0807L25.9246 57.5077C25.5089 57.7486 25.1724 58.3919 25.1724 58.9429C25.1724 59.4938 25.5089 59.7512 25.9246 59.5103Z" fill="#395ACD"/>
<path d="M25.9246 64.3765L51.12 49.9495C51.5357 49.7086 51.8722 49.0653 51.8722 48.5143C51.8722 47.9601 51.5357 47.7061 51.12 47.9469L25.9246 62.374C25.5089 62.6148 25.1724 63.2581 25.1724 63.8091C25.1724 64.36 25.5089 64.6141 25.9246 64.3765Z" fill="#395ACD"/>
<path d="M25.9246 69.2432L51.12 54.8162C51.5357 54.5753 51.8722 53.932 51.8722 53.381C51.8722 52.8268 51.5357 52.5728 51.12 52.8136L25.9246 67.2407C25.5089 67.4815 25.1724 68.1248 25.1724 68.6758C25.1724 69.2267 25.5089 69.4808 25.9246 69.2432Z" fill="#395ACD"/>
<path d="M16.0767 41.359L1.96964 33.1673C1.60344 32.9561 1.30981 32.392 1.30981 31.9037V30.5181C1.30981 30.0331 1.60674 29.8088 1.96964 30.0199L16.0767 38.2116C16.4429 38.4228 16.7365 38.9869 16.7365 39.4752V40.8608C16.7398 41.3458 16.4429 41.5701 16.0767 41.359Z" fill="white"/>
<path d="M15.2882 40.3327L2.76148 33.0515C2.34579 32.8107 2.00928 32.1673 2.00928 31.6164C2.00928 31.0621 2.34579 30.8081 2.76148 31.0489L15.2882 38.3301C15.7039 38.5709 16.0405 39.2143 16.0405 39.7652C16.0405 40.3162 15.7039 40.5702 15.2882 40.3327Z" fill="#392B4F"/>
<path d="M15.0935 39.1684C15.0935 39.495 14.8626 39.6269 14.5822 39.4653C14.2984 39.3003 14.0708 38.9044 14.0708 38.5778C14.0708 38.2512 14.3017 38.1192 14.5822 38.2809C14.8626 38.4425 15.0935 38.8417 15.0935 39.1684Z" fill="#43325C"/>
<path d="M12.8631 37.8817C12.8631 38.2083 12.6321 38.3403 12.3517 38.1787C12.068 38.0137 11.8403 37.6178 11.8403 37.2912C11.8403 36.9646 12.0713 36.8326 12.3517 36.9943C12.6321 37.1559 12.8631 37.5551 12.8631 37.8817Z" fill="#6C5194"/>
<path d="M10.6331 36.5917C10.6331 36.9183 10.4021 37.0503 10.1217 36.8886C9.83799 36.7237 9.61035 36.3278 9.61035 36.0011C9.61035 35.6745 9.84129 35.5426 10.1217 35.7042C10.4021 35.8692 10.6331 36.2651 10.6331 36.5917Z" fill="#43325C"/>
<path d="M8.40286 35.3051C8.40286 35.6317 8.17192 35.7636 7.89149 35.602C7.60777 35.437 7.38013 35.0411 7.38013 34.7145C7.38013 34.3879 7.61107 34.256 7.89149 34.4176C8.17192 34.5826 8.40286 34.9785 8.40286 35.3051Z" fill="#96C8FA"/>
<path d="M3.94216 32.7313C3.94216 33.058 3.71122 33.1899 3.4308 33.0283C3.14707 32.8633 2.91943 32.4674 2.91943 32.1408C2.91943 31.8142 3.15037 31.6822 3.4308 31.8439C3.71122 32.0055 3.94216 32.4047 3.94216 32.7313Z" fill="#6C5194"/>
<path d="M6.17263 34.0189C6.17263 34.3456 5.94169 34.4775 5.66126 34.3159C5.37754 34.1509 5.1499 33.755 5.1499 33.4284C5.1499 33.1018 5.38084 32.9698 5.66126 33.1315C5.94169 33.2964 6.17263 33.6923 6.17263 34.0189Z" fill="#43325C"/>
<path d="M16.0767 47.1085L1.96964 38.9168C1.60344 38.7056 1.30981 38.1415 1.30981 37.6532V36.2676C1.30981 35.7826 1.60674 35.5583 1.96964 35.7694L16.0767 43.9611C16.4429 44.1723 16.7365 44.7364 16.7365 45.2247V46.6103C16.7398 47.0953 16.4429 47.3196 16.0767 47.1085Z" fill="white"/>
<path d="M15.2882 46.0797L2.76148 38.7986C2.34579 38.5577 2.00928 37.9144 2.00928 37.3635C2.00928 36.8092 2.34579 36.5552 2.76148 36.796L15.2882 44.0772C15.7039 44.318 16.0405 44.9613 16.0405 45.5123C16.0405 46.0665 15.7039 46.3206 15.2882 46.0797Z" fill="#392B4F"/>
<path d="M15.0935 44.9179C15.0935 45.2445 14.8626 45.3764 14.5822 45.2148C14.2984 45.0498 14.0708 44.6539 14.0708 44.3273C14.0708 44.0007 14.3017 43.8687 14.5822 44.0304C14.8626 44.1921 15.0935 44.5912 15.0935 44.9179Z" fill="#574278"/>
<path d="M12.8631 43.6278C12.8631 43.9544 12.6321 44.0864 12.3517 43.9247C12.068 43.7598 11.8403 43.3639 11.8403 43.0373C11.8403 42.7107 12.0713 42.5787 12.3517 42.7404C12.6321 42.9053 12.8631 43.3012 12.8631 43.6278Z" fill="#96C8FA"/>
<path d="M10.6331 42.3412C10.6331 42.6678 10.4021 42.7998 10.1217 42.6381C9.83799 42.4732 9.61035 42.0773 9.61035 41.7507C9.61035 41.4241 9.84129 41.2921 10.1217 41.4537C10.4021 41.6187 10.6331 42.0146 10.6331 42.3412Z" fill="#574278"/>
<path d="M8.40286 41.0551C8.40286 41.3817 8.17192 41.5136 7.89149 41.352C7.60777 41.187 7.38013 40.7911 7.38013 40.4645C7.38013 40.1379 7.61107 40.006 7.89149 40.1676C8.17192 40.3293 8.40286 40.7285 8.40286 41.0551Z" fill="#43325C"/>
<path d="M3.94216 38.4779C3.94216 38.8045 3.71122 38.9365 3.4308 38.7748C3.14707 38.6099 2.91943 38.214 2.91943 37.8874C2.91943 37.5608 3.15037 37.4288 3.4308 37.5905C3.71122 37.7554 3.94216 38.1513 3.94216 38.4779Z" fill="#43325C"/>
<path d="M6.17263 39.768C6.17263 40.0946 5.94169 40.2265 5.66126 40.0649C5.37754 39.8999 5.1499 39.504 5.1499 39.1774C5.1499 38.8508 5.38084 38.7188 5.66126 38.8805C5.94169 39.0422 6.17263 39.4413 6.17263 39.768Z" fill="#96C8FA"/>
<path d="M16.0767 52.1798L1.96964 43.9881C1.60344 43.7769 1.30981 43.2128 1.30981 42.7245V41.3389C1.30981 40.8539 1.60674 40.6296 1.96964 40.8407L16.0767 49.0324C16.4429 49.2436 16.7365 49.8077 16.7365 50.296V51.6816C16.7398 52.1666 16.4429 52.3909 16.0767 52.1798Z" fill="white"/>
<path d="M15.2882 51.1506L2.76148 43.8694C2.34579 43.6285 2.00928 42.9852 2.00928 42.4343C2.00928 41.88 2.34579 41.626 2.76148 41.8668L15.2882 49.148C15.7039 49.3888 16.0405 50.0321 16.0405 50.5831C16.0405 51.1374 15.7039 51.3914 15.2882 51.1506Z" fill="#392B4F"/>
<path d="M15.0935 49.9892C15.0935 50.3158 14.8626 50.4477 14.5822 50.2861C14.2984 50.1211 14.0708 49.7252 14.0708 49.3986C14.0708 49.072 14.3017 48.94 14.5822 49.1017C14.8626 49.2633 15.0935 49.6625 15.0935 49.9892Z" fill="#43325C"/>
<path d="M12.8631 48.6991C12.8631 49.0257 12.6321 49.1577 12.3517 48.996C12.068 48.8311 11.8403 48.4352 11.8403 48.1086C11.8403 47.782 12.0713 47.65 12.3517 47.8117C12.6321 47.9766 12.8631 48.3725 12.8631 48.6991Z" fill="#6C5194"/>
<path d="M10.6331 47.4125C10.6331 47.7391 10.4021 47.8711 10.1217 47.7094C9.83799 47.5445 9.61035 47.1486 9.61035 46.8219C9.61035 46.4953 9.84129 46.3634 10.1217 46.525C10.4021 46.69 10.6331 47.0859 10.6331 47.4125Z" fill="#43325C"/>
<path d="M8.40286 46.1259C8.40286 46.4525 8.17192 46.5845 7.89149 46.4228C7.60777 46.2578 7.38013 45.8619 7.38013 45.5353C7.38013 45.2087 7.61107 45.0768 7.89149 45.2384C8.17192 45.4001 8.40286 45.7993 8.40286 46.1259Z" fill="#96C8FA"/>
<path d="M3.94216 43.5492C3.94216 43.8758 3.71122 44.0078 3.4308 43.8461C3.14707 43.6812 2.91943 43.2853 2.91943 42.9587C2.91943 42.6321 3.15037 42.5001 3.4308 42.6617C3.71122 42.8267 3.94216 43.2226 3.94216 43.5492Z" fill="#6C5194"/>
<path d="M6.17263 44.8393C6.17263 45.1659 5.94169 45.2978 5.66126 45.1362C5.37754 44.9712 5.1499 44.5753 5.1499 44.2487C5.1499 43.9221 5.38084 43.7901 5.66126 43.9518C5.94169 44.1134 6.17263 44.5126 6.17263 44.8393Z" fill="#43325C"/>
<path d="M16.0767 63.651L1.96964 55.4593C1.60344 55.2481 1.30981 54.684 1.30981 54.1957V46.6968C1.30981 46.2118 1.60674 45.9875 1.96964 46.1986L16.0767 54.3903C16.4429 54.6015 16.7365 55.1656 16.7365 55.6539V63.1528C16.7398 63.6378 16.4429 63.8621 16.0767 63.651Z" fill="white"/>
<path d="M15.3671 57.749L2.68197 50.382C2.35536 50.194 2.08813 49.6859 2.08813 49.2471V48.0001C2.08813 47.5613 2.35536 47.36 2.68197 47.5514L15.3671 54.9183C15.6937 55.1064 15.9609 55.6144 15.9609 56.0532V57.3003C15.9609 57.7391 15.6937 57.9403 15.3671 57.749Z" fill="#392B4F"/>
<path d="M14.6582 56.8253L3.39165 50.2798C3.01885 50.0654 2.71533 49.4847 2.71533 48.9866C2.71533 48.4884 3.01885 48.2607 3.39165 48.4752L14.6582 55.0206C15.031 55.2351 15.3345 55.8157 15.3345 56.3139C15.3345 56.8121 15.031 57.043 14.6582 56.8253Z" fill="#91C8FE"/>
<path d="M15.3671 62.0043L2.68197 54.6374C2.35536 54.4493 2.08813 53.9413 2.08813 53.5025V52.2554C2.08813 51.8166 2.35536 51.6154 2.68197 51.8067L15.3671 59.1737C15.6937 59.3617 15.9609 59.8698 15.9609 60.3086V61.5557C15.9609 61.9944 15.6937 62.1957 15.3671 62.0043Z" fill="#392B4F"/>
<path d="M14.6582 61.0806L3.39165 54.5352C3.01885 54.3207 2.71533 53.7401 2.71533 53.2419C2.71533 52.7438 3.01885 52.5161 3.39165 52.7306L14.6582 59.276C15.031 59.4905 15.3345 60.0711 15.3345 60.5693C15.3345 61.0674 15.031 61.2984 14.6582 61.0806Z" fill="#91C8FE"/>
<path d="M91.4418 26.5479V26.4225L91.4253 26.4258C91.389 26.1223 91.2273 25.832 90.9238 25.6571L73.1547 15.3968C72.2442 14.8723 71.1225 14.8723 70.2119 15.3968L36.5147 34.8518C36.1716 35.0497 36 35.3961 36 35.7458V83.9295C36 84.2759 36.1716 84.6257 36.5147 84.8236L54.2837 95.0839C55.1943 95.6084 56.316 95.6084 57.2266 95.0839L90.9238 75.6289C91.2966 75.4145 91.4616 75.0219 91.4286 74.6458L91.4352 74.6425L91.4418 26.5479Z" fill="url(#paint2_linear_2932_8281)"/>
<path d="M91.4287 26.4263C91.3924 26.1228 91.2307 25.8325 90.9272 25.6576L73.1581 15.3973C72.2476 14.8728 71.1259 14.8728 70.2153 15.3973L55.7717 23.7375V95.477C56.2765 95.4737 56.778 95.345 57.2299 95.0844L90.9272 75.6294C91.3 75.415 91.465 75.0224 91.432 74.6463L91.4386 74.643L91.4452 26.5517V26.4263H91.4287Z" fill="white"/>
<path d="M54.2872 46.8968L36.5181 36.6365C35.8319 36.2406 35.8319 35.2475 36.5181 34.8484L70.2153 15.3934C71.1259 14.8689 72.2476 14.8689 73.1582 15.3934L90.9272 25.6537C91.6134 26.0496 91.6134 27.0426 90.9272 27.4418L57.23 46.8968C56.3194 47.4213 55.1977 47.4213 54.2872 46.8968Z" fill="url(#paint3_linear_2932_8281)"/>
<path d="M57.2299 46.8967C56.3193 47.4213 55.1976 47.4213 54.2871 46.8967L54.2178 46.8571V95.0408L54.2871 95.0804C55.1976 95.605 56.3193 95.605 57.2299 95.0804L57.4509 94.9518V46.7681L57.2299 46.8967Z" fill="#4C6786"/>
<path d="M69.6675 31.9813L60.2386 26.5377C59.4534 26.0857 58.49 26.0857 57.7048 26.5377L48.2759 31.9813C47.9856 32.1495 47.8372 32.4431 47.8372 32.7401V33.9673C47.8372 34.261 47.9823 34.5579 48.2759 34.7261L57.7048 40.1697C58.49 40.6217 59.4534 40.6217 60.2386 40.1697L69.6675 34.7261C69.9578 34.5579 70.1062 34.2643 70.1062 33.9673V32.7401C70.1062 32.4464 69.9611 32.1495 69.6675 31.9813Z" fill="#328CDB"/>
<path d="M57.705 38.943L48.2761 33.4995C47.6921 33.163 47.6921 32.3217 48.2761 31.9852L57.705 26.5416C58.4902 26.0896 59.4535 26.0896 60.2387 26.5416L69.6676 31.9852C70.2516 32.3217 70.2516 33.163 69.6676 33.4995L60.2387 38.943C59.4535 39.395 58.4902 39.395 57.705 38.943Z" fill="white"/>
<path d="M65.2433 32.7897L58.358 28.8143C58.0677 28.646 58.104 28.3491 58.4405 28.1544C58.777 27.9598 59.2884 27.94 59.582 28.1083L66.4673 32.0837C66.7576 32.252 66.7213 32.5489 66.3848 32.7435C66.0483 32.9382 65.5336 32.958 65.2433 32.7897Z" fill="#96C8FA"/>
<path d="M62.8778 34.2345L55.9926 30.2591C55.7022 30.0908 55.7385 29.7939 56.075 29.5993C56.4116 29.4046 56.9229 29.3848 57.2165 29.5531L64.1018 33.5285C64.3921 33.6968 64.3558 33.9937 64.0193 34.1884C63.6828 34.3797 63.1682 34.4028 62.8778 34.2345Z" fill="#96C8FA"/>
<path d="M60.5124 35.6798L53.6271 31.7044C53.3368 31.5362 53.3731 31.2392 53.7096 31.0446C54.0461 30.8499 54.5574 30.8301 54.8511 30.9984L61.7363 34.9738C62.0267 35.1421 61.9904 35.439 61.6539 35.6337C61.3173 35.825 60.8027 35.8481 60.5124 35.6798Z" fill="#96C8FA"/>
<path d="M58.1471 37.1217L51.2618 33.1463C50.9715 32.978 51.0078 32.6811 51.3443 32.4865C51.6808 32.2918 52.1922 32.272 52.4858 32.4403L59.3711 36.4157C59.6614 36.584 59.6251 36.8809 59.2886 37.0756C58.9521 37.2702 58.4374 37.29 58.1471 37.1217Z" fill="#96C8FA"/>
<path d="M81.7096 23.5157L71.0931 17.3859C70.2122 16.8779 69.1235 16.8779 68.2426 17.3859L63.1818 20.2595C62.8518 20.4475 62.6902 20.7807 62.6902 21.1139V24.192C62.6902 24.5252 62.8551 24.8551 63.1818 25.0465L73.7983 31.1763C74.6792 31.6843 75.7679 31.6843 76.6488 31.1763L81.7096 28.3027C82.0395 28.1147 82.2012 27.7815 82.2012 27.4483V24.3702C82.2045 24.037 82.0395 23.7071 81.7096 23.5157Z" fill="#395BCD"/>
<path d="M73.7982 28.0949L63.1816 21.9651C62.5251 21.5857 62.5251 20.6389 63.1816 20.2595L68.2425 17.3859C69.1233 16.8779 70.212 16.8779 71.0929 17.3859L81.7095 23.5157C82.366 23.8951 82.366 24.8419 81.7095 25.2213L76.6486 28.0949C75.7645 28.6063 74.6791 28.6063 73.7982 28.0949Z" fill="white"/>
<path d="M52.0767 51.2877L37.9696 43.096C37.6034 42.8848 37.3098 42.3207 37.3098 41.8324V40.4468C37.3098 39.9618 37.6067 39.7375 37.9696 39.9486L52.0767 48.1403C52.4429 48.3515 52.7365 48.9156 52.7365 49.4039V50.7895C52.7398 51.2745 52.4429 51.4988 52.0767 51.2877Z" fill="white"/>
<path d="M51.2882 50.2614L38.7615 42.9802C38.3458 42.7394 38.0093 42.0961 38.0093 41.5451C38.0093 40.9908 38.3458 40.7368 38.7615 40.9777L51.2882 48.2588C51.7039 48.4997 52.0405 49.143 52.0405 49.6939C52.0405 50.2449 51.7039 50.4989 51.2882 50.2614Z" fill="#392B4F"/>
<path d="M51.0935 49.0971C51.0935 49.4237 50.8626 49.5556 50.5822 49.394C50.2984 49.229 50.0708 48.8331 50.0708 48.5065C50.0708 48.1799 50.3017 48.0479 50.5822 48.2096C50.8626 48.3746 51.0935 48.7705 51.0935 49.0971Z" fill="#574278"/>
<path d="M48.8631 47.8109C48.8631 48.1375 48.6321 48.2695 48.3517 48.1079C48.068 47.9429 47.8403 47.547 47.8403 47.2204C47.8403 46.8938 48.0713 46.7618 48.3517 46.9235C48.6321 47.0851 48.8631 47.4843 48.8631 47.8109Z" fill="#43325C"/>
<path d="M46.6331 46.5238C46.6331 46.8504 46.4021 46.9824 46.1217 46.8207C45.838 46.6558 45.6104 46.2599 45.6104 45.9333C45.6104 45.6067 45.8413 45.4747 46.1217 45.6364C46.4021 45.798 46.6331 46.1939 46.6331 46.5238Z" fill="#96C8FA"/>
<path d="M44.4029 45.2338C44.4029 45.5604 44.1719 45.6924 43.8915 45.5307C43.6078 45.3657 43.3801 44.9699 43.3801 44.6432C43.3801 44.3166 43.6111 44.1847 43.8915 44.3463C44.1719 44.5113 44.4029 44.9072 44.4029 45.2338Z" fill="#43325C"/>
<path d="M39.9422 42.661C39.9422 42.9876 39.7112 43.1196 39.4308 42.958C39.1471 42.793 38.9194 42.3971 38.9194 42.0705C38.9194 41.7439 39.1504 41.6119 39.4308 41.7736C39.7112 41.9352 39.9422 42.3344 39.9422 42.661Z" fill="#96C8FA"/>
<path d="M42.1726 43.9477C42.1726 44.2743 41.9417 44.4062 41.6613 44.2446C41.3775 44.0796 41.1499 43.6837 41.1499 43.3571C41.1499 43.0305 41.3808 42.8985 41.6613 43.0602C41.9417 43.2251 42.1726 43.621 42.1726 43.9477Z" fill="#574278"/>
<path d="M61.9246 50.1827L87.12 35.7556C87.5357 35.5148 87.8722 34.8714 87.8722 34.3205C87.8722 33.7662 87.5357 33.5122 87.12 33.753L61.9246 48.1801C61.5089 48.4209 61.1724 49.0643 61.1724 49.6152C61.1724 50.1695 61.5089 50.4235 61.9246 50.1827Z" fill="#395ACD"/>
<path d="M61.9246 55.0489L87.12 40.6218C87.5357 40.381 87.8722 39.7377 87.8722 39.1867C87.8722 38.6324 87.5357 38.3784 87.12 38.6193L61.9246 53.0463C61.5089 53.2872 61.1724 53.9305 61.1724 54.4814C61.1724 55.0324 61.5089 55.2864 61.9246 55.0489Z" fill="#395ACD"/>
<path d="M61.9246 59.9156L87.12 45.4885C87.5357 45.2477 87.8722 44.6044 87.8722 44.0534C87.8722 43.4991 87.5357 43.2451 87.12 43.486L61.9246 57.913C61.5089 58.1539 61.1724 58.7972 61.1724 59.3481C61.1724 59.8991 61.5089 60.1531 61.9246 59.9156Z" fill="#395ACD"/>
<path d="M61.9246 64.7779L87.12 50.3508C87.5357 50.11 87.8722 49.4667 87.8722 48.9157C87.8722 48.3615 87.5357 48.1074 87.12 48.3483L61.9246 62.7753C61.5089 63.0162 61.1724 63.6595 61.1724 64.2104C61.1724 64.7647 61.5089 65.0187 61.9246 64.7779Z" fill="#395ACD"/>
<path d="M61.9246 69.6441L87.12 55.217C87.5357 54.9762 87.8722 54.3329 87.8722 53.7819C87.8722 53.2277 87.5357 52.9736 87.12 53.2145L61.9246 67.6415C61.5089 67.8824 61.1724 68.5257 61.1724 69.0767C61.1724 69.6309 61.5089 69.8849 61.9246 69.6441Z" fill="#395ACD"/>
<path d="M61.9246 74.5103L87.12 60.0832C87.5357 59.8424 87.8722 59.1991 87.8722 58.6481C87.8722 58.0939 87.5357 57.8398 87.12 58.0807L61.9246 72.5077C61.5089 72.7486 61.1724 73.3919 61.1724 73.9429C61.1724 74.4938 61.5089 74.7512 61.9246 74.5103Z" fill="#395ACD"/>
<path d="M61.9246 79.3765L87.12 64.9495C87.5357 64.7086 87.8722 64.0653 87.8722 63.5143C87.8722 62.9601 87.5357 62.7061 87.12 62.9469L61.9246 77.374C61.5089 77.6148 61.1724 78.2581 61.1724 78.8091C61.1724 79.36 61.5089 79.6141 61.9246 79.3765Z" fill="#395ACD"/>
<path d="M61.9246 84.2432L87.12 69.8162C87.5357 69.5753 87.8722 68.932 87.8722 68.381C87.8722 67.8268 87.5357 67.5728 87.12 67.8136L61.9246 82.2407C61.5089 82.4815 61.1724 83.1248 61.1724 83.6758C61.1724 84.2267 61.5089 84.4808 61.9246 84.2432Z" fill="#395ACD"/>
<path d="M52.0767 56.359L37.9696 48.1673C37.6034 47.9561 37.3098 47.392 37.3098 46.9037V45.5181C37.3098 45.0331 37.6067 44.8088 37.9696 45.0199L52.0767 53.2116C52.4429 53.4228 52.7365 53.9869 52.7365 54.4752V55.8608C52.7398 56.3458 52.4429 56.5701 52.0767 56.359Z" fill="white"/>
<path d="M51.2882 55.3327L38.7615 48.0515C38.3458 47.8107 38.0093 47.1673 38.0093 46.6164C38.0093 46.0621 38.3458 45.8081 38.7615 46.0489L51.2882 53.3301C51.7039 53.5709 52.0405 54.2143 52.0405 54.7652C52.0405 55.3162 51.7039 55.5702 51.2882 55.3327Z" fill="#392B4F"/>
<path d="M51.0935 54.1684C51.0935 54.495 50.8626 54.6269 50.5822 54.4653C50.2984 54.3003 50.0708 53.9044 50.0708 53.5778C50.0708 53.2512 50.3017 53.1192 50.5822 53.2809C50.8626 53.4425 51.0935 53.8417 51.0935 54.1684Z" fill="#43325C"/>
<path d="M48.8631 52.8817C48.8631 53.2083 48.6321 53.3403 48.3517 53.1787C48.068 53.0137 47.8403 52.6178 47.8403 52.2912C47.8403 51.9646 48.0713 51.8326 48.3517 51.9943C48.6321 52.1559 48.8631 52.5551 48.8631 52.8817Z" fill="#6C5194"/>
<path d="M46.6331 51.5917C46.6331 51.9183 46.4021 52.0503 46.1217 51.8886C45.838 51.7237 45.6104 51.3278 45.6104 51.0011C45.6104 50.6745 45.8413 50.5426 46.1217 50.7042C46.4021 50.8692 46.6331 51.2651 46.6331 51.5917Z" fill="#43325C"/>
<path d="M44.4029 50.3051C44.4029 50.6317 44.1719 50.7636 43.8915 50.602C43.6078 50.437 43.3801 50.0411 43.3801 49.7145C43.3801 49.3879 43.6111 49.256 43.8915 49.4176C44.1719 49.5826 44.4029 49.9785 44.4029 50.3051Z" fill="#96C8FA"/>
<path d="M39.9422 47.7313C39.9422 48.058 39.7112 48.1899 39.4308 48.0283C39.1471 47.8633 38.9194 47.4674 38.9194 47.1408C38.9194 46.8142 39.1504 46.6822 39.4308 46.8439C39.7112 47.0055 39.9422 47.4047 39.9422 47.7313Z" fill="#6C5194"/>
<path d="M42.1726 49.0189C42.1726 49.3456 41.9417 49.4775 41.6613 49.3159C41.3775 49.1509 41.1499 48.755 41.1499 48.4284C41.1499 48.1018 41.3808 47.9698 41.6613 48.1315C41.9417 48.2964 42.1726 48.6923 42.1726 49.0189Z" fill="#43325C"/>
<path d="M52.0767 62.1085L37.9696 53.9168C37.6034 53.7056 37.3098 53.1415 37.3098 52.6532V51.2676C37.3098 50.7826 37.6067 50.5583 37.9696 50.7694L52.0767 58.9611C52.4429 59.1723 52.7365 59.7364 52.7365 60.2247V61.6103C52.7398 62.0953 52.4429 62.3196 52.0767 62.1085Z" fill="white"/>
<path d="M51.2882 61.0797L38.7615 53.7986C38.3458 53.5577 38.0093 52.9144 38.0093 52.3635C38.0093 51.8092 38.3458 51.5552 38.7615 51.796L51.2882 59.0772C51.7039 59.318 52.0405 59.9613 52.0405 60.5123C52.0405 61.0665 51.7039 61.3206 51.2882 61.0797Z" fill="#392B4F"/>
<path d="M51.0935 59.9179C51.0935 60.2445 50.8626 60.3764 50.5822 60.2148C50.2984 60.0498 50.0708 59.6539 50.0708 59.3273C50.0708 59.0007 50.3017 58.8687 50.5822 59.0304C50.8626 59.1921 51.0935 59.5912 51.0935 59.9179Z" fill="#574278"/>
<path d="M48.8631 58.6278C48.8631 58.9544 48.6321 59.0864 48.3517 58.9247C48.068 58.7598 47.8403 58.3639 47.8403 58.0373C47.8403 57.7107 48.0713 57.5787 48.3517 57.7404C48.6321 57.9053 48.8631 58.3012 48.8631 58.6278Z" fill="#96C8FA"/>
<path d="M46.6331 57.3412C46.6331 57.6678 46.4021 57.7998 46.1217 57.6381C45.838 57.4732 45.6104 57.0773 45.6104 56.7507C45.6104 56.4241 45.8413 56.2921 46.1217 56.4537C46.4021 56.6187 46.6331 57.0146 46.6331 57.3412Z" fill="#574278"/>
<path d="M44.4029 56.0551C44.4029 56.3817 44.1719 56.5136 43.8915 56.352C43.6078 56.187 43.3801 55.7911 43.3801 55.4645C43.3801 55.1379 43.6111 55.006 43.8915 55.1676C44.1719 55.3293 44.4029 55.7285 44.4029 56.0551Z" fill="#43325C"/>
<path d="M39.9422 53.4779C39.9422 53.8045 39.7112 53.9365 39.4308 53.7748C39.1471 53.6099 38.9194 53.214 38.9194 52.8874C38.9194 52.5608 39.1504 52.4288 39.4308 52.5905C39.7112 52.7554 39.9422 53.1513 39.9422 53.4779Z" fill="#43325C"/>
<path d="M42.1726 54.768C42.1726 55.0946 41.9417 55.2265 41.6613 55.0649C41.3775 54.8999 41.1499 54.504 41.1499 54.1774C41.1499 53.8508 41.3808 53.7188 41.6613 53.8805C41.9417 54.0422 42.1726 54.4413 42.1726 54.768Z" fill="#96C8FA"/>
<path d="M52.0767 67.1798L37.9696 58.9881C37.6034 58.7769 37.3098 58.2128 37.3098 57.7245V56.3389C37.3098 55.8539 37.6067 55.6296 37.9696 55.8407L52.0767 64.0324C52.4429 64.2436 52.7365 64.8077 52.7365 65.296V66.6816C52.7398 67.1666 52.4429 67.3909 52.0767 67.1798Z" fill="white"/>
<path d="M51.2882 66.1506L38.7615 58.8694C38.3458 58.6285 38.0093 57.9852 38.0093 57.4343C38.0093 56.88 38.3458 56.626 38.7615 56.8668L51.2882 64.148C51.7039 64.3888 52.0405 65.0321 52.0405 65.5831C52.0405 66.1374 51.7039 66.3914 51.2882 66.1506Z" fill="#392B4F"/>
<path d="M51.0935 64.9892C51.0935 65.3158 50.8626 65.4477 50.5822 65.2861C50.2984 65.1211 50.0708 64.7252 50.0708 64.3986C50.0708 64.072 50.3017 63.94 50.5822 64.1017C50.8626 64.2633 51.0935 64.6625 51.0935 64.9892Z" fill="#43325C"/>
<path d="M48.8631 63.6991C48.8631 64.0257 48.6321 64.1577 48.3517 63.996C48.068 63.8311 47.8403 63.4352 47.8403 63.1086C47.8403 62.782 48.0713 62.65 48.3517 62.8117C48.6321 62.9766 48.8631 63.3725 48.8631 63.6991Z" fill="#6C5194"/>
<path d="M46.6331 62.4125C46.6331 62.7391 46.4021 62.8711 46.1217 62.7094C45.838 62.5445 45.6104 62.1486 45.6104 61.8219C45.6104 61.4953 45.8413 61.3634 46.1217 61.525C46.4021 61.69 46.6331 62.0859 46.6331 62.4125Z" fill="#43325C"/>
<path d="M44.4029 61.1259C44.4029 61.4525 44.1719 61.5845 43.8915 61.4228C43.6078 61.2578 43.3801 60.8619 43.3801 60.5353C43.3801 60.2087 43.6111 60.0768 43.8915 60.2384C44.1719 60.4001 44.4029 60.7993 44.4029 61.1259Z" fill="#96C8FA"/>
<path d="M39.9422 58.5492C39.9422 58.8758 39.7112 59.0078 39.4308 58.8461C39.1471 58.6812 38.9194 58.2853 38.9194 57.9587C38.9194 57.6321 39.1504 57.5001 39.4308 57.6617C39.7112 57.8267 39.9422 58.2226 39.9422 58.5492Z" fill="#6C5194"/>
<path d="M42.1726 59.8393C42.1726 60.1659 41.9417 60.2978 41.6613 60.1362C41.3775 59.9712 41.1499 59.5753 41.1499 59.2487C41.1499 58.9221 41.3808 58.7901 41.6613 58.9518C41.9417 59.1134 42.1726 59.5126 42.1726 59.8393Z" fill="#43325C"/>
<path d="M52.0767 78.651L37.9696 70.4593C37.6034 70.2481 37.3098 69.684 37.3098 69.1957V61.6968C37.3098 61.2118 37.6067 60.9875 37.9696 61.1986L52.0767 69.3903C52.4429 69.6015 52.7365 70.1656 52.7365 70.6539V78.1528C52.7398 78.6378 52.4429 78.8621 52.0767 78.651Z" fill="white"/>
<path d="M51.3671 72.749L38.682 65.382C38.3554 65.194 38.0881 64.6859 38.0881 64.2471V63.0001C38.0881 62.5613 38.3554 62.36 38.682 62.5514L51.3671 69.9183C51.6937 70.1064 51.9609 70.6144 51.9609 71.0532V72.3003C51.9609 72.7391 51.6937 72.9403 51.3671 72.749Z" fill="#392B4F"/>
<path d="M50.6582 71.8253L39.3917 65.2798C39.0189 65.0654 38.7153 64.4847 38.7153 63.9866C38.7153 63.4884 39.0189 63.2607 39.3917 63.4752L50.6582 70.0206C51.031 70.2351 51.3345 70.8157 51.3345 71.3139C51.3345 71.8121 51.031 72.043 50.6582 71.8253Z" fill="#91C8FE"/>
<path d="M51.3671 77.0043L38.682 69.6374C38.3554 69.4493 38.0881 68.9413 38.0881 68.5025V67.2554C38.0881 66.8166 38.3554 66.6154 38.682 66.8067L51.3671 74.1737C51.6937 74.3617 51.9609 74.8698 51.9609 75.3086V76.5557C51.9609 76.9944 51.6937 77.1957 51.3671 77.0043Z" fill="#392B4F"/>
<path d="M50.6582 76.0806L39.3917 69.5352C39.0189 69.3207 38.7153 68.7401 38.7153 68.2419C38.7153 67.7438 39.0189 67.5161 39.3917 67.7306L50.6582 74.276C51.031 74.4905 51.3345 75.0711 51.3345 75.5693C51.3345 76.0674 51.031 76.2984 50.6582 76.0806Z" fill="#91C8FE"/>
<defs>
<linearGradient id="paint0_linear_2932_8281" x1="27.7209" y1="0.00341797" x2="27.7209" y2="80.4773" gradientUnits="userSpaceOnUse">
<stop stop-color="#2EA6E2"/>
<stop offset="1" stop-color="#3956CB"/>
</linearGradient>
<linearGradient id="paint1_linear_2932_8281" x1="27.7227" y1="0" x2="27.7227" y2="32.2902" gradientUnits="userSpaceOnUse">
<stop stop-color="#2EA6E2"/>
<stop offset="1" stop-color="#3956CB"/>
</linearGradient>
<linearGradient id="paint2_linear_2932_8281" x1="63.7209" y1="15.0034" x2="63.7209" y2="95.4773" gradientUnits="userSpaceOnUse">
<stop stop-color="#2EA6E2"/>
<stop offset="1" stop-color="#3956CB"/>
</linearGradient>
<linearGradient id="paint3_linear_2932_8281" x1="63.7227" y1="15" x2="63.7227" y2="47.2902" gradientUnits="userSpaceOnUse">
<stop stop-color="#2EA6E2"/>
<stop offset="1" stop-color="#3956CB"/>
</linearGradient>
</defs>
</svg>
