<svg width="72" height="72" viewBox="0 0 72 72" fill="none" xmlns="http://www.w3.org/2000/svg">
<g clip-path="url(#clip0_643_4428)">
<path d="M36 72C55.8823 72 72 55.8823 72 36C72 16.1177 55.8823 0 36 0C16.1177 0 0 16.1177 0 36C0 55.8823 16.1177 72 36 72Z" fill="#E6F3FF"/>
<path d="M71.9089 38.5503L58.0798 24.7212L25.8788 41.192L24.4141 55.9946L40.1767 71.7573C57.2591 69.7833 70.6977 55.8539 71.9089 38.5503Z" fill="#CFDBE6"/>
<path d="M24.8256 56.4256C24.8551 56.4551 24.885 56.4848 24.9151 56.5141C27.3785 58.9349 31.3335 57.0268 30.9195 53.6592C30.2349 48.0915 32.539 41.6146 37.5491 36.5992L28.3154 27.3657C19.3303 36.3591 17.7671 49.3671 24.8256 56.4256Z" fill="#935635"/>
<path d="M57.4835 23.9449C57.4541 23.9151 57.4246 23.8852 57.3948 23.8554C50.3339 16.7946 37.3189 18.3613 28.3249 27.3556C28.3216 27.359 28.3183 27.3623 28.3149 27.3657L37.5487 36.5994C37.552 36.5961 37.5553 36.5927 37.5586 36.5893C42.5753 31.5724 49.0573 29.2644 54.6287 29.9496C57.9965 30.3633 59.9045 26.4083 57.4835 23.9449Z" fill="#B97850"/>
<path d="M49.2519 27.466C47.897 24.9072 46.5421 22.3483 45.1875 19.7897C43.9199 17.3955 40.8772 16.5744 38.5899 18.0265C34.64 20.5347 30.9911 23.4636 27.7031 26.7533L40.4093 39.4595C42.6105 37.2568 45.0371 35.2794 47.6546 33.5625C49.6778 32.235 50.3843 29.6045 49.2519 27.466Z" fill="#935635"/>
<path d="M18.9966 37.6208C17.5445 39.9078 18.3653 42.9505 20.7597 44.2184C23.3185 45.573 25.8773 46.928 28.4363 48.2829C30.5748 49.4152 33.2053 48.7086 34.5325 46.6852C36.2441 44.0761 38.2146 41.6562 40.4091 39.4601L27.7029 26.7539C24.4216 30.0368 21.4994 33.679 18.9966 37.6208Z" fill="#804000"/>
<path d="M43.1823 37.0034C41.1409 38.4136 39.3831 40.1714 37.9729 42.2129C36.8752 43.8019 34.7503 44.2941 33.0812 43.322C29.2315 41.08 25.382 38.8383 21.5324 36.5966C19.7642 35.5668 19.1661 33.2863 20.2211 31.5328C23.2625 26.4788 27.4478 22.2938 32.5016 19.252C34.2547 18.1968 36.5355 18.7949 37.5653 20.5631C39.8073 24.4126 42.049 28.2623 44.2909 32.1116C45.2633 33.7809 44.7714 35.9057 43.1823 37.0034Z" fill="#804000"/>
<path d="M25.5973 24.6479C23.5432 26.7037 21.7398 29.0099 20.2215 31.5328C19.1663 33.286 19.7643 35.5668 21.5328 36.5966C25.3826 38.8386 29.2321 41.0803 33.0817 43.322C34.7507 44.2941 36.8756 43.8019 37.9733 42.2129C38.6756 41.1961 39.4645 40.25 40.3313 39.3818L25.5973 24.6479Z" fill="#703500"/>
</g>
<defs>
<clipPath id="clip0_643_4428">
<rect width="72" height="72" fill="white"/>
</clipPath>
</defs>
</svg>
