<svg width="72" height="72" viewBox="0 0 72 72" fill="none" xmlns="http://www.w3.org/2000/svg">
<g clip-path="url(#clip0_643_4257)">
<path d="M72 36C72 55.8825 55.8825 72 36 72C16.1175 72 0 55.8825 0 36C0 16.1175 16.1175 0 36 0C55.8825 0 72 16.1175 72 36Z" fill="#2864F0"/>
<path d="M71.9999 35.9998C71.9999 35.0187 71.9593 34.0469 71.8818 33.0851L56.0797 17.2829L55.0112 20.3783L46.1222 11.4893L16.1746 56.5953L31.2698 71.6905C32.8177 71.8932 34.3965 71.9998 35.9999 71.9998C55.8824 71.9998 71.9999 55.8823 71.9999 35.9998Z" fill="#27488F"/>
<path d="M53.3662 57.6218H18.634C16.7224 57.6218 15.1733 56.0727 15.1733 54.1616V19.4289C15.1733 17.5178 16.723 15.9688 18.634 15.9688H53.3662C55.2773 15.9688 56.8264 17.5184 56.8264 19.4289V54.1616C56.8269 56.0727 55.2773 57.6218 53.3662 57.6218Z" fill="white"/>
<path d="M53.3661 15.9688H36V57.6218H53.3661C55.2777 57.6218 56.8268 56.0727 56.8268 54.1616V19.4289C56.8268 17.5178 55.2772 15.9688 53.3661 15.9688Z" fill="#E9EDF5"/>
<path d="M33.021 15.9688H38.9789V57.6218H33.021V15.9688Z" fill="#F0F9FF"/>
<path d="M36 15.9688H38.9789V57.6218H36V15.9688Z" fill="#DAE1E5"/>
<path d="M53.9506 45.3367L48.0828 49.7098L42.2156 45.3367V35.2051H53.9506V45.3367Z" fill="#A3D4FF"/>
<path d="M46.1222 11.4893L35.9999 24.8168L25.8777 11.4893H46.1222Z" fill="#BFE1FF"/>
<path d="M46.1223 11.4893H36V24.8168L46.1223 11.4893Z" fill="#87C7FF"/>
<path d="M25.8779 11.4893L23 15.9684L28.9453 27.9523L36.0001 24.8168L25.8779 11.4893Z" fill="#DBEEFF"/>
<path d="M46.1223 11.4893L49.0001 15.9684L43.0549 27.9523L36 24.8168L46.1223 11.4893Z" fill="#A3D4FF"/>
<path d="M37.7242 29.1023C37.7242 30.0543 36.9525 30.8266 35.9999 30.8266C35.0474 30.8266 34.2756 30.0543 34.2756 29.1023C34.2756 28.1498 35.0474 27.3774 35.9999 27.3774C36.9525 27.3774 37.7242 28.1498 37.7242 29.1023Z" fill="#BFE1FF"/>
<path d="M37.7242 40.9904C37.7242 41.9429 36.9525 42.7153 35.9999 42.7153C35.0474 42.7153 34.2756 41.9429 34.2756 40.9904C34.2756 40.0385 35.0474 39.2661 35.9999 39.2661C36.9525 39.2661 37.7242 40.0385 37.7242 40.9904Z" fill="#BFE1FF"/>
<path d="M37.7242 52.8796C37.7242 53.8321 36.9525 54.6039 35.9999 54.6039C35.0474 54.6039 34.2756 53.8321 34.2756 52.8796C34.2756 51.9271 35.0474 51.1553 35.9999 51.1553C36.9525 51.1553 37.7242 51.9271 37.7242 52.8796Z" fill="#BFE1FF"/>
<path d="M36 30.8266C36.9525 30.8266 37.7243 30.0548 37.7243 29.1023C37.7243 28.1498 36.9525 27.3774 36 27.3774V30.8266Z" fill="#87C7FF"/>
<path d="M36 42.7153C36.9525 42.7153 37.7243 41.9429 37.7243 40.9904C37.7243 40.0385 36.9525 39.2661 36 39.2661V42.7153Z" fill="#87C7FF"/>
<path d="M36 54.6039C36.9525 54.6039 37.7243 53.8321 37.7243 52.8796C37.7243 51.9271 36.9525 51.1553 36 51.1553V54.6039Z" fill="#87C7FF"/>
</g>
<defs>
<clipPath id="clip0_643_4257">
<rect width="72" height="72" fill="white"/>
</clipPath>
</defs>
</svg>
