<svg width="72" height="72" viewBox="0 0 72 72" fill="none" xmlns="http://www.w3.org/2000/svg">
<g clip-path="url(#clip0_643_4411)">
<path d="M36 72C55.8823 72 72 55.8823 72 36C72 16.1177 55.8823 0 36 0C16.1177 0 0 16.1177 0 36C0 55.8823 16.1177 72 36 72Z" fill="#E6F3FF"/>
<path d="M49.4824 17.5229L47.031 14.9917L15.1638 56.8276L29.8032 71.467C31.8166 71.8163 33.8868 72.0001 36.0001 72.0001C55.8824 72.0001 72.0001 55.8824 72.0001 36.0001C72.0001 33.8104 71.8041 31.6667 71.4297 29.5849L56.8363 14.9917L49.4824 17.5229Z" fill="#CFDBE6"/>
<path d="M47.0311 14.9917V26.0226L26.1948 30.9252L36.0002 14.9917H47.0311Z" fill="#FC2339"/>
<path d="M26.1947 14.9917L36.0001 30.9252L15.1638 26.0226V14.9917H26.1947Z" fill="#FF5253"/>
<path d="M36.0002 14.9917V26.0226L26.1948 30.9252L31.0976 14.9917H36.0002Z" fill="#FFD959"/>
<path d="M26.1948 14.9917H31.0974V30.9254H26.1948V14.9917Z" fill="#FFEAA6"/>
<path d="M56.8364 14.9917H49.4824V30.9252L53.1595 35.828L56.8364 30.9252V14.9917Z" fill="#FF9D7D"/>
<path d="M49.4824 30.9253H56.8364V56.8276H49.4824V30.9253Z" fill="#FFF7E0"/>
<path d="M31.0976 26.0225L26.1948 35.8278L47.0311 30.9251V26.0225H31.0976Z" fill="#D6152E"/>
<path d="M15.1638 26.0225V30.9251L31.0975 35.8278V26.0225H15.1638Z" fill="#FC2339"/>
<path d="M47.0311 30.9253V56.8277H31.0976L21.2922 43.8764L31.0976 30.9253H47.0311Z" fill="#FFEAA6"/>
<path d="M15.1638 30.9253H31.0975V56.8276H15.1638V30.9253Z" fill="#FFF7E0"/>
<path d="M42.1284 34.6021H31.0975L24.5095 43.2634L31.0975 51.9247H42.1284V34.6021Z" fill="#FC2339"/>
<path d="M20.0664 34.6021H31.0973V51.9248H20.0664V34.6021Z" fill="#FF5253"/>
</g>
<defs>
<clipPath id="clip0_643_4411">
<rect width="72" height="72" fill="white"/>
</clipPath>
</defs>
</svg>
