<svg width="72" height="72" viewBox="0 0 72 72" fill="none" xmlns="http://www.w3.org/2000/svg">
<g clip-path="url(#clip0_643_4438)">
<path d="M36 72C55.8823 72 72 55.8823 72 36C72 16.1177 55.8823 0 36 0C16.1177 0 0 16.1177 0 36C0 55.8823 16.1177 72 36 72Z" fill="#2864F0"/>
<path d="M34.3996 15.6654C34.2522 15.4899 34.0403 15.373 33.7949 15.373H18.3824C17.9399 15.373 17.58 15.7331 17.58 16.1831V20.2855C17.58 20.4984 17.6651 20.6874 17.7966 20.8312L17.7922 20.833L17.8091 20.8497C17.8144 20.8552 17.8195 20.8604 17.825 20.8658L19.6659 22.7063C19.6294 23.4588 19.3009 24.1696 18.7277 24.658L16.8527 26.2781C15.9152 27.0881 15.3752 28.2654 15.3752 29.5031V55.438C15.3752 55.7869 15.5266 56.0951 15.7633 56.311L31.1131 71.6608C32.7121 71.8781 34.3416 72 36.0002 72C50.8007 72 63.5094 63.0653 69.0421 50.2983L34.4047 15.6613L34.3996 15.6654Z" fill="#27488F"/>
<path d="M33.7924 15.375H18.3854C17.9394 15.375 17.5779 15.7365 17.5779 16.1826V20.2878C17.5779 20.7337 17.9394 21.0952 18.3853 21.0952H33.7924C34.2383 21.0952 34.5998 20.7337 34.5998 20.2878V16.1826C34.6 15.7365 34.2384 15.375 33.7924 15.375Z" fill="#64798A"/>
<path d="M35.327 26.2787L33.4522 24.6617C32.845 24.138 32.4959 23.376 32.4959 22.5743V21.0952H19.6822V22.5741C19.6822 23.3758 19.3332 24.1378 18.7261 24.6615L16.8511 26.2786C15.9139 27.0869 15.375 28.2633 15.375 29.5009V55.4404C15.375 56.0946 15.9053 56.6249 16.5595 56.6249H35.6186C36.2728 56.6249 36.803 56.0946 36.803 55.4404V29.5009C36.803 28.2634 36.2643 27.087 35.327 26.2787Z" fill="white"/>
<path d="M16.8853 28.9517C16.8494 29.1311 16.8286 29.3146 16.8286 29.501V55.1712H35.3494V29.5013C35.3494 29.3149 35.3286 29.1312 35.2927 28.9518L16.8853 28.9517Z" fill="#EBF0F3"/>
<path d="M15.375 54.2487V55.4403C15.375 56.0945 15.9053 56.6248 16.5595 56.6248H35.6186C36.2728 56.6248 36.803 56.0945 36.803 55.4403V54.2487C29.7368 52.7976 22.5905 52.8638 15.375 54.2487Z" fill="#D5D6DB"/>
<path d="M25.6398 34.0767C24.8027 34.0767 24.124 34.7553 24.124 35.5925V47.0603C24.124 47.8975 24.8027 48.5761 25.6398 48.5761H36.8033V34.0767H25.6398Z" fill="white"/>
<path d="M25.729 45.574C25.7305 46.5439 26.8947 47.507 29.155 48.1773C33.2031 49.3782 39.2255 49.1859 42.6061 47.7481C44.0992 47.1131 44.8246 46.3413 44.8234 45.5742V41.5H25.729V45.574Z" fill="#FCD462"/>
<path d="M41.3976 38.8442C37.3494 37.6435 31.3271 37.8356 27.9464 39.2734C24.5657 40.7111 25.1068 42.8501 29.1549 44.0508C33.203 45.2516 39.2254 45.0594 42.606 43.6216C45.9868 42.1837 45.4457 40.0449 41.3976 38.8442Z" fill="#F6C358"/>
<path d="M41.1498 39.0972C37.2655 38.0131 31.4867 38.1865 28.2428 39.4848C24.9989 40.783 25.5181 42.7144 29.4025 43.7985C33.287 44.8826 39.0657 44.7092 42.3096 43.411C45.5535 42.1125 45.0342 40.1812 41.1498 39.0972Z" fill="#FCD462"/>
<path d="M41.3976 38.8444C41.1113 38.7594 40.8143 38.6824 40.5099 38.6113L28.3511 43.7824C28.602 43.8761 28.8688 43.9661 29.155 44.051C29.4412 44.136 29.7383 44.213 30.0427 44.2841L42.2015 39.113C41.9505 39.0193 41.6838 38.9292 41.3976 38.8444Z" fill="#F6C358"/>
<path d="M37.4995 35.6766C37.081 36.5514 37.7135 37.9236 39.4606 39.5064C42.5898 42.3415 48.1017 44.7756 51.7716 44.943C53.3925 45.0171 54.3805 44.6354 54.7115 43.9434L56.4755 40.2709L39.2635 32.0039L37.4995 35.6766Z" fill="#44C4A1"/>
<path d="M54.5371 36.3935C51.4079 33.5584 45.896 31.1243 42.2261 30.9569C38.5561 30.7893 38.1178 32.9517 41.247 35.7866C44.3763 38.6217 49.8881 41.0558 53.558 41.2232C57.228 41.391 57.6663 39.2286 54.5371 36.3935Z" fill="#3EA69B"/>
<path d="M54.2046 36.5143C51.1725 33.8554 45.8884 31.5099 42.4022 31.2758C38.916 31.0415 38.5479 33.0072 41.58 35.6662C44.612 38.3252 49.8962 40.6707 53.3824 40.9049C56.8685 41.139 57.2367 39.1733 54.2046 36.5143Z" fill="#44C4A1"/>
<path d="M54.5372 36.3935C54.3159 36.193 54.0816 35.9949 53.838 35.7991L40.6389 35.1963C40.8245 35.3894 41.0259 35.5861 41.2473 35.7865C41.4685 35.987 41.7028 36.1851 41.9464 36.3809L55.1456 36.9835C54.96 36.7906 54.7584 36.594 54.5372 36.3935Z" fill="#3EA69B"/>
<path d="M30.2662 47.2349C27.7588 47.2349 25.7263 49.2675 25.7263 51.7747C25.7263 54.2821 27.7589 56.3145 30.2662 56.3145H41.1757V47.2349H30.2662Z" fill="#27A2DB"/>
<path d="M25.7714 51.1685C25.7448 51.3674 25.7263 51.5687 25.7263 51.7748C25.7263 54.2821 27.7589 56.3146 30.2662 56.3146H41.1757V55.102H30.2662C27.965 55.102 26.0685 53.3884 25.7714 51.1685Z" fill="#2D93BA"/>
<path d="M52.0852 47.2349C54.5924 47.2349 56.6251 49.2675 56.6251 51.7747C56.6251 54.2821 54.5924 56.3145 52.0852 56.3145H41.1758V47.2349H52.0852Z" fill="#E56353"/>
<path d="M56.5799 51.1685C56.6064 51.3674 56.6251 51.5687 56.6251 51.7748C56.6251 54.2821 54.5924 56.3146 52.0852 56.3146H41.1758V55.102H52.0852C54.3863 55.102 56.2829 53.3884 56.5799 51.1685Z" fill="#D15241"/>
</g>
<defs>
<clipPath id="clip0_643_4438">
<rect width="72" height="72" fill="white"/>
</clipPath>
</defs>
</svg>
