<svg width="72" height="72" viewBox="0 0 72 72" fill="none" xmlns="http://www.w3.org/2000/svg">
<g clip-path="url(#clip0_643_4458)">
<path d="M72 36C72 55.8825 55.8825 72 36 72C16.1175 72 0 55.8825 0 36C0 16.1175 16.1175 0 36 0C55.8825 0 72 16.1175 72 36Z" fill="#E6F3FF"/>
<path d="M72.0001 36.0002C72.0001 35.0186 71.9595 34.0463 71.882 33.0844L55.469 16.6714C55.469 16.6714 15.9325 27.3913 16.6719 28.0939C16.7175 28.1422 17.9754 29.4001 17.9754 29.4001L16.6719 41.7817L17.9754 43.088L16.6719 55.4696L33.0843 71.8826C34.0462 71.9595 35.0185 72.0002 36.0001 72.0002C55.8826 72.0002 72.0001 55.8827 72.0001 36.0002Z" fill="#CFDBE6"/>
<path d="M52.6816 42.844C54.7987 42.844 56.5312 44.5765 56.5312 46.6936V47.656L51.0776 49.6879L56.5312 51.7193V52.6823C56.5312 54.7993 54.7987 56.5319 52.6816 56.5319H36L33.594 49.6879L36 40.438L52.6816 42.844Z" fill="#202940"/>
<path d="M19.3184 42.844C17.2013 42.844 15.4688 44.5765 15.4688 46.6936V47.656L20.9224 49.6879L15.4688 51.7193V52.6823C15.4688 54.7993 17.2013 56.5319 19.3184 56.5319H36V40.438L19.3184 42.844Z" fill="#384055"/>
<path d="M36 47.656H38.406V45.25H40.812V47.656H44.3491V45.25H46.7551V47.656H50.2916V45.25H52.6976V47.656H56.5312V51.7193H52.6976V54.1253H50.2916V51.7193H46.7551V54.1253H44.3491V51.7193H40.812V54.1253H38.406V51.7193H36L33.594 49.6879L36 47.656Z" fill="#384055"/>
<path d="M36 47.656H33.594V45.25H31.188V47.656H27.6509V45.25H25.2449V47.656H21.7084V45.25H19.3024V47.656H15.4688V51.7193H19.3024V54.1253H21.7084V51.7193H25.2449V54.1253H27.6509V51.7193H31.188V54.1253H33.594V51.7193H36V47.656Z" fill="#4F5669"/>
<path d="M52.6816 15.4683C54.7987 15.4683 56.5312 17.2008 56.5312 19.3179V20.2803L51.0776 22.3122L56.5312 24.3441V25.3065C56.5312 27.4241 54.7987 29.1561 52.6816 29.1561L36 31.5621L33.594 22.3122L36 15.4683H52.6816Z" fill="#202940"/>
<path d="M19.3184 15.4683C17.2013 15.4683 15.4688 17.2008 15.4688 19.3179V20.2803L20.9224 22.3122L15.4688 24.3441V25.3065C15.4688 27.4241 17.2013 29.1561 19.3184 29.1561L36 31.5621V15.4683H19.3184Z" fill="#384055"/>
<path d="M36 20.28H38.406V17.874H40.812V20.28H44.3491V17.874H46.7551V20.28H50.2916V17.874H52.6976V20.28H56.5312V24.3439H52.6976V26.7499H50.2916V24.3439H46.7551V26.7499H44.3491V24.3439H40.812V26.7499H38.406V24.3439H36L33.594 22.312L36 20.28Z" fill="#384055"/>
<path d="M36 20.28H33.594V17.874H31.188V20.28H27.6509V17.874H25.2449V20.28H21.7084V17.874H19.3024V20.28H15.4688V24.3439H19.3024V26.7499H21.7084V24.3439H25.2449V26.7499H27.6509V24.3439H31.188V26.7499H33.594V24.3439H36V20.28Z" fill="#4F5669"/>
<path d="M52.6816 29.1562C54.7987 29.1562 56.5312 30.8888 56.5312 33.0059V33.9683L51.0776 36.0002L56.5312 38.0316V38.9945C56.5312 41.1116 54.7987 42.8441 52.6816 42.8441H36L33.594 36.0002L36 29.1562H52.6816Z" fill="#384055"/>
<path d="M19.3184 29.1562C17.2013 29.1562 15.4688 30.8888 15.4688 33.0059V33.9683L20.9224 36.0002L15.4688 38.0316V38.9945C15.4688 41.1116 17.2013 42.8441 19.3184 42.8441H36V29.1562H19.3184Z" fill="#4F5669"/>
<path d="M36 33.968H38.406V31.562H40.812V33.968H44.3491V31.562H46.7551V33.968H50.2916V31.562H52.6976V33.968H56.5312V38.0313H52.6976V40.4373H50.2916V38.0313H46.7551V40.4373H44.3491V38.0313H40.812V40.4373H38.406V38.0313H36L33.594 35.9999L36 33.968Z" fill="#202940"/>
<path d="M36 33.968H33.594V31.562H31.188V33.968H27.6509V31.562H25.2449V33.968H21.7084V31.562H19.3024V33.968H15.4688V38.0313H19.3024V40.4373H21.7084V38.0313H25.2449V40.4373H27.6509V38.0313H31.188V40.4373H33.594V38.0313H36V33.968Z" fill="#384055"/>
</g>
<defs>
<clipPath id="clip0_643_4458">
<rect width="72" height="72" fill="white"/>
</clipPath>
</defs>
</svg>
