<svg width="72" height="72" viewBox="0 0 72 72" fill="none" xmlns="http://www.w3.org/2000/svg">
<g clip-path="url(#clip0_643_4303)">
<path d="M36 72C55.8823 72 72 55.8823 72 36C72 16.1177 55.8823 0 36 0C16.1177 0 0 16.1177 0 36C0 55.8823 16.1177 72 36 72Z" fill="#2864F0"/>
<path d="M72 35.9999C72 33.2993 71.7004 30.6689 71.1366 28.1382L55.0126 12.0142L16.9875 59.9856L28.1384 71.1364C30.6692 71.7002 33.2995 71.9999 36 71.9999C55.8823 71.9999 72 55.8821 72 35.9999Z" fill="#27488F"/>
<path d="M36 59.9856H16.9875V12.0142H36L38.8125 35.9999L36 59.9856Z" fill="white"/>
<path d="M36 12.0142H55.0125V59.9856H36V12.0142Z" fill="#E3EAEE"/>
<path d="M36 54.0719H22.9014V17.9282H36L37.4063 36.4419L36 54.0719Z" fill="#7A83EA"/>
<path d="M36 17.9282H49.0987V54.0718H36V17.9282Z" fill="#3A4DE1"/>
<path d="M36 38.564L27.064 47.4998L26.8369 48.0292H32.7779L36 44.8069L36.6994 41.7457L36 38.564Z" fill="#FFF275"/>
<path d="M36 44.807L41.4435 39.3636L39.5685 34.9956L36 38.5641V44.807Z" fill="#FFD300"/>
<path d="M36 32.3882L31.7087 36.6795L27.064 47.5L36 38.5642L36.7692 34.9957L36 32.3882Z" fill="#FF7CB7"/>
<path d="M36 38.5639L39.5685 34.9954L37.7137 30.6743L36 32.388V38.5639Z" fill="#FF3996"/>
<path d="M36.0001 26.6821L31.7087 36.6794L36.0001 32.3881L36.6994 29.8556L36.0001 26.6821Z" fill="#FFF275"/>
<path d="M37.7137 30.6745L36 26.6821V32.3881L37.7137 30.6745Z" fill="#FFD300"/>
<path d="M32.7778 48.0294H36L36.6993 46.4183L36 44.8071L32.7778 48.0294Z" fill="#FF7CB7"/>
<path d="M43.31 43.7123L41.4435 39.3638L36 44.8072V48.0295H38.9928L43.31 43.7123Z" fill="#FF3996"/>
<path d="M32.9456 25.2756C32.9456 26.9625 34.313 28.3299 35.9999 28.3299L36.6993 25.2756L35.9999 22.2212C34.313 22.2212 32.9456 23.5886 32.9456 25.2756Z" fill="#9DCFFF"/>
<path d="M36 22.2212V28.3299C37.6869 28.3299 39.0544 26.9625 39.0544 25.2756C39.0544 23.5886 37.6869 22.2212 36 22.2212Z" fill="#4CB8EB"/>
<path d="M43.3101 43.7124L38.9929 48.0296H45.1633L43.3101 43.7124Z" fill="#FFD300"/>
<path d="M26.795 47.4702C26.2158 47.4702 25.7461 47.9398 25.7461 48.5191C25.7461 49.0984 26.2156 49.5681 26.795 49.5681H36L36.6994 48.5191L36 47.4702H26.795Z" fill="white"/>
<path d="M45.205 47.4702H36V49.5681H45.205C45.7843 49.5681 46.254 49.0985 46.254 48.5191C46.254 47.9398 45.7844 47.4702 45.205 47.4702Z" fill="#E3EAEE"/>
</g>
<defs>
<clipPath id="clip0_643_4303">
<rect width="72" height="72" fill="white"/>
</clipPath>
</defs>
</svg>
