<svg width="72" height="72" viewBox="0 0 72 72" fill="none" xmlns="http://www.w3.org/2000/svg">
<g clip-path="url(#clip0_647_4573)">
<path d="M36 72C55.8823 72 72 55.8823 72 36C72 16.1177 55.8823 0 36 0C16.1177 0 0 16.1177 0 36C0 55.8823 16.1177 72 36 72Z" fill="#E6F3FF"/>
<path d="M72 35.9999C72 33.2993 72.1463 44.0307 71.5825 41.5L46 21.5L33 19.5L20 33.5L17.5 41.5L36 71.9999C33.2995 71.9999 38.5309 72.5636 36 71.9999C55.8823 71.9999 72 55.8821 72 35.9999Z" fill="#CFDBE6"/>
<path d="M38.7852 28.14C38.0875 27.7871 37.3171 27.6017 36.5352 27.5986H27.4298C26.6481 27.6033 25.878 27.7886 25.1798 28.14C22.7583 29.3439 20.7052 31.1768 19.2355 33.4468C17.7659 35.7168 16.9339 38.3403 16.8266 41.0424C16.4357 47.5442 21.1937 55.0717 27.8938 56.0192L36.0782 56.0189C42.3463 55.1459 46.9318 48.4201 47.1455 42.3644C47.2813 39.4381 46.5634 36.5355 45.079 34.0099C43.5947 31.4844 41.408 29.445 38.7852 28.14ZM43.3626 41.0143C41.4831 40.5249 39.5459 40.293 37.604 40.3252C35.6546 40.2903 33.7097 40.5245 31.8243 41.0213C30.0445 41.4902 28.2083 41.7103 26.3681 41.6752C22.2634 41.6872 21.5432 40.9638 18.2751 40.508C18.4693 38.1642 19.2651 35.9101 20.5855 33.9639C21.906 32.0177 23.7064 30.4452 25.8126 29.3986C26.3142 29.1448 26.8676 29.0101 27.4298 29.0049H36.5352C37.0998 29.0092 37.6556 29.144 38.1595 29.3986C40.4141 30.5204 42.3158 32.2421 43.6555 34.3744C44.9952 36.5068 45.7211 38.9673 45.7532 41.4854C44.9484 41.3716 44.1504 41.2144 43.3626 41.0143Z" fill="#FF5C52"/>
<path d="M37.5408 26.2768V23.6119C37.5422 23.1235 37.3497 22.6544 37.0057 22.3078C36.6616 21.9611 36.1941 21.765 35.7056 21.7627H28.2595C27.7722 21.7665 27.3062 21.9632 26.9636 22.3098C26.621 22.6564 26.4296 23.1246 26.4314 23.6119V26.2768C26.8863 26.1937 37.0906 26.1944 37.5408 26.2768Z" fill="#FF5C52"/>
<path d="M50.5697 22.6838C50.4106 21.4961 49.8264 20.4063 48.9253 19.6163C48.0242 18.8264 46.8673 18.3899 45.6689 18.3877H34.9393C34.8442 17.9887 34.6178 17.6332 34.2965 17.3782C33.9752 17.1232 33.5776 16.9835 33.1674 16.9814H30.7627C30.2783 16.9829 29.8141 17.1759 29.4716 17.5185C29.129 17.861 28.936 18.3252 28.9346 18.8096V20.3564H34.9955V19.7939H45.6689C46.4978 19.796 47.2997 20.0883 47.9355 20.6201C48.5713 21.1518 49.0008 21.8895 49.1494 22.7049C43.3247 23.7529 43.9647 32.1933 49.9159 32.3307C55.9386 32.178 56.4816 23.6268 50.5697 22.6838Z" fill="#FF5C52"/>
</g>
<defs>
<clipPath id="clip0_647_4573">
<rect width="72" height="72" fill="white"/>
</clipPath>
</defs>
</svg>
