<svg width="72" height="72" viewBox="0 0 72 72" fill="none" xmlns="http://www.w3.org/2000/svg">
<g clip-path="url(#clip0_643_4355)">
<path d="M36 72C55.8823 72 72 55.8823 72 36C72 16.1178 55.8823 0 36 0C16.1178 0 0 16.1178 0 36C0 55.8823 16.1178 72 36 72Z" fill="#2864F0"/>
<path d="M44 8.30322L24 60.0002L36 72.0002C55.7823 72.0002 71.8352 56.0436 71.9961 36.2993L44 8.30322Z" fill="#27488F"/>
<path d="M44 8.30322H28V12.3032H44V8.30322Z" fill="#99ABD5"/>
<path d="M43.9999 8.30322H35.9192V12.3032H43.9999V8.30322Z" fill="#8A9CC1"/>
<path d="M24 59.9999H48V15.9999L44 15.1514H28L24 15.9999V59.9999Z" fill="#B8C9F1"/>
<path d="M47.9999 15.9999L43.9999 15.1514H35.9192V59.9999H47.9999V15.9999Z" fill="#99ABD5"/>
<path d="M31.6769 52.0002H40.3234C42.3539 52.0002 44.0002 50.3542 44.0002 48.3234V39.6769C44.0002 37.6463 42.3542 36 40.3234 36H31.6769C29.6463 36 28 37.6461 28 39.6769V48.3234C28 50.3542 29.6461 52.0002 31.6769 52.0002Z" fill="#3498DB"/>
<path d="M40.3233 36H35.9192V52H40.3233C42.3539 52 44.0002 50.3539 44.0002 48.3231V39.6766C43.9999 37.6461 42.3539 36 40.3233 36Z" fill="#2980B9"/>
<path d="M24 16H48L44 12H28L24 16Z" fill="#ECF0F1"/>
<path d="M43.9999 12H35.9192V16H47.9999L43.9999 12Z" fill="#D0D6D8"/>
</g>
<defs>
<clipPath id="clip0_643_4355">
<rect width="72" height="72" fill="white"/>
</clipPath>
</defs>
</svg>
