<svg width="72" height="72" viewBox="0 0 72 72" fill="none" xmlns="http://www.w3.org/2000/svg">
<g clip-path="url(#clip0_643_4225)">
<path d="M36 72C55.8823 72 72 55.8823 72 36C72 16.1177 55.8823 0 36 0C16.1177 0 0 16.1177 0 36C0 55.8823 16.1177 72 36 72Z" fill="#E6F3FF"/>
<path d="M70.2993 46.9588L59.7624 36.4219L57.1608 39.0234L31.3561 13.2188L21.8305 22.7444L36.0365 36.9505L15.8936 57.0933L30.3592 71.559C32.1971 71.8483 34.0807 72 36 72C52.0606 72 65.6629 61.4818 70.2993 46.9588Z" fill="#CFDBE6"/>
<path d="M59.7655 36.4419L59.7398 45.1827L57.5804 48.936C56.989 49.116 56.2434 49.2703 55.3437 49.2703C53.7241 49.2703 51.6931 48.7819 49.4822 47.1108C49.1994 46.8794 48.9167 46.6479 48.6338 46.391C46.3202 44.3601 44.0064 43.7431 41.6925 44.5401L39.199 42.7918V36.442H59.7655V36.4419Z" fill="#E0F4FF"/>
<path d="M31.3154 13.2188V18.4461L29.0531 21.0168H23.3973L21.0322 18.4461V13.2188H31.3154Z" fill="#663325"/>
<path d="M29.0531 21.0168H26.1738V13.2188H31.3155V18.4461L29.0531 21.0168Z" fill="#3C1B13"/>
<path d="M36.457 51.8667V57.094H15.8906V51.8667L19.5411 49.2959H32.4723L36.457 51.8667Z" fill="#8C4A37"/>
<path d="M32.4723 49.2959L36.457 51.8667V57.094H26.1738V49.2959H32.4723Z" fill="#663325"/>
<path d="M36.457 33.8706V51.8662H15.8906V33.8706L18.4614 31.2998H32.1639L36.457 33.8706Z" fill="#FAECD8"/>
<path d="M36.457 33.8706V51.8662H26.1738V31.2998H32.1639L36.457 33.8706Z" fill="#F4D7AF"/>
<path d="M33.1151 25.3102C32.9093 25.1302 32.7036 24.9246 32.4982 24.7447L31.3155 18.4463H21.0323L19.8496 24.7447C19.644 24.9247 19.4383 25.1303 19.2327 25.3102C17.6645 26.7499 15.8906 28.3695 15.8906 32.1486V33.871H36.457V32.1486C36.457 28.3695 34.6832 26.7499 33.1151 25.3102Z" fill="#8C4A37"/>
<path d="M36.457 32.1486V33.871H26.1738V18.4463H31.3155L32.4982 24.7447C32.7038 24.9247 32.9095 25.1303 33.1151 25.3102C34.6832 26.7499 36.457 28.3695 36.457 32.1486Z" fill="#663325"/>
<path d="M31.3155 42.8687H28.7448C28.7448 41.4549 27.5878 40.298 26.174 40.298C24.7602 40.298 23.6032 41.4549 23.6032 42.8687H21.0325C21.0325 40.0409 23.3463 37.7271 26.1741 37.7271C29.002 37.7271 31.3155 40.0409 31.3155 42.8687Z" fill="#FDBF00"/>
<path d="M31.3154 45.4395H21.0322V48.0102H31.3154V45.4395Z" fill="#FDBF00"/>
<path d="M57.4518 46.2623C56.4493 46.725 53.7242 47.522 50.3308 44.4885C50.0479 44.2314 49.7652 44.0001 49.4824 43.7943C46.4489 41.4808 43.0812 40.9922 39.9447 42.4577L39.1992 42.7918V45.4398L42.0528 57.0939H56.9121L59.0972 48.3189L59.7399 45.7482V45.1827L57.4518 46.2623Z" fill="#FF641A"/>
<path d="M26.1738 40.2978V37.7271C29.0017 37.7271 31.3155 40.0409 31.3155 42.8687H28.7447C28.7446 41.4546 27.5877 40.2978 26.1738 40.2978Z" fill="#FF9100"/>
<path d="M31.3154 45.4395H26.1738V48.0102H31.3154V45.4395Z" fill="#FF9100"/>
<path d="M59.7655 36.4419L59.7398 45.1827L57.5804 48.936C56.989 49.116 56.2434 49.2703 55.3437 49.2703C53.7241 49.2703 51.6931 48.7819 49.4822 47.1108V36.4419H59.7655Z" fill="#BBDCFF"/>
<path d="M59.7399 45.1822V45.7476L59.0972 48.3184L56.9121 57.0936H49.4824V43.7939C49.7652 43.9997 50.0479 44.2311 50.3308 44.4881C53.7242 47.5216 56.4493 46.7247 57.4518 46.2619L59.7399 45.1822Z" fill="#F03800"/>
</g>
<defs>
<clipPath id="clip0_643_4225">
<rect width="72" height="72" fill="white"/>
</clipPath>
</defs>
</svg>
