<svg width="72" height="72" viewBox="0 0 72 72" fill="none" xmlns="http://www.w3.org/2000/svg">
<g clip-path="url(#clip0_643_4337)">
<path d="M36 72C55.8823 72 72 55.8823 72 36C72 16.1178 55.8823 0 36 0C16.1178 0 0 16.1178 0 36C0 55.8823 16.1178 72 36 72Z" fill="#2864F0"/>
<path d="M71.9279 33.7491L48.4952 10.312L23.0574 58.7532L36.3 71.9959C56.0438 71.8344 71.9999 55.7816 71.9999 35.9998C71.9999 35.2437 71.9737 34.4938 71.9279 33.7491Z" fill="#27488F"/>
<path d="M50.2895 24.0259C52.506 24.0259 54.3031 22.229 54.3031 20.0123C54.3031 17.7956 52.5062 15.9987 50.2895 15.9987C50.233 15.9987 50.1782 16.0048 50.1225 16.0072C50.2306 15.5556 50.2895 15.0848 50.2895 14.6C50.2895 11.2751 47.5942 8.57983 44.2694 8.57983C42.2195 8.57983 40.4102 9.60529 39.323 11.1701C38.6151 10.5442 37.6873 10.1609 36.6682 10.1609C35.7787 10.1609 34.9596 10.4538 34.2941 10.9435C33.194 9.50686 31.4619 8.57959 29.5126 8.57959C26.9729 8.57959 24.8022 10.1532 23.9176 12.3777C23.395 12.1284 22.8124 11.9849 22.195 11.9849C19.9787 11.9854 18.1819 13.7823 18.1819 15.999C18.1819 18.2157 19.9787 20.0126 22.1955 20.0126L50.2895 24.0259Z" fill="white"/>
<path d="M50.2895 15.9992C50.233 15.9992 50.1782 16.0053 50.1225 16.0077C50.2306 15.5561 50.2895 15.0853 50.2895 14.6007C50.2895 11.2758 47.5942 8.58057 44.2694 8.58057C42.2197 8.58057 40.4102 9.60602 39.3229 11.1709C38.6151 10.5447 37.6873 10.1617 36.6682 10.1617C36.4543 10.1617 36.2451 10.1794 36.0405 10.2121V21.9905L50.2895 24.0261C52.506 24.0261 54.3031 22.2293 54.3031 20.0126C54.3031 17.7958 52.5062 15.9992 50.2895 15.9992Z" fill="#D0D5D9"/>
<path d="M57.7653 28H50V20H22V56.0708C22 58.241 23.7593 60 25.9292 60H46.0705C48.2407 60 49.9998 58.2407 49.9998 56.0708V48H57.7651C58.9993 48 59.9998 46.9995 59.9998 45.7653V30.2347C60 29.0005 58.9995 28 57.7653 28ZM57.1765 42.9168C57.1765 43.8162 56.4473 44.5455 55.5479 44.5455H50.8235V31.4545H55.5479C56.4473 31.4545 57.1765 32.1838 57.1765 33.0832V42.9168Z" fill="#F0DEB4"/>
<path d="M57.7654 28H50V20H36.0405V60H46.0708C48.241 60 50 58.2407 50 56.0708V48H57.7654C58.9996 48 60 46.9995 60 45.7653V30.2347C60 29.0005 58.9996 28 57.7654 28ZM57.1765 42.9168C57.1765 43.8162 56.4473 44.5455 55.5479 44.5455H50.8236V31.4545H55.5479C56.4473 31.4545 57.1765 32.1838 57.1765 33.0832V42.9168Z" fill="#D8C49C"/>
<path d="M27.1065 57.6625H44.8937C46.8101 57.6625 48.3637 56.1088 48.3637 54.1925V31.7925H23.6365V54.1925C23.6365 56.1091 25.1902 57.6625 27.1065 57.6625Z" fill="#FFA800"/>
<path d="M36.0405 31.7925V57.6625H44.8936C46.81 57.6625 48.3637 56.1088 48.3637 54.1925V31.7925H36.0405Z" fill="#CE8400"/>
</g>
<defs>
<clipPath id="clip0_643_4337">
<rect width="72" height="72" fill="white"/>
</clipPath>
</defs>
</svg>
