<svg width="72" height="72" viewBox="0 0 72 72" fill="none" xmlns="http://www.w3.org/2000/svg">
<g clip-path="url(#clip0_643_4276)">
<path d="M36 72C55.8823 72 72 55.8823 72 36C72 16.1177 55.8823 0 36 0C16.1177 0 0 16.1177 0 36C0 55.8823 16.1177 72 36 72Z" fill="#E6F3FF"/>
<path d="M71.9999 36C71.9999 32.8344 71.5897 29.7648 70.8225 26.8399L52.8727 8.89014L51.328 17.5781L19.0479 60.7801L29.721 71.4532C31.7601 71.812 33.8581 72 35.9999 72C55.8822 72 71.9999 55.8822 71.9999 36Z" fill="#CFDBE6"/>
<path d="M50.5295 40.0419L54.7215 35.8498C55.9001 34.6712 56.4287 32.9912 56.1372 31.3502L54.9587 24.7147L59.143 20.5303L50.9775 12.3647L46.7931 16.5492L40.1575 15.3707C38.5164 15.0792 36.8365 15.6078 35.658 16.7864L31.4659 20.9784C30.2956 22.1487 29.7184 23.7862 29.8961 25.4316L29.9591 26.0156C30.1367 27.6611 29.5596 29.2985 28.3893 30.4688L27.054 31.8042C25.8121 33.046 24.0494 33.6157 22.3156 33.3356C20.5818 33.0555 18.8191 33.6253 17.5772 34.867L9.72628 42.7179C7.31259 45.1316 7.31259 49.0449 9.72628 51.4586L20.0491 61.7814C22.4628 64.195 26.3761 64.195 28.7898 61.7814L36.6408 53.9304C37.8826 52.6885 38.4523 50.9258 38.1722 49.192C37.8921 47.4583 38.4619 45.6955 39.7036 44.4537L41.039 43.1183C42.2093 41.948 43.8467 41.3708 45.4921 41.5485L46.0762 41.6117C47.7218 41.7894 49.3592 41.2121 50.5295 40.0419Z" fill="#1ECDB7"/>
<path d="M41.0396 43.1183L39.7041 44.4537C39.0836 45.0742 38.6301 45.8259 38.3677 46.6393C38.1042 47.4517 38.0316 48.3257 38.1718 49.1918C38.2046 49.3957 38.2265 49.5985 38.2355 49.8024C38.3091 51.3317 37.7373 52.8343 36.6406 53.931L28.79 61.7815C26.3768 64.1948 22.4629 64.1948 20.0495 61.7815L14.8877 56.6198L55.0602 16.4473L59.1431 20.5302L54.9588 24.7145L56.1371 31.3499C56.4285 32.9915 55.9004 34.671 54.7221 35.8494L50.5298 40.0417C49.437 41.1345 47.9356 41.7113 46.4012 41.6367C46.2928 41.6318 46.1844 41.6228 46.0761 41.6118L45.4923 41.5493C43.8467 41.3712 42.21 41.9479 41.0396 43.1183Z" fill="#22AA97"/>
<path d="M29.8718 25.1001L46.4005 41.6288L38.2357 49.7936L21.707 33.2649L29.8718 25.1001Z" fill="white"/>
<path d="M29.9631 41.5371L38.1277 33.3726L46.3916 41.6365L38.2271 49.8011L29.9631 41.5371Z" fill="#F5EDF9"/>
<path d="M52.8689 8.88379L62.6122 18.6271L56.6966 24.5427L46.9533 14.7994L52.8689 8.88379Z" fill="white"/>
<path d="M51.8213 19.6831L57.7369 13.7675L62.6086 18.6392L56.693 24.5548L51.8213 19.6831Z" fill="#F5EDF9"/>
</g>
<defs>
<clipPath id="clip0_643_4276">
<rect width="72" height="72" fill="white"/>
</clipPath>
</defs>
</svg>
