<svg width="72" height="72" viewBox="0 0 72 72" fill="none" xmlns="http://www.w3.org/2000/svg">
<g clip-path="url(#clip0_643_4377)">
<path d="M36 72C55.8823 72 72 55.8823 72 36C72 16.1177 55.8823 0 36 0C16.1177 0 0 16.1177 0 36C0 55.8823 16.1177 72 36 72Z" fill="#2864F0"/>
<path d="M71.9999 36.0001C71.9999 35.5143 71.9902 35.0306 71.9712 34.5494L47.7431 10.3213L24.5386 14.3796L39.8441 29.6851L23.6057 38.5537L22.4597 59.8299L23.2551 60.7175L34.6034 71.9735C35.0667 71.9913 35.5324 72.0001 36.0001 72.0001C55.8822 72.0001 71.9999 55.8824 71.9999 36.0001Z" fill="#27488F"/>
<path d="M48.0483 39.4223L45.0652 36.4392L38.1094 43.3951V33.5581H33.8906V43.3951L26.9349 36.4394L23.9518 39.4224L33.0169 48.4876L23.9517 57.5528L26.9347 60.5359L33.8906 53.58V63.4172H38.1094V53.58L45.0652 60.5359L48.0483 57.5528L38.9831 48.4876L48.0483 39.4223Z" fill="#E9EDF5"/>
<path d="M21.0706 46.3784H50.9296V50.5972H21.0706V46.3784Z" fill="#E9EDF5"/>
<path d="M50.9296 46.3782H41.0924L48.0483 39.4223L45.0652 36.4392L38.1093 43.3951V33.5581H36.0168V45.4875V45.5214V46.3782V50.5969V51.4538V51.4877V63.4172H38.1093V53.58L45.0652 60.5359L48.0483 57.5528L41.0924 50.5969H50.9296V46.3782Z" fill="#CDD2E1"/>
<path d="M35.9999 66.1593C26.2557 66.1593 18.3281 58.2319 18.3281 48.4876C18.3281 38.7432 26.2557 30.8159 35.9999 30.8159C45.7441 30.8159 53.6717 38.7434 53.6717 48.4877C53.6717 58.232 45.7441 66.1593 35.9999 66.1593ZM35.9999 36.3003C29.2797 36.3003 23.8125 41.7675 23.8125 48.4877C23.8125 55.2079 29.2797 60.6751 35.9999 60.6751C42.7201 60.6751 48.1873 55.2079 48.1873 48.4877C48.1873 41.7675 42.7201 36.3003 35.9999 36.3003Z" fill="#DCDDE0"/>
<path d="M53.6718 48.4879C53.6718 38.7493 45.7533 30.8255 36.0168 30.8164V36.3008C42.7293 36.3099 48.1874 41.7735 48.1874 48.4879C48.1874 55.2023 42.7293 60.6659 36.0168 60.675V66.1594C45.7533 66.1503 53.6718 58.2265 53.6718 48.4879Z" fill="#79899D"/>
<path d="M33.2908 12.5234H38.7093V25.918H33.2908V12.5234Z" fill="white"/>
<path d="M36.0168 12.5234H38.7091V25.918H36.0168V12.5234Z" fill="#E9EDF5"/>
<path d="M31.762 20.6035H40.2379V48.4876H31.762V20.6035Z" fill="#64E1DC"/>
<path d="M36.0168 20.6035H40.2378V48.4876H36.0168V20.6035Z" fill="#1CADB5"/>
<path d="M36 52.9135C38.4442 52.9135 40.4257 50.932 40.4257 48.4878C40.4257 46.0435 38.4442 44.062 36 44.062C33.5557 44.062 31.5742 46.0435 31.5742 48.4878C31.5742 50.932 33.5557 52.9135 36 52.9135Z" fill="#555A66"/>
<path d="M40.4257 48.4878C40.4257 46.0492 38.4533 44.0716 36.0168 44.0625V52.9132C38.4533 52.904 40.4257 50.9264 40.4257 48.4878Z" fill="#333940"/>
<path d="M45.843 15.1511C39.312 16.0512 32.6881 16.0512 26.1571 15.1511C24.696 14.9497 23.6057 13.7039 23.6057 12.229C23.6057 12.209 23.6057 12.1889 23.6057 12.169C23.6057 10.3961 25.1598 9.02122 26.9186 9.24453C32.9486 10.0102 39.0514 10.0102 45.0815 9.24453C46.8403 9.02122 48.3944 10.396 48.3944 12.169V12.229C48.3942 13.7039 47.304 14.9497 45.843 15.1511Z" fill="#FFC9C9"/>
<path d="M45.0814 9.24453C42.072 9.62675 39.0445 9.818 36.0168 9.8187V15.8261C39.2999 15.8254 42.5829 15.6004 45.8429 15.1511C47.304 14.9497 48.3942 13.7039 48.3942 12.229C48.3942 12.209 48.3942 12.1889 48.3942 12.169C48.3942 10.3961 46.8402 9.02122 45.0814 9.24453Z" fill="#FF9696"/>
</g>
<defs>
<clipPath id="clip0_643_4377">
<rect width="72" height="72" fill="white"/>
</clipPath>
</defs>
</svg>
