<svg width="72" height="72" viewBox="0 0 72 72" fill="none" xmlns="http://www.w3.org/2000/svg">
<g clip-path="url(#clip0_643_4199)">
<path d="M67.2637 18.142V18.6276C67.2637 32.5503 55.977 43.837 42.0543 43.837H29.941C15.8282 43.837 4.46439 32.2522 4.73622 18.142C10.9392 7.30406 22.6167 0 36 0C49.3833 0 61.0608 7.30406 67.2637 18.142Z" fill="#E6F3FF"/>
<path d="M72 36.0001C72 45.6343 68.2144 54.384 62.0522 60.8457L52.4503 68.0288C47.52 70.5671 41.9273 72.0001 36 72.0001C33.6952 72.0001 31.4423 71.7835 29.2584 71.3687L8.04375 58.6829C3.015 52.4911 0 44.5979 0 36.0001C0 29.5018 1.72266 23.4057 4.73484 18.1421H4.73625C5.39016 19.284 6.10453 20.3879 6.87656 21.4468C10.4006 26.2885 15.1017 30.219 20.5622 32.8135C25.2323 35.0354 30.4552 36.2785 35.9691 36.2841H36C41.5266 36.2841 46.7606 35.0396 51.4392 32.8135C56.932 30.2021 61.6584 26.2379 65.1895 21.354V21.3526C65.9362 20.3218 66.6281 19.2516 67.2637 18.1421C67.2666 18.1463 67.268 18.1505 67.2708 18.1533C70.2802 23.4141 72 29.506 72 36.0001Z" fill="#E6F3FF"/>
<path d="M71.5 41.5L64.8688 34.7031L60 29.5L35 17L26.9369 21.0257L41.143 35.2317L21 55.3746L29.5 72C31.3378 72.2893 39.2237 72 41.143 72C57.2036 72 73 50.5 71.5 41.5Z" fill="#CFDBE6"/>
<path d="M45.305 43.2958L42.1592 52.5081H40.0695C40.0695 49.3244 28.9517 39.5003 24.875 39.5003V28.4936L26.675 28.2109V16.5742H35.0844V29.4611H42.1592V36.6344H35.0844V43.2958H45.305Z" fill="#E02D2D"/>
<path d="M60.2661 44.2507V50.4692L42.1592 52.5082V43.2959H60.2365C60.2562 43.6123 60.2661 43.9315 60.2661 44.2507Z" fill="#C51E48"/>
<path d="M42.1587 50.4692L44.7264 52.5073L42.1587 54.5453H41.1465V50.4692H42.1587Z" fill="#E4EBF8"/>
<path d="M56.1891 50.4691V30.4092H52.1124V50.4691H42.1589V54.5458H56.1891V61.5752H60.2658V54.5458V50.4691H56.1891Z" fill="#C8D9FF"/>
<path d="M19.7296 21.8746L18.3022 23.9108H8.24756V19.8369H18.3022L19.7296 21.8746Z" fill="#565B6E"/>
<path d="M26.6751 28.2111V39.5019H24.8751V39.5005H22.8374V28.4474C22.8374 27.1944 22.3312 26.061 21.5085 25.2397C20.6887 24.4199 19.5552 23.9108 18.3022 23.9108V19.8369C22.9274 19.8369 26.6751 23.5874 26.6751 28.2111Z" fill="#E4EBF8"/>
<path d="M38.607 56.3895H29.1711L35.8423 63.0621L33.3265 65.5779L26.6553 58.9067V68.3412H23.0961V58.9067L16.4262 65.5779L13.909 63.0621L20.5803 56.3895H11.1458V52.8331H20.5803L13.909 46.1604L16.4262 43.6446L23.0961 50.3159V40.8813H26.6553V50.3159L33.3265 43.6446L35.8423 46.1604L29.1711 52.8331H38.607V56.3895Z" fill="#C8D9FF"/>
<path d="M32.4098 54.6104C32.4098 58.7715 29.0362 62.1451 24.8751 62.1451C20.714 62.1451 17.3418 58.7715 17.3418 54.6104C17.3418 50.4493 20.714 47.0771 24.8751 47.0771C29.0362 47.0771 32.4098 50.4493 32.4098 54.6104Z" fill="#474E6F"/>
<path d="M24.875 66.1641V70.2478L26.9563 68.4591L24.875 66.1641Z" fill="#565B6E"/>
<path d="M29.2584 71.3687C28.087 71.1479 26.9352 70.8695 25.806 70.5362C25.4938 70.4448 25.1845 70.3477 24.8751 70.2479L26.9563 68.4591L24.8751 66.1641C25.0016 66.1641 25.1268 66.1627 25.2548 66.1585C31.3016 65.9645 36.2263 61.0398 36.4218 54.9915C36.6313 48.4384 31.3832 43.058 24.8751 43.0566C24.7513 43.0566 24.6248 43.0595 24.4996 43.0637C18.4499 43.2549 13.5224 48.1824 13.3284 54.2307C13.1202 60.7852 18.3698 66.1627 24.8751 66.1641V70.2479C18.1954 68.0809 12.3735 64.0126 8.04368 58.6829C7.74977 57.4777 7.58384 56.2248 7.55993 54.9395C7.37993 45.2237 15.2029 37.291 24.8751 37.291C24.9848 37.291 25.0945 37.2938 25.2041 37.2952C34.4643 37.4654 42.0201 45.0226 42.1902 54.2813C42.3435 62.4741 36.8015 69.3999 29.2584 71.3687Z" fill="#474E6F"/>
<path d="M26.9563 68.4591L24.875 70.2478V66.1641L26.9563 68.4591Z" fill="#474E6F"/>
<path d="M28.6875 54.6103C28.6875 56.7155 26.9818 58.4213 24.8752 58.4213C22.7715 58.4213 21.0657 56.7155 21.0657 54.6103C21.0657 52.5052 22.7715 50.8008 24.8752 50.8008C26.9818 50.8008 28.6875 52.5052 28.6875 54.6103Z" fill="#3A415E"/>
<path d="M62.052 60.8458C59.2873 63.7427 56.0445 66.1797 52.4502 68.0289C52.2252 67.4678 52.0803 66.8688 52.0311 66.2444C51.7428 62.5811 54.6298 59.5239 58.2284 59.5239C58.3944 59.5239 58.5631 59.5296 58.7319 59.5436C59.9736 59.6406 61.1183 60.1131 62.052 60.8458Z" fill="#474E6F"/>
<path d="M60.2663 30.4158V36.6342H42.1594V29.4609H60.2086C60.2466 29.7773 60.2663 30.0966 60.2663 30.4158Z" fill="#C51E48"/>
</g>
<defs>
<clipPath id="clip0_643_4199">
<rect width="72" height="72" fill="white"/>
</clipPath>
</defs>
</svg>
