<svg width="12" height="12" viewBox="0 0 12 12" fill="none" xmlns="http://www.w3.org/2000/svg">
<g clip-path="url(#clip0_777_12704)">
<path d="M10.7979 5.96298H9.95039C9.77487 5.96298 9.63257 6.10528 9.63257 6.2808V10.1449C9.63257 10.35 9.46565 10.5169 9.26055 10.5169H1.85502C1.64996 10.5169 1.48317 10.35 1.48317 10.1449V2.73951C1.48317 2.53436 1.64996 2.36744 1.85502 2.36744H5.91698C6.09251 2.36744 6.23481 2.22514 6.23481 2.04962V1.2021C6.23481 1.02658 6.09251 0.884277 5.91698 0.884277H1.85502C0.832141 0.884277 0 1.71655 0 2.73951V10.145C0 11.1679 0.832183 12.0001 1.85502 12.0001H9.26051C10.2835 12.0001 11.1157 11.1679 11.1157 10.145V6.28084C11.1157 6.10528 10.9734 5.96298 10.7979 5.96298Z" fill="#3858C9"/>
<path d="M11.6821 0H8.31093C8.1354 0 7.9931 0.142299 7.9931 0.317821V1.16534C7.9931 1.34087 8.1354 1.48317 8.31093 1.48317H9.46796L5.11402 5.83702C4.98991 5.96114 4.98991 6.16234 5.11402 6.28651L5.71331 6.88583C5.77293 6.94545 5.85374 6.97893 5.93807 6.97893C6.02236 6.97893 6.10321 6.94545 6.16279 6.88583L10.5167 2.53189V3.68889C10.5167 3.86441 10.659 4.00671 10.8346 4.00671H11.6821C11.8576 4.00671 11.9999 3.86441 11.9999 3.68889V0.317821C11.9999 0.142299 11.8576 0 11.6821 0Z" fill="#3858C9"/>
</g>
<defs>
<clipPath id="clip0_777_12704">
<rect width="12" height="12" fill="white"/>
</clipPath>
</defs>
</svg>
