<svg width="24" height="21" viewBox="-2.5 0 24 21" fill="none" xmlns="http://www.w3.org/2000/svg">
<path d="M18.536 0.546972C17.9499 -0.0716468 17.0096 -0.0716468 16.4235 0.546972L9.48779 7.86729L2.55206 0.546972C1.96594 -0.0716468 1.02571 -0.0716468 0.439589 0.546972C-0.14653 1.16559 -0.14653 2.15796 0.439589 2.77658L7.37532 10.0969L0.439589 17.4172C-0.14653 18.0358 -0.14653 19.0282 0.439589 19.6468C0.732648 19.9561 1.11118 20.1108 1.50193 20.1108C1.89267 20.1108 2.27121 19.9561 2.56427 19.6468L9.5 12.3265L16.4357 19.6468C16.7288 19.9561 17.1073 20.1108 17.4981 20.1108C17.8888 20.1108 18.2674 19.9561 18.5604 19.6468C19.1465 19.0282 19.1465 18.0358 18.5604 17.4172L11.6003 10.0969L18.536 2.77658C19.1221 2.15796 19.1221 1.16559 18.536 0.546972Z" fill="#BDBDBD"/>
</svg>
