<svg width="24" height="24" viewBox="-3 -3 24 24" fill="none" xmlns="http://www.w3.org/2000/svg">
<path d="M1.5 4.125H3C3.20625 4.125 3.375 3.95625 3.375 3.75V2.25C3.375 2.04375 3.20625 1.875 3 1.875H1.5C1.29375 1.875 1.125 2.04375 1.125 2.25V3.75C1.125 3.95625 1.29375 4.125 1.5 4.125ZM1.875 2.625H2.625V3.375H1.875V2.625Z" fill="#2EA6E1"/>
<path d="M4.5 3.375H10.5C10.7063 3.375 10.875 3.20625 10.875 3C10.875 2.79375 10.7063 2.625 10.5 2.625H4.5C4.29375 2.625 4.125 2.79375 4.125 3C4.125 3.20625 4.29375 3.375 4.5 3.375Z" fill="#2EA6E1"/>
<path d="M1.5 7.125H3C3.20625 7.125 3.375 6.95625 3.375 6.75V5.25C3.375 5.04375 3.20625 4.875 3 4.875H1.5C1.29375 4.875 1.125 5.04375 1.125 5.25V6.75C1.125 6.95625 1.29375 7.125 1.5 7.125ZM1.875 5.625H2.625V6.375H1.875V5.625Z" fill="#2EA6E1"/>
<path d="M4.5 6.375H10.5C10.7063 6.375 10.875 6.20625 10.875 6C10.875 5.79375 10.7063 5.625 10.5 5.625H4.5C4.29375 5.625 4.125 5.79375 4.125 6C4.125 6.20625 4.29375 6.375 4.5 6.375Z" fill="#2EA6E1"/>
<path d="M1.5 10.125H3C3.20625 10.125 3.375 9.95625 3.375 9.75V8.25C3.375 8.04375 3.20625 7.875 3 7.875H1.5C1.29375 7.875 1.125 8.04375 1.125 8.25V9.75C1.125 9.95625 1.29375 10.125 1.5 10.125ZM1.875 8.625H2.625V9.375H1.875V8.625Z" fill="#2EA6E1"/>
<path d="M16.5 8.625H4.5C4.29375 8.625 4.125 8.79375 4.125 9C4.125 9.20625 4.29375 9.375 4.5 9.375H16.5C16.7063 9.375 16.875 9.20625 16.875 9C16.875 8.79375 16.7063 8.625 16.5 8.625Z" fill="#2EA6E1"/>
<path d="M1.5 13.125H3C3.20625 13.125 3.375 12.9562 3.375 12.75V11.25C3.375 11.0437 3.20625 10.875 3 10.875H1.5C1.29375 10.875 1.125 11.0437 1.125 11.25V12.75C1.125 12.9562 1.29375 13.125 1.5 13.125ZM1.875 11.625H2.625V12.375H1.875V11.625Z" fill="#2EA6E1"/>
<path d="M16.5 11.625H4.5C4.29375 11.625 4.125 11.7937 4.125 12C4.125 12.2063 4.29375 12.375 4.5 12.375H16.5C16.7063 12.375 16.875 12.2063 16.875 12C16.875 11.7937 16.7063 11.625 16.5 11.625Z" fill="#2EA6E1"/>
<path d="M1.5 16.125H3C3.20625 16.125 3.375 15.9562 3.375 15.75V14.25C3.375 14.0437 3.20625 13.875 3 13.875H1.5C1.29375 13.875 1.125 14.0437 1.125 14.25V15.75C1.125 15.9562 1.29375 16.125 1.5 16.125ZM1.875 14.625H2.625V15.375H1.875V14.625Z" fill="#2EA6E1"/>
<path d="M16.5 14.625H4.5C4.29375 14.625 4.125 14.7937 4.125 15C4.125 15.2063 4.29375 15.375 4.5 15.375H16.5C16.7063 15.375 16.875 15.2063 16.875 15C16.875 14.7937 16.7063 14.625 16.5 14.625Z" fill="#2EA6E1"/>
<path d="M12.6937 6.74644C12.7124 6.75019 12.7312 6.75019 12.7499 6.75019C12.8362 6.75019 12.9187 6.72019 12.9862 6.66769L16.7362 3.66769C16.8974 3.54019 16.9237 3.30394 16.7962 3.13894C16.6687 2.97394 16.4324 2.95144 16.2674 3.07894L12.8362 5.82394L11.5649 3.91519C11.4487 3.74269 11.2162 3.69769 11.0437 3.81019C10.8712 3.92644 10.8262 4.15894 10.9387 4.33144L12.4387 6.58144C12.4949 6.67144 12.5887 6.73144 12.6937 6.74644Z" fill="#2EA6E1"/>
</svg>
