<svg width="19" height="16" viewBox="0 0 19 16" fill="none" xmlns="http://www.w3.org/2000/svg">
<path d="M4.69116 14.5455H14.304C14.6317 14.5455 14.8977 14.2848 14.8977 13.9637C14.8977 13.6425 14.6317 13.3818 14.304 13.3818H4.69116C4.36341 13.3818 4.09741 13.6425 4.09741 13.9637C4.09741 14.2848 4.36312 14.5455 4.69116 14.5455Z" fill="#F3A229"/>
<path d="M11.8948 8.9659C11.9939 9.18147 12.2104 9.30947 12.4366 9.30947C12.5179 9.30947 12.601 9.29259 12.6797 9.25798C12.979 9.12619 13.1123 8.78147 12.9778 8.48852L10.039 2.08852C9.90394 1.79528 9.55184 1.66583 9.25378 1.79645C8.95453 1.92823 8.82123 2.27296 8.95572 2.5659L11.8948 8.9659Z" fill="#F3A229"/>
<path d="M4.69115 13.3823V13.3817C4.6585 13.062 4.36815 12.8298 4.04129 12.8607C3.71473 12.8927 3.47693 13.178 3.50959 13.4975C3.57045 14.095 4.0784 14.5453 4.69115 14.5453C5.0189 14.5453 5.2849 14.2849 5.2849 13.9638C5.2849 13.6426 5.0189 13.3823 4.69115 13.3823Z" fill="#F3A229"/>
<path d="M14.9539 12.8607C14.622 12.8267 14.337 13.0623 14.3043 13.382H14.3037C13.976 13.382 13.71 13.6427 13.71 13.9638C13.71 14.285 13.976 14.5456 14.3037 14.5456C14.9168 14.5456 15.4247 14.095 15.4853 13.4972C15.5179 13.1778 15.2801 12.8924 14.9539 12.8607Z" fill="#F3A229"/>
<path d="M6.03823 9.00782C6.1463 9.2004 6.34965 9.3092 6.55925 9.3092C6.65573 9.3092 6.754 9.28622 6.84484 9.23706C7.13222 9.08229 7.23701 8.72855 7.07908 8.44695L3.48689 2.04695C3.32925 1.76564 2.96825 1.66178 2.68028 1.81771C2.3932 1.97248 2.28811 2.32622 2.44605 2.60782L6.03823 9.00782Z" fill="#F3A229"/>
<path d="M12.1506 9.23686C12.2411 9.28602 12.3391 9.309 12.4362 9.309C12.6458 9.309 12.8491 9.2002 12.9569 9.00762L16.5494 2.60762C16.7076 2.32602 16.6028 1.97228 16.3155 1.81751C16.0281 1.66217 15.6668 1.76515 15.5091 2.04675L11.9167 8.44675C11.7581 8.72835 11.8632 9.0821 12.1506 9.23686Z" fill="#F3A229"/>
<path d="M4.09976 14.0215C4.11935 14.0215 4.13954 14.0206 4.15943 14.0186C4.48569 13.9866 4.72349 13.7015 4.69113 13.3818L3.55707 2.26933C3.52441 1.94962 3.23437 1.71776 2.90721 1.74831C2.58094 1.78031 2.34315 2.0654 2.37551 2.38511L3.50927 13.4975C3.54015 13.7978 3.79813 14.0215 4.09976 14.0215Z" fill="#F3A229"/>
<path d="M14.8357 14.0186C14.8559 14.0206 14.8758 14.0215 14.8954 14.0215C15.197 14.0215 15.455 13.7975 15.4856 13.4975L16.6196 2.38511C16.652 2.06511 16.4142 1.78031 16.0879 1.74831C15.7575 1.71776 15.4707 1.94962 15.4381 2.26933L14.304 13.3818C14.2714 13.7018 14.5095 13.9866 14.8357 14.0186Z" fill="#F3A229"/>
<path d="M6.31489 9.25798C6.39385 9.29259 6.47668 9.30947 6.55803 9.30947C6.78454 9.30947 7.00067 9.18176 7.09982 8.9659L10.0389 2.5659C10.1734 2.27296 10.0401 1.92881 9.74082 1.79645C9.44246 1.66583 9.09067 1.79528 8.95559 2.08852L6.01653 8.48852C5.88234 8.78176 6.01593 9.1259 6.31489 9.25798Z" fill="#F3A229"/>
</svg>
