<svg width="30" height="30" viewBox="0 0 30 30" fill="none" xmlns="http://www.w3.org/2000/svg">
<g clip-path="url(#clip0_2902_1481)">
<path d="M5.15442 12.6828V24.2658C5.15442 25.4086 6.08106 26.3353 7.2548 26.3353H21.8957C23.0386 26.3353 23.9961 25.4086 23.9961 24.2658V12.6828C23.9961 11.5399 23.0695 10.6133 21.8957 10.6133H17.664V12.1577H21.8957C22.2046 12.1577 22.4517 12.4048 22.4517 12.6828V24.2658C22.4517 24.5747 22.2046 24.7909 21.8957 24.7909H7.2548C6.94592 24.7909 6.69882 24.5438 6.69882 24.2658V12.6828C6.69882 12.3739 6.94592 12.1577 7.2548 12.1577H10.8687V10.6133H7.2548C6.08106 10.6133 5.15442 11.5399 5.15442 12.6828Z" fill="white"/>
<path d="M13.6486 3.63281V15.5556L11.6718 13.8567L10.6525 15.0305L13.8957 17.8105C14.0502 17.934 14.2046 17.9958 14.3899 17.9958C14.5753 17.9958 14.7606 17.934 14.8841 17.8105L18.1274 15.0305L17.108 13.8567L15.193 15.5556V3.63281H13.6486Z" fill="white"/>
</g>
<defs>
<clipPath id="clip0_2902_1481">
<rect width="20" height="22.8571" fill="white" transform="translate(5 3.57129)"/>
</clipPath>
</defs>
</svg>
