<svg width="35" height="36" viewBox="0 0 35 36" fill="none" xmlns="http://www.w3.org/2000/svg">
<g clip-path="url(#clip0_777_12640)">
<path d="M33.8023 9.97167L24.8855 0.706309C24.7586 0.574512 24.5834 0.5 24.4005 0.5H11.1108C9.62348 0.5 8.41345 1.70955 8.41345 3.19623V12.6154H3.02762C1.91487 12.6154 1.00958 13.5204 1.00958 14.6329V24.7326C1.00958 25.845 1.91487 26.75 3.02762 26.75H8.41345V32.8085C8.41345 34.2926 9.62348 35.5 11.1108 35.5H31.2931C32.7803 35.5 33.9904 34.2933 33.9904 32.81V10.4384C33.9904 10.2644 33.9229 10.0971 33.8023 9.97167ZM24.5673 2.31706L31.8872 9.92307H24.5673V2.31706ZM3.02762 25.4039C2.65711 25.4039 2.35578 25.1027 2.35578 24.7326V14.6329C2.35578 14.2627 2.65718 13.9615 3.02762 13.9615H21.2031C21.5737 13.9615 21.875 14.2627 21.875 14.6329V24.7326C21.875 25.1027 21.5736 25.4039 21.2031 25.4039H3.02762ZM32.6442 32.81C32.6442 33.551 32.038 34.1539 31.293 34.1539H11.1108C10.3657 34.1539 9.75958 33.5504 9.75958 32.8086V26.75H21.2031C22.3159 26.75 23.2212 25.845 23.2212 24.7326V14.6329C23.2212 13.5204 22.3159 12.6154 21.2031 12.6154H9.75958V3.19623C9.75958 2.45173 10.3657 1.84613 11.1108 1.84613H23.2211V10.5961C23.2211 10.9679 23.5225 11.2692 23.8942 11.2692H32.6442V32.81Z" fill="#3858C9"/>
<path d="M9.05635 17.5824C8.83288 17.2919 8.55548 17.1032 8.22421 17.0164C8.0086 16.9586 7.54588 16.9297 6.83597 16.9297H4.96265V22.7113H6.13002V20.5304H6.8912C7.41969 20.5304 7.82328 20.5028 8.10198 20.4475C8.30706 20.4028 8.50886 20.3115 8.70737 20.1734C8.90589 20.0354 9.06954 19.8454 9.1984 19.6036C9.32726 19.3617 9.39165 19.0633 9.39165 18.7083C9.39158 18.2482 9.27981 17.8729 9.05635 17.5824ZM8.05659 19.1737C7.96854 19.3026 7.84693 19.3972 7.69176 19.4577C7.53658 19.5182 7.22903 19.5484 6.76891 19.5484H6.13002V17.9078H6.69398C7.11467 17.9078 7.39467 17.9209 7.53398 17.9472C7.72327 17.9814 7.87975 18.0668 8.00327 18.2036C8.12686 18.3403 8.18866 18.5138 8.18866 18.7241C8.18873 18.895 8.14464 19.0449 8.05659 19.1737Z" fill="#3858C9"/>
<path d="M15.0036 18.5092C14.8774 18.1398 14.6933 17.8276 14.4515 17.5725C14.2096 17.3175 13.919 17.14 13.5799 17.0401C13.3275 16.9665 12.9607 16.9297 12.4796 16.9297H10.3459V22.7113H12.5427C12.9739 22.7113 13.3183 22.6706 13.5759 22.589C13.9204 22.4786 14.1938 22.3248 14.3962 22.1276C14.6644 21.8673 14.8708 21.5269 15.0154 21.1062C15.1338 20.7617 15.1929 20.3516 15.1929 19.8757C15.1929 19.3341 15.1298 18.8786 15.0036 18.5092ZM13.8678 20.8834C13.7889 21.1424 13.687 21.3284 13.5621 21.4414C13.4372 21.5545 13.2801 21.6347 13.0909 21.682C12.9463 21.7188 12.7109 21.7372 12.3849 21.7372H11.5133V17.9078H12.0378C12.5137 17.9078 12.8332 17.9262 12.9962 17.963C13.2144 18.0103 13.3945 18.101 13.5365 18.2351C13.6785 18.3693 13.7889 18.5559 13.8678 18.7951C13.9466 19.0344 13.9861 19.3775 13.9861 19.8245C13.9861 20.2714 13.9466 20.6244 13.8678 20.8834Z" fill="#3858C9"/>
<path d="M20.1542 17.9078V16.9297H16.1907V22.7113H17.358V20.2543H19.7717V19.2763H17.358V17.9078H20.1542Z" fill="#3858C9"/>
</g>
<defs>
<clipPath id="clip0_777_12640">
<rect width="35" height="35" fill="white" transform="translate(0 0.5)"/>
</clipPath>
</defs>
</svg>
