<svg width="16" height="16" viewBox="0 0 16 16" fill="none" xmlns="http://www.w3.org/2000/svg">
<rect width="16" height="16" rx="8" fill="#2EA6E1"/>
<path d="M7.30473 10.9177C7.08455 11.139 6.96777 11.4224 6.96777 11.7381C6.96777 12.0955 7.09388 12.394 7.3323 12.6034C7.56058 12.8021 7.83063 12.9031 8.13474 12.9031C8.43682 12.9031 8.70565 12.8005 8.93232 12.5969C9.16668 12.3871 9.29035 12.0902 9.29035 11.7381C9.29035 11.4207 9.17114 11.1361 8.94691 10.9157C8.49318 10.4675 7.74832 10.4695 7.30473 10.9177Z" fill="white"/>
<path d="M7.19808 8.48988C7.2362 8.87605 7.30027 9.16314 7.39393 9.36739C7.52409 9.65042 7.77549 9.80635 8.10109 9.80635C8.4202 9.80635 8.672 9.65001 8.81108 9.36536C8.91529 9.15177 8.98057 8.86752 9.00976 8.498L9.2494 5.74648C9.27657 5.48172 9.29035 5.22103 9.29035 4.96439C9.29035 4.49376 9.2271 4.13479 9.09613 3.86516C8.98219 3.63208 8.72877 3.35474 8.16839 3.35474C7.8132 3.35474 7.51963 3.47615 7.29743 3.71533C7.07928 3.948 6.96777 4.26514 6.96777 4.657C6.96777 4.88805 6.9848 5.26975 7.01886 5.8017L7.19808 8.48988Z" fill="white"/>
</svg>
