<svg width="16" height="17" viewBox="0 0 16 17" fill="none" xmlns="http://www.w3.org/2000/svg">
<path d="M7.95576 1.59375C6.64451 1.59375 5.3627 1.98258 4.27243 2.71108C3.18216 3.43958 2.3324 4.47501 1.8306 5.68646C1.3288 6.89788 1.19751 8.23094 1.45332 9.517C1.70913 10.8031 2.34056 11.9844 3.26777 12.9116C4.19496 13.8388 5.37629 14.4702 6.66235 14.7261C7.9484 14.9818 9.28147 14.8506 10.4929 14.3488C11.7043 13.8469 12.7398 12.9972 13.4683 11.9069C14.1968 10.8166 14.5856 9.53483 14.5856 8.22358C14.5856 7.35295 14.4141 6.49082 14.0809 5.68646C13.7478 4.88209 13.2594 4.15122 12.6438 3.53558C12.0281 2.91995 11.2973 2.4316 10.4929 2.09841C9.68854 1.76524 8.82639 1.59375 7.95576 1.59375ZM7.55632 10.0196L5.42814 7.89143L6.06069 7.25855L7.55632 8.75397L9.97481 6.33627L10.6077 6.96902L7.55632 10.0196Z" fill="#3858C9"/>
</svg>
