<svg width="98" height="93" viewBox="0 0 98 93" fill="none" xmlns="http://www.w3.org/2000/svg">
<path d="M22.9148 57.2915H24.0105L26.8054 64.2466L29.5945 57.2915H30.696L27.2273 65.8228H26.3718L22.9148 57.2915ZM22.5574 57.2915H23.5242L23.6824 62.4946V65.8228H22.5574V57.2915ZM30.0808 57.2915H31.0476V65.8228H29.9226V62.4946L30.0808 57.2915Z" fill="#232E5E"/>
<path d="M34.0476 59.4829V65.8228H32.9578V59.4829H34.0476ZM32.8757 57.8013C32.8757 57.6255 32.9285 57.4771 33.0339 57.356C33.1433 57.2349 33.3035 57.1743 33.5144 57.1743C33.7214 57.1743 33.8796 57.2349 33.989 57.356C34.1023 57.4771 34.1589 57.6255 34.1589 57.8013C34.1589 57.9692 34.1023 58.1138 33.989 58.2349C33.8796 58.3521 33.7214 58.4106 33.5144 58.4106C33.3035 58.4106 33.1433 58.3521 33.0339 58.2349C32.9285 58.1138 32.8757 57.9692 32.8757 57.8013Z" fill="#232E5E"/>
<path d="M38.325 65.0493C38.5828 65.0493 38.821 64.9966 39.0398 64.8911C39.2585 64.7856 39.4382 64.6411 39.5789 64.4575C39.7195 64.27 39.7996 64.0571 39.8191 63.8188H40.8503C40.8308 64.1938 40.7039 64.5435 40.4695 64.8677C40.239 65.188 39.9363 65.4478 39.5613 65.647C39.1863 65.8423 38.7742 65.9399 38.325 65.9399C37.8484 65.9399 37.4324 65.856 37.0769 65.688C36.7253 65.52 36.4324 65.2896 36.198 64.9966C35.9675 64.7036 35.7937 64.3677 35.6765 63.9888C35.5632 63.606 35.5066 63.2017 35.5066 62.7759V62.5298C35.5066 62.104 35.5632 61.7017 35.6765 61.3228C35.7937 60.9399 35.9675 60.6021 36.198 60.3091C36.4324 60.0161 36.7253 59.7856 37.0769 59.6177C37.4324 59.4497 37.8484 59.3657 38.325 59.3657C38.821 59.3657 39.2546 59.4673 39.6257 59.6704C39.9968 59.8696 40.2878 60.1431 40.4988 60.4907C40.7136 60.8345 40.8308 61.2251 40.8503 61.6626H39.8191C39.7996 61.4009 39.7253 61.1646 39.5964 60.9536C39.4714 60.7427 39.2996 60.5747 39.0808 60.4497C38.866 60.3208 38.614 60.2563 38.325 60.2563C37.9929 60.2563 37.7136 60.3228 37.4871 60.4556C37.2644 60.5845 37.0867 60.7603 36.9539 60.9829C36.825 61.2017 36.7312 61.4458 36.6726 61.7153C36.6179 61.981 36.5906 62.2524 36.5906 62.5298V62.7759C36.5906 63.0532 36.6179 63.3267 36.6726 63.5962C36.7273 63.8657 36.8191 64.1099 36.948 64.3286C37.0808 64.5474 37.2585 64.7231 37.4812 64.856C37.7078 64.9849 37.989 65.0493 38.325 65.0493Z" fill="#232E5E"/>
<path d="M43.1531 60.479V65.8228H42.0691V59.4829H43.1238L43.1531 60.479ZM45.1335 59.4478L45.1277 60.4556C45.0378 60.436 44.9519 60.4243 44.8699 60.4204C44.7917 60.4126 44.7019 60.4087 44.6003 60.4087C44.3503 60.4087 44.1296 60.4478 43.9382 60.5259C43.7468 60.604 43.5847 60.7134 43.4519 60.854C43.3191 60.9946 43.2136 61.1626 43.1355 61.3579C43.0613 61.5493 43.0125 61.7603 42.989 61.9907L42.6843 62.1665C42.6843 61.7837 42.7214 61.4243 42.7957 61.0884C42.8738 60.7524 42.9929 60.4556 43.1531 60.1978C43.3132 59.936 43.5164 59.7329 43.7625 59.5884C44.0125 59.4399 44.3093 59.3657 44.6531 59.3657C44.7312 59.3657 44.821 59.3755 44.9226 59.395C45.0242 59.4106 45.0945 59.4282 45.1335 59.4478Z" fill="#232E5E"/>
<path d="M45.7312 62.7231V62.5884C45.7312 62.1313 45.7976 61.7075 45.9304 61.3169C46.0632 60.9224 46.2546 60.5806 46.5046 60.2915C46.7546 59.9985 47.0574 59.772 47.4128 59.6118C47.7683 59.4478 48.1667 59.3657 48.6082 59.3657C49.0535 59.3657 49.4539 59.4478 49.8093 59.6118C50.1687 59.772 50.4734 59.9985 50.7234 60.2915C50.9773 60.5806 51.1707 60.9224 51.3035 61.3169C51.4363 61.7075 51.5027 62.1313 51.5027 62.5884V62.7231C51.5027 63.1802 51.4363 63.604 51.3035 63.9946C51.1707 64.3853 50.9773 64.7271 50.7234 65.02C50.4734 65.3091 50.1707 65.5356 49.8152 65.6997C49.4636 65.8599 49.0652 65.9399 48.6199 65.9399C48.1746 65.9399 47.7742 65.8599 47.4187 65.6997C47.0632 65.5356 46.7585 65.3091 46.5046 65.02C46.2546 64.7271 46.0632 64.3853 45.9304 63.9946C45.7976 63.604 45.7312 63.1802 45.7312 62.7231ZM46.8152 62.5884V62.7231C46.8152 63.0396 46.8523 63.3384 46.9265 63.6196C47.0007 63.897 47.1121 64.1431 47.2605 64.3579C47.4128 64.5728 47.6023 64.7427 47.8289 64.8677C48.0554 64.9888 48.3191 65.0493 48.6199 65.0493C48.9167 65.0493 49.1765 64.9888 49.3992 64.8677C49.6257 64.7427 49.8132 64.5728 49.9617 64.3579C50.1101 64.1431 50.2214 63.897 50.2957 63.6196C50.3738 63.3384 50.4128 63.0396 50.4128 62.7231V62.5884C50.4128 62.2759 50.3738 61.981 50.2957 61.7036C50.2214 61.4224 50.1082 61.1743 49.9558 60.9595C49.8074 60.7407 49.6199 60.5688 49.3933 60.4438C49.1707 60.3188 48.9089 60.2563 48.6082 60.2563C48.3113 60.2563 48.0496 60.3188 47.823 60.4438C47.6003 60.5688 47.4128 60.7407 47.2605 60.9595C47.1121 61.1743 47.0007 61.4224 46.9265 61.7036C46.8523 61.981 46.8152 62.2759 46.8152 62.5884Z" fill="#232E5E"/>
<path d="M56.5535 64.1411C56.5535 63.9849 56.5183 63.8403 56.448 63.7075C56.3816 63.5708 56.2429 63.4478 56.032 63.3384C55.825 63.2251 55.5125 63.1274 55.0945 63.0454C54.7429 62.9712 54.4246 62.8833 54.1394 62.7817C53.8582 62.6802 53.6179 62.5571 53.4187 62.4126C53.2234 62.2681 53.073 62.0981 52.9675 61.9028C52.8621 61.7075 52.8093 61.479 52.8093 61.2173C52.8093 60.9673 52.864 60.731 52.9734 60.5083C53.0867 60.2856 53.2449 60.0884 53.448 59.9165C53.655 59.7446 53.9031 59.6099 54.1921 59.5122C54.4812 59.4146 54.8035 59.3657 55.1589 59.3657C55.6667 59.3657 56.1003 59.4556 56.4597 59.6353C56.8191 59.8149 57.0945 60.0552 57.2859 60.356C57.4773 60.6528 57.573 60.9829 57.573 61.3462H56.489C56.489 61.1704 56.4363 61.0005 56.3308 60.8364C56.2292 60.6685 56.0789 60.5298 55.8796 60.4204C55.6843 60.311 55.4441 60.2563 55.1589 60.2563C54.8582 60.2563 54.614 60.3032 54.4265 60.397C54.2429 60.4868 54.1082 60.6021 54.0222 60.7427C53.9402 60.8833 53.8992 61.0317 53.8992 61.188C53.8992 61.3052 53.9187 61.4106 53.9578 61.5044C54.0007 61.5942 54.075 61.6782 54.1804 61.7563C54.2859 61.8306 54.4343 61.9009 54.6257 61.9673C54.8171 62.0337 55.0613 62.1001 55.3582 62.1665C55.8777 62.2837 56.3054 62.4243 56.6414 62.5884C56.9773 62.7524 57.2273 62.9536 57.3914 63.1919C57.5554 63.4302 57.6375 63.7192 57.6375 64.0591C57.6375 64.3364 57.5789 64.5903 57.4617 64.8208C57.3484 65.0513 57.1824 65.2505 56.9636 65.4185C56.7488 65.5825 56.491 65.7114 56.1902 65.8052C55.8933 65.895 55.5593 65.9399 55.1882 65.9399C54.6296 65.9399 54.157 65.8403 53.7703 65.6411C53.3835 65.4419 53.0906 65.1841 52.8914 64.8677C52.6921 64.5513 52.5925 64.2173 52.5925 63.8657H53.6824C53.698 64.1626 53.7839 64.3989 53.9402 64.5747C54.0964 64.7466 54.2878 64.8696 54.5144 64.9438C54.741 65.0142 54.9656 65.0493 55.1882 65.0493C55.4851 65.0493 55.7332 65.0103 55.9324 64.9321C56.1355 64.854 56.2898 64.7466 56.3953 64.6099C56.5007 64.4731 56.5535 64.3169 56.5535 64.1411Z" fill="#232E5E"/>
<path d="M58.7742 62.7231V62.5884C58.7742 62.1313 58.8406 61.7075 58.9734 61.3169C59.1062 60.9224 59.2976 60.5806 59.5476 60.2915C59.7976 59.9985 60.1003 59.772 60.4558 59.6118C60.8113 59.4478 61.2097 59.3657 61.6511 59.3657C62.0964 59.3657 62.4968 59.4478 62.8523 59.6118C63.2117 59.772 63.5164 59.9985 63.7664 60.2915C64.0203 60.5806 64.2136 60.9224 64.3464 61.3169C64.4792 61.7075 64.5457 62.1313 64.5457 62.5884V62.7231C64.5457 63.1802 64.4792 63.604 64.3464 63.9946C64.2136 64.3853 64.0203 64.7271 63.7664 65.02C63.5164 65.3091 63.2136 65.5356 62.8582 65.6997C62.5066 65.8599 62.1082 65.9399 61.6628 65.9399C61.2175 65.9399 60.8171 65.8599 60.4617 65.6997C60.1062 65.5356 59.8015 65.3091 59.5476 65.02C59.2976 64.7271 59.1062 64.3853 58.9734 63.9946C58.8406 63.604 58.7742 63.1802 58.7742 62.7231ZM59.8582 62.5884V62.7231C59.8582 63.0396 59.8953 63.3384 59.9695 63.6196C60.0437 63.897 60.155 64.1431 60.3035 64.3579C60.4558 64.5728 60.6453 64.7427 60.8718 64.8677C61.0984 64.9888 61.3621 65.0493 61.6628 65.0493C61.9597 65.0493 62.2195 64.9888 62.4421 64.8677C62.6687 64.7427 62.8562 64.5728 63.0046 64.3579C63.1531 64.1431 63.2644 63.897 63.3386 63.6196C63.4167 63.3384 63.4558 63.0396 63.4558 62.7231V62.5884C63.4558 62.2759 63.4167 61.981 63.3386 61.7036C63.2644 61.4224 63.1511 61.1743 62.9988 60.9595C62.8503 60.7407 62.6628 60.5688 62.4363 60.4438C62.2136 60.3188 61.9519 60.2563 61.6511 60.2563C61.3542 60.2563 61.0925 60.3188 60.866 60.4438C60.6433 60.5688 60.4558 60.7407 60.3035 60.9595C60.155 61.1743 60.0437 61.4224 59.9695 61.7036C59.8953 61.981 59.8582 62.2759 59.8582 62.5884Z" fill="#232E5E"/>
<path d="M67.5222 65.8228H66.4382V58.8149C66.4382 58.3579 66.5203 57.9731 66.6843 57.6606C66.8523 57.3442 67.0925 57.106 67.405 56.9458C67.7175 56.7817 68.0886 56.6997 68.5183 56.6997C68.6433 56.6997 68.7683 56.7075 68.8933 56.7231C69.0222 56.7388 69.1472 56.7622 69.2683 56.7935L69.2097 57.6782C69.1277 57.6587 69.0339 57.645 68.9285 57.6372C68.8269 57.6294 68.7253 57.6255 68.6238 57.6255C68.3933 57.6255 68.1941 57.6724 68.0261 57.7661C67.8621 57.856 67.7371 57.9888 67.6511 58.1646C67.5652 58.3403 67.5222 58.5571 67.5222 58.8149V65.8228ZM68.8699 59.4829V60.3149H65.4363V59.4829H68.8699Z" fill="#232E5E"/>
<path d="M72.7312 59.4829V60.3149H69.3035V59.4829H72.7312ZM70.4636 57.9419H71.5476V64.2524C71.5476 64.4673 71.5808 64.6294 71.6472 64.7388C71.7136 64.8481 71.7996 64.9204 71.905 64.9556C72.0105 64.9907 72.1238 65.0083 72.2449 65.0083C72.3347 65.0083 72.4285 65.0005 72.5261 64.9849C72.6277 64.9653 72.7039 64.9497 72.7546 64.938L72.7605 65.8228C72.6746 65.8501 72.5613 65.8755 72.4207 65.8989C72.2839 65.9263 72.1179 65.9399 71.9226 65.9399C71.657 65.9399 71.4128 65.8872 71.1902 65.7817C70.9675 65.6763 70.7898 65.5005 70.657 65.2544C70.5281 65.0044 70.4636 64.6685 70.4636 64.2466V57.9419Z" fill="#232E5E"/>
<path d="M14.2253 77.8228H12.4441L12.4558 76.9028H14.2253C14.8347 76.9028 15.3425 76.7759 15.7488 76.522C16.155 76.2642 16.4597 75.9048 16.6628 75.4438C16.8699 74.979 16.9734 74.436 16.9734 73.8149V73.2935C16.9734 72.8052 16.9148 72.3716 16.7976 71.9927C16.6804 71.6099 16.5085 71.2876 16.282 71.0259C16.0554 70.7603 15.7781 70.5591 15.45 70.4224C15.1257 70.2856 14.7527 70.2173 14.3308 70.2173H12.4089V69.2915H14.3308C14.8894 69.2915 15.3992 69.3853 15.8601 69.5728C16.321 69.7563 16.7175 70.0239 17.0496 70.3755C17.3855 70.7231 17.6433 71.145 17.823 71.6411C18.0027 72.1333 18.0925 72.688 18.0925 73.3052V73.8149C18.0925 74.4321 18.0027 74.9888 17.823 75.4849C17.6433 75.9771 17.3835 76.397 17.0437 76.7446C16.7078 77.0923 16.3015 77.3599 15.825 77.5474C15.3523 77.731 14.8191 77.8228 14.2253 77.8228ZM13.0476 69.2915V77.8228H11.9167V69.2915H13.0476Z" fill="#232E5E"/>
<path d="M21.4089 77.1665L23.1726 71.4829H24.3328L21.7898 78.8013C21.7312 78.9575 21.6531 79.1255 21.5554 79.3052C21.4617 79.4888 21.3406 79.6626 21.1921 79.8267C21.0437 79.9907 20.864 80.1235 20.6531 80.2251C20.446 80.3306 20.198 80.3833 19.9089 80.3833C19.823 80.3833 19.7136 80.3716 19.5808 80.3481C19.448 80.3247 19.3542 80.3052 19.2996 80.2896L19.2937 79.4106C19.325 79.4146 19.3738 79.4185 19.4402 79.4224C19.5105 79.4302 19.5593 79.4341 19.5867 79.4341C19.8328 79.4341 20.0417 79.4009 20.2136 79.3345C20.3855 79.272 20.53 79.1646 20.6472 79.0122C20.7683 78.8638 20.8718 78.6587 20.9578 78.397L21.4089 77.1665ZM20.114 71.4829L21.7605 76.4048L22.0417 77.5474L21.2625 77.9458L18.9304 71.4829H20.114Z" fill="#232E5E"/>
<path d="M26.3953 72.8364V77.8228H25.3113V71.4829H26.3367L26.3953 72.8364ZM26.1375 74.4126L25.6863 74.395C25.6902 73.9614 25.7546 73.561 25.8796 73.1938C26.0046 72.8228 26.1804 72.5005 26.407 72.2271C26.6335 71.9536 26.9031 71.7427 27.2156 71.5942C27.532 71.4419 27.8816 71.3657 28.2644 71.3657C28.5769 71.3657 28.8582 71.4087 29.1082 71.4946C29.3582 71.5767 29.571 71.7095 29.7468 71.8931C29.9265 72.0767 30.0632 72.3149 30.157 72.6079C30.2507 72.897 30.2976 73.2505 30.2976 73.6685V77.8228H29.2078V73.6567C29.2078 73.3247 29.1589 73.0591 29.0613 72.8599C28.9636 72.6567 28.821 72.5103 28.6335 72.4204C28.446 72.3267 28.2156 72.2798 27.9421 72.2798C27.6726 72.2798 27.4265 72.3364 27.2039 72.4497C26.9851 72.563 26.7957 72.7192 26.6355 72.9185C26.4792 73.1177 26.3562 73.3462 26.2664 73.604C26.1804 73.8579 26.1375 74.1274 26.1375 74.4126Z" fill="#232E5E"/>
<path d="M35.6824 76.7388V73.4751C35.6824 73.2251 35.6316 73.0083 35.53 72.8247C35.4324 72.6372 35.2839 72.4927 35.0847 72.3911C34.8855 72.2896 34.6394 72.2388 34.3464 72.2388C34.073 72.2388 33.8328 72.2856 33.6257 72.3794C33.4226 72.4731 33.2625 72.5962 33.1453 72.7485C33.032 72.9009 32.9753 73.0649 32.9753 73.2407H31.8914C31.8914 73.0142 31.95 72.7896 32.0671 72.5669C32.1843 72.3442 32.3523 72.1431 32.571 71.9634C32.7937 71.7798 33.0593 71.6353 33.3679 71.5298C33.6804 71.4204 34.0281 71.3657 34.4109 71.3657C34.8718 71.3657 35.2781 71.4438 35.6296 71.6001C35.9851 71.7563 36.2625 71.9927 36.4617 72.3091C36.6648 72.6216 36.7664 73.0142 36.7664 73.4868V76.4399C36.7664 76.6509 36.7839 76.8755 36.8191 77.1138C36.8582 77.3521 36.9148 77.5571 36.989 77.729V77.8228H35.8582C35.8035 77.6978 35.7605 77.5317 35.7292 77.3247C35.698 77.1138 35.6824 76.9185 35.6824 76.7388ZM35.8699 73.979L35.8816 74.7407H34.7859C34.4773 74.7407 34.2019 74.7661 33.9597 74.8169C33.7175 74.8638 33.5144 74.936 33.3503 75.0337C33.1863 75.1313 33.0613 75.2544 32.9753 75.4028C32.8894 75.5474 32.8464 75.7173 32.8464 75.9126C32.8464 76.1118 32.8914 76.2935 32.9812 76.4575C33.071 76.6216 33.2058 76.7524 33.3855 76.8501C33.5691 76.9438 33.7937 76.9907 34.0593 76.9907C34.3914 76.9907 34.6843 76.9204 34.9382 76.7798C35.1921 76.6392 35.3933 76.4673 35.5417 76.2642C35.6941 76.061 35.7761 75.8638 35.7878 75.6724L36.2507 76.1938C36.2234 76.3579 36.1492 76.5396 36.0281 76.7388C35.907 76.938 35.7449 77.1294 35.5417 77.313C35.3425 77.4927 35.1042 77.6431 34.8269 77.7642C34.5535 77.8813 34.2449 77.9399 33.9011 77.9399C33.4714 77.9399 33.0945 77.856 32.7703 77.688C32.45 77.52 32.2 77.2954 32.0203 77.0142C31.8445 76.729 31.7566 76.4106 31.7566 76.0591C31.7566 75.7192 31.823 75.4204 31.9558 75.1626C32.0886 74.9009 32.28 74.6841 32.53 74.5122C32.78 74.3364 33.0808 74.2036 33.4324 74.1138C33.7839 74.0239 34.1765 73.979 34.6101 73.979H35.8699Z" fill="#232E5E"/>
<path d="M39.5496 72.7427V77.8228H38.4597V71.4829H39.491L39.5496 72.7427ZM39.3269 74.4126L38.823 74.395C38.8269 73.9614 38.8835 73.561 38.9929 73.1938C39.1023 72.8228 39.2644 72.5005 39.4792 72.2271C39.6941 71.9536 39.9617 71.7427 40.282 71.5942C40.6023 71.4419 40.9734 71.3657 41.3953 71.3657C41.6921 71.3657 41.9656 71.4087 42.2156 71.4946C42.4656 71.5767 42.6824 71.7075 42.866 71.8872C43.0496 72.0669 43.1921 72.2974 43.2937 72.5786C43.3953 72.8599 43.446 73.1997 43.446 73.5981V77.8228H42.3621V73.6509C42.3621 73.3188 42.3054 73.0532 42.1921 72.854C42.0828 72.6548 41.9265 72.5103 41.7234 72.4204C41.5203 72.3267 41.282 72.2798 41.0085 72.2798C40.6882 72.2798 40.4207 72.3364 40.2058 72.4497C39.991 72.563 39.8191 72.7192 39.6902 72.9185C39.5613 73.1177 39.4675 73.3462 39.4089 73.604C39.3542 73.8579 39.3269 74.1274 39.3269 74.4126ZM43.4343 73.8149L42.7078 74.0376C42.7117 73.6899 42.7683 73.356 42.8777 73.0356C42.991 72.7153 43.1531 72.4302 43.364 72.1802C43.5789 71.9302 43.8425 71.7329 44.155 71.5884C44.4675 71.4399 44.825 71.3657 45.2273 71.3657C45.5671 71.3657 45.8679 71.4106 46.1296 71.5005C46.3953 71.5903 46.6179 71.729 46.7976 71.9165C46.9812 72.1001 47.1199 72.3364 47.2136 72.6255C47.3074 72.9146 47.3542 73.2583 47.3542 73.6567V77.8228H46.2644V73.645C46.2644 73.2896 46.2078 73.0142 46.0945 72.8188C45.9851 72.6196 45.8289 72.481 45.6257 72.4028C45.4265 72.3208 45.1882 72.2798 44.9109 72.2798C44.6726 72.2798 44.4617 72.3208 44.2781 72.4028C44.0945 72.4849 43.9402 72.5981 43.8152 72.7427C43.6902 72.8833 43.5945 73.0454 43.5281 73.229C43.4656 73.4126 43.4343 73.6079 43.4343 73.8149Z" fill="#232E5E"/>
<path d="M50.1726 71.4829V77.8228H49.0828V71.4829H50.1726ZM49.0007 69.8013C49.0007 69.6255 49.0535 69.4771 49.1589 69.356C49.2683 69.2349 49.4285 69.1743 49.6394 69.1743C49.8464 69.1743 50.0046 69.2349 50.114 69.356C50.2273 69.4771 50.2839 69.6255 50.2839 69.8013C50.2839 69.9692 50.2273 70.1138 50.114 70.2349C50.0046 70.3521 49.8464 70.4106 49.6394 70.4106C49.4285 70.4106 49.2683 70.3521 49.1589 70.2349C49.0535 70.1138 49.0007 69.9692 49.0007 69.8013Z" fill="#232E5E"/>
<path d="M54.45 77.0493C54.7078 77.0493 54.946 76.9966 55.1648 76.8911C55.3835 76.7856 55.5632 76.6411 55.7039 76.4575C55.8445 76.27 55.9246 76.0571 55.9441 75.8188H56.9753C56.9558 76.1938 56.8289 76.5435 56.5945 76.8677C56.364 77.188 56.0613 77.4478 55.6863 77.647C55.3113 77.8423 54.8992 77.9399 54.45 77.9399C53.9734 77.9399 53.5574 77.856 53.2019 77.688C52.8503 77.52 52.5574 77.2896 52.323 76.9966C52.0925 76.7036 51.9187 76.3677 51.8015 75.9888C51.6882 75.606 51.6316 75.2017 51.6316 74.7759V74.5298C51.6316 74.104 51.6882 73.7017 51.8015 73.3228C51.9187 72.9399 52.0925 72.6021 52.323 72.3091C52.5574 72.0161 52.8503 71.7856 53.2019 71.6177C53.5574 71.4497 53.9734 71.3657 54.45 71.3657C54.946 71.3657 55.3796 71.4673 55.7507 71.6704C56.1218 71.8696 56.4128 72.1431 56.6238 72.4907C56.8386 72.8345 56.9558 73.2251 56.9753 73.6626H55.9441C55.9246 73.4009 55.8503 73.1646 55.7214 72.9536C55.5964 72.7427 55.4246 72.5747 55.2058 72.4497C54.991 72.3208 54.739 72.2563 54.45 72.2563C54.1179 72.2563 53.8386 72.3228 53.6121 72.4556C53.3894 72.5845 53.2117 72.7603 53.0789 72.9829C52.95 73.2017 52.8562 73.4458 52.7976 73.7153C52.7429 73.981 52.7156 74.2524 52.7156 74.5298V74.7759C52.7156 75.0532 52.7429 75.3267 52.7976 75.5962C52.8523 75.8657 52.9441 76.1099 53.073 76.3286C53.2058 76.5474 53.3835 76.7231 53.6062 76.856C53.8328 76.9849 54.114 77.0493 54.45 77.0493Z" fill="#232E5E"/>
<path d="M61.8855 76.1411C61.8855 75.9849 61.8503 75.8403 61.78 75.7075C61.7136 75.5708 61.575 75.4478 61.364 75.3384C61.157 75.2251 60.8445 75.1274 60.4265 75.0454C60.075 74.9712 59.7566 74.8833 59.4714 74.7817C59.1902 74.6802 58.95 74.5571 58.7507 74.4126C58.5554 74.2681 58.405 74.0981 58.2996 73.9028C58.1941 73.7075 58.1414 73.479 58.1414 73.2173C58.1414 72.9673 58.196 72.731 58.3054 72.5083C58.4187 72.2856 58.5769 72.0884 58.78 71.9165C58.9871 71.7446 59.2351 71.6099 59.5242 71.5122C59.8132 71.4146 60.1355 71.3657 60.491 71.3657C60.9988 71.3657 61.4324 71.4556 61.7917 71.6353C62.1511 71.8149 62.4265 72.0552 62.6179 72.356C62.8093 72.6528 62.905 72.9829 62.905 73.3462H61.821C61.821 73.1704 61.7683 73.0005 61.6628 72.8364C61.5613 72.6685 61.4109 72.5298 61.2117 72.4204C61.0164 72.311 60.7761 72.2563 60.491 72.2563C60.1902 72.2563 59.946 72.3032 59.7585 72.397C59.575 72.4868 59.4402 72.6021 59.3542 72.7427C59.2722 72.8833 59.2312 73.0317 59.2312 73.188C59.2312 73.3052 59.2507 73.4106 59.2898 73.5044C59.3328 73.5942 59.407 73.6782 59.5125 73.7563C59.6179 73.8306 59.7664 73.9009 59.9578 73.9673C60.1492 74.0337 60.3933 74.1001 60.6902 74.1665C61.2097 74.2837 61.6375 74.4243 61.9734 74.5884C62.3093 74.7524 62.5593 74.9536 62.7234 75.1919C62.8875 75.4302 62.9695 75.7192 62.9695 76.0591C62.9695 76.3364 62.9109 76.5903 62.7937 76.8208C62.6804 77.0513 62.5144 77.2505 62.2957 77.4185C62.0808 77.5825 61.823 77.7114 61.5222 77.8052C61.2253 77.895 60.8914 77.9399 60.5203 77.9399C59.9617 77.9399 59.489 77.8403 59.1023 77.6411C58.7156 77.4419 58.4226 77.1841 58.2234 76.8677C58.0242 76.5513 57.9246 76.2173 57.9246 75.8657H59.0144C59.03 76.1626 59.116 76.3989 59.2722 76.5747C59.4285 76.7466 59.6199 76.8696 59.8464 76.9438C60.073 77.0142 60.2976 77.0493 60.5203 77.0493C60.8171 77.0493 61.0652 77.0103 61.2644 76.9321C61.4675 76.854 61.6218 76.7466 61.7273 76.6099C61.8328 76.4731 61.8855 76.3169 61.8855 76.1411Z" fill="#232E5E"/>
<path d="M68.8347 73.0239H69.6082C69.9871 73.0239 70.2996 72.9614 70.5457 72.8364C70.7957 72.7075 70.9812 72.5337 71.1023 72.3149C71.2273 72.0923 71.2898 71.8423 71.2898 71.5649C71.2898 71.2368 71.2351 70.9614 71.1257 70.7388C71.0164 70.5161 70.8523 70.3481 70.6335 70.2349C70.4148 70.1216 70.1375 70.0649 69.8015 70.0649C69.4968 70.0649 69.2273 70.1255 68.9929 70.2466C68.7625 70.3638 68.5808 70.5317 68.448 70.7505C68.3191 70.9692 68.2546 71.2271 68.2546 71.5239H67.1707C67.1707 71.0903 67.28 70.6958 67.4988 70.3403C67.7175 69.9849 68.0242 69.7017 68.4187 69.4907C68.8171 69.2798 69.2781 69.1743 69.8015 69.1743C70.3171 69.1743 70.7683 69.2661 71.155 69.4497C71.5417 69.6294 71.8425 69.8989 72.0574 70.2583C72.2722 70.6138 72.3796 71.0571 72.3796 71.5884C72.3796 71.8032 72.3289 72.0337 72.2273 72.2798C72.1296 72.522 71.9753 72.7485 71.7644 72.9595C71.5574 73.1704 71.2878 73.3442 70.9558 73.481C70.6238 73.6138 70.2253 73.6802 69.7605 73.6802H68.8347V73.0239ZM68.8347 73.9146V73.2642H69.7605C70.3035 73.2642 70.7527 73.3286 71.1082 73.4575C71.4636 73.5864 71.7429 73.7583 71.946 73.9731C72.1531 74.188 72.2976 74.4243 72.3796 74.6821C72.4656 74.936 72.5085 75.1899 72.5085 75.4438C72.5085 75.8423 72.4402 76.1958 72.3035 76.5044C72.1707 76.813 71.9812 77.0747 71.7351 77.2896C71.4929 77.5044 71.2078 77.6665 70.8796 77.7759C70.5515 77.8853 70.1941 77.9399 69.8074 77.9399C69.4363 77.9399 69.0867 77.8872 68.7585 77.7817C68.4343 77.6763 68.1472 77.5239 67.8972 77.3247C67.6472 77.1216 67.4519 76.8735 67.3113 76.5806C67.1707 76.2837 67.1003 75.9458 67.1003 75.5669H68.1843C68.1843 75.8638 68.2488 76.1235 68.3777 76.3462C68.5105 76.5688 68.698 76.7427 68.9402 76.8677C69.1863 76.9888 69.4753 77.0493 69.8074 77.0493C70.1394 77.0493 70.4246 76.9927 70.6628 76.8794C70.905 76.7622 71.0906 76.5864 71.2195 76.3521C71.3523 76.1177 71.4187 75.8228 71.4187 75.4673C71.4187 75.1118 71.3445 74.8208 71.196 74.5942C71.0476 74.3638 70.8367 74.1938 70.5632 74.0845C70.2937 73.9712 69.9753 73.9146 69.6082 73.9146H68.8347Z" fill="#232E5E"/>
<path d="M78.1628 69.2798H78.2566V70.1997H78.1628C77.5886 70.1997 77.1082 70.2935 76.7214 70.481C76.3347 70.6646 76.0281 70.9126 75.8015 71.2251C75.575 71.5337 75.4109 71.8813 75.3093 72.2681C75.2117 72.6548 75.1628 73.0474 75.1628 73.4458V74.6997C75.1628 75.0786 75.2078 75.4146 75.2976 75.7075C75.3875 75.9966 75.5105 76.2407 75.6667 76.4399C75.823 76.6392 75.9988 76.7896 76.1941 76.8911C76.3933 76.9927 76.6003 77.0435 76.8152 77.0435C77.0652 77.0435 77.2878 76.9966 77.4832 76.9028C77.6785 76.8052 77.8425 76.6704 77.9753 76.4985C78.1121 76.3228 78.2156 76.1157 78.2859 75.8774C78.3562 75.6392 78.3914 75.3774 78.3914 75.0923C78.3914 74.8384 78.3601 74.5942 78.2976 74.3599C78.2351 74.1216 78.1394 73.9106 78.0105 73.7271C77.8816 73.5396 77.7195 73.3931 77.5242 73.2876C77.3328 73.1782 77.1042 73.1235 76.8386 73.1235C76.5378 73.1235 76.2566 73.1978 75.9949 73.3462C75.7371 73.4907 75.5242 73.6821 75.3562 73.9204C75.1921 74.1548 75.0984 74.4106 75.075 74.688L74.5007 74.6821C74.5554 74.2446 74.657 73.8716 74.8054 73.563C74.9578 73.2505 75.1453 72.9966 75.3679 72.8013C75.5945 72.6021 75.8464 72.4575 76.1238 72.3677C76.405 72.2739 76.7019 72.2271 77.0144 72.2271C77.4402 72.2271 77.8074 72.3071 78.116 72.4673C78.4246 72.6274 78.6785 72.8423 78.8777 73.1118C79.0769 73.3774 79.2234 73.6782 79.3171 74.0142C79.4148 74.3462 79.4636 74.688 79.4636 75.0396C79.4636 75.4419 79.407 75.8188 79.2937 76.1704C79.1804 76.522 79.0105 76.8306 78.7839 77.0962C78.5613 77.3618 78.2859 77.5688 77.9578 77.7173C77.6296 77.8657 77.2488 77.9399 76.8152 77.9399C76.3542 77.9399 75.9519 77.8462 75.6082 77.6587C75.2644 77.4673 74.9792 77.2134 74.7527 76.897C74.5261 76.5806 74.3562 76.229 74.2429 75.8423C74.1296 75.4556 74.073 75.063 74.073 74.6646V74.1548C74.073 73.5532 74.1335 72.9634 74.2546 72.3853C74.3757 71.8071 74.5847 71.2837 74.8816 70.8149C75.1824 70.3462 75.5984 69.9731 76.1296 69.6958C76.6609 69.4185 77.3386 69.2798 78.1628 69.2798Z" fill="#232E5E"/>
<path d="M82.1238 73.7622L81.2566 73.5396L81.6843 69.2915H86.0613V70.2935H82.6042L82.3464 72.6138C82.5027 72.5239 82.7 72.4399 82.9382 72.3618C83.1804 72.2837 83.4578 72.2446 83.7703 72.2446C84.1648 72.2446 84.5183 72.313 84.8308 72.4497C85.1433 72.5825 85.4089 72.7739 85.6277 73.0239C85.8503 73.2739 86.0203 73.5747 86.1375 73.9263C86.2546 74.2778 86.3132 74.6704 86.3132 75.104C86.3132 75.5142 86.2566 75.8911 86.1433 76.2349C86.0339 76.5786 85.8679 76.8794 85.6453 77.1372C85.4226 77.3911 85.1414 77.5884 84.8015 77.729C84.4656 77.8696 84.0691 77.9399 83.6121 77.9399C83.2683 77.9399 82.9421 77.8931 82.6335 77.7993C82.3289 77.7017 82.0554 77.5552 81.8132 77.3599C81.575 77.1606 81.3796 76.9146 81.2273 76.6216C81.0789 76.3247 80.9851 75.9771 80.946 75.5786H81.9773C82.0242 75.8989 82.1179 76.1685 82.2585 76.3872C82.3992 76.606 82.5828 76.772 82.8093 76.8853C83.0398 76.9946 83.3074 77.0493 83.6121 77.0493C83.8699 77.0493 84.0984 77.0044 84.2976 76.9146C84.4968 76.8247 84.6648 76.6958 84.8015 76.5278C84.9382 76.3599 85.0417 76.1567 85.1121 75.9185C85.1863 75.6802 85.2234 75.4126 85.2234 75.1157C85.2234 74.8462 85.1863 74.5962 85.1121 74.3657C85.0378 74.1353 84.9265 73.9341 84.7781 73.7622C84.6335 73.5903 84.4558 73.4575 84.2449 73.3638C84.0339 73.2661 83.7917 73.2173 83.5183 73.2173C83.155 73.2173 82.8796 73.2661 82.6921 73.3638C82.5085 73.4614 82.3191 73.5942 82.1238 73.7622Z" fill="#232E5E"/>
<g clip-path="url(#clip0_720_2790)">
<path d="M40.552 13.8228C40.4493 13.824 40.3473 13.852 40.2555 13.906C40.0731 14.014 39.9602 14.2104 39.9602 14.4228V21.8349C39.9602 22.0653 40.0918 22.2767 40.3 22.3763L51.1 27.563C51.1822 27.6026 51.272 27.6228 51.3602 27.6228C51.4766 27.6228 51.5928 27.5886 51.693 27.522L57.093 23.922C57.267 23.8062 57.368 23.6076 57.359 23.3982C57.3506 23.1894 57.2338 23.0004 57.0508 22.899L40.8508 13.899C40.7578 13.8474 40.6548 13.8216 40.552 13.8228ZM40.5754 24.0228C40.4702 24.0201 40.365 24.0459 40.2696 24.099C40.0788 24.2046 39.9602 24.4044 39.9602 24.6228V43.2216C39.9602 43.6776 40.4483 43.968 40.8485 43.749L57.6579 34.1431C57.8451 34.0363 57.9602 33.8382 57.9602 33.6228V25.8228C57.9602 25.578 57.812 25.358 57.5852 25.2662C57.3572 25.175 57.0976 25.2298 56.9278 25.4056L41.1602 42.0228L45.9333 27.7997C46.0131 27.5399 45.9082 27.2582 45.6778 27.1142L40.8778 24.1142C40.7851 24.0563 40.6807 24.0255 40.5754 24.0228Z" fill="#1E2344"/>
</g>
<defs>
<clipPath id="clip0_720_2790">
<rect width="30" height="30" fill="white" transform="translate(33.3601 13.8228)"/>
</clipPath>
</defs>
</svg>
