<svg width="98" height="93" viewBox="0 0 98 93" fill="none" xmlns="http://www.w3.org/2000/svg">
<g clip-path="url(#clip0_720_2837)">
<path d="M24.9992 36.4767C24.9983 36.423 24.9972 36.3694 24.9972 36.3156C24.9972 31.187 29.0454 27.0294 34.039 27.0294C38.3424 27.0294 41.9432 30.1171 42.8566 34.253C43.7084 33.7633 44.6895 33.4829 45.735 33.4829C48.9973 33.4829 51.6419 36.199 51.6419 39.5495C51.6419 39.6864 51.636 39.8219 51.6272 39.9566C54.0491 40.88 55.7751 43.2742 55.7751 46.0828C55.7751 49.691 52.9271 52.6161 49.4138 52.6161H26.7268C22.3353 52.616 18.7751 48.9596 18.7751 44.4494C18.7751 40.5484 21.4384 37.2869 24.9992 36.4767Z" fill="#0D78BB"/>
<path d="M27.698 45.6743L29.1091 40.7134H29.7927L29.3972 42.6421L27.8787 47.8228H27.2L27.698 45.6743ZM26.238 40.7134L27.3611 45.5767L27.698 47.8228H27.0242L25.3005 40.7134H26.238ZM31.6189 45.5718L32.7175 40.7134H33.6599L31.9412 47.8228H31.2673L31.6189 45.5718ZM29.8953 40.7134L31.2673 45.6743L31.7654 47.8228H31.0867L29.6218 42.6421L29.2214 40.7134H29.8953Z" fill="white"/>
<path d="M35.0027 40.7134H35.9158L38.2449 46.5093L40.5691 40.7134H41.4871L38.5964 47.8228H37.8835L35.0027 40.7134ZM34.7048 40.7134H35.5105L35.6423 45.0493V47.8228H34.7048V40.7134ZM40.9744 40.7134H41.78V47.8228H40.8425V45.0493L40.9744 40.7134Z" fill="white"/>
<path d="M47.2244 46.0259C47.2244 45.8599 47.1983 45.7134 47.1462 45.5864C47.0974 45.4562 47.0095 45.339 46.8826 45.2349C46.7589 45.1307 46.5863 45.0314 46.365 44.937C46.1469 44.8426 45.8702 44.7466 45.5349 44.6489C45.1833 44.5448 44.866 44.4292 44.5828 44.3022C44.2996 44.172 44.057 44.0239 43.8552 43.8579C43.6534 43.6919 43.4988 43.5015 43.3914 43.2866C43.2839 43.0718 43.2302 42.826 43.2302 42.5493C43.2302 42.2726 43.2872 42.0171 43.4011 41.7827C43.5151 41.5483 43.6778 41.3449 43.8894 41.1724C44.1042 40.9966 44.3598 40.8599 44.656 40.7622C44.9522 40.6646 45.2826 40.6157 45.6472 40.6157C46.1811 40.6157 46.6335 40.7183 47.0046 40.9233C47.379 41.1252 47.6638 41.3905 47.8591 41.7192C48.0544 42.0448 48.1521 42.3931 48.1521 42.7642H47.2146C47.2146 42.4972 47.1576 42.2612 47.0437 42.0562C46.9298 41.8478 46.7572 41.6851 46.5261 41.5679C46.295 41.4474 46.002 41.3872 45.6472 41.3872C45.3119 41.3872 45.0352 41.4377 44.8171 41.5386C44.599 41.6395 44.4363 41.7762 44.3289 41.9487C44.2247 42.1213 44.1726 42.3182 44.1726 42.5396C44.1726 42.6893 44.2035 42.826 44.2654 42.9497C44.3305 43.0701 44.4298 43.1825 44.5632 43.2866C44.7 43.3908 44.8725 43.4868 45.0808 43.5747C45.2924 43.6626 45.5447 43.7472 45.8376 43.8286C46.2413 43.9425 46.5896 44.0695 46.8826 44.2095C47.1755 44.3494 47.4164 44.5073 47.6052 44.6831C47.7973 44.8556 47.9389 45.0526 48.03 45.2739C48.1244 45.492 48.1716 45.7394 48.1716 46.0161C48.1716 46.3058 48.113 46.5679 47.9958 46.8022C47.8787 47.0366 47.711 47.2368 47.4929 47.4028C47.2748 47.5688 47.0128 47.6974 46.7068 47.7886C46.4041 47.8765 46.0655 47.9204 45.6912 47.9204C45.3624 47.9204 45.0385 47.8748 44.7195 47.7837C44.4037 47.6925 44.1156 47.5558 43.8552 47.3735C43.5981 47.1912 43.3914 46.9666 43.2351 46.6997C43.0821 46.4295 43.0056 46.117 43.0056 45.7622H43.9431C43.9431 46.0063 43.9903 46.2163 44.0847 46.3921C44.1791 46.5646 44.3077 46.7078 44.4705 46.8218C44.6365 46.9357 44.8236 47.0203 45.032 47.0757C45.2436 47.1278 45.4633 47.1538 45.6912 47.1538C46.0199 47.1538 46.2983 47.1082 46.5261 47.0171C46.754 46.9259 46.9265 46.7957 47.0437 46.6265C47.1641 46.4572 47.2244 46.257 47.2244 46.0259Z" fill="white"/>
</g>
<g clip-path="url(#clip1_720_2837)">
<path d="M46.9992 51.6528C46.9983 51.6019 46.9972 51.5512 46.9972 51.5002C46.9972 46.6415 51.0454 42.7028 56.039 42.7028C60.3424 42.7028 63.9432 45.6279 64.8566 49.5462C65.7084 49.0822 66.6895 48.8166 67.735 48.8166C70.9973 48.8166 73.6419 51.3898 73.6419 54.5639C73.6419 54.6936 73.636 54.822 73.6272 54.9496C76.0491 55.8243 77.7751 58.0925 77.7751 60.7533C77.7751 64.1716 74.9271 66.9427 71.4138 66.9427H48.7268C44.3353 66.9426 40.7751 63.4788 40.7751 59.2059C40.7751 55.5103 43.4384 52.4204 46.9992 51.6528Z" fill="#4FBDE5"/>
<path d="M55.5398 61.0562V61.8228H51.7751V61.0562H55.5398ZM51.9656 54.7134V61.8228H51.0232V54.7134H51.9656ZM55.0417 57.77V58.5366H51.7751V57.77H55.0417ZM55.491 54.7134V55.4849H51.7751V54.7134H55.491Z" fill="white"/>
<path d="M56.7068 54.7134H59.0603C59.5942 54.7134 60.045 54.7948 60.4128 54.9575C60.7839 55.1203 61.0655 55.3612 61.2576 55.6802C61.4529 55.9959 61.5505 56.3849 61.5505 56.8472C61.5505 57.1727 61.4838 57.4705 61.3503 57.7407C61.2201 58.0076 61.0313 58.2355 60.7839 58.4243C60.5398 58.6099 60.2468 58.7482 59.905 58.8394L59.6414 58.9419H57.4294L57.4197 58.1753H59.0896C59.4281 58.1753 59.7097 58.1167 59.9343 57.9995C60.1589 57.8791 60.3282 57.7179 60.4421 57.5161C60.5561 57.3143 60.613 57.0913 60.613 56.8472C60.613 56.5737 60.5593 56.3345 60.4519 56.1294C60.3445 55.9243 60.1752 55.7664 59.9441 55.6558C59.7162 55.5418 59.4216 55.4849 59.0603 55.4849H57.6492V61.8228H56.7068V54.7134ZM60.8621 61.8228L59.1335 58.6001L60.115 58.5952L61.8679 61.7642V61.8228H60.8621Z" fill="white"/>
<path d="M65.491 59.0347H63.5916V58.2681H65.491C65.8588 58.2681 66.1567 58.2095 66.3845 58.0923C66.6124 57.9751 66.7784 57.8123 66.8826 57.604C66.99 57.3957 67.0437 57.158 67.0437 56.8911C67.0437 56.647 66.99 56.4175 66.8826 56.2026C66.7784 55.9878 66.6124 55.8153 66.3845 55.6851C66.1567 55.5516 65.8588 55.4849 65.491 55.4849H63.8113V61.8228H62.8689V54.7134H65.491C66.0281 54.7134 66.4822 54.8062 66.8533 54.9917C67.2244 55.1772 67.5059 55.4344 67.698 55.7632C67.8901 56.0887 67.9861 56.4614 67.9861 56.8813C67.9861 57.3371 67.8901 57.7261 67.698 58.0483C67.5059 58.3706 67.2244 58.6164 66.8533 58.7856C66.4822 58.9517 66.0281 59.0347 65.491 59.0347Z" fill="white"/>
</g>
<path d="M51.8741 32.5242C51.7092 32.7456 51.755 33.0589 51.9765 33.2238L55.5857 35.9115C55.8072 36.0765 56.1204 36.0306 56.2854 35.8091C56.4503 35.5877 56.4044 35.2744 56.183 35.1095L52.9748 32.7204L55.3639 29.5122C55.5288 29.2908 55.483 28.9775 55.2615 28.8126C55.04 28.6477 54.7268 28.6935 54.5618 28.915L51.8741 32.5242ZM77.2394 51.5085C77.7963 50.1162 77.7717 48.0243 77.1559 45.7692C76.5352 43.4961 75.2972 40.9907 73.3396 38.7443C69.4077 34.2323 62.6092 30.8052 52.2027 32.3281L52.3475 33.3175C62.4411 31.8404 68.8926 35.1633 72.5857 39.4013C74.4406 41.5299 75.6088 43.8995 76.1912 46.0326C76.7786 48.1838 76.754 50.0294 76.3109 51.1371L77.2394 51.5085Z" fill="#4FBDE5"/>
<path d="M42.6794 68.617C42.8419 68.3938 42.7926 68.081 42.5694 67.9186L38.9309 65.2706C38.7076 65.1081 38.3949 65.1574 38.2324 65.3807C38.0699 65.6039 38.1192 65.9167 38.3425 66.0791L41.5767 68.4329L39.2229 71.6671C39.0604 71.8903 39.1097 72.2031 39.333 72.3656C39.5562 72.528 39.869 72.4788 40.0315 72.2555L42.6794 68.617ZM18.3088 52.6422C17.7741 54.0226 17.7333 55.9336 18.265 57.9444C18.7993 59.9654 19.9209 62.1253 21.763 64.0142C25.4625 67.8077 32.0011 70.4478 42.353 68.8167L42.1973 67.8289C32.0833 69.4225 25.8994 66.8234 22.479 63.3161C20.7612 61.5546 19.7235 59.5487 19.2317 57.6888C18.7373 55.8188 18.8035 54.1337 19.2413 53.0033L18.3088 52.6422Z" fill="#0D78BB"/>
<defs>
<clipPath id="clip0_720_2837">
<rect width="37" height="38" fill="white" transform="translate(18.7751 20.8228)"/>
</clipPath>
<clipPath id="clip1_720_2837">
<rect width="37" height="36" fill="white" transform="translate(40.7751 36.8228)"/>
</clipPath>
</defs>
</svg>
