<svg width="98" height="93" viewBox="0 0 98 93" fill="none" xmlns="http://www.w3.org/2000/svg">
<path fill-rule="evenodd" clip-rule="evenodd" d="M39.5457 48.7835C42.926 48.7835 45.4817 44.3824 47.7729 39.5775C48.8756 37.248 49.9039 34.8072 50.9322 32.738C52.0614 30.4428 53.2197 28.8228 54.6369 28.8228C55.8382 28.8228 56.9687 29.7929 58.0939 31.313C60.4266 34.4691 62.4429 39.8138 62.4429 43.3193C62.4429 46.2557 60.9314 48.7835 57.8336 48.7835H39.5457Z" fill="#64CDFF"/>
<path fill-rule="evenodd" clip-rule="evenodd" d="M47.7728 39.5775C45.4508 34.8964 44.3995 31.4618 42.3458 31.4618C41.0696 31.4618 39.6323 32.8 38.3313 34.993C36.9375 37.3201 35.8408 40.6038 35.8408 44.1372C35.8408 46.9274 37.2064 48.7835 39.5456 48.7835C42.925 48.7835 45.4816 44.3824 47.7728 39.5775Z" fill="#2855AF"/>
<path fill-rule="evenodd" clip-rule="evenodd" d="M82.7858 61.4363V58.3892H81.3201V58.5024C81.2943 59.739 81.0801 60.6281 80.8144 61.4363H82.7858ZM85.3916 61.4363H86.3601L86.3002 64.8228H83.9001V63.4084H79.9744L79.9315 64.8228H77.5144V61.4363H78.3544C78.7745 60.2967 78.98 59.1894 78.98 56.7808V56.4414H85.3916V61.4363ZM36.7315 56.013C34.9744 56.013 34.1429 55.3099 33.9371 54.0894L35.9171 53.8228C36.0115 54.2834 36.2514 54.5744 36.7315 54.5744C37.2116 54.5744 37.4515 54.2834 37.5458 53.8228L39.5258 54.0894C39.3202 55.3099 38.48 56.013 36.7315 56.013ZM27.8257 61.4848C28.7686 61.4848 29.3686 60.7889 29.3686 59.9329C29.3686 59.0931 28.7086 58.3811 27.8 58.3811C26.8572 58.3811 26.2573 59.0771 26.2573 59.9329C26.2573 60.7729 26.9086 61.4848 27.8257 61.4848ZM27.8257 56.2879C30.1828 56.2879 31.8886 57.9286 31.8886 59.9329C31.8886 61.9132 30.1742 63.578 27.8 63.578C25.4343 63.578 23.7285 61.9375 23.7285 59.9329C23.7285 57.9529 25.4515 56.2879 27.8257 56.2879ZM72.5172 61.5171C73.3487 61.5171 74.0171 60.8624 74.0171 59.9169C74.0171 58.9955 73.3487 58.3327 72.5172 58.3327C71.6687 58.3327 71.0001 58.9792 71.0001 59.941C71.0001 60.8624 71.6687 61.5171 72.5172 61.5171ZM73.9659 56.4414H76.5544V63.4083H73.9659V62.479C73.4601 63.0608 72.8344 63.562 71.7287 63.562C69.9629 63.562 68.4459 62.1879 68.4459 59.933C68.4459 57.67 69.9629 56.2878 71.7116 56.2878C72.8344 56.2878 73.4858 56.7648 73.9659 57.29V56.4414ZM35.4886 59.9492L37.9572 56.4414H40.3487V63.4083H37.8371V61.1372C37.8371 60.7008 37.8371 60.2967 37.8457 59.9006L35.3772 63.4083H32.9858V56.4414H35.4973V58.6803C35.4973 59.0278 35.4973 59.5289 35.4886 59.9492ZM61.0144 57.7831L61.0315 56.4414H67.3916V63.4084H64.7944V58.3892H63.303V58.6076C63.2258 62.8184 62.2316 63.4973 60.663 63.4973C60.4144 63.4973 59.9257 63.4568 59.6 63.4084H56.523L54.4831 60.434V63.4084H51.8944V56.4414H54.4831V59.1247L56.463 56.4414H59.4543L56.8144 59.6097L59.5229 63.3275L59.6429 61.1857C59.9257 61.2181 59.9944 61.2181 60.0629 61.2181C60.5258 61.2181 61.0057 60.9029 61.0144 57.7831ZM47.103 61.2262C48.0116 61.2262 48.6373 60.8544 49.16 60.1432L51.1573 61.5171C50.2058 62.7294 49.0057 63.5781 46.9143 63.5781C44.1371 63.5781 42.0116 61.6303 42.0116 58.8823C42.0116 56.3202 44.1202 54.2108 47.043 54.2108C48.8515 54.2108 50.1714 54.9542 51.1058 56.2151L49.1429 57.5648C48.6201 56.8779 47.9944 56.5545 47.1628 56.5545C45.7659 56.5545 44.7973 57.5891 44.7973 58.8823C44.7973 60.3048 45.8087 61.2262 47.103 61.2262ZM19.6657 54.3643H21.3714L23.2057 63.4084H20.6086L19.7686 58.9954L17.4286 63.7074H17.1286L14.78 59.0359L13.9401 63.4084H11.3601L13.1944 54.3643H14.8913C14.8913 54.3643 16.3657 57.3546 16.6573 57.9285C16.9487 58.5024 17.2828 59.2378 17.2828 59.2378C17.2828 59.2378 17.7114 58.2923 17.9257 57.8882C18.1401 57.4841 19.6657 54.3643 19.6657 54.3643Z" fill="#2855AF"/>
</svg>
