<svg width="98" height="93" viewBox="0 0 98 93" fill="none" xmlns="http://www.w3.org/2000/svg">
<g clip-path="url(#clip0_720_2836)">
<path d="M68.8601 36.6978H50.8601V46.8228H68.8601V36.6978Z" fill="#21A366"/>
<path d="M68.8601 46.8228H32.8601V64.8228C32.8601 66.0659 33.867 67.0728 35.1101 67.0728H66.6101C67.8532 67.0728 68.8601 66.0659 68.8601 64.8228V46.8228Z" fill="#185C37"/>
<path d="M68.8601 46.8228H50.8601V56.9478H68.8601V46.8228Z" fill="#107C42"/>
<path d="M50.8601 36.6978H32.8601V46.8228H50.8601V36.6978Z" fill="#3FA071"/>
<path d="M66.6101 26.5728H50.8601V36.6978H68.8601V28.8228C68.8601 27.5796 67.8532 26.5728 66.6101 26.5728Z" fill="#33C481"/>
<path d="M35.1101 26.5728H50.8601V36.6978H32.8601V28.8228C32.8601 27.5796 33.867 26.5728 35.1101 26.5728Z" fill="#21A366"/>
<path opacity="0.05" d="M44.469 34.4478H32.8601V61.4478H44.469C46.7561 61.4478 48.6101 59.5938 48.6101 57.3066V38.5889C48.6101 36.3018 46.7561 34.4478 44.469 34.4478Z" fill="black"/>
<path opacity="0.07" d="M44.3497 60.3228H32.8601V34.8224H44.3497C46.2892 34.8224 47.8609 36.394 47.8609 38.3335V56.8116C47.8597 58.7511 46.2881 60.3228 44.3497 60.3228Z" fill="black"/>
<path opacity="0.09" d="M44.2294 59.1977H32.8601V35.1981H44.2294C45.8201 35.1981 47.1094 36.4874 47.1094 38.0781V56.3177C47.1105 57.9085 45.8201 59.1977 44.2294 59.1977Z" fill="black"/>
<path d="M44.1101 58.0728H26.1101C24.867 58.0728 23.8601 57.0659 23.8601 55.8228V37.8228C23.8601 36.5796 24.867 35.5728 26.1101 35.5728H44.1101C45.3532 35.5728 46.3601 36.5796 46.3601 37.8228V55.8228C46.3601 57.0659 45.3532 58.0728 44.1101 58.0728Z" fill="url(#paint0_linear_720_2836)"/>
<path d="M30.393 41.1978H33.0773L35.2553 45.421L37.557 41.1978H40.0647L36.6098 46.8228L40.1434 52.4478H37.4985L35.1248 48.0265L32.7612 52.4478H30.0769L33.669 46.8025L30.393 41.1978Z" fill="white"/>
</g>
<defs>
<linearGradient id="paint0_linear_720_2836" x1="24.6757" y1="36.3884" x2="45.297" y2="57.0096" gradientUnits="userSpaceOnUse">
<stop stop-color="#18884F"/>
<stop offset="1" stop-color="#0B6731"/>
</linearGradient>
<clipPath id="clip0_720_2836">
<rect width="50" height="54" fill="white" transform="translate(23.3601 19.8228)"/>
</clipPath>
</defs>
</svg>
