<svg width="98" height="93" viewBox="0 0 98 93" fill="none" xmlns="http://www.w3.org/2000/svg">
<g clip-path="url(#clip0_720_2794)">
<path d="M15.3601 29.5728V63.0728H50.2559L82.3601 29.5728H15.3601Z" fill="#1976D2"/>
<path d="M53.7455 37.9478H47.4643V47.7186V50.5103V51.2082L42.1601 37.9478H37.2747L32.9644 48.9511C32.399 46.5056 29.8112 45.5774 28.2018 45.2061C24.0143 44.0894 23.7351 43.5311 23.7351 42.6936C23.7351 40.5998 29.3184 41.5769 30.7143 42.1353C31.133 41.0186 31.9705 38.9248 31.9705 38.9248C31.9705 38.9248 30.4351 37.9478 25.6893 37.9478C20.9434 37.9478 19.5476 40.879 19.5476 42.6936C19.5476 44.5082 20.5247 46.6019 23.1768 47.4394C25.9684 48.2769 28.0622 48.4165 28.0622 49.8123C28.0622 51.2082 23.3164 51.4873 20.6643 49.8123L19.5476 53.4415C19.5476 53.4415 21.083 54.6978 25.6893 54.6978C28.1753 54.6978 30.1099 53.9957 31.3843 52.9865L30.7143 54.6978H35.5997L36.4372 52.1853C37.4143 52.604 38.5309 52.8832 39.7872 52.8832C41.0434 52.8832 42.1601 52.604 43.1372 52.1853L43.9747 54.6978H47.4643H48.8601H51.6518V50.5103H53.7455C57.2351 50.5103 60.0268 47.7186 60.0268 44.229C60.0268 40.7394 57.2351 37.9478 53.7455 37.9478ZM39.7872 49.254C38.9497 49.254 38.2518 49.1144 37.6934 48.6957L39.7872 42.6936L41.8809 48.6957C41.3226 49.1144 40.6247 49.254 39.7872 49.254ZM53.7455 46.3228H51.6518V42.1353H53.7455C54.8622 42.1353 55.8393 43.1123 55.8393 44.229C55.8393 45.3457 54.8622 46.3228 53.7455 46.3228Z" fill="white"/>
</g>
<defs>
<clipPath id="clip0_720_2794">
<rect width="67" height="67" fill="white" transform="translate(15.3601 12.8228)"/>
</clipPath>
</defs>
</svg>
