<svg width="98" height="93" viewBox="0 0 98 93" fill="none" xmlns="http://www.w3.org/2000/svg">
<g clip-path="url(#clip0_720_2810)">
<mask id="mask0_720_2810" style="mask-type:luminance" maskUnits="userSpaceOnUse" x="15" y="35" width="67" height="23">
<path d="M15.3601 35.8228H81.3601V57.8228H15.3601V35.8228Z" fill="white"/>
</mask>
<g mask="url(#mask0_720_2810)">
<path d="M24.4187 46.42L29.4459 53.545H26.6314L22.303 47.4679H20.2261V53.545H17.7611V42.2861H15.8977L17.14 40.019H20.2261V45.3723H22.303L26.4179 40.019H29.213L24.4187 46.42ZM28.689 48.668C28.689 47.6139 28.9348 46.6931 29.4265 45.9057C29.9053 45.169 30.5588 44.6039 31.3869 44.2102C32.2151 43.8165 33.108 43.6196 34.0655 43.6196C35.049 43.6196 35.9354 43.8101 36.7247 44.1911C37.5529 44.5848 38.2063 45.169 38.6851 45.9438C39.1639 46.7058 39.4033 47.6139 39.4033 48.668C39.4033 49.7349 39.1639 50.6557 38.6851 51.4304C38.2063 52.1924 37.5529 52.783 36.7247 53.2021C35.9095 53.6085 35.0231 53.8117 34.0655 53.8117C33.1209 53.8117 32.2345 53.6085 31.4064 53.2021C30.5652 52.7956 29.8988 52.2051 29.4071 51.4304C28.9283 50.6429 28.689 49.7222 28.689 48.668ZM70.5564 43.9244H72.7498V45.2389C73.0862 44.7309 73.5327 44.3435 74.0891 44.0768C74.6585 43.7974 75.3896 43.6577 76.2824 43.6577C77.2012 43.6577 78.0166 43.8609 78.7282 44.2673C79.4138 44.6864 79.9443 45.2834 80.3197 46.0581C80.7082 46.8201 80.9019 47.6965 80.9019 48.6871C80.9019 49.6904 80.7082 50.5794 80.3197 51.3542C79.9443 52.1162 79.4138 52.7068 78.7282 53.1259C78.4045 53.3418 78.0228 53.5006 77.5829 53.6021C77.1559 53.7165 76.7224 53.7736 76.2824 53.7736C75.519 53.7736 74.9496 53.7165 74.5743 53.6021C73.798 53.3735 73.248 52.9925 72.9245 52.4591V56.955H70.5564V43.9244ZM40.665 43.9244H43.0136V47.5821H47.0315V43.9244H49.3607V53.545H47.0315V49.4872H43.0136V53.545H40.665V43.9244ZM50.3894 43.9244H59.4151V45.7533H56.0765V53.545H53.6891V45.7533H50.3894V43.9244ZM62.6565 43.9244C63.5365 46.2867 64.3388 48.6236 65.0634 50.9351C65.7492 48.6489 66.5256 46.3121 67.3926 43.9244H69.7606L66.1504 53.7355C65.8528 54.5356 65.5681 55.1516 65.2964 55.5834C64.9987 56.0152 64.6299 56.339 64.19 56.555C63.7629 56.7836 63.1936 56.8979 62.4819 56.8979C62.0807 56.8979 61.8607 56.8915 61.822 56.8788L61.0261 55.05C61.272 55.1008 61.5761 55.1262 61.9384 55.1262C62.3784 55.1262 62.7342 55.0627 63.006 54.9357C63.2518 54.8341 63.4395 54.6944 63.5688 54.5166C63.6982 54.3515 63.8082 54.1419 63.8988 53.8879L60.1721 43.9244H62.6565ZM31.0764 48.6489C31.0764 49.7031 31.3352 50.5096 31.8528 51.0684C32.3704 51.6145 33.0885 51.8876 34.0073 51.8876C34.939 51.8876 35.6636 51.6145 36.1812 51.0684C36.7118 50.5096 36.9771 49.7031 36.9771 48.6489C36.9771 47.6203 36.7182 46.8455 36.2006 46.3248C35.683 45.7914 34.9519 45.5247 34.0073 45.5247C33.0756 45.5247 32.351 45.7914 31.8334 46.3248C31.3287 46.8455 31.0764 47.6203 31.0764 48.6489ZM72.8662 48.668C72.8922 49.6206 73.1509 50.3826 73.6427 50.9541C74.1344 51.5256 74.8267 51.8114 75.7196 51.8114C76.6124 51.8114 77.2982 51.5256 77.7768 50.9541C78.2687 50.3826 78.5209 49.6206 78.534 48.668C78.5209 47.7282 78.2687 46.9788 77.7768 46.42C77.2982 45.8485 76.6124 45.5628 75.7196 45.5628C74.8267 45.5628 74.1344 45.8422 73.6427 46.401C73.1509 46.9598 72.8922 47.7155 72.8662 48.668Z" fill="#222222"/>
</g>
</g>
<defs>
<clipPath id="clip0_720_2810">
<rect width="66" height="22" fill="white" transform="translate(15.3601 35.8228)"/>
</clipPath>
</defs>
</svg>
