<svg width="92" height="92" viewBox="0 0 92 92" fill="none" xmlns="http://www.w3.org/2000/svg">
<g filter="url(#filter0_d_42_2147)">
<rect x="15.5764" y="28.4041" width="48.5617" height="48.5617" rx="5.49755" fill="url(#paint0_linear_42_2147)"/>
</g>
<path fill-rule="evenodd" clip-rule="evenodd" d="M29.9163 40.6299C30.2404 40.3391 30.727 40.3418 31.0639 40.6176L32.8555 42.0844C33.1757 42.3465 33.63 42.3583 33.9802 42.1379C34.8527 41.5889 35.8014 41.1499 36.8068 40.8405C37.1768 40.7266 37.4543 40.4104 37.4927 40.0252L37.7393 37.552C37.7805 37.1387 38.0944 36.8019 38.507 36.7542C39.1003 36.6856 39.7037 36.6504 40.3154 36.6504C40.6434 36.6504 40.9691 36.6605 41.292 36.6805C41.7241 36.7072 42.0626 37.0521 42.1056 37.4829L42.3374 39.8079C42.3781 40.2162 42.6863 40.5441 43.0855 40.6391C44.2053 40.9059 45.2638 41.3307 46.2361 41.8887C46.5823 42.0875 47.0177 42.0669 47.3266 41.814L49.1888 40.2894C49.5172 40.0206 49.989 40.0103 50.3143 40.2828C51.0182 40.8728 51.6692 41.5238 52.2592 42.2277C52.5318 42.553 52.5214 43.0249 52.2526 43.3532L50.7281 45.2155C50.4752 45.5244 50.4546 45.9597 50.6533 46.3059C51.2113 47.2782 51.6362 48.3367 51.9029 49.4565C51.998 49.8557 52.3258 50.1639 52.7341 50.2046L55.0593 50.4365C55.4901 50.4794 55.8349 50.8179 55.8616 51.25C55.8816 51.573 55.8918 51.8987 55.8918 52.2268C55.8918 52.8384 55.8565 53.4417 55.7879 54.035C55.7402 54.4476 55.4035 54.7615 54.9901 54.8027L52.5168 55.0493C52.1316 55.0877 51.8154 55.3652 51.7016 55.7352C51.3921 56.7406 50.9532 57.6893 50.4042 58.5618C50.1838 58.912 50.1955 59.3663 50.4577 59.6865L51.9245 61.4783C52.2003 61.8152 52.2031 62.3018 51.9123 62.6259C51.272 63.3393 50.5669 63.9934 49.8062 64.5788C49.4807 64.8293 49.0268 64.8102 48.7089 64.55L46.7542 62.9498C46.4593 62.7083 46.0472 62.6778 45.7074 62.8506C44.9059 63.2582 44.0522 63.5777 43.1589 63.7965C42.7625 63.8936 42.4575 64.2203 42.417 64.6264L42.1837 66.9657C42.1409 67.3947 41.8049 67.7388 41.3747 67.7677C41.0247 67.7912 40.6714 67.8032 40.3154 67.8032C39.6751 67.8032 39.0439 67.7645 38.4239 67.6895C38.0132 67.6398 37.7018 67.3039 37.6607 66.8923L37.4126 64.4033C37.3744 64.0204 37.0999 63.7055 36.7329 63.5899C35.9465 63.3422 35.1952 63.0151 34.4886 62.618C34.1434 62.424 33.7123 62.4465 33.4059 62.6974L31.5274 64.2352C31.2009 64.5025 30.7323 64.5144 30.4069 64.2459C29.6379 63.6112 28.9308 62.9041 28.2962 62.1351C28.0276 61.8097 28.0396 61.3411 28.3068 61.0146L29.8447 59.1362C30.0955 58.8298 30.118 58.3986 29.924 58.0534C29.5269 57.3468 29.1998 56.5956 28.9521 55.8091C28.8365 55.4421 28.5216 55.1677 28.1387 55.1295L25.6499 54.8813C25.2383 54.8403 24.9024 54.5288 24.8527 54.1182C24.7776 53.4982 24.739 52.867 24.739 52.2268C24.739 51.8707 24.751 51.5174 24.7745 51.1673C24.8034 50.7371 25.1474 50.4011 25.5765 50.3583L27.9157 50.1251C28.3217 50.0846 28.6484 49.7795 28.7455 49.3832C28.9643 48.4899 29.2839 47.6361 29.6915 46.8346C29.8643 46.4949 29.8337 46.0827 29.5923 45.7878L27.9922 43.8333C27.732 43.5154 27.7129 43.0615 27.9634 42.7359C28.5488 41.9752 29.2028 41.2701 29.9163 40.6299ZM40.3153 57.7242C43.3516 57.7242 45.8129 55.2629 45.8129 52.2267C45.8129 49.1905 43.3516 46.7291 40.3153 46.7291C37.2791 46.7291 34.8178 49.1905 34.8178 52.2267C34.8178 55.2629 37.2791 57.7242 40.3153 57.7242Z" fill="white"/>
<g filter="url(#filter1_b_42_2147)">
<mask id="path-3-inside-1_42_2147" fill="white">
<path fill-rule="evenodd" clip-rule="evenodd" d="M42.5635 44.3802C43.4447 43.8038 44.5574 43.6397 45.5143 44.0789L72.612 56.516C76.3406 58.2273 80.7505 56.592 82.4618 52.8634C84.1731 49.1348 82.5378 44.7249 78.8092 43.0136L51.007 30.2532C50.1244 29.848 49.5394 29.0026 49.3422 28.0517C47.8645 20.9291 41.554 15.5764 33.9932 15.5764C28.1679 15.5764 23.0846 18.7539 20.3823 23.4703C20.0505 24.0493 20.4897 24.739 21.157 24.739H31.0857C31.7925 24.739 32.4363 25.1455 32.7402 25.7836L34.9218 30.3649C35.1591 30.8634 35.1591 31.4422 34.9218 31.9407L32.7402 36.5219C32.4363 37.1601 31.7925 37.5666 31.0857 37.5666H21.0459C20.3841 37.5666 19.9444 38.2461 20.2646 38.8253C22.9353 43.6566 28.0822 46.9283 33.9932 46.9283C37.1562 46.9283 40.1005 45.9915 42.5635 44.3802Z"/>
</mask>
<path fill-rule="evenodd" clip-rule="evenodd" d="M42.5635 44.3802C43.4447 43.8038 44.5574 43.6397 45.5143 44.0789L72.612 56.516C76.3406 58.2273 80.7505 56.592 82.4618 52.8634C84.1731 49.1348 82.5378 44.7249 78.8092 43.0136L51.007 30.2532C50.1244 29.848 49.5394 29.0026 49.3422 28.0517C47.8645 20.9291 41.554 15.5764 33.9932 15.5764C28.1679 15.5764 23.0846 18.7539 20.3823 23.4703C20.0505 24.0493 20.4897 24.739 21.157 24.739H31.0857C31.7925 24.739 32.4363 25.1455 32.7402 25.7836L34.9218 30.3649C35.1591 30.8634 35.1591 31.4422 34.9218 31.9407L32.7402 36.5219C32.4363 37.1601 31.7925 37.5666 31.0857 37.5666H21.0459C20.3841 37.5666 19.9444 38.2461 20.2646 38.8253C22.9353 43.6566 28.0822 46.9283 33.9932 46.9283C37.1562 46.9283 40.1005 45.9915 42.5635 44.3802Z" fill="#3858C9" fill-opacity="0.2"/>
<path d="M45.5143 44.0789L45.8965 43.2462L45.8965 43.2462L45.5143 44.0789ZM42.5635 44.3802L43.0651 45.147L43.0651 45.147L42.5635 44.3802ZM72.612 56.516L72.2298 57.3487L72.2298 57.3487L72.612 56.516ZM82.4618 52.8634L83.2946 53.2456L83.2946 53.2456L82.4618 52.8634ZM78.8092 43.0136L79.1914 42.1808L79.1914 42.1808L78.8092 43.0136ZM51.007 30.2532L51.3892 29.4204L51.3892 29.4204L51.007 30.2532ZM49.3422 28.0517L48.445 28.2379L48.445 28.2379L49.3422 28.0517ZM32.7402 25.7836L31.913 26.1776L31.913 26.1776L32.7402 25.7836ZM34.9218 30.3649L35.749 29.971L35.749 29.971L34.9218 30.3649ZM34.9218 31.9407L34.0945 31.5467L34.0945 31.5467L34.9218 31.9407ZM32.7402 36.5219L33.5675 36.9159L33.5675 36.9159L32.7402 36.5219ZM20.2646 38.8253L19.4627 39.2685L20.2646 38.8253ZM20.3823 23.4703L19.5873 23.0148L19.5873 23.0148L20.3823 23.4703ZM45.8965 43.2462C44.6049 42.6534 43.159 42.8958 42.062 43.6134L43.0651 45.147C43.7304 44.7118 44.5098 44.6261 45.1321 44.9117L45.8965 43.2462ZM72.9942 55.6833L45.8965 43.2462L45.1321 44.9117L72.2298 57.3487L72.9942 55.6833ZM81.6291 52.4812C80.1289 55.7499 76.2629 57.1835 72.9942 55.6833L72.2298 57.3487C76.4183 59.2711 81.3722 57.4341 83.2946 53.2456L81.6291 52.4812ZM78.427 43.8463C81.6957 45.3465 83.1293 49.2125 81.6291 52.4812L83.2946 53.2456C85.217 49.0571 83.3799 44.1032 79.1914 42.1808L78.427 43.8463ZM50.6248 31.0859L78.427 43.8463L79.1914 42.1808L51.3892 29.4204L50.6248 31.0859ZM48.445 28.2379C48.6909 29.4232 49.4338 30.5392 50.6248 31.0859L51.3892 29.4204C50.815 29.1569 50.3879 28.5821 50.2393 27.8656L48.445 28.2379ZM33.9932 16.4927C41.111 16.4927 47.0538 21.5319 48.445 28.2379L50.2393 27.8656C48.6753 20.3263 41.997 14.6602 33.9932 14.6602V16.4927ZM21.1773 23.9258C23.7231 19.4828 28.5095 16.4927 33.9932 16.4927V14.6602C27.8262 14.6602 22.4462 18.0251 19.5873 23.0148L21.1773 23.9258ZM21.157 25.6553H31.0857V23.8227H21.157V25.6553ZM31.0857 25.6553C31.4391 25.6553 31.761 25.8585 31.913 26.1776L33.5675 25.3897C33.1116 24.4325 32.1459 23.8227 31.0857 23.8227V25.6553ZM31.913 26.1776L34.0945 30.7589L35.749 29.971L33.5675 25.3897L31.913 26.1776ZM34.0945 30.7589C34.2132 31.0081 34.2132 31.2975 34.0945 31.5467L35.749 32.3346C36.105 31.5869 36.105 30.7186 35.749 29.971L34.0945 30.7589ZM34.0945 31.5467L31.913 36.128L33.5675 36.9159L35.749 32.3346L34.0945 31.5467ZM31.913 36.128C31.761 36.4471 31.4391 36.6503 31.0857 36.6503V38.4829C32.1459 38.4829 33.1116 37.8731 33.5675 36.9159L31.913 36.128ZM31.0857 36.6503H21.0459V38.4829H31.0857V36.6503ZM33.9932 46.012C28.4289 46.012 23.5824 42.9333 21.0665 38.382L19.4627 39.2685C22.2882 44.3799 27.7355 47.8445 33.9932 47.8445V46.012ZM42.062 43.6134C39.7434 45.1301 36.9727 46.012 33.9932 46.012V47.8445C37.3398 47.8445 40.4575 46.8528 43.0651 45.147L42.062 43.6134ZM21.0459 36.6503C19.7573 36.6503 18.7712 38.0176 19.4627 39.2685L21.0665 38.382C21.0664 38.3819 21.0671 38.3831 21.0681 38.3857C21.0691 38.3882 21.0702 38.3917 21.0712 38.396C21.0733 38.405 21.0743 38.4151 21.0739 38.4255C21.0729 38.4462 21.0667 38.4601 21.0622 38.4671C21.058 38.4739 21.0533 38.4779 21.0489 38.4803C21.0428 38.4838 21.0399 38.4829 21.0459 38.4829V36.6503ZM19.5873 23.0148C18.8699 24.2668 19.8585 25.6553 21.157 25.6553V23.8227C21.1507 23.8227 21.1537 23.8218 21.1601 23.8254C21.1646 23.8279 21.1694 23.832 21.1737 23.8391C21.1782 23.8463 21.1845 23.8606 21.1852 23.8818C21.1856 23.8924 21.1844 23.9028 21.1822 23.9119C21.1811 23.9162 21.1799 23.9198 21.1789 23.9223C21.1778 23.9249 21.1772 23.926 21.1773 23.9258L19.5873 23.0148Z" fill="white" fill-opacity="0.2" mask="url(#path-3-inside-1_42_2147)"/>
</g>
<defs>
<filter id="filter0_d_42_2147" x="11.9114" y="24.739" width="63.2219" height="63.2219" filterUnits="userSpaceOnUse" color-interpolation-filters="sRGB">
<feFlood flood-opacity="0" result="BackgroundImageFix"/>
<feColorMatrix in="SourceAlpha" type="matrix" values="0 0 0 0 0 0 0 0 0 0 0 0 0 0 0 0 0 0 127 0" result="hardAlpha"/>
<feOffset dx="3.66503" dy="3.66503"/>
<feGaussianBlur stdDeviation="3.66503"/>
<feComposite in2="hardAlpha" operator="out"/>
<feColorMatrix type="matrix" values="0 0 0 0 0.219608 0 0 0 0 0.345098 0 0 0 0 0.788235 0 0 0 0.2 0"/>
<feBlend mode="normal" in2="BackgroundImageFix" result="effect1_dropShadow_42_2147"/>
<feBlend mode="normal" in="SourceGraphic" in2="effect1_dropShadow_42_2147" result="shape"/>
</filter>
<filter id="filter1_b_42_2147" x="14.6602" y="10.0789" width="73.9782" height="52.6135" filterUnits="userSpaceOnUse" color-interpolation-filters="sRGB">
<feFlood flood-opacity="0" result="BackgroundImageFix"/>
<feGaussianBlur in="BackgroundImageFix" stdDeviation="2.74877"/>
<feComposite in2="SourceAlpha" operator="in" result="effect1_backgroundBlur_42_2147"/>
<feBlend mode="normal" in="SourceGraphic" in2="effect1_backgroundBlur_42_2147" result="shape"/>
</filter>
<linearGradient id="paint0_linear_42_2147" x1="39.8572" y1="28.4041" x2="39.8572" y2="76.9657" gradientUnits="userSpaceOnUse">
<stop stop-color="#3D90DD"/>
<stop offset="0.678754" stop-color="#3858C9"/>
</linearGradient>
</defs>
</svg>
