<svg width="92" height="92" viewBox="0 0 92 92" fill="none" xmlns="http://www.w3.org/2000/svg">
<g filter="url(#filter0_d_42_2224)">
<path fill-rule="evenodd" clip-rule="evenodd" d="M28.404 75.1332C18.2833 75.1332 10.0789 66.9287 10.0789 56.808C10.0789 46.6873 18.2833 38.4829 28.404 38.4829C28.5882 38.4829 28.7718 38.4856 28.9547 38.491C30.2043 38.5279 31.3892 37.86 32.0069 36.773C35.1576 31.228 41.1174 27.4878 47.9508 27.4878C58.0715 27.4878 66.2759 35.6922 66.2759 45.8129V45.8129C66.2759 45.8147 66.2773 45.8161 66.2791 45.8161C74.2332 45.9803 80.6307 52.4796 80.6307 60.4731C80.6307 68.5696 74.0671 75.1332 65.9706 75.1332H28.416C28.412 75.1332 28.408 75.1332 28.404 75.1332Z" fill="url(#paint0_linear_42_2224)"/>
</g>
<path d="M39.3989 52.7855C39.3989 52.2637 39.3989 52.0028 39.502 51.8042C39.589 51.6369 39.7254 51.5004 39.8928 51.4135C40.0914 51.3103 40.3523 51.3103 40.8741 51.3103L42.3036 51.3103C43.6661 51.3103 44.3474 51.3103 44.6129 51.057C44.8326 50.8474 44.9341 50.5427 44.8842 50.2432C44.8238 49.8813 44.2787 49.4725 43.1887 48.655L36.619 43.7278C36.2982 43.4873 36.1379 43.367 35.9614 43.3218C35.8121 43.2835 35.6556 43.2835 35.5063 43.3218C35.3298 43.367 35.1695 43.4873 34.8488 43.7279L28.2794 48.655C27.1894 49.4725 26.6444 49.8813 26.584 50.2432C26.534 50.5427 26.6356 50.8474 26.8553 51.057C27.1208 51.3103 27.802 51.3103 29.1645 51.3103L30.5222 51.3103C31.044 51.3103 31.3049 51.3103 31.5035 51.4135C31.6708 51.5004 31.8073 51.6369 31.8942 51.8042C31.9974 52.0028 31.9974 52.2637 31.9974 52.7855L31.9974 65.4115C31.9974 65.9333 31.9974 66.1942 32.1005 66.3928C32.1875 66.5602 32.3239 66.6966 32.4913 66.7836C32.6899 66.8867 32.9508 66.8867 33.4726 66.8867L37.9237 66.8867C38.4455 66.8867 38.7064 66.8867 38.905 66.7836C39.0723 66.6966 39.2088 66.5602 39.2957 66.3928C39.3989 66.1942 39.3989 65.9333 39.3989 65.4115L39.3989 52.7855Z" fill="white"/>
<path d="M57.7238 59.9142C57.7238 60.436 57.7238 60.6969 57.827 60.8955C57.9139 61.0628 58.0504 61.1993 58.2177 61.2862C58.4163 61.3894 58.6772 61.3894 59.199 61.3894L60.6286 61.3894C61.9911 61.3894 62.6723 61.3894 62.9379 61.6427C63.1575 61.8523 63.2591 62.157 63.2091 62.4565C63.1487 62.8185 62.6037 63.2272 61.5137 64.0447L54.9439 68.9719C54.6232 69.2124 54.4628 69.3327 54.2863 69.3779C54.1371 69.4162 53.9805 69.4162 53.8313 69.3779C53.6548 69.3327 53.4944 69.2124 53.1737 68.9718L46.6043 64.0447C45.5144 63.2272 44.9694 62.8184 44.909 62.4565C44.859 62.157 44.9606 61.8523 45.1802 61.6427C45.4457 61.3894 46.127 61.3894 47.4894 61.3894L48.8472 61.3894C49.369 61.3894 49.6299 61.3894 49.8285 61.2862C49.9958 61.1993 50.1322 61.0628 50.2192 60.8955C50.3223 60.6969 50.3223 60.436 50.3223 59.9142L50.3223 47.2882C50.3223 46.7664 50.3223 46.5055 50.4255 46.3069C50.5124 46.1395 50.6489 46.0031 50.8162 45.9161C51.0148 45.813 51.2757 45.813 51.7975 45.813L56.2487 45.813C56.7705 45.813 57.0314 45.813 57.2299 45.9161C57.3973 46.0031 57.5337 46.1395 57.6207 46.3069C57.7238 46.5055 57.7238 46.7664 57.7238 47.2882L57.7238 59.9142Z" fill="white"/>
<g filter="url(#filter1_b_42_2224)">
<mask id="path-4-inside-1_42_2224" fill="white">
<path fill-rule="evenodd" clip-rule="evenodd" d="M59.5074 19.9672C58.8286 18.9418 57.6809 18.3252 56.4513 18.3252H46.6045C45.1553 18.3252 43.9806 19.5 43.9806 20.9491V23.573C43.9806 23.573 43.9805 23.5731 43.9805 23.5731V23.5731C43.9805 23.5731 43.9805 23.5731 43.9805 23.5731V44.3971C43.9805 46.4212 45.6214 48.0621 47.6455 48.0621H78.7983C80.8224 48.0621 82.4633 46.4212 82.4633 44.3971V27.2381C82.4633 25.2139 80.8224 23.5731 78.7983 23.5731H63.8635C62.6339 23.5731 61.4862 22.9564 60.8075 21.9311L59.5074 19.9672Z"/>
</mask>
<path fill-rule="evenodd" clip-rule="evenodd" d="M59.5074 19.9672C58.8286 18.9418 57.6809 18.3252 56.4513 18.3252H46.6045C45.1553 18.3252 43.9806 19.5 43.9806 20.9491V23.573C43.9806 23.573 43.9805 23.5731 43.9805 23.5731V23.5731C43.9805 23.5731 43.9805 23.5731 43.9805 23.5731V44.3971C43.9805 46.4212 45.6214 48.0621 47.6455 48.0621H78.7983C80.8224 48.0621 82.4633 46.4212 82.4633 44.3971V27.2381C82.4633 25.2139 80.8224 23.5731 78.7983 23.5731H63.8635C62.6339 23.5731 61.4862 22.9564 60.8075 21.9311L59.5074 19.9672Z" fill="#3858C9" fill-opacity="0.2"/>
<path d="M60.8075 21.9311L61.5715 21.4253L60.8075 21.9311ZM59.5074 19.9672L60.2714 19.4614L59.5074 19.9672ZM46.6045 19.2415H56.4513V17.4089H46.6045V19.2415ZM44.8968 23.573V20.9491H43.0643V23.573H44.8968ZM44.8967 44.3971V23.5731H43.0642V44.3971H44.8967ZM78.7983 47.1459H47.6455V48.9784H78.7983V47.1459ZM81.547 27.2381V44.3971H83.3796V27.2381H81.547ZM63.8635 24.4893H78.7983V22.6568H63.8635V24.4893ZM58.7434 20.4729L60.0434 22.4369L61.5715 21.4253L60.2714 19.4614L58.7434 20.4729ZM63.8635 22.6568C62.9413 22.6568 62.0805 22.1943 61.5715 21.4253L60.0434 22.4369C60.8919 23.7185 62.3265 24.4893 63.8635 24.4893V22.6568ZM83.3796 27.2381C83.3796 24.7079 81.3284 22.6568 78.7983 22.6568V24.4893C80.3164 24.4893 81.547 25.72 81.547 27.2381H83.3796ZM78.7983 48.9784C81.3284 48.9784 83.3796 46.9273 83.3796 44.3971H81.547C81.547 45.9152 80.3164 47.1459 78.7983 47.1459V48.9784ZM43.0642 44.3971C43.0642 46.9273 45.1153 48.9784 47.6455 48.9784V47.1459C46.1274 47.1459 44.8967 45.9152 44.8967 44.3971H43.0642ZM43.9805 22.6568C43.4861 22.6568 43.0642 23.0555 43.0642 23.5731H44.8967C44.8967 24.0906 44.4749 24.4893 43.9805 24.4893V22.6568ZM43.0643 23.573C43.0643 23.067 43.4745 22.6568 43.9805 22.6568V24.4893C44.4866 24.4893 44.8968 24.0791 44.8968 23.573H43.0643ZM56.4513 19.2415C57.3735 19.2415 58.2343 19.7039 58.7434 20.4729L60.2714 19.4614C59.423 18.1797 57.9883 17.4089 56.4513 17.4089V19.2415ZM46.6045 17.4089C44.6493 17.4089 43.0643 18.9939 43.0643 20.9491H44.8968C44.8968 20.006 45.6614 19.2415 46.6045 19.2415V17.4089Z" fill="white" fill-opacity="0.2" mask="url(#path-4-inside-1_42_2224)"/>
</g>
<defs>
<filter id="filter0_d_42_2224" x="6.41383" y="23.8228" width="85.2119" height="62.3056" filterUnits="userSpaceOnUse" color-interpolation-filters="sRGB">
<feFlood flood-opacity="0" result="BackgroundImageFix"/>
<feColorMatrix in="SourceAlpha" type="matrix" values="0 0 0 0 0 0 0 0 0 0 0 0 0 0 0 0 0 0 127 0" result="hardAlpha"/>
<feOffset dx="3.66503" dy="3.66503"/>
<feGaussianBlur stdDeviation="3.66503"/>
<feComposite in2="hardAlpha" operator="out"/>
<feColorMatrix type="matrix" values="0 0 0 0 0.219608 0 0 0 0 0.345098 0 0 0 0 0.788235 0 0 0 0.2 0"/>
<feBlend mode="normal" in2="BackgroundImageFix" result="effect1_dropShadow_42_2224"/>
<feBlend mode="normal" in="SourceGraphic" in2="effect1_dropShadow_42_2224" result="shape"/>
</filter>
<filter id="filter1_b_42_2224" x="38.4829" y="12.8276" width="49.478" height="40.7319" filterUnits="userSpaceOnUse" color-interpolation-filters="sRGB">
<feFlood flood-opacity="0" result="BackgroundImageFix"/>
<feGaussianBlur in="BackgroundImageFix" stdDeviation="2.74877"/>
<feComposite in2="SourceAlpha" operator="in" result="effect1_backgroundBlur_42_2224"/>
<feBlend mode="normal" in="SourceGraphic" in2="effect1_backgroundBlur_42_2224" result="shape"/>
</filter>
<linearGradient id="paint0_linear_42_2224" x1="45.3548" y1="27.4878" x2="45.3548" y2="75.1332" gradientUnits="userSpaceOnUse">
<stop stop-color="#3D90DD"/>
<stop offset="0.678754" stop-color="#3858C9"/>
</linearGradient>
</defs>
</svg>
