<svg width="92" height="92" viewBox="0 0 92 92" fill="none" xmlns="http://www.w3.org/2000/svg">
<g filter="url(#filter0_d_42_2169)">
<rect x="8.24634" y="20.1577" width="49.4779" height="49.4779" rx="5.49755" fill="url(#paint0_linear_42_2169)"/>
</g>
<path fill-rule="evenodd" clip-rule="evenodd" d="M49.936 64.1382C49.683 64.1382 49.4779 63.933 49.4779 63.68V50.8524C49.4779 50.5994 49.683 50.3943 49.936 50.3943V50.3943C50.1891 50.3943 50.3942 50.5994 50.3942 50.8524V63.68C50.3942 63.933 50.1891 64.1382 49.936 64.1382V64.1382ZM25.1971 64.1383C24.9441 64.1383 24.739 63.9332 24.739 63.6801V50.8525C24.739 50.5995 24.9441 50.3944 25.1971 50.3944V50.3944C25.4502 50.3944 25.6553 50.5995 25.6553 50.8525L25.6553 63.6801C25.6553 63.9332 25.4502 64.1383 25.1971 64.1383V64.1383ZM38.941 50.3943C38.6879 50.3943 38.4828 50.5994 38.4828 50.8524L38.4828 63.68C38.4828 63.933 38.6879 64.1382 38.941 64.1382V64.1382C39.194 64.1382 39.3991 63.933 39.3991 63.68L39.3991 50.8524C39.3991 50.5994 39.194 50.3943 38.941 50.3943V50.3943ZM42.606 64.1382C42.353 64.1382 42.1479 63.933 42.1479 63.68V50.8524C42.1479 50.5994 42.353 50.3943 42.606 50.3943V50.3943C42.859 50.3943 43.0641 50.5994 43.0641 50.8524V63.68C43.0641 63.933 42.859 64.1382 42.606 64.1382V64.1382ZM46.7291 50.3943C46.2231 50.3943 45.8129 50.8045 45.8129 51.3105V63.2219C45.8129 63.7279 46.2231 64.1382 46.7291 64.1382V64.1382C47.2352 64.1382 47.6454 63.7279 47.6454 63.2219V51.3105C47.6454 50.8045 47.2352 50.3943 46.7291 50.3943V50.3943ZM29.3202 64.1382C28.8142 64.1382 28.404 63.7279 28.404 63.2219L28.404 51.3105C28.404 50.8045 28.8142 50.3943 29.3202 50.3943L30.2365 50.3943C30.7425 50.3943 31.1528 50.8045 31.1528 51.3105L31.1528 63.2219C31.1528 63.7279 30.7425 64.1382 30.2365 64.1382H29.3202ZM34.8178 50.3943C34.3118 50.3943 33.9015 50.8045 33.9015 51.3105L33.9015 63.2219C33.9015 63.7279 34.3118 64.1382 34.8178 64.1382V64.1382C35.3238 64.1382 35.7341 63.7279 35.7341 63.2219L35.7341 51.3105C35.7341 50.8045 35.3238 50.3943 34.8178 50.3943V50.3943Z" fill="white"/>
<g filter="url(#filter1_b_42_2169)">
<mask id="path-3-inside-1_42_2169" fill="white">
<path fill-rule="evenodd" clip-rule="evenodd" d="M71.3629 53.999C71.3283 53.9792 71.3334 53.9277 71.371 53.9147C78.895 51.3009 84.2958 44.1482 84.2958 35.7341C84.2958 25.1073 75.6811 16.4927 65.0544 16.4927C54.4276 16.4927 45.8129 25.1073 45.8129 35.7341C45.8129 40.4022 47.4753 44.6821 50.2403 48.014C50.8645 48.7662 50.8966 49.8727 50.2381 50.595L45.0696 56.2638C43.8699 57.5796 45.0621 59.6606 46.804 59.2911L71.3496 54.0844C71.3912 54.0756 71.3998 54.0201 71.3629 53.999V53.999Z"/>
</mask>
<path fill-rule="evenodd" clip-rule="evenodd" d="M71.3629 53.999C71.3283 53.9792 71.3334 53.9277 71.371 53.9147C78.895 51.3009 84.2958 44.1482 84.2958 35.7341C84.2958 25.1073 75.6811 16.4927 65.0544 16.4927C54.4276 16.4927 45.8129 25.1073 45.8129 35.7341C45.8129 40.4022 47.4753 44.6821 50.2403 48.014C50.8645 48.7662 50.8966 49.8727 50.2381 50.595L45.0696 56.2638C43.8699 57.5796 45.0621 59.6606 46.804 59.2911L71.3496 54.0844C71.3912 54.0756 71.3998 54.0201 71.3629 53.999V53.999Z" fill="#3858C9" fill-opacity="0.2"/>
<path d="M45.0696 56.2638L44.3925 55.6465L45.0696 56.2638ZM46.804 59.2911L46.9941 60.1874L46.804 59.2911ZM50.2403 48.014L49.5353 48.5992L50.2403 48.014ZM50.2381 50.595L50.9151 51.2123L50.2381 50.595ZM71.3496 54.0844L71.5397 54.9808L71.3496 54.0844ZM71.371 53.9147L71.0703 53.0492L71.371 53.9147ZM83.3795 35.7341C83.3795 43.7461 78.2372 50.5594 71.0703 53.0492L71.6717 54.7802C79.5528 52.0423 85.212 44.5503 85.212 35.7341H83.3795ZM65.0544 17.4089C75.1751 17.4089 83.3795 25.6134 83.3795 35.7341H85.212C85.212 24.6013 76.1871 15.5764 65.0544 15.5764V17.4089ZM46.7292 35.7341C46.7292 25.6134 54.9336 17.4089 65.0544 17.4089V15.5764C53.9216 15.5764 44.8967 24.6013 44.8967 35.7341H46.7292ZM50.9454 47.4289C48.3118 44.2553 46.7292 40.1807 46.7292 35.7341H44.8967C44.8967 40.6237 46.6388 45.1089 49.5353 48.5992L50.9454 47.4289ZM45.7467 56.8811L50.9151 51.2123L49.561 49.9777L44.3925 55.6465L45.7467 56.8811ZM71.1594 53.1881L46.6139 58.3948L46.9941 60.1874L71.5397 54.9808L71.1594 53.1881ZM44.3925 55.6465C42.593 57.6202 44.3813 60.7416 46.9941 60.1874L46.6139 58.3948C45.743 58.5795 45.1468 57.539 45.7467 56.8811L44.3925 55.6465ZM49.5353 48.5992C49.9006 49.0394 49.878 49.63 49.561 49.9777L50.9151 51.2123C51.9152 50.1154 51.8285 48.493 50.9454 47.4289L49.5353 48.5992ZM71.5397 54.9808C72.4048 54.7973 72.5853 53.6422 71.8175 53.2034L70.9083 54.7945C70.2143 54.398 70.3775 53.354 71.1594 53.1881L71.5397 54.9808ZM71.0703 53.0492C70.3011 53.3164 70.1803 54.3785 70.9083 54.7945L71.8175 53.2034C72.4763 53.5799 72.3656 54.5391 71.6717 54.7802L71.0703 53.0492Z" fill="white" fill-opacity="0.2" mask="url(#path-3-inside-1_42_2169)"/>
</g>
<path fill-rule="evenodd" clip-rule="evenodd" d="M65.0542 27.9459C65.0542 29.717 63.6184 31.1528 61.8473 31.1528V31.1528C60.0762 31.1528 58.6404 29.717 58.6404 27.9459V27.9459C58.6404 26.1748 60.0762 24.739 61.8473 24.739V24.739C63.6184 24.739 65.0542 26.1748 65.0542 27.9459V27.9459ZM76.9655 36.1922C76.9655 36.9513 76.3502 37.5666 75.5911 37.5666H60.0148C59.2557 37.5666 58.6404 36.9513 58.6404 36.1922V36.1922C58.6404 35.4332 59.2557 34.8178 60.0148 34.8178H75.5912C76.3502 34.8178 76.9655 35.4332 76.9655 36.1922V36.1922ZM58.6404 42.606C58.6404 43.3651 59.2557 43.9804 60.0148 43.9804H66.4286C67.1876 43.9804 67.803 43.3651 67.803 42.606V42.606C67.803 41.847 67.1876 41.2317 66.4286 41.2317H60.0148C59.2557 41.2317 58.6404 41.847 58.6404 42.606V42.606Z" fill="white"/>
<defs>
<filter id="filter0_d_42_2169" x="4.58131" y="16.4927" width="64.1382" height="64.1382" filterUnits="userSpaceOnUse" color-interpolation-filters="sRGB">
<feFlood flood-opacity="0" result="BackgroundImageFix"/>
<feColorMatrix in="SourceAlpha" type="matrix" values="0 0 0 0 0 0 0 0 0 0 0 0 0 0 0 0 0 0 127 0" result="hardAlpha"/>
<feOffset dx="3.66503" dy="3.66503"/>
<feGaussianBlur stdDeviation="3.66503"/>
<feComposite in2="hardAlpha" operator="out"/>
<feColorMatrix type="matrix" values="0 0 0 0 0.219608 0 0 0 0 0.345098 0 0 0 0 0.788235 0 0 0 0.2 0"/>
<feBlend mode="normal" in2="BackgroundImageFix" result="effect1_dropShadow_42_2169"/>
<feBlend mode="normal" in="SourceGraphic" in2="effect1_dropShadow_42_2169" result="shape"/>
</filter>
<filter id="filter1_b_42_2169" x="39.0864" y="10.9951" width="50.7068" height="53.8369" filterUnits="userSpaceOnUse" color-interpolation-filters="sRGB">
<feFlood flood-opacity="0" result="BackgroundImageFix"/>
<feGaussianBlur in="BackgroundImageFix" stdDeviation="2.74877"/>
<feComposite in2="SourceAlpha" operator="in" result="effect1_backgroundBlur_42_2169"/>
<feBlend mode="normal" in="SourceGraphic" in2="effect1_backgroundBlur_42_2169" result="shape"/>
</filter>
<linearGradient id="paint0_linear_42_2169" x1="32.9853" y1="20.1577" x2="32.9853" y2="69.6356" gradientUnits="userSpaceOnUse">
<stop stop-color="#3D90DD"/>
<stop offset="0.678754" stop-color="#3858C9"/>
</linearGradient>
</defs>
</svg>
