<svg width="92" height="92" viewBox="0 0 92 92" fill="none" xmlns="http://www.w3.org/2000/svg">
<g filter="url(#filter0_d_42_2199)">
<path fill-rule="evenodd" clip-rule="evenodd" d="M10.9951 19.2415C9.47701 19.2415 8.24634 20.4721 8.24634 21.9902V48.5887C8.24634 49.49 8.68821 50.3341 9.42892 50.8476L13.7439 53.8393V68.7193C13.7439 69.7314 14.5643 70.5518 15.5764 70.5518H28.404C29.4161 70.5518 30.2365 69.7314 30.2365 68.7193V53.8394L34.5515 50.8476C35.2922 50.3341 35.7341 49.49 35.7341 48.5887V21.9902C35.7341 20.4721 34.5034 19.2415 32.9853 19.2415H10.9951Z" fill="url(#paint0_linear_42_2199)"/>
</g>
<rect x="12.8276" y="23.8228" width="18.3252" height="23.8227" rx="0.916258" fill="white"/>
<path fill-rule="evenodd" clip-rule="evenodd" d="M28.8621 25.6553C28.6091 25.6553 28.404 25.8604 28.404 26.1134V29.7784C28.404 30.0315 28.6091 30.2366 28.8621 30.2366V30.2366C29.1151 30.2366 29.3202 30.0315 29.3202 29.7784V26.1134C29.3202 25.8604 29.1151 25.6553 28.8621 25.6553V25.6553ZM15.1183 25.6553C14.8653 25.6553 14.6602 25.8604 14.6602 26.1135V29.7785C14.6602 30.0315 14.8653 30.2366 15.1183 30.2366V30.2366C15.3713 30.2366 15.5764 30.0315 15.5764 29.7785L15.5764 26.1135C15.5764 25.8604 15.3713 25.6553 15.1183 25.6553V25.6553ZM23.8227 30.2366C23.3167 30.2366 22.9064 29.8263 22.9064 29.3203V26.5715C22.9064 26.0655 23.3167 25.6553 23.8227 25.6553V25.6553C24.3287 25.6553 24.739 26.0655 24.739 26.5715L24.739 29.3203C24.739 29.8263 24.3287 30.2366 23.8227 30.2366V30.2366ZM27.0296 25.6553C26.7766 25.6553 26.5715 25.8604 26.5715 26.1134V29.7784C26.5715 30.0315 26.7766 30.2366 27.0296 30.2366V30.2366C27.2826 30.2366 27.4877 30.0315 27.4877 29.7784V26.1134C27.4877 25.8604 27.2826 25.6553 27.0296 25.6553V25.6553ZM17.4089 30.2366C16.9029 30.2366 16.4926 29.8263 16.4926 29.3203L16.4926 26.5715C16.4926 26.0655 16.9029 25.6553 17.4089 25.6553L18.3252 25.6553C18.8312 25.6553 19.2414 26.0655 19.2414 26.5715V29.3203C19.2414 29.8263 18.8312 30.2366 18.3252 30.2366H17.4089ZM20.6158 25.6553C20.3628 25.6553 20.1577 25.8604 20.1577 26.1134L20.1577 29.7784C20.1577 30.0315 20.3628 30.2366 20.6158 30.2366V30.2366C20.8688 30.2366 21.0739 30.0315 21.0739 29.7784L21.0739 26.1134C21.0739 25.8604 20.8688 25.6553 20.6158 25.6553V25.6553Z" fill="url(#paint1_linear_42_2199)"/>
<g filter="url(#filter1_b_42_2199)">
<circle cx="46.7292" cy="48.5617" r="19.2414" fill="#3858C9" fill-opacity="0.2"/>
<circle cx="46.7292" cy="48.5617" r="18.7833" stroke="white" stroke-opacity="0.2" stroke-width="0.916258"/>
</g>
<path fill-rule="evenodd" clip-rule="evenodd" d="M50.3943 46.7292C49.3822 46.7292 48.5617 45.9088 48.5617 44.8967V39.3992C48.5617 38.3871 47.7413 37.5667 46.7292 37.5667V37.5667C45.7172 37.5667 44.8967 38.3871 44.8967 39.3992L44.8967 44.8967C44.8967 45.9088 44.0763 46.7292 43.0642 46.7292H37.5666C36.5546 46.7292 35.7341 47.5497 35.7341 48.5617V48.5617C35.7341 49.5738 36.5546 50.3943 37.5666 50.3943H43.0642C44.0763 50.3943 44.8967 51.2147 44.8967 52.2268L44.8967 57.7243C44.8967 58.7364 45.7172 59.5568 46.7292 59.5568V59.5568C47.7413 59.5568 48.5617 58.7364 48.5617 57.7243V52.2268C48.5617 51.2147 49.3822 50.3943 50.3943 50.3943H55.8918C56.9039 50.3943 57.7243 49.5738 57.7243 48.5617V48.5617C57.7243 47.5497 56.9039 46.7292 55.8918 46.7292H50.3943Z" fill="white"/>
<defs>
<filter id="filter0_d_42_2199" x="4.58131" y="15.5764" width="42.1479" height="65.9704" filterUnits="userSpaceOnUse" color-interpolation-filters="sRGB">
<feFlood flood-opacity="0" result="BackgroundImageFix"/>
<feColorMatrix in="SourceAlpha" type="matrix" values="0 0 0 0 0 0 0 0 0 0 0 0 0 0 0 0 0 0 127 0" result="hardAlpha"/>
<feOffset dx="3.66503" dy="3.66503"/>
<feGaussianBlur stdDeviation="3.66503"/>
<feComposite in2="hardAlpha" operator="out"/>
<feColorMatrix type="matrix" values="0 0 0 0 0.219608 0 0 0 0 0.345098 0 0 0 0 0.788235 0 0 0 0.2 0"/>
<feBlend mode="normal" in2="BackgroundImageFix" result="effect1_dropShadow_42_2199"/>
<feBlend mode="normal" in="SourceGraphic" in2="effect1_dropShadow_42_2199" result="shape"/>
</filter>
<filter id="filter1_b_42_2199" x="21.9902" y="23.8228" width="49.478" height="49.478" filterUnits="userSpaceOnUse" color-interpolation-filters="sRGB">
<feFlood flood-opacity="0" result="BackgroundImageFix"/>
<feGaussianBlur in="BackgroundImageFix" stdDeviation="2.74877"/>
<feComposite in2="SourceAlpha" operator="in" result="effect1_backgroundBlur_42_2199"/>
<feBlend mode="normal" in="SourceGraphic" in2="effect1_backgroundBlur_42_2199" result="shape"/>
</filter>
<linearGradient id="paint0_linear_42_2199" x1="21.9902" y1="19.2415" x2="21.9902" y2="70.5519" gradientUnits="userSpaceOnUse">
<stop stop-color="#3D90DD"/>
<stop offset="0.678754" stop-color="#3858C9"/>
</linearGradient>
<linearGradient id="paint1_linear_42_2199" x1="21.9902" y1="25.6553" x2="21.9902" y2="30.2366" gradientUnits="userSpaceOnUse">
<stop stop-color="#3D90DD"/>
<stop offset="0.678754" stop-color="#3858C9"/>
</linearGradient>
</defs>
</svg>
