<svg width="152" height="25" viewBox="0 0 152 25" fill="none" xmlns="http://www.w3.org/2000/svg">
<path d="M12.4472 25C9.97717 24.9896 7.56562 24.2476 5.51701 22.8677C3.46833 21.4879 1.8744 19.532 0.936408 17.247C-0.00158979 14.962 -0.2416 12.4503 0.246673 10.0291C0.734946 7.6078 1.92961 5.38543 3.67986 3.64255C5.43013 1.89967 7.6575 0.714397 10.0808 0.236351C12.5041 -0.241696 15.0147 0.00891558 17.2958 0.956552C19.5768 1.90418 21.5259 3.50636 22.8971 5.56082C24.2683 7.6153 25.0001 10.0299 25.0001 12.4999C24.9874 15.8204 23.6591 19.0005 21.3062 21.3434C18.9533 23.6864 15.7677 25.0013 12.4472 25ZM9.02409 13.9663C9.68587 14.1753 10.3291 14.439 10.9472 14.7548C11.6442 15.1215 12.2906 15.5772 12.8703 16.1105L14.0241 9.95666L9.02409 13.9663Z" fill="white"/>
<path d="M12.4462 2.19241C10.4114 2.20096 8.42459 2.8122 6.73679 3.94895C5.04895 5.08573 3.73576 6.69703 2.96294 8.57949C2.19014 10.462 1.99236 12.5312 2.39459 14.526C2.79682 16.5208 3.78101 18.3517 5.22294 19.7876C6.66487 21.2235 8.49988 22.2 10.4963 22.5938C12.4928 22.9877 14.5612 22.7812 16.4404 22.0006C18.3196 21.2198 19.9254 19.8999 21.0551 18.2073C22.1848 16.5148 22.7876 14.5255 22.7877 12.4905C22.7851 11.1352 22.5156 9.79373 21.9945 8.54262C21.4734 7.29151 20.7109 6.1553 19.7505 5.199C18.7901 4.24266 17.6508 3.48491 16.3975 2.96903C15.1442 2.45315 13.8016 2.18925 12.4462 2.19241ZM14.3116 20.3079C14.0069 20.3984 13.6919 20.45 13.3741 20.4617C12.6254 18.902 11.4264 17.6025 9.93181 16.7309C8.40497 15.9788 6.73415 15.564 5.03275 15.5146C4.88736 15.2258 4.78222 14.9185 4.72025 14.6011L16.2347 5.34626C16.5336 5.46285 16.8125 5.62506 17.0617 5.82703L14.3116 20.3079Z" fill="white"/>
<path d="M14.3141 20.3077L17.0352 5.83648C16.7861 5.63446 16.5071 5.4723 16.2083 5.35571L4.72266 14.601C4.78463 14.9183 4.88977 15.2256 5.03516 15.5144C6.73656 15.5638 8.40739 15.9786 9.93422 16.7308C11.4374 17.6018 12.6436 18.9052 13.3958 20.4712C13.7075 20.4547 14.0159 20.3998 14.3141 20.3077Z" fill="#06195E"/>
<path fill-rule="evenodd" clip-rule="evenodd" d="M136.658 6.15378C135.894 6.15378 135.629 6.01436 135.355 6.79801C135.009 7.75956 134.331 11.6057 134.331 11.6057C133.793 11.6827 131.687 11.6923 130.509 11.6827C130.197 11.6827 132.802 4.38933 128.586 6.32205C127.831 6.66821 126.514 7.08167 126.514 8.0384C126.644 8.67783 127.432 8.67302 127.432 9.52399C127.432 10.524 126.341 15.8558 126.158 17.399C125.976 18.9423 126.331 18.8413 127.572 18.8413C128.331 18.8413 129.057 18.8413 129.336 18.0865C129.557 17.4615 129.932 14.9086 130.23 13.2788H134.052C134.365 13.2788 131.706 20.3894 135.952 18.4519C136.706 18.1106 138.033 17.6923 138.033 16.7404C137.903 16.1009 137.11 16.1058 137.11 15.25C137.11 14.2548 138.259 9.1586 138.442 7.61533C138.625 6.07205 137.903 6.15378 136.658 6.15378Z" fill="white"/>
<path fill-rule="evenodd" clip-rule="evenodd" d="M68.8567 15.1924C67.8279 16.0385 66.4817 16.8174 65.1067 16.8174C63.0634 16.8174 62.7413 14.8943 62.7413 13.3702C65.1452 13.1539 68.2991 12.8606 69.8519 10.7933C71.2702 8.90386 70.1068 6.63943 67.9289 6.19231C62.7413 5.11057 57.6548 9.41829 58.7365 14.8702C59.2557 17.4904 61.7798 19.0626 64.3423 18.8558C65.8423 18.7356 69.9769 17.7645 69.9769 15.6683C69.9962 14.6443 69.4529 14.702 68.8567 15.1924ZM64.3663 8.3029C64.7654 7.85097 66.1836 7.12981 66.6837 7.85578C68.174 10.0289 64.2798 11.4856 62.7413 11.7596C62.9683 10.4841 63.5288 9.29131 64.3663 8.3029Z" fill="white"/>
<path fill-rule="evenodd" clip-rule="evenodd" d="M95.1242 15.1924C94.1001 16.0385 92.7492 16.8174 91.379 16.8174C89.3309 16.8174 89.0088 14.8943 89.0088 13.3702C91.4126 13.1539 94.5665 12.8606 96.1242 10.7933C97.5376 8.90386 96.3742 6.63943 94.2011 6.19231C89.0184 5.11057 83.9318 9.41829 85.0087 14.8702C85.528 17.4904 88.052 19.0626 90.6193 18.8558C92.1145 18.7356 96.254 17.7645 96.254 15.6683C96.2684 14.6443 95.7203 14.702 95.1242 15.1924ZM90.6338 8.3029C91.0328 7.85097 92.4559 7.12981 92.9559 7.85578C94.4415 10.0289 90.552 11.4856 89.0088 11.7596C89.2395 10.4854 89.8001 9.29367 90.6338 8.3029Z" fill="white"/>
<path fill-rule="evenodd" clip-rule="evenodd" d="M122.919 15.1924C121.895 16.0385 120.544 16.8174 119.169 16.8174C117.126 16.8174 116.804 14.8943 116.804 13.3702C119.184 13.1539 122.362 12.8606 123.914 10.7933C125.333 8.90386 124.169 6.63943 121.991 6.19231C116.804 5.11057 111.717 9.41829 112.799 14.8702C113.318 17.4904 115.842 19.0626 118.405 18.8558C119.905 18.7356 124.039 17.7645 124.039 15.6683C124.059 14.6443 123.515 14.702 122.919 15.1924ZM118.429 8.3029C118.828 7.85097 120.246 7.12981 120.746 7.85578C122.237 10.0289 118.342 11.4856 116.804 11.7596C117.031 10.4841 117.591 9.29131 118.429 8.3029Z" fill="white"/>
<path fill-rule="evenodd" clip-rule="evenodd" d="M80.826 11.9903C82.6337 11.1442 84.2298 10.0961 83.4366 7.85567C82.9798 6.57682 80.9269 6.04797 79.7058 6.02394C75.5663 5.9374 72.8548 7.75952 71.7346 11.7932C70.6817 15.5961 73.4942 19.2163 77.3308 18.9759C80.1241 18.8028 83.1 17.5336 83.1 14.2884C83.0986 13.6834 82.8596 13.1032 82.4342 12.6732C82.0087 12.2432 81.4308 11.9979 80.826 11.9903ZM79.5087 7.92298C81.701 9.88934 76.9558 11.524 75.1096 11.8268C75.725 8.5576 78.8356 7.31721 79.5087 7.92298ZM76.4317 16.5192C74.5086 16.0048 75.0279 13.1538 75.0279 13.1538C76.4702 12.9903 79.7875 12.6345 79.8356 14.524C79.8933 16.0336 77.7731 16.875 76.4317 16.5192Z" fill="white"/>
<path fill-rule="evenodd" clip-rule="evenodd" d="M149.606 6.41316C147.14 5.45161 144.039 6.23046 142.13 8.0574C138.255 11.7738 138.856 18.8892 145.015 18.9036C146.279 18.9036 151.793 17.8459 151 15.1969C150.736 14.317 149.524 15.6295 148.938 15.918C148.149 16.3026 146.14 17.1824 145.212 16.6344C142.841 15.2401 143.716 10.5863 144.981 8.89394C145.88 7.69682 146.606 7.45162 147.466 7.66316C148.327 7.8747 147.313 9.98048 148.673 10.4997C149.635 10.8651 151.197 10.6295 151.457 9.53817C151.813 8.10547 150.765 6.86028 149.606 6.41316Z" fill="white"/>
<path fill-rule="evenodd" clip-rule="evenodd" d="M53.7061 10.3749C53.8455 9.36051 54.1868 8.82205 53.533 8.45185C51.8166 7.53358 50.6484 10.3749 50.1676 11.7596C48.6003 16.399 48.3791 18.8606 46.4417 18.8558C44.9368 18.8558 43.7397 17.8269 44.1772 16.5625C44.4272 15.8413 46.1772 15.9519 46.7397 15.0817C48.5955 12.2259 48.206 7.83166 52.0522 6.42781C55.4176 5.19222 57.5282 7.4855 57.0619 10.7163C56.8551 12.1586 56.2349 13.6442 56.2349 15.1105C56.2349 16.4182 58.1965 16.5529 56.3792 17.7981C55.5619 18.3558 53.2638 19.6731 52.6868 18.0961C52.4729 17.2082 52.4729 16.2821 52.6868 15.3942L53.6965 10.3605" fill="white"/>
<path fill-rule="evenodd" clip-rule="evenodd" d="M110.394 7.79343C108.471 4.96169 104.904 5.904 103.183 8.40401C103.212 6.81266 102.736 5.51938 100.755 6.25496C99.9808 6.55304 98.6731 7.01458 98.6539 7.97132C98.7741 8.60594 99.5626 8.60594 99.5481 9.4569C99.5481 9.73094 98.8558 15.0579 98.8558 15.0579C98.8558 15.0579 98.1347 20.4233 97.0962 21.7647C96.1347 22.9377 96.4039 23.5579 97.6347 23.5724C98.7645 23.5724 100.202 23.5724 100.736 23.5724C102.894 23.5724 101.048 22.0147 101.216 20.6877C101.346 19.6348 101.673 18.1637 101.673 18.1637C102.384 18.64 103.222 18.8913 104.077 18.8848C105.746 18.8383 107.338 18.1735 108.543 17.0194C110.947 14.8079 112.351 10.654 110.394 7.79343ZM106.649 13.7358C106.298 14.8271 105.726 16.0819 104.688 16.5964C103.774 17.0771 102.841 16.5964 101.928 16.3271C102.091 15.1829 102.75 11.3175 102.817 11.0002C103.298 9.91844 104.019 8.48094 105.274 8.11555C108.135 7.3367 107.043 12.505 106.649 13.7358Z" fill="white"/>
<path fill-rule="evenodd" clip-rule="evenodd" d="M40.0767 8.55771C41.1536 8.02406 43.6248 9.59137 43.6248 7.59617C43.6248 5.1202 40.3459 6.15386 39.144 6.94232C37.4901 8.04329 36.1199 9.82695 35.1103 11.5C35.1536 11.2548 35.2065 10.7981 35.2545 10.5385C35.6536 8.57695 36.2497 4.86058 33.0959 6.3029C32.3411 6.64905 31.0238 7.06252 31.0238 8.01925C31.1488 8.65868 31.942 8.65387 31.942 9.50484C31.925 9.85123 31.8881 10.1964 31.8314 10.5385C31.6968 11.3318 31.4949 12.3991 31.2882 13.4952C31.0093 15.0241 30.7064 16.6683 30.6247 17.3799C30.4372 18.9472 30.7978 18.8222 32.0334 18.8222C32.793 18.8222 33.5238 18.8222 33.7978 18.0674C33.9757 17.5866 34.2786 15.7789 34.5382 14.2597C34.61 13.8876 34.7586 13.5346 34.9747 13.2234C35.1908 12.9121 35.4695 12.6493 35.793 12.452C36.1455 14.145 36.7723 15.769 37.6488 17.2597C38.6488 18.7741 39.8315 19.351 41.495 18.3895C42.1969 17.9808 43.6392 16.8655 42.1392 16.0482C39.0767 14.3655 38.7305 11.7693 38.3555 10.7596C38.0046 9.81734 39.2113 8.99522 40.0767 8.55771Z" fill="white"/>
</svg>
