<svg width="155" height="25" viewBox="0 0 155 25" fill="none" xmlns="http://www.w3.org/2000/svg">
<path d="M12.7324 25C10.2058 24.9896 7.73898 24.2476 5.64342 22.8677C3.54781 21.4879 1.91735 19.532 0.957864 17.247C-0.00162622 14.962 -0.247136 12.4503 0.252326 10.0291C0.751786 7.6078 1.97383 5.38543 3.76418 3.64255C5.55455 1.89967 7.83296 0.714397 10.3118 0.236351C12.7906 -0.241696 15.3588 0.00891558 17.6921 0.956552C20.0254 1.90418 22.0191 3.50636 23.4217 5.56082C24.8244 7.6153 25.5729 10.0299 25.573 12.4999C25.5599 15.8204 24.2012 19.0005 21.7944 21.3434C19.3876 23.6864 16.129 25.0013 12.7324 25ZM9.23086 13.9663C9.90781 14.1753 10.5658 14.439 11.198 14.7548C11.9111 15.1215 12.5723 15.5772 13.1652 16.1105L14.3455 9.95666L9.23086 13.9663Z" fill="#F24052"/>
<path d="M12.7324 2.19241C10.6509 2.20096 8.61856 2.8122 6.89209 3.94895C5.16557 5.08573 3.82229 6.69703 3.03177 8.57949C2.24126 10.462 2.03895 12.5312 2.45039 14.526C2.86184 16.5208 3.86859 18.3517 5.34355 19.7876C6.81852 21.2235 8.69557 22.2 10.7378 22.5938C12.78 22.9877 14.8957 22.7812 16.818 22.0006C18.7403 21.2198 20.3829 19.8999 21.5385 18.2073C22.694 16.5148 23.3107 14.5255 23.3108 12.4905C23.3082 11.1352 23.0325 9.79373 22.4994 8.54262C21.9663 7.29151 21.1863 6.1553 20.204 5.199C19.2216 4.24266 18.0562 3.48491 16.7742 2.96903C15.4921 2.45315 14.1188 2.18925 12.7324 2.19241ZM14.6405 20.3079C14.3288 20.3984 14.0065 20.45 13.6815 20.4617C12.9157 18.902 11.6892 17.6025 10.1603 16.7309C8.59849 15.9788 6.88939 15.564 5.149 15.5146C5.00028 15.2258 4.89273 14.9185 4.82934 14.6011L16.6076 5.34626C16.9133 5.46285 17.1987 5.62506 17.4535 5.82703L14.6405 20.3079Z" fill="#F24052"/>
<path d="M14.6404 20.3075L17.424 5.83624C17.1691 5.63422 16.8838 5.47206 16.5781 5.35547L4.82928 14.6007C4.89268 14.918 5.00023 15.2254 5.14895 15.5142C6.88933 15.5635 8.59844 15.9784 10.1603 16.7305C11.6979 17.6016 12.9317 18.9049 13.7011 20.4709C14.02 20.4545 14.3354 20.3996 14.6404 20.3075Z" fill="white"/>
<path fill-rule="evenodd" clip-rule="evenodd" d="M139.791 6.15378C139.009 6.15378 138.738 6.01436 138.458 6.79801C138.104 7.75956 137.41 11.6057 137.41 11.6057C136.86 11.6827 134.706 11.6923 133.501 11.6827C133.181 11.6827 135.846 4.38933 131.534 6.32205C130.761 6.66821 129.414 7.08167 129.414 8.0384C129.547 8.67783 130.353 8.67302 130.353 9.52399C130.353 10.524 129.237 15.8558 129.05 17.399C128.863 18.9423 129.227 18.8413 130.496 18.8413C131.273 18.8413 132.015 18.8413 132.301 18.0865C132.527 17.4615 132.911 14.9086 133.215 13.2788H137.125C137.445 13.2788 134.725 20.3894 139.068 18.4519C139.84 18.1106 141.197 17.6923 141.197 16.7404C141.064 16.1009 140.253 16.1058 140.253 15.25C140.253 14.2548 141.428 9.1586 141.615 7.61533C141.802 6.07205 141.064 6.15378 139.791 6.15378Z" fill="#F24052"/>
<path fill-rule="evenodd" clip-rule="evenodd" d="M70.4337 15.1928C69.3812 16.039 68.0042 16.8178 66.5977 16.8178C64.5076 16.8178 64.1781 14.8948 64.1781 13.3707C66.6371 13.1544 69.8632 12.8611 71.4517 10.7938C72.9024 8.90435 71.7123 6.63992 69.4845 6.1928C64.1781 5.11106 58.975 9.41877 60.0815 14.8707C60.6127 17.4909 63.1946 19.0631 65.8158 18.8563C67.3502 18.7361 71.5795 17.765 71.5795 15.6688C71.5992 14.6448 71.0435 14.7025 70.4337 15.1928ZM65.8404 8.30338C66.2486 7.85146 67.6993 7.1303 68.2108 7.85627C69.7353 10.0294 65.7518 11.4861 64.1781 11.7601C64.4102 10.4845 64.9837 9.2918 65.8404 8.30338Z" fill="#F24052"/>
<path fill-rule="evenodd" clip-rule="evenodd" d="M97.3053 15.1928C96.2578 16.039 94.8758 16.8178 93.4742 16.8178C91.3792 16.8178 91.0497 14.8948 91.0497 13.3707C93.5087 13.1544 96.7348 12.8611 98.3282 10.7938C99.774 8.90435 98.5839 6.63992 96.361 6.1928C91.0596 5.11106 85.8565 9.41877 86.9581 14.8707C87.4892 17.4909 90.0711 19.0631 92.6972 18.8563C94.2267 18.7361 98.461 17.765 98.461 15.6688C98.4757 14.6448 97.9151 14.7025 97.3053 15.1928ZM92.712 8.30338C93.1202 7.85146 94.5758 7.1303 95.0873 7.85627C96.6069 10.0294 92.6284 11.4861 91.0497 11.7601C91.2858 10.4858 91.8592 9.29416 92.712 8.30338Z" fill="#F24052"/>
<path fill-rule="evenodd" clip-rule="evenodd" d="M125.735 15.1928C124.688 16.039 123.306 16.8178 121.899 16.8178C119.809 16.8178 119.48 14.8948 119.48 13.3707C121.914 13.1544 125.165 12.8611 126.753 10.7938C128.204 8.90435 127.014 6.63992 124.786 6.1928C119.48 5.11106 114.277 9.41877 115.383 14.8707C115.914 17.4909 118.496 19.0631 121.117 18.8563C122.652 18.7361 126.881 17.765 126.881 15.6688C126.901 14.6448 126.345 14.7025 125.735 15.1928ZM121.142 8.30338C121.55 7.85146 123.001 7.1303 123.512 7.85627C125.037 10.0294 121.053 11.4861 119.48 11.7601C119.712 10.4845 120.285 9.2918 121.142 8.30338Z" fill="#F24052"/>
<path fill-rule="evenodd" clip-rule="evenodd" d="M82.6793 11.9908C84.5284 11.1446 86.1612 10.0966 85.3497 7.85616C84.8825 6.57731 82.7826 6.04846 81.5334 6.02442C77.2991 5.93788 74.5255 7.76001 73.3796 11.7937C72.3026 15.5966 75.1795 19.2168 79.104 18.9764C81.9613 18.8033 85.0055 17.5341 85.0055 14.2889C85.004 13.6839 84.7596 13.1037 84.3243 12.6737C83.8891 12.2437 83.298 11.9983 82.6793 11.9908ZM81.3318 7.92347C83.5743 9.88983 78.7204 11.5245 76.8319 11.8273C77.4614 8.55809 80.6433 7.3177 81.3318 7.92347ZM78.1844 16.5197C76.2172 16.0052 76.7483 13.1543 76.7483 13.1543C78.2237 12.9908 81.617 12.635 81.6662 14.5245C81.7252 16.0341 79.5564 16.8754 78.1844 16.5197Z" fill="#F24052"/>
<path fill-rule="evenodd" clip-rule="evenodd" d="M153.035 6.4134C150.512 5.45186 147.34 6.23071 145.387 8.05764C141.424 11.774 142.038 18.8894 148.338 18.9038C149.631 18.9038 155.272 17.8461 154.461 15.1971C154.19 14.3173 152.951 15.6298 152.351 15.9183C151.545 16.3029 149.489 17.1827 148.54 16.6346C146.115 15.2404 147.01 10.5865 148.304 8.89418C149.223 7.69706 149.966 7.45187 150.846 7.66341C151.726 7.87495 150.689 9.98073 152.081 10.5C153.064 10.8653 154.662 10.6298 154.928 9.53842C155.292 8.10572 154.22 6.86052 153.035 6.4134Z" fill="#F24052"/>
<path fill-rule="evenodd" clip-rule="evenodd" d="M54.9378 10.3749C55.0804 9.36051 55.4296 8.82205 54.7608 8.45185C53.0051 7.53358 51.81 10.3749 51.3182 11.7596C49.715 16.399 49.4888 18.8606 47.5069 18.8558C45.9676 18.8558 44.7431 17.8269 45.1906 16.5625C45.4463 15.8413 47.2365 15.9519 47.8118 15.0817C49.7101 12.2259 49.3117 7.83166 53.246 6.42781C56.6886 5.19222 58.8475 7.4855 58.3705 10.7163C58.159 12.1586 57.5246 13.6442 57.5246 15.1105C57.5246 16.4182 59.5311 16.5529 57.6721 17.7981C56.8361 18.3558 54.4854 19.6731 53.8952 18.0961C53.6764 17.2082 53.6764 16.2821 53.8952 15.3942L54.928 10.3605" fill="#F24052"/>
<path fill-rule="evenodd" clip-rule="evenodd" d="M112.924 7.79319C110.957 4.96144 107.308 5.90376 105.547 8.40377C105.577 6.81242 105.09 5.51914 103.064 6.25472C102.272 6.5528 100.934 7.01434 100.915 7.97108C101.038 8.60569 101.844 8.60569 101.829 9.45666C101.829 9.7307 101.121 15.0576 101.121 15.0576C101.121 15.0576 100.384 20.4231 99.3214 21.7644C98.3378 22.9375 98.6132 23.5577 99.8722 23.5721C101.028 23.5721 102.498 23.5721 103.044 23.5721C105.252 23.5721 103.364 22.0144 103.536 20.6875C103.669 19.6346 104.003 18.1634 104.003 18.1634C104.73 18.6397 105.587 18.891 106.462 18.8846C108.169 18.8381 109.797 18.1733 111.031 17.0192C113.49 14.8076 114.926 10.6538 112.924 7.79319ZM109.093 13.7355C108.734 14.8269 108.149 16.0817 107.087 16.5961C106.152 17.0769 105.198 16.5961 104.264 16.3269C104.431 15.1826 105.105 11.3172 105.174 10.9999C105.665 9.9182 106.403 8.48069 107.687 8.11531C110.613 7.33646 109.496 12.5048 109.093 13.7355Z" fill="#F24052"/>
<path fill-rule="evenodd" clip-rule="evenodd" d="M40.9953 8.55796C42.0969 8.0243 44.6247 9.59162 44.6247 7.59642C44.6247 5.12044 41.2707 6.1541 40.0412 6.94257C38.3495 8.04353 36.9479 9.8272 35.9151 11.5003C35.9594 11.2551 36.0135 10.7984 36.0627 10.5387C36.4709 8.57719 37.0807 4.86083 33.8546 6.30314C33.0824 6.6493 31.735 7.06276 31.735 8.0195C31.8628 8.65892 32.6743 8.65411 32.6743 9.50508C32.6569 9.85148 32.6191 10.1966 32.5612 10.5387C32.4235 11.332 32.2169 12.3993 32.0054 13.4955C31.7202 15.0243 31.4104 16.6686 31.3268 17.3801C31.135 18.9474 31.5038 18.8224 32.7677 18.8224C33.5447 18.8224 34.2922 18.8224 34.5726 18.0676C34.7545 17.5869 35.0644 15.7791 35.3299 14.2599C35.4033 13.8878 35.5554 13.5349 35.7765 13.2236C35.9975 12.9123 36.2826 12.6496 36.6135 12.4522C36.974 14.1452 37.6153 15.7692 38.5118 17.2599C39.5347 18.7744 40.7445 19.3513 42.4461 18.3897C43.1641 17.9811 44.6395 16.8657 43.1051 16.0484C39.9724 14.3657 39.6183 11.7695 39.2347 10.7599C38.8757 9.81758 40.1101 8.99546 40.9953 8.55796Z" fill="#F24052"/>
</svg>
