<svg width="155" height="47" viewBox="0 0 155 47" fill="none" xmlns="http://www.w3.org/2000/svg">
<path d="M149.504 0H5.49645C2.46085 0 0 2.02333 0 4.51923V42.4808C0 44.9767 2.46085 47 5.49645 47H149.504C152.539 47 155 44.9767 155 42.4808V4.51923C155 2.02333 152.539 0 149.504 0Z" fill="black"/>
<path d="M19.44 12.0572C19.1343 12.4302 18.9784 12.9096 19.004 13.3975V34.5734C18.9724 35.0619 19.1291 35.5436 19.44 35.9137L19.505 35.9902L31 24.129V23.8419L19.505 11.9902L19.44 12.0572Z" fill="url(#paint0_linear_46_2440)"/>
<path d="M35.0394 27.9902L31 24.1304V23.85L35.0394 19.9902L35.1281 20.0463L39.9655 22.6444C41.3448 23.3828 41.3448 24.5977 39.9655 25.3454L35.1478 27.9435L35.0394 27.9902Z" fill="url(#paint1_linear_46_2440)"/>
<path d="M35 27.925L30.952 23.9902L19 35.608C19.5592 36.0919 20.394 36.1193 20.9856 35.6733L35 27.925Z" fill="url(#paint2_linear_46_2440)"/>
<path d="M35 19.7268L20.9856 11.3415C20.3975 10.8512 19.56 10.8767 19 11.4021L30.952 23.9902L35 19.7268Z" fill="url(#paint3_linear_46_2440)"/>
<path opacity="0.2" d="M34.8849 27.9902L20.9856 35.546C20.4178 35.9551 19.6348 35.9551 19.0671 35.546L19 35.6101L19.0671 35.6834C19.6348 36.0925 20.4178 36.0925 20.9856 35.6834L35 28.0727L34.8849 27.9902Z" fill="black"/>
<path opacity="0.12" d="M19.8168 35.8096C19.2282 35.2977 18.9398 34.6469 19.0105 33.9902V34.1838C18.948 34.8422 19.2577 35.4915 19.8717 35.9902L20 35.8999L19.8168 35.8096Z" fill="black"/>
<path opacity="0.12" d="M39.9505 25.2225L35 27.9049L35.0891 27.9902L39.9505 25.3552C40.535 25.1186 40.9377 24.5949 41 23.9902C40.8745 24.5372 40.4849 24.9947 39.9505 25.2225Z" fill="black"/>
<path opacity="0.25" d="M21.4201 11.4758L39.99 22.6761C40.5044 22.919 40.8792 23.4069 41 23.9902C40.9401 23.3454 40.5526 22.7869 39.99 22.5346L21.4201 11.3343C20.0957 10.5256 19 11.1927 19 12.8101V12.9617C19.0286 11.3444 20.0957 10.6772 21.4201 11.4758Z" fill="white"/>
<path fill-rule="evenodd" clip-rule="evenodd" d="M55.9541 26.239V28.0885H60.3289C60.2603 28.9597 59.9034 29.7817 59.3162 30.421C58.4288 31.3384 57.1997 31.8312 55.9338 31.7773C53.2492 31.7773 51.073 29.5692 51.073 26.8453C51.073 24.1215 53.2492 21.9133 55.9338 21.9133C57.1698 21.8947 58.3632 22.3709 59.2554 23.2387L60.5415 21.9338C59.3223 20.7103 57.6688 20.0362 55.9541 20.0637C53.5024 19.967 51.1949 21.2389 49.9407 23.3786C48.6864 25.5182 48.6864 28.1827 49.9407 30.3223C51.1949 32.462 53.5024 33.7339 55.9541 33.6371C57.7062 33.7081 59.4049 33.0164 60.6225 31.7362C61.686 30.5509 62.2527 28.9919 62.2023 27.3898C62.206 27.0043 62.1755 26.6191 62.1112 26.239H55.9541ZM67.1746 24.893C64.792 24.8988 62.8651 26.863 62.8707 29.2804C62.8764 31.6979 64.8123 33.653 67.1948 33.6473C69.5773 33.6417 71.5043 31.6774 71.4987 29.2599C71.5154 28.0931 71.0645 26.9693 70.2494 26.1461C69.4342 25.3228 68.3245 24.8706 67.1746 24.893ZM72.3088 29.2804C72.3033 26.863 74.2302 24.8988 76.6127 24.893C77.7626 24.8706 78.8723 25.3228 79.6875 26.1461C80.5026 26.9693 80.9536 28.0931 80.9368 29.2599C80.9424 31.6774 79.0155 33.6417 76.633 33.6473C74.2504 33.653 72.3145 31.6979 72.3088 29.2804ZM74.0729 30.4092C74.5354 31.3912 75.5425 31.9868 76.6127 31.9109C77.2844 31.895 77.9214 31.6047 78.3789 31.1055C78.8366 30.6063 79.0762 29.9408 79.0431 29.2599C79.0405 28.1715 78.3824 27.1952 77.3836 26.7981C76.3847 26.4011 75.2481 26.6638 74.5175 27.4608C73.7867 28.2578 73.6105 29.427 74.0729 30.4092ZM64.6348 30.4092C65.0973 31.3912 66.1044 31.9868 67.1746 31.9109C67.8463 31.895 68.4832 31.6047 68.9408 31.1055C69.3984 30.6063 69.6379 29.9408 69.605 29.2599C69.6024 28.1715 68.9442 27.1952 67.9454 26.7981C66.9465 26.4011 65.81 26.6638 65.0793 27.4608C64.3486 28.2578 64.1724 29.427 64.6348 30.4092ZM98.1524 24.893C99.8313 24.9558 101.298 26.0635 101.839 27.6775L102.051 28.1296L96.289 30.5443C96.6479 31.3809 97.4767 31.9075 98.3751 31.8698C99.2409 31.8783 100.046 31.4208 100.492 30.6676L101.96 31.6951C100.914 33.3028 98.9497 34.0201 97.1339 33.4575C95.318 32.8947 94.0838 31.1863 94.1016 29.2599C94.0317 28.1262 94.4273 27.0135 95.1947 26.1862C95.9621 25.3589 97.0327 24.8909 98.1524 24.893ZM95.965 29.1366C95.9236 28.4918 96.1396 27.8574 96.5644 27.3761C96.9892 26.8947 97.5871 26.6072 98.2232 26.5781C98.8904 26.5368 99.5169 26.9053 99.8131 27.5131L95.965 29.1366ZM93.1801 33.3699H91.2864V20.5261H93.1801V33.3699ZM88.1876 25.8691H88.1167C87.5443 25.2076 86.7159 24.8325 85.8483 24.8416C83.5498 24.9548 81.7432 26.8787 81.7432 29.2137C81.7432 31.5487 83.5498 33.4727 85.8483 33.5857C86.7176 33.6034 87.5493 33.2267 88.1167 32.5582H88.1876V33.185C88.1876 34.8598 87.3066 35.7537 85.8888 35.7537C84.9202 35.7321 84.0604 35.1193 83.7116 34.2022L82.071 34.8906C82.692 36.473 84.2104 37.5028 85.8888 37.4799C88.1066 37.4799 89.9395 36.1544 89.9395 32.9281V25.1499H88.1876V25.8691ZM83.5603 29.265C83.5603 30.6651 84.6332 31.8237 86.0104 31.9109C86.6685 31.8852 87.2877 31.5874 87.7238 31.0866C88.16 30.5859 88.3751 29.9258 88.3193 29.2599C88.3693 28.5964 88.1518 27.9408 87.7165 27.443C87.2813 26.9451 86.6656 26.6479 86.0104 26.6192C84.6332 26.7063 83.5603 27.8651 83.5603 29.265ZM110.71 20.5261H106.173V33.3699H108.066V28.4995H110.71C112.181 28.6068 113.588 27.8712 114.355 26.5935C115.123 25.3158 115.123 23.7099 114.355 22.4322C113.588 21.1544 112.181 20.419 110.71 20.5261ZM108.066 26.6911H110.71L110.75 26.7117C111.525 26.7117 112.24 26.2926 112.627 25.6123C113.014 24.932 113.014 24.0937 112.627 23.4134C112.24 22.7331 111.525 22.314 110.75 22.314H108.066V26.6911ZM122.396 24.8519C120.986 24.7638 119.661 25.5354 119.024 26.8144L120.695 27.5234C121.04 26.8925 121.717 26.5262 122.426 26.5884C122.912 26.5309 123.399 26.6737 123.781 26.9847C124.162 27.2958 124.403 27.7491 124.452 28.2427V28.366C123.843 28.0412 123.164 27.8719 122.477 27.8728C120.674 27.8728 118.831 28.9003 118.831 30.7703C118.868 31.5734 119.223 32.3274 119.817 32.8599C120.41 33.3924 121.191 33.658 121.981 33.596C122.948 33.6503 123.869 33.1712 124.391 32.3424H124.452V33.3699H126.274V28.4276C126.274 26.1774 124.593 24.8725 122.436 24.8725L122.396 24.8519ZM120.684 30.8012C120.684 31.5718 121.545 31.8903 122.163 31.8903L122.203 31.9109C123.348 31.8877 124.3 31.0098 124.431 29.8559C123.906 29.5583 123.311 29.4093 122.71 29.4243C121.758 29.4243 120.684 29.7737 120.684 30.8012ZM132.918 25.1499L130.75 30.719H130.69L128.442 25.1499H126.416L129.788 32.9384L127.864 37.2641H129.839L135.024 25.1499H132.918ZM117.788 33.3699H115.905V20.5261H117.788V33.3699Z" fill="white"/>
<path fill-rule="evenodd" clip-rule="evenodd" d="M49.5134 17.2082H50.2527V15.9033H54.8604V17.198H55.6097V15.1429H54.9312V9.73828H50.8805V12.8208C50.9833 13.6706 50.713 14.5235 50.1413 15.1532H49.5134V17.2082ZM51.0831 15.1738C51.5044 14.4662 51.7055 13.6462 51.6603 12.8208V10.4986H54.1211V15.1738H51.0831Z" fill="white"/>
<path d="M50.2529 17.2075V17.3102H50.3541V17.2075H50.2529ZM49.5136 17.2075H49.4124V17.3102H49.5136V17.2075ZM50.2529 15.9025V15.7998H50.1516V15.9025H50.2529ZM54.8606 15.9025H54.9618V15.7998H54.8606V15.9025ZM54.8606 17.1972H54.7593V17.2999H54.8606V17.1972ZM55.6099 17.1972V17.2999H55.7112V17.1972H55.6099ZM55.6099 15.1422H55.7112V15.0394H55.6099V15.1422ZM54.9314 15.1422H54.8302V15.2449H54.9314V15.1422ZM54.9314 9.73752H55.0327V9.63477H54.9314V9.73752ZM50.8807 9.73752V9.63477H50.7795V9.73752H50.8807ZM50.8807 12.82H50.7787L50.7802 12.8326L50.8807 12.82ZM50.1415 15.1525V15.2552H50.1858L50.2159 15.2221L50.1415 15.1525ZM49.5136 15.1525V15.0497H49.4124V15.1525H49.5136ZM51.6605 12.82H51.559L51.5593 12.8258L51.6605 12.82ZM51.0833 15.173L50.9966 15.1199L50.9038 15.2758H51.0833V15.173ZM51.6605 10.4979V10.3951H51.5592V10.4979H51.6605ZM54.1213 10.4979H54.2226V10.3951H54.1213V10.4979ZM54.1213 15.173V15.2758H54.2226V15.173H54.1213ZM50.2529 17.1047H49.5136V17.3102H50.2529V17.1047ZM50.1516 15.9025V17.2075H50.3541V15.9025H50.1516ZM54.8606 15.7998H50.2529V16.0053H54.8606V15.7998ZM54.9618 17.1972V15.9025H54.7593V17.1972H54.9618ZM55.6099 17.0944H54.8606V17.2999H55.6099V17.0944ZM55.5087 15.1422V17.1972H55.7112V15.1422H55.5087ZM54.9314 15.2449H55.6099V15.0394H54.9314V15.2449ZM54.8302 9.73752V15.1422H55.0327V9.73752H54.8302ZM50.8807 9.84027H54.9314V9.63477H50.8807V9.84027ZM50.982 12.82V9.73752H50.7795L50.7787 12.82H50.982ZM50.2159 15.2221C50.8078 14.5702 51.0876 13.6873 50.9812 12.8075L50.7802 12.8326C50.8794 13.6525 50.6186 14.4752 50.0669 15.0829L50.2159 15.2221ZM49.5136 15.2552H50.1415V15.0497H49.5136V15.2552ZM49.6149 17.2075V15.1525H49.4124V17.2075H49.6149ZM51.5593 12.8258C51.6035 13.6305 51.4073 14.43 50.9966 15.1199L51.17 15.2261C51.6018 14.5009 51.8079 13.6603 51.7616 12.8144L51.5593 12.8258ZM51.5592 10.4979L51.559 12.82H51.7618V10.4979H51.5592ZM54.1213 10.3951H51.6605V10.6006H54.1213V10.3951ZM54.2226 15.173V10.4979H54.02V15.173H54.2226ZM51.0833 15.2758H54.1213V15.0703H51.0833V15.2758Z" fill="white"/>
<path fill-rule="evenodd" clip-rule="evenodd" d="M59.473 16.0367C60.307 16.0367 61.1068 15.6998 61.6958 15.1006C62.2948 14.4999 62.6213 13.6738 62.5971 12.8195C62.6118 11.9671 62.2868 11.1446 61.6958 10.5385C61.1068 9.93935 60.307 9.60254 59.473 9.60254C58.6388 9.60254 57.8391 9.93935 57.2502 10.5385C56.0465 11.814 56.0465 13.8252 57.2502 15.1006C57.8391 15.6998 58.6388 16.0367 59.473 16.0367ZM59.4679 15.2856C58.8461 15.2944 58.2486 15.0414 57.8173 14.5869C56.9255 13.5824 56.9255 12.0568 57.8173 11.0522C58.2486 10.5978 58.8461 10.3448 59.4679 10.3535C60.0904 10.3411 60.6894 10.5946 61.1186 11.0522C62.0245 12.0512 62.0245 13.588 61.1186 14.5869C60.6894 15.0446 60.0904 15.2981 59.4679 15.2856Z" fill="white"/>
<path d="M62.5971 12.8198L62.4957 12.818L62.4958 12.8227L62.5971 12.8198ZM57.2502 10.5387L57.1785 10.4662L57.1769 10.4677L57.2502 10.5387ZM57.2502 15.1008L57.1769 15.1719L57.1785 15.1735L57.2502 15.1008ZM57.8173 14.5871L57.7419 14.6559L57.7442 14.6584L57.8173 14.5871ZM59.4679 15.2858L59.47 15.183L59.4665 15.1831L59.4679 15.2858ZM57.8173 11.0525L57.7442 10.9811L57.742 10.9837L57.8173 11.0525ZM59.4679 10.3538L59.4665 10.4566L59.47 10.4565L59.4679 10.3538ZM61.1186 11.0525L61.1931 10.9829L61.1919 10.9817L61.1186 11.0525ZM61.1186 14.5871L61.1919 14.658L61.1931 14.6567L61.1186 14.5871ZM61.6246 15.0278C61.0546 15.6077 60.2801 15.9341 59.473 15.9341V16.1396C60.334 16.1396 61.1595 15.792 61.7675 15.1735L61.6246 15.0278ZM62.4958 12.8227C62.5192 13.6485 62.2037 14.4471 61.6246 15.0278L61.7675 15.1735C62.3866 14.5527 62.7233 13.6996 62.6983 12.8169L62.4958 12.8227ZM61.6238 10.611C62.1956 11.1974 62.5099 11.9932 62.4957 12.818L62.6984 12.8216C62.7135 11.9414 62.378 11.0923 61.7678 10.4665L61.6238 10.611ZM59.473 9.7055C60.2801 9.7055 61.0538 10.0311 61.6238 10.611L61.7678 10.4665C61.1598 9.84791 60.334 9.5 59.473 9.5V9.7055ZM57.3219 10.6113C57.8918 10.0314 58.6658 9.7055 59.473 9.7055V9.5C58.612 9.5 57.7864 9.8476 57.1785 10.4662L57.3219 10.6113ZM57.3233 15.0298C56.1571 13.794 56.1571 11.8456 57.3233 10.6098L57.1769 10.4677C55.9358 11.7829 55.9358 13.8567 57.1769 15.1719L57.3233 15.0298ZM59.473 15.9341C58.6658 15.9341 57.8918 15.6082 57.3219 15.0283L57.1785 15.1735C57.7864 15.792 58.612 16.1396 59.473 16.1396V15.9341ZM57.7442 14.6584C58.195 15.1334 58.8195 15.3977 59.4693 15.3885L59.4665 15.1831C58.8727 15.1914 58.302 14.9499 57.8902 14.5159L57.7442 14.6584ZM57.742 10.9837C56.8155 12.0273 56.8154 13.6123 57.7419 14.6559L57.8925 14.5183C57.0355 13.5529 57.0355 12.0866 57.8925 11.1213L57.742 10.9837ZM59.4693 10.2511C58.8195 10.242 58.195 10.5061 57.7442 10.9811L57.8902 11.1238C58.302 10.6897 58.8727 10.4483 59.4665 10.4566L59.4693 10.2511ZM61.1919 10.9817C60.7432 10.5032 60.1168 10.238 59.4659 10.2511L59.47 10.4565C60.064 10.4446 60.6356 10.6866 61.0452 11.1234L61.1919 10.9817ZM61.1931 14.6567C62.1347 13.6184 62.1347 12.0212 61.1931 10.9829L61.0441 11.1221C61.9144 12.0816 61.9144 13.5579 61.0441 14.5175L61.1931 14.6567ZM59.4659 15.3885C60.1168 15.4017 60.7432 15.1365 61.1919 14.658L61.0452 14.5163C60.6356 14.9531 60.064 15.1949 59.47 15.183L59.4659 15.3885Z" fill="white"/>
<path d="M66.5263 16.036C65.6984 16.0492 64.901 15.7189 64.3186 15.1215C63.1047 13.8344 63.1047 11.8055 64.3186 10.5183C64.9107 9.91052 65.7249 9.57926 66.5668 9.60381C67.4259 9.57915 68.2481 9.9584 68.7947 10.6313L68.2579 11.1656C67.8543 10.639 67.2237 10.344 66.5668 10.3744C65.9368 10.3582 65.3282 10.6074 64.8857 11.0629C63.9818 12.0705 63.9818 13.6105 64.8857 14.618C65.3282 15.0736 65.9368 15.3228 66.5668 15.3065C67.2712 15.2862 67.9307 14.9516 68.3693 14.392L68.9162 14.9366C68.6388 15.2739 68.2936 15.5472 67.9035 15.738C67.4727 15.9423 67.0017 16.0442 66.5263 16.036Z" fill="white" stroke="white" stroke-width="0.184242"/>
<path d="M72.0961 15.9023H71.3163V10.4977H69.615V9.7373H73.7872V10.4977H72.0961V15.9023Z" fill="white" stroke="white" stroke-width="0.184242"/>
<path d="M79.1546 9.7373L76.8558 14.9365C76.743 15.3584 76.4533 15.7087 76.0633 15.8947C75.6734 16.0806 75.2226 16.0835 74.8304 15.9023L75.033 15.1728C75.1569 15.2435 75.296 15.2822 75.438 15.2858C75.5879 15.2934 75.7365 15.254 75.8634 15.1728C75.9864 15.0689 76.0807 14.9344 76.1368 14.7823L76.3596 14.2891L74.3342 9.7373H75.2558L76.7545 13.2719L78.233 9.7373H79.1546Z" fill="white" stroke="white" stroke-width="0.184242"/>
<path d="M80.0354 15.9023V9.7373H84.4304V15.9023H83.6507V10.4977H80.8152V15.9023H80.0354Z" fill="white" stroke="white" stroke-width="0.184242"/>
<path d="M85.8179 15.9023V9.7373H86.5976V12.378H89.6357V9.7373H90.4256V15.9023H89.6357V13.1178H86.5976V15.9023H85.8179Z" fill="white" stroke="white" stroke-width="0.184242"/>
<path fill-rule="evenodd" clip-rule="evenodd" d="M94.5573 16.0375C95.3931 16.0375 96.1945 15.7005 96.7852 15.1006H96.7751C97.9685 13.821 97.9685 11.8182 96.7751 10.5385C96.1861 9.93935 95.3863 9.60254 94.5523 9.60254C93.7182 9.60254 92.9184 9.93935 92.3294 10.5385C91.1258 11.814 91.1258 13.8252 92.3294 15.1006C92.9201 15.7005 93.7216 16.0375 94.5573 16.0375ZM94.5573 15.2856C93.9348 15.2981 93.3358 15.0446 92.9067 14.5869C92.0007 13.588 92.0007 12.0512 92.9067 11.0522C93.3358 10.5946 93.9348 10.3411 94.5573 10.3535C95.1791 10.3448 95.7767 10.5978 96.208 11.0522C97.0998 12.0568 97.0998 13.5824 96.208 14.5869C95.7767 15.0414 95.1791 15.2944 94.5573 15.2856Z" fill="white"/>
<path d="M96.7852 15.1008L96.8568 15.1735L97.0295 14.9981H96.7852V15.1008ZM96.7751 15.1008L96.7015 15.0302L96.5398 15.2036H96.7751V15.1008ZM96.7751 10.5387L96.8487 10.4681L96.8468 10.4662L96.7751 10.5387ZM92.3294 10.5387L92.2577 10.4662L92.2563 10.4677L92.3294 10.5387ZM92.3294 15.1008L92.2563 15.1719L92.2578 15.1735L92.3294 15.1008ZM92.9066 14.5871L92.8321 14.6567L92.8333 14.658L92.9066 14.5871ZM94.5573 15.2858L94.5587 15.183L94.5553 15.1831L94.5573 15.2858ZM92.9066 11.0525L92.8333 10.9817L92.8321 10.9829L92.9066 11.0525ZM94.5573 10.3538L94.5553 10.4566L94.5587 10.4565L94.5573 10.3538ZM96.208 11.0525L96.2833 10.9837L96.2809 10.9812L96.208 11.0525ZM96.208 14.5871L96.281 14.6584L96.2832 14.6559L96.208 14.5871ZM96.7136 15.0283C96.1418 15.6088 95.3661 15.9349 94.5573 15.9349V16.1404C95.4199 16.1404 96.2472 15.7926 96.8568 15.1735L96.7136 15.0283ZM96.7751 15.2036H96.7852V14.9981H96.7751V15.2036ZM96.7015 10.6094C97.8579 11.8494 97.8579 13.7902 96.7015 15.0302L96.8486 15.1715C98.079 13.8522 98.0791 11.7874 96.8487 10.4681L96.7015 10.6094ZM94.5522 9.7055C95.3594 9.7055 96.1334 10.0314 96.7034 10.6113L96.8468 10.4662C96.2388 9.8476 95.4132 9.5 94.5522 9.5V9.7055ZM92.4011 10.6113C92.9711 10.0314 93.7451 9.7055 94.5522 9.7055V9.5C93.6913 9.5 92.8657 9.8476 92.2577 10.4662L92.4011 10.6113ZM92.4025 15.0298C91.2364 13.794 91.2364 11.8456 92.4025 10.6098L92.2563 10.4677C91.0152 11.7829 91.0152 13.8567 92.2563 15.1719L92.4025 15.0298ZM94.5573 15.9349C93.7485 15.9349 92.9728 15.6088 92.401 15.0283L92.2578 15.1735C92.8674 15.7926 93.6947 16.1404 94.5573 16.1404V15.9349ZM92.8333 14.658C93.282 15.1365 93.9084 15.4017 94.5593 15.3885L94.5553 15.1831C93.9612 15.195 93.3896 14.9531 92.9801 14.5163L92.8333 14.658ZM92.8321 10.9829C91.8905 12.0212 91.8905 13.6184 92.8321 14.6567L92.9812 14.5175C92.1109 13.5579 92.1109 12.0816 92.9812 11.1221L92.8321 10.9829ZM94.5593 10.2511C93.9084 10.238 93.282 10.5032 92.8333 10.9817L92.9801 11.1234C93.3896 10.6866 93.9612 10.4447 94.5553 10.4566L94.5593 10.2511ZM96.2809 10.9812C95.8302 10.5062 95.2057 10.242 94.5559 10.2511L94.5587 10.4565C95.1524 10.4482 95.7232 10.6897 96.135 11.1238L96.2809 10.9812ZM96.2832 14.6559C97.2096 13.6123 97.2097 12.0273 96.2833 10.9837L96.1327 11.1213C96.9897 12.0866 96.9897 13.5529 96.1327 14.5183L96.2832 14.6559ZM94.5559 15.3885C95.2057 15.3977 95.8303 15.1334 96.281 14.6584L96.135 14.5159C95.7232 14.9499 95.1524 15.1913 94.5587 15.183L94.5559 15.3885Z" fill="white"/>
<path fill-rule="evenodd" clip-rule="evenodd" d="M100.866 15.9034V9.73838H103.064C103.519 9.73365 103.96 9.90226 104.299 10.211C104.642 10.5126 104.835 10.953 104.826 11.4132C104.828 11.6899 104.751 11.9614 104.603 12.1941C104.454 12.4147 104.247 12.589 104.006 12.6976C104.298 12.799 104.555 12.9847 104.745 13.2319C104.931 13.4836 105.031 13.7904 105.028 14.1053C105.039 14.5848 104.839 15.0442 104.482 15.3588C104.13 15.6906 103.665 15.8711 103.185 15.8623L100.866 15.9034ZM101.646 12.3791H103.064C103.333 12.3948 103.594 12.285 103.773 12.0811C103.944 11.9103 104.043 11.6776 104.046 11.4338C104.056 11.189 103.972 10.9499 103.813 10.7659C103.641 10.5718 103.392 10.4663 103.135 10.4782H101.677L101.646 12.3791ZM103.226 15.143H101.646V13.1189H103.185C103.472 13.1113 103.747 13.2271 103.945 13.4374C104.121 13.6226 104.222 13.8683 104.228 14.1258C104.228 14.3854 104.13 14.6349 103.955 14.8245C103.771 15.0357 103.504 15.1525 103.226 15.143Z" fill="white"/>
<path d="M100.866 9.73762V9.63487H100.765V9.73762H100.866ZM100.866 15.9026H100.765V16.0071L100.868 16.0053L100.866 15.9026ZM104.299 10.2103L104.231 10.2867L104.233 10.2878L104.299 10.2103ZM104.826 11.4124L104.724 11.4104L104.724 11.4134L104.826 11.4124ZM104.603 12.1933L104.686 12.2515L104.688 12.2489L104.603 12.1933ZM104.005 12.6968L103.964 12.6029L103.728 12.7092L103.973 12.794L104.005 12.6968ZM104.745 13.2311L104.826 13.1694L104.825 13.1679L104.745 13.2311ZM105.028 14.1045L104.927 14.1037L104.927 14.1068L105.028 14.1045ZM104.481 15.3581L104.415 15.2804L104.412 15.2827L104.481 15.3581ZM103.185 15.8615L103.187 15.7587L103.183 15.7588L103.185 15.8615ZM103.064 12.3783L103.069 12.2755H103.064V12.3783ZM101.646 12.3783L101.545 12.3766L101.543 12.481H101.646V12.3783ZM103.773 12.0803L103.701 12.0068L103.697 12.012L103.773 12.0803ZM104.046 11.433L103.945 11.4289V11.4315L104.046 11.433ZM103.813 10.7651L103.889 10.6973L103.888 10.6963L103.813 10.7651ZM103.135 10.4774V10.5803L103.139 10.5801L103.135 10.4774ZM101.676 10.4774V10.3747H101.577L101.575 10.4757L101.676 10.4774ZM101.646 15.1423H101.545V15.245H101.646V15.1423ZM103.226 15.1423L103.229 15.0395H103.226V15.1423ZM101.646 13.1181V13.0154H101.545V13.1181H101.646ZM103.185 13.1181V13.2209L103.188 13.2207L103.185 13.1181ZM104.228 14.1251L104.33 14.1254L104.329 14.1225L104.228 14.1251ZM103.955 14.8238L103.881 14.7535L103.879 14.7556L103.955 14.8238ZM100.765 9.73762V15.9026H100.967V9.73762H100.765ZM103.064 9.63487H100.866V9.84037H103.064V9.63487ZM104.367 10.1337C104.009 9.8079 103.544 9.62993 103.064 9.63487V9.84037C103.494 9.83595 103.911 9.99521 104.231 10.2867L104.367 10.1337ZM104.927 11.4144C104.936 10.9238 104.731 10.4542 104.365 10.1326L104.233 10.2878C104.553 10.5695 104.733 10.9807 104.724 11.4104L104.927 11.4144ZM104.688 12.2489C104.846 11.9995 104.93 11.7084 104.927 11.4115L104.724 11.4134C104.727 11.67 104.655 11.9219 104.518 12.1377L104.688 12.2489ZM104.046 12.7907C104.305 12.6744 104.526 12.4877 104.686 12.2515L104.519 12.1351C104.381 12.3401 104.188 12.502 103.964 12.6029L104.046 12.7907ZM104.825 13.1679C104.622 12.9049 104.349 12.7074 104.038 12.5995L103.973 12.794C104.246 12.889 104.487 13.0628 104.665 13.2943L104.825 13.1679ZM105.13 14.1052C105.132 13.7679 105.025 13.4391 104.826 13.1694L104.664 13.2928C104.836 13.5265 104.929 13.8115 104.927 14.1037L105.13 14.1052ZM104.548 15.4355C104.927 15.101 105.141 14.6123 105.129 14.1021L104.927 14.1068C104.937 14.5558 104.749 14.9858 104.415 15.2804L104.548 15.4355ZM103.183 15.9642C103.69 15.9736 104.18 15.7832 104.55 15.4333L104.412 15.2827C104.08 15.5965 103.641 15.767 103.187 15.7587L103.183 15.9642ZM100.868 16.0053L103.187 15.9642L103.183 15.7588L100.864 15.7999L100.868 16.0053ZM103.064 12.2755H101.646V12.481H103.064V12.2755ZM103.697 12.012C103.538 12.1925 103.307 12.2895 103.069 12.2755L103.058 12.4808C103.357 12.4984 103.648 12.376 103.848 12.1487L103.697 12.012ZM103.945 11.4315C103.942 11.6483 103.854 11.855 103.701 12.0068L103.843 12.1537C104.034 11.9639 104.143 11.7054 104.147 11.4344L103.945 11.4315ZM103.737 10.8328C103.879 10.9971 103.953 11.2105 103.945 11.4289L104.147 11.437C104.158 11.1661 104.066 10.9013 103.889 10.6973L103.737 10.8328ZM103.139 10.5801C103.366 10.5696 103.586 10.6627 103.738 10.8339L103.888 10.6963C103.696 10.4795 103.417 10.3614 103.13 10.3748L103.139 10.5801ZM101.676 10.5802L103.135 10.5803V10.3747H101.676V10.5802ZM101.747 12.3799L101.777 10.4791L101.575 10.4757L101.545 12.3766L101.747 12.3799ZM101.646 15.245H103.226V15.0395H101.646V15.245ZM101.545 13.1181V15.1423H101.747V13.1181H101.545ZM103.185 13.0154H101.646V13.2209H103.185V13.0154ZM104.018 13.3657C103.801 13.1343 103.497 13.007 103.183 13.0154L103.188 13.2207C103.445 13.214 103.694 13.3182 103.871 13.5074L104.018 13.3657ZM104.329 14.1225C104.323 13.8393 104.212 13.5696 104.018 13.3657L103.871 13.5074C104.03 13.6742 104.121 13.8958 104.127 14.1275L104.329 14.1225ZM104.029 14.8939C104.221 14.6855 104.328 14.4109 104.33 14.1254L104.127 14.1246C104.126 14.3583 104.038 14.5829 103.881 14.7535L104.029 14.8939ZM103.222 15.2449C103.53 15.2554 103.827 15.1259 104.031 14.8918L103.879 14.7556C103.715 14.9439 103.477 15.048 103.229 15.0395L103.222 15.2449Z" fill="white"/>
<defs>
<linearGradient id="paint0_linear_46_2440" x1="25.9635" y1="-2.39064" x2="7.48162" y2="2.37702" gradientUnits="userSpaceOnUse">
<stop stop-color="#00A0FF"/>
<stop offset="0.01" stop-color="#00A1FF"/>
<stop offset="0.26" stop-color="#00BEFF"/>
<stop offset="0.51" stop-color="#00D2FF"/>
<stop offset="0.76" stop-color="#00DFFF"/>
<stop offset="1" stop-color="#00E3FF"/>
</linearGradient>
<linearGradient id="paint1_linear_46_2440" x1="41.7685" y1="14.4572" x2="17.936" y2="14.4572" gradientUnits="userSpaceOnUse">
<stop stop-color="#FFE000"/>
<stop offset="0.41" stop-color="#FFBD00"/>
<stop offset="0.78" stop-color="#FFA500"/>
<stop offset="1" stop-color="#FF9C00"/>
</linearGradient>
<linearGradient id="paint2_linear_46_2440" x1="18.6619" y1="17.9478" x2="3.98353" y2="43.3016" gradientUnits="userSpaceOnUse">
<stop stop-color="#FF3A44"/>
<stop offset="1" stop-color="#C31162"/>
</linearGradient>
<linearGradient id="paint3_linear_46_2440" x1="9.67135" y1="7.92558" x2="17.0393" y2="19.6805" gradientUnits="userSpaceOnUse">
<stop stop-color="#32A071"/>
<stop offset="0.07" stop-color="#2DA771"/>
<stop offset="0.48" stop-color="#15CF74"/>
<stop offset="0.8" stop-color="#06E775"/>
<stop offset="1" stop-color="#00F076"/>
</linearGradient>
</defs>
</svg>
