<svg width="141" height="53" viewBox="0 0 141 53" fill="none" xmlns="http://www.w3.org/2000/svg">
<g clip-path="url(#clip0_653_10931)">
<g clip-path="url(#clip1_653_10931)">
<g clip-path="url(#clip2_653_10931)">
<path d="M136 0.48999H5C2.23858 0.48999 0 2.72857 0 5.48999V47.49C0 50.2514 2.23858 52.49 5 52.49H136C138.761 52.49 141 50.2514 141 47.49V5.48999C141 2.72857 138.761 0.48999 136 0.48999Z" fill="#1F1F1F"/>
<path fill-rule="evenodd" clip-rule="evenodd" d="M49.9764 28.6818V30.4818H54.2964C54.2287 31.3296 53.8763 32.1296 53.2964 32.7518C52.4201 33.6447 51.2064 34.1243 49.9564 34.0718C47.3054 34.0718 45.1564 31.9228 45.1564 29.2718C45.1564 26.6209 47.3054 24.4718 49.9564 24.4718C51.1769 24.4537 52.3553 24.9172 53.2364 25.7618L54.5064 24.4918C53.3024 23.301 51.6696 22.645 49.9764 22.6718C47.5554 22.5776 45.2768 23.8155 44.0383 25.8979C42.7997 27.9803 42.7997 30.5734 44.0383 32.6558C45.2768 34.7382 47.5554 35.976 49.9764 35.8818C51.7066 35.9509 53.384 35.2778 54.5864 34.0318C55.6365 32.8782 56.1961 31.361 56.1464 29.8018C56.15 29.4266 56.1199 29.0517 56.0564 28.6818H49.9764ZM61.0564 27.3718C58.7037 27.3774 56.8009 29.2891 56.8064 31.6418C56.812 33.9945 58.7237 35.8973 61.0764 35.8918C63.4291 35.8863 65.3319 33.9746 65.3264 31.6218C65.3429 30.4862 64.8976 29.3925 64.0927 28.5913C63.2877 27.7901 62.1919 27.35 61.0564 27.3718ZM66.1264 31.6418C66.1209 29.2891 68.0237 27.3774 70.3764 27.3718C71.5119 27.35 72.6077 27.7901 73.4127 28.5913C74.2176 29.3925 74.6629 30.4862 74.6464 31.6218C74.6519 33.9746 72.7491 35.8863 70.3964 35.8918C68.0437 35.8973 66.132 33.9945 66.1264 31.6418ZM67.8684 32.7403C68.3251 33.6961 69.3196 34.2757 70.3764 34.2018C71.0397 34.1864 71.6687 33.9038 72.1205 33.418C72.5724 32.9322 72.809 32.2845 72.7764 31.6218C72.7738 30.5625 72.1239 29.6124 71.1376 29.2259C70.1512 28.8395 69.0289 29.0952 68.3074 29.8709C67.5858 30.6465 67.4118 31.7844 67.8684 32.7403ZM58.5484 32.7403C59.0051 33.6961 59.9996 34.2757 61.0564 34.2018C61.7197 34.1864 62.3487 33.9038 62.8005 33.418C63.2524 32.9322 63.4889 32.2845 63.4564 31.6218C63.4538 30.5625 62.8039 29.6124 61.8176 29.2259C60.8312 28.8395 59.7089 29.0952 58.9874 29.8709C58.2658 30.6465 58.0918 31.7844 58.5484 32.7403ZM91.6464 27.3718C93.3043 27.4329 94.7525 28.511 95.2864 30.0818L95.4964 30.5218L89.8064 32.8718C90.1608 33.686 90.9792 34.1985 91.8664 34.1618C92.7213 34.1701 93.5166 33.7249 93.9564 32.9918L95.4064 33.9918C94.3735 35.5565 92.4338 36.2546 90.6407 35.707C88.8475 35.1593 87.6288 33.4966 87.6464 31.6218C87.5773 30.5184 87.968 29.4355 88.7258 28.6304C89.4836 27.8252 90.5408 27.3697 91.6464 27.3718ZM89.4864 31.5018C89.4455 30.8743 89.6588 30.2568 90.0783 29.7884C90.4978 29.3199 91.0882 29.0401 91.7164 29.0118C92.3752 28.9716 92.9939 29.3302 93.2864 29.9218L89.4864 31.5018ZM86.7364 35.6218H84.8664V23.1218H86.7364V35.6218ZM81.8064 28.3218H81.7364C81.1711 27.678 80.3531 27.3129 79.4964 27.3218C77.2266 27.4319 75.4427 29.3043 75.4427 31.5768C75.4427 33.8493 77.2266 35.7218 79.4964 35.8318C80.3548 35.849 81.1761 35.4824 81.7364 34.8318H81.8064V35.4418C81.8064 37.0718 80.9364 37.9418 79.5364 37.9418C78.5799 37.9208 77.7308 37.3244 77.3864 36.4318L75.7664 37.1018C76.3796 38.6418 77.879 39.6441 79.5364 39.6218C81.7264 39.6218 83.5364 38.3318 83.5364 35.1918V27.6218H81.8064V28.3218ZM77.237 31.6268C77.237 32.9894 78.2965 34.117 79.6564 34.2018C80.3063 34.1768 80.9177 33.887 81.3484 33.3996C81.7791 32.9123 81.9915 32.2699 81.9364 31.6218C81.9858 30.9761 81.771 30.338 81.3412 29.8535C80.9114 29.369 80.3034 29.0797 79.6564 29.0518C78.2965 29.1366 77.237 30.2643 77.237 31.6268ZM104.046 23.1218H99.5664V35.6218H101.436V30.8818H104.046C105.499 30.9862 106.888 30.2703 107.646 29.0268C108.404 27.7833 108.404 26.2204 107.646 24.9769C106.888 23.7333 105.499 23.0175 104.046 23.1218ZM101.436 29.1218H104.046L104.086 29.1418C104.851 29.1418 105.557 28.7339 105.939 28.0718C106.322 27.4097 106.322 26.5939 105.939 25.9318C105.557 25.2697 104.851 24.8618 104.086 24.8618H101.436V29.1218ZM115.586 27.3318C114.194 27.246 112.885 27.997 112.256 29.2418L113.906 29.9318C114.247 29.3178 114.916 28.9613 115.616 29.0218C116.096 28.9658 116.577 29.1048 116.954 29.4075C117.33 29.7103 117.568 30.1514 117.616 30.6318V30.7518C117.015 30.4357 116.345 30.271 115.666 30.2718C113.886 30.2718 112.066 31.2718 112.066 33.0918C112.102 33.8734 112.453 34.6072 113.039 35.1254C113.625 35.6437 114.396 35.9022 115.176 35.8418C116.131 35.8947 117.041 35.4284 117.556 34.6218H117.616V35.6218H119.416V30.8118C119.416 28.6218 117.756 27.3518 115.626 27.3518L115.586 27.3318ZM113.896 33.1218C113.896 33.8718 114.746 34.1818 115.356 34.1818L115.396 34.2018C116.526 34.1793 117.466 33.3249 117.596 32.2018C117.077 31.9122 116.49 31.7672 115.896 31.7818C114.956 31.7818 113.896 32.1218 113.896 33.1218ZM125.976 27.6218L123.836 33.0418H123.776L121.556 27.6218H119.556L122.886 35.2018L120.986 39.4118H122.936L128.056 27.6218H125.976ZM111.036 35.6218H109.176V23.1218H111.036V35.6218Z" fill="white"/>
<path d="M12.6774 13.1614C12.3479 13.551 12.1798 14.0518 12.2074 14.5614V36.6814C12.1734 37.1917 12.3423 37.6949 12.6774 38.0814L12.7474 38.1614L25.1374 25.7714V25.4714L12.7474 13.0914L12.6774 13.1614Z" fill="url(#paint0_linear_653_10931)"/>
<path d="M29.2406 29.9016L25.1406 25.7716V25.4716L29.2406 21.3416L29.3306 21.4016L34.2406 24.1816C35.6406 24.9716 35.6406 26.2716 34.2406 27.0716L29.3506 29.8516L29.2406 29.9016Z" fill="url(#paint1_linear_653_10931)"/>
<path d="M29.3519 29.8408L25.1319 25.6208L12.6719 38.0809C13.2549 38.5999 14.1251 38.6293 14.7419 38.1509L29.3519 29.8408Z" fill="url(#paint2_linear_653_10931)"/>
<path d="M29.3519 21.4013L14.7419 13.1013C14.1288 12.616 13.2557 12.6413 12.6719 13.1613L25.1319 25.6213L29.3519 21.4013Z" fill="url(#paint3_linear_653_10931)"/>
<path opacity="0.2" d="M29.2319 29.7517L14.7419 38.0017C14.15 38.4484 13.3337 38.4484 12.7419 38.0017L12.6719 38.0717L12.7419 38.1517C13.3337 38.5984 14.15 38.5984 14.7419 38.1517L29.3519 29.8417L29.2319 29.7517Z" fill="#1F1F1F"/>
<path opacity="0.12" d="M12.6801 37.941C12.3589 37.5443 12.2015 37.0399 12.2401 36.531V36.681C12.206 37.1913 12.375 37.6945 12.7101 38.081L12.7801 38.011L12.6801 37.941Z" fill="#1F1F1F"/>
<path opacity="0.12" d="M34.2344 26.9208L29.2344 29.7508L29.3244 29.8408L34.2344 27.0608C34.8248 26.8112 35.2315 26.2587 35.2944 25.6208C35.1676 26.1979 34.7742 26.6805 34.2344 26.9208Z" fill="#1F1F1F"/>
<path opacity="0.25" d="M14.7431 13.2418L34.2331 24.3218C34.7729 24.5621 35.1663 25.0447 35.2931 25.6218C35.2302 24.9839 34.8235 24.4314 34.2331 24.1818L14.7431 13.1018C13.3531 12.3018 12.2031 12.9618 12.2031 14.5618V14.7118C12.2331 13.1118 13.3531 12.4518 14.7431 13.2418Z" fill="white"/>
<path fill-rule="evenodd" clip-rule="evenodd" d="M43.6172 19.8908H44.3472V18.6209H48.8972V19.8808H49.6372V17.8808H48.9672V12.6208H44.9672V15.6208C45.0687 16.4479 44.8018 17.2779 44.2372 17.8908H43.6172V19.8908ZM45.1672 17.9108C45.5832 17.2222 45.7818 16.4241 45.7372 15.6208V13.3608H48.1672V17.9108H45.1672Z" fill="white"/>
<path d="M44.3456 19.8912V19.9912H44.4456V19.8912H44.3456ZM43.6156 19.8912H43.5156V19.9912H43.6156V19.8912ZM44.3456 18.6212V18.5212H44.2456V18.6212H44.3456ZM48.8956 18.6212H48.9956V18.5212H48.8956V18.6212ZM48.8956 19.8812H48.7956V19.9812H48.8956V19.8812ZM49.6356 19.8812V19.9812H49.7356V19.8812H49.6356ZM49.6356 17.8812H49.7356V17.7812H49.6356V17.8812ZM48.9656 17.8812H48.8656V17.9812H48.9656V17.8812ZM48.9656 12.6212H49.0656V12.5212H48.9656V12.6212ZM44.9656 12.6212V12.5212H44.8656V12.6212H44.9656ZM44.9656 15.6212H44.8648L44.8663 15.6334L44.9656 15.6212ZM44.2356 17.8912V17.9912H44.2794L44.3091 17.959L44.2356 17.8912ZM43.6156 17.8912V17.7912H43.5156V17.8912H43.6156ZM45.7356 15.6212H45.6354L45.6357 15.6268L45.7356 15.6212ZM45.1656 17.9112L45.08 17.8595L44.9884 18.0112H45.1656V17.9112ZM45.7356 13.3612V13.2612H45.6356V13.3612H45.7356ZM48.1656 13.3612H48.2656V13.2612H48.1656V13.3612ZM48.1656 17.9112V18.0112H48.2656V17.9112H48.1656ZM44.3456 19.7912H43.6156V19.9912H44.3456V19.7912ZM44.2456 18.6212V19.8912H44.4456V18.6212H44.2456ZM48.8956 18.5212H44.3456V18.7212H48.8956V18.5212ZM48.9956 19.8812V18.6212H48.7956V19.8812H48.9956ZM49.6356 19.7812H48.8956V19.9812H49.6356V19.7812ZM49.5356 17.8812V19.8812H49.7356V17.8812H49.5356ZM48.9656 17.9812H49.6356V17.7812H48.9656V17.9812ZM48.8656 12.6212V17.8812H49.0656V12.6212H48.8656ZM44.9656 12.7212H48.9656V12.5212H44.9656V12.7212ZM45.0656 15.6212V12.6212H44.8656L44.8648 15.6212H45.0656ZM44.3091 17.959C44.8936 17.3245 45.1699 16.4653 45.0648 15.609L44.8663 15.6334C44.9643 16.4314 44.7067 17.2321 44.162 17.8235L44.3091 17.959ZM43.6156 17.9912H44.2356V17.7912H43.6156V17.9912ZM43.7156 19.8912V17.8912H43.5156V19.8912H43.7156ZM45.6357 15.6268C45.6793 16.41 45.4856 17.1881 45.08 17.8595L45.2512 17.9629C45.6776 17.2571 45.8812 16.439 45.8354 15.6157L45.6357 15.6268ZM45.6356 13.3612L45.6354 15.6212H45.8356V13.3612H45.6356ZM48.1656 13.2612H45.7356V13.4612H48.1656V13.2612ZM48.2656 17.9112V13.3612H48.0656V17.9112H48.2656ZM45.1656 18.0112H48.1656V17.8112H45.1656V18.0112Z" fill="white"/>
<path fill-rule="evenodd" clip-rule="evenodd" d="M53.4536 18.7519C54.2772 18.7519 55.067 18.4241 55.6486 17.8409C56.2401 17.2563 56.5625 16.4523 56.5386 15.6209C56.5531 14.7913 56.2322 13.9908 55.6486 13.4009C55.067 12.8178 54.2772 12.49 53.4536 12.49C52.6299 12.49 51.8402 12.8178 51.2586 13.4009C50.07 14.6423 50.07 16.5996 51.2586 17.8409C51.8402 18.4241 52.6299 18.7519 53.4536 18.7519ZM53.4486 18.0209C52.8346 18.0295 52.2445 17.7833 51.8186 17.3409C50.938 16.3633 50.938 14.8786 51.8186 13.9009C52.2445 13.4586 52.8346 13.2124 53.4486 13.2209C54.0633 13.2088 54.6548 13.4555 55.0786 13.9009C55.9732 14.8731 55.9732 16.3688 55.0786 17.3409C54.6548 17.7864 54.0633 18.0331 53.4486 18.0209Z" fill="white"/>
<path d="M56.5371 15.6213L56.437 15.6196L56.4371 15.6242L56.5371 15.6213ZM51.2571 13.4013L51.1863 13.3307L51.1848 13.3322L51.2571 13.4013ZM51.2571 17.8413L51.1848 17.9105L51.1863 17.912L51.2571 17.8413ZM51.8171 17.3413L51.7427 17.4083L51.745 17.4107L51.8171 17.3413ZM53.4471 18.0213L53.4491 17.9213L53.4457 17.9214L53.4471 18.0213ZM51.8171 13.9013L51.745 13.8319L51.7428 13.8344L51.8171 13.9013ZM53.4471 13.2213L53.4457 13.3214L53.4491 13.3213L53.4471 13.2213ZM55.0771 13.9013L55.1507 13.8336L55.1495 13.8324L55.0771 13.9013ZM55.0771 17.3413L55.1495 17.4103L55.1507 17.4091L55.0771 17.3413ZM55.5768 17.7702C55.0139 18.3346 54.2491 18.6523 53.4521 18.6523V18.8523C54.3023 18.8523 55.1175 18.514 55.7179 17.912L55.5768 17.7702ZM56.4371 15.6242C56.4602 16.4279 56.1486 17.2051 55.5768 17.7702L55.7179 17.912C56.3292 17.3079 56.6617 16.4776 56.637 15.6185L56.4371 15.6242ZM55.576 13.4717C56.1406 14.0424 56.451 14.8169 56.437 15.6196L56.6371 15.6231C56.652 14.7665 56.3207 13.9401 55.7182 13.331L55.576 13.4717ZM53.4521 12.5904C54.2491 12.5904 55.0131 12.9073 55.576 13.4717L55.7182 13.331C55.1178 12.729 54.3023 12.3904 53.4521 12.3904V12.5904ZM51.3279 13.472C51.8907 12.9076 52.655 12.5904 53.4521 12.5904V12.3904C52.6019 12.3904 51.7866 12.7287 51.1863 13.3307L51.3279 13.472ZM51.3293 17.7722C50.1777 16.5695 50.1777 14.6732 51.3293 13.4705L51.1848 13.3322C49.9592 14.6122 49.9592 16.6305 51.1848 17.9105L51.3293 17.7722ZM53.4521 18.6523C52.655 18.6523 51.8907 18.3351 51.3279 17.7707L51.1863 17.912C51.7866 18.514 52.6019 18.8523 53.4521 18.8523V18.6523ZM51.745 17.4107C52.1901 17.873 52.8068 18.1302 53.4485 18.1213L53.4457 17.9214C52.8593 17.9295 52.2958 17.6944 51.8891 17.272L51.745 17.4107ZM51.7428 13.8344C50.8279 14.8501 50.8278 16.3926 51.7427 17.4083L51.8914 17.2744C51.0451 16.3348 51.0451 14.9078 51.8914 13.9683L51.7428 13.8344ZM53.4485 13.1214C52.8068 13.1125 52.1901 13.3696 51.745 13.8319L51.8891 13.9707C52.2958 13.5483 52.8593 13.3133 53.4457 13.3214L53.4485 13.1214ZM55.1495 13.8324C54.7064 13.3667 54.0879 13.1086 53.4451 13.1214L53.4491 13.3213C54.0357 13.3097 54.6002 13.5452 55.0046 13.9703L55.1495 13.8324ZM55.1507 17.4091C56.0805 16.3986 56.0805 14.8441 55.1507 13.8336L55.0035 13.9691C55.8629 14.9029 55.8629 16.3397 55.0035 17.2736L55.1507 17.4091ZM53.4451 18.1213C54.0879 18.1341 54.7064 17.876 55.1495 17.4103L55.0046 17.2724C54.6002 17.6975 54.0357 17.9329 53.4491 17.9213L53.4451 18.1213Z" fill="white"/>
<path d="M60.4228 18.7512C59.6053 18.7641 58.8179 18.4426 58.2428 17.8612C57.0441 16.6085 57.0441 14.634 58.2428 13.3812C58.8275 12.7897 59.6315 12.4673 60.4628 12.4912C61.3112 12.4672 62.1231 12.8363 62.6628 13.4912L62.1328 14.0112C61.7342 13.4987 61.1115 13.2116 60.4628 13.2412C59.8407 13.2254 59.2397 13.4679 58.8028 13.9112C57.9102 14.8919 57.9102 16.3906 58.8028 17.3712C59.2397 17.8146 59.8407 18.0571 60.4628 18.0412C61.1584 18.0215 61.8097 17.6958 62.2428 17.1512L62.7828 17.6812C62.5089 18.0095 62.168 18.2755 61.7828 18.4612C61.3574 18.66 60.8923 18.7592 60.4228 18.7512Z" fill="white" stroke="white" stroke-width="0.2"/>
<path d="M65.9188 18.6209H65.1488V13.3608H63.4688V12.6208H67.5888V13.3608H65.9188V18.6209Z" fill="white" stroke="white" stroke-width="0.2"/>
<path d="M72.885 12.6208L70.615 17.6809C70.5036 18.0915 70.2175 18.4325 69.8324 18.6135C69.4474 18.7944 69.0023 18.7972 68.615 18.6209L68.815 17.9108C68.9374 17.9796 69.0747 18.0174 69.215 18.0209C69.363 18.0283 69.5097 17.9898 69.635 17.9108C69.7565 17.8097 69.8496 17.6789 69.905 17.5309L70.125 17.0508L68.125 12.6208H69.035L70.515 16.0609L71.975 12.6208H72.885Z" fill="white" stroke="white" stroke-width="0.2"/>
<path d="M73.7578 18.6209V12.6208H78.0978V18.6209H77.3278V13.3608H74.5278V18.6209H73.7578Z" fill="white" stroke="white" stroke-width="0.2"/>
<path d="M79.4688 18.6209V12.6208H80.2388V15.1908H83.2388V12.6208H84.0188V18.6209H83.2388V15.9108H80.2388V18.6209H79.4688Z" fill="white" stroke="white" stroke-width="0.2"/>
<path fill-rule="evenodd" clip-rule="evenodd" d="M88.0993 18.7527C88.9246 18.7527 89.716 18.4247 90.2993 17.8409H90.2893C91.4678 16.5955 91.4678 14.6464 90.2893 13.4009C89.7077 12.8178 88.9179 12.49 88.0943 12.49C87.2707 12.49 86.4809 12.8178 85.8993 13.4009C84.7107 14.6423 84.7107 16.5996 85.8993 17.8409C86.4826 18.4247 87.274 18.7527 88.0993 18.7527ZM88.0993 18.0209C87.4846 18.0331 86.8931 17.7864 86.4693 17.3409C85.5747 16.3688 85.5747 14.8731 86.4693 13.9009C86.8931 13.4555 87.4846 13.2088 88.0993 13.2209C88.7133 13.2124 89.3034 13.4586 89.7293 13.9009C90.6099 14.8786 90.6099 16.3633 89.7293 17.3409C89.3034 17.7833 88.7133 18.0295 88.0993 18.0209Z" fill="white"/>
<path d="M90.2976 17.8413L90.3684 17.912L90.539 17.7413H90.2976V17.8413ZM90.2876 17.8413L90.215 17.7726L90.0553 17.9413H90.2876V17.8413ZM90.2876 13.4013L90.3603 13.3326L90.3584 13.3307L90.2876 13.4013ZM85.8976 13.4013L85.8268 13.3307L85.8255 13.3322L85.8976 13.4013ZM85.8976 17.8413L85.8255 17.9105L85.8269 17.912L85.8976 17.8413ZM86.4676 17.3413L86.394 17.4091L86.3953 17.4103L86.4676 17.3413ZM88.0977 18.0213L88.099 17.9213L88.0956 17.9214L88.0977 18.0213ZM86.4676 13.9013L86.3953 13.8324L86.394 13.8336L86.4676 13.9013ZM88.0977 13.2213L88.0956 13.3214L88.099 13.3213L88.0977 13.2213ZM89.7276 13.9013L89.8021 13.8344L89.7996 13.832L89.7276 13.9013ZM89.7276 17.3413L89.7997 17.4107L89.802 17.4083L89.7276 17.3413ZM90.2269 17.7707C89.6623 18.3357 88.8964 18.6531 88.0977 18.6531V18.8531C88.9495 18.8531 89.7663 18.5146 90.3684 17.912L90.2269 17.7707ZM90.2876 17.9413H90.2976V17.7413H90.2876V17.9413ZM90.215 13.4701C91.3569 14.6769 91.3569 16.5658 90.215 17.7726L90.3602 17.9101C91.5752 16.6261 91.5753 14.6166 90.3603 13.3326L90.215 13.4701ZM88.0926 12.5904C88.8897 12.5904 89.654 12.9076 90.2168 13.472L90.3584 13.3307C89.7581 12.7287 88.9428 12.3904 88.0926 12.3904V12.5904ZM85.9684 13.472C86.5313 12.9076 87.2956 12.5904 88.0926 12.5904V12.3904C87.2424 12.3904 86.4272 12.7287 85.8268 13.3307L85.9684 13.472ZM85.9699 17.7722C84.8184 16.5695 84.8184 14.6732 85.9699 13.4705L85.8255 13.3322C84.5998 14.6122 84.5998 16.6305 85.8255 17.9105L85.9699 17.7722ZM88.0977 18.6531C87.299 18.6531 86.5329 18.3357 85.9683 17.7707L85.8269 17.912C86.4289 18.5146 87.2459 18.8531 88.0977 18.8531V18.6531ZM86.3953 17.4103C86.8384 17.876 87.4569 18.1341 88.0997 18.1213L88.0956 17.9214C87.509 17.933 86.9445 17.6975 86.5401 17.2724L86.3953 17.4103ZM86.394 13.8336C85.4642 14.8441 85.4642 16.3986 86.394 17.4091L86.5412 17.2736C85.6818 16.3397 85.6818 14.9029 86.5412 13.9691L86.394 13.8336ZM88.0997 13.1214C87.4569 13.1086 86.8384 13.3667 86.3953 13.8324L86.5401 13.9703C86.9445 13.5452 87.509 13.3098 88.0956 13.3214L88.0997 13.1214ZM89.7996 13.832C89.3546 13.3697 88.7379 13.1125 88.0962 13.1214L88.099 13.3213C88.6853 13.3132 89.249 13.5483 89.6557 13.9707L89.7996 13.832ZM89.802 17.4083C90.7168 16.3926 90.7169 14.8501 89.8021 13.8344L89.6533 13.9683C90.4996 14.9078 90.4996 16.3348 89.6533 17.2744L89.802 17.4083ZM88.0962 18.1213C88.7379 18.1302 89.3547 17.873 89.7997 17.4107L89.6557 17.272C89.249 17.6944 88.6853 17.9294 88.099 17.9213L88.0962 18.1213Z" fill="white"/>
<path fill-rule="evenodd" clip-rule="evenodd" d="M94.3281 18.6209V12.6209H96.4981C96.9479 12.6163 97.3832 12.7804 97.7181 13.0809C98.0563 13.3744 98.2468 13.803 98.2381 14.2509C98.2405 14.5202 98.164 14.7844 98.0181 15.0109C97.8704 15.2256 97.6662 15.3952 97.4281 15.5009C97.7167 15.5996 97.9704 15.7803 98.1581 16.0209C98.3419 16.2659 98.4402 16.5645 98.4381 16.8709C98.4484 17.3376 98.2505 17.7847 97.8981 18.0909C97.551 18.4138 97.0921 18.5895 96.6181 18.5809L94.3281 18.6209ZM95.0981 15.1909H96.4981C96.7634 15.2062 97.0213 15.0994 97.1981 14.9009C97.3676 14.7347 97.4647 14.5082 97.4681 14.2709C97.4775 14.0327 97.3952 13.8 97.2381 13.6209C97.0678 13.432 96.822 13.3293 96.5681 13.3409H95.1281L95.0981 15.1909ZM96.6581 17.8809H95.0981V15.9109H96.6181C96.9006 15.9035 97.1731 16.0162 97.3681 16.2209C97.542 16.4012 97.642 16.6403 97.6481 16.8909C97.6472 17.1435 97.5507 17.3864 97.3781 17.5709C97.1963 17.7764 96.9323 17.8901 96.6581 17.8809Z" fill="white"/>
<path d="M94.3266 12.6213V12.5213H94.2266V12.6213H94.3266ZM94.3266 18.6213H94.2266V18.723L94.3283 18.7212L94.3266 18.6213ZM97.7166 13.0813L97.6498 13.1557L97.651 13.1568L97.7166 13.0813ZM98.2366 14.2513L98.1365 14.2493L98.1366 14.2522L98.2366 14.2513ZM98.0166 15.0113L98.099 15.0679L98.1006 15.0654L98.0166 15.0113ZM97.4266 15.5013L97.386 15.4099L97.1528 15.5133L97.3942 15.5959L97.4266 15.5013ZM98.1566 16.0213L98.2366 15.9612L98.2354 15.9598L98.1566 16.0213ZM98.4366 16.8713L98.3365 16.8705L98.3366 16.8735L98.4366 16.8713ZM97.8966 18.0913L97.8309 18.0157L97.8284 18.018L97.8966 18.0913ZM96.6166 18.5813L96.6184 18.4812L96.6148 18.4813L96.6166 18.5813ZM96.4966 15.1913L96.5023 15.0913H96.4966V15.1913ZM95.0966 15.1913L94.9966 15.1896L94.9949 15.2913H95.0966V15.1913ZM97.1966 14.9013L97.1264 14.8297L97.1219 14.8348L97.1966 14.9013ZM97.4666 14.2713L97.3666 14.2673V14.2698L97.4666 14.2713ZM97.2366 13.6213L97.3118 13.5553L97.3108 13.5543L97.2366 13.6213ZM96.5666 13.3413V13.4414L96.5711 13.4412L96.5666 13.3413ZM95.1266 13.3413V13.2413H95.0282L95.0266 13.3396L95.1266 13.3413ZM95.0966 17.8813H94.9966V17.9813H95.0966V17.8813ZM96.6566 17.8813L96.6599 17.7813H96.6566V17.8813ZM95.0966 15.9113V15.8113H94.9966V15.9113H95.0966ZM96.6166 15.9113V16.0113L96.6191 16.0112L96.6166 15.9113ZM97.6466 16.8913L97.7466 16.8916L97.7465 16.8888L97.6466 16.8913ZM97.3766 17.5713L97.3035 17.5029L97.3016 17.505L97.3766 17.5713ZM94.2266 12.6213V18.6213H94.4266V12.6213H94.2266ZM96.4966 12.5213H94.3266V12.7213H96.4966V12.5213ZM97.7833 13.0068C97.4298 12.6897 96.9714 12.5165 96.4966 12.5213V12.7213C96.9214 12.717 97.3335 12.872 97.6498 13.1557L97.7833 13.0068ZM98.3365 14.2532C98.3459 13.7757 98.1428 13.3187 97.7821 13.0057L97.651 13.1568C97.9669 13.4309 98.1447 13.8311 98.1365 14.2493L98.3365 14.2532ZM98.1006 15.0654C98.2571 14.8226 98.3391 14.5393 98.3365 14.2504L98.1366 14.2522C98.1388 14.502 98.0679 14.7471 97.9325 14.9571L98.1006 15.0654ZM97.4671 15.5927C97.7222 15.4795 97.9409 15.2978 98.099 15.0679L97.9342 14.9546C97.797 15.1541 97.6073 15.3117 97.386 15.4099L97.4671 15.5927ZM98.2354 15.9598C98.0358 15.7038 97.766 15.5116 97.4589 15.4066L97.3942 15.5959C97.6645 15.6883 97.902 15.8575 98.0777 16.0828L98.2354 15.9598ZM98.5366 16.872C98.5389 16.5437 98.4335 16.2237 98.2366 15.9612L98.0766 16.0813C98.2472 16.3088 98.3385 16.5861 98.3365 16.8705L98.5366 16.872ZM97.9621 18.1667C98.337 17.8411 98.5475 17.3655 98.5365 16.869L98.3366 16.8735C98.3463 17.3105 98.1609 17.729 97.8309 18.0157L97.9621 18.1667ZM96.6147 18.6812C97.1147 18.6904 97.5986 18.5051 97.9647 18.1645L97.8284 18.018C97.5003 18.3234 97.0665 18.4893 96.6184 18.4812L96.6147 18.6812ZM94.3283 18.7212L96.6183 18.6812L96.6148 18.4813L94.3248 18.5213L94.3283 18.7212ZM96.4966 15.0913H95.0966V15.2913H96.4966V15.0913ZM97.1219 14.8348C96.9654 15.0105 96.7372 15.1049 96.5023 15.0913L96.4908 15.2911C96.7867 15.3082 97.0741 15.1891 97.2712 14.9678L97.1219 14.8348ZM97.3666 14.2698C97.3636 14.4808 97.2771 14.682 97.1264 14.8297L97.2665 14.9727C97.455 14.788 97.5628 14.5364 97.5665 14.2727L97.3666 14.2698ZM97.1614 13.6872C97.3016 13.8471 97.3751 14.0548 97.3666 14.2673L97.5665 14.2752C97.5769 14.0115 97.4859 13.7538 97.3118 13.5553L97.1614 13.6872ZM96.5711 13.4412C96.7952 13.431 97.0121 13.5216 97.1623 13.6882L97.3108 13.5543C97.1206 13.3433 96.8459 13.2284 96.562 13.2414L96.5711 13.4412ZM95.1266 13.4413L96.5666 13.4414V13.2413H95.1266V13.4413ZM95.1965 15.1929L95.2265 13.3429L95.0266 13.3396L94.9966 15.1896L95.1965 15.1929ZM95.0966 17.9813H96.6566V17.7813H95.0966V17.9813ZM94.9966 15.9113V17.8813H95.1966V15.9113H94.9966ZM96.6166 15.8113H95.0966V16.0113H96.6166V15.8113ZM97.439 16.1523C97.2245 15.9271 96.9248 15.8032 96.614 15.8113L96.6191 16.0112C96.8735 16.0046 97.1187 16.106 97.2941 16.2902L97.439 16.1523ZM97.7465 16.8888C97.7398 16.6132 97.6304 16.3507 97.439 16.1523L97.2941 16.2902C97.4507 16.4525 97.5411 16.6682 97.5466 16.8937L97.7465 16.8888ZM97.4496 17.6396C97.6395 17.4367 97.7456 17.1695 97.7466 16.8916L97.5466 16.8909C97.5458 17.1183 97.4589 17.3369 97.3035 17.5029L97.4496 17.6396ZM96.6532 17.9812C96.9572 17.9914 97.2499 17.8654 97.4515 17.6375L97.3016 17.505C97.1396 17.6882 96.9043 17.7895 96.6599 17.7813L96.6532 17.9812Z" fill="white"/>
</g>
</g>
</g>
<defs>
<linearGradient id="paint0_linear_653_10931" x1="19.7088" y1="-1.93065" x2="-0.131933" y2="3.35058" gradientUnits="userSpaceOnUse">
<stop stop-color="#00A0FF"/>
<stop offset="0.01" stop-color="#00A1FF"/>
<stop offset="0.26" stop-color="#00BEFF"/>
<stop offset="0.51" stop-color="#00D2FF"/>
<stop offset="0.76" stop-color="#00DFFF"/>
<stop offset="1" stop-color="#00E3FF"/>
</linearGradient>
<linearGradient id="paint1_linear_653_10931" x1="36.0706" y1="15.4212" x2="11.8806" y2="15.4212" gradientUnits="userSpaceOnUse">
<stop stop-color="#FFE000"/>
<stop offset="0.41" stop-color="#FFBD00"/>
<stop offset="0.78" stop-color="#FFA500"/>
<stop offset="1" stop-color="#FF9C00"/>
</linearGradient>
<linearGradient id="paint2_linear_653_10931" x1="12.3194" y1="19.1403" x2="-3.64216" y2="45.9395" gradientUnits="userSpaceOnUse">
<stop stop-color="#FF3A44"/>
<stop offset="1" stop-color="#C31162"/>
</linearGradient>
<linearGradient id="paint3_linear_653_10931" x1="2.94675" y1="9.72021" x2="10.0691" y2="21.688" gradientUnits="userSpaceOnUse">
<stop stop-color="#32A071"/>
<stop offset="0.07" stop-color="#2DA771"/>
<stop offset="0.48" stop-color="#15CF74"/>
<stop offset="0.8" stop-color="#06E775"/>
<stop offset="1" stop-color="#00F076"/>
</linearGradient>
<clipPath id="clip0_653_10931">
<rect width="141" height="52" fill="white" transform="translate(0 0.48999)"/>
</clipPath>
<clipPath id="clip1_653_10931">
<rect width="141" height="52" fill="white" transform="translate(0 0.48999)"/>
</clipPath>
<clipPath id="clip2_653_10931">
<rect width="141" height="52" fill="white" transform="translate(0 0.48999)"/>
</clipPath>
</defs>
</svg>
