<svg width="155" height="47" viewBox="0 0 155 47" fill="none" xmlns="http://www.w3.org/2000/svg">
<path d="M149.504 0H5.49645C2.46085 0 0 2.02333 0 4.51923V42.4808C0 44.9767 2.46085 47 5.49645 47H149.504C152.539 47 155 44.9767 155 42.4808V4.51923C155 2.02333 152.539 0 149.504 0Z" fill="black"/>
<path d="M28.0385 36.4615C30.077 38.5 33.358 38.5 39.92 38.5H41.08C47.642 38.5 50.923 38.5 52.9615 36.4615C55 34.423 55 31.1419 55 24.5799V23.42C55 16.858 55 13.577 52.9615 11.5385C50.923 9.5 47.642 9.5 41.08 9.5H39.92C33.358 9.5 30.077 9.5 28.0385 11.5385C26 13.577 26 16.858 26 23.42V24.5799C26 31.1419 26 34.423 28.0385 36.4615Z" fill="#0077FF"/>
<path fill-rule="evenodd" clip-rule="evenodd" d="M48.2771 28.428L46.3457 27.9742C46.113 27.9114 45.9488 27.7146 45.9406 27.4858L45.6995 20.7989C45.6298 19.9139 44.9313 19.2099 44.2014 19.0026C44.1605 18.991 44.1167 19.0067 44.0924 19.0398C44.0677 19.0736 44.0773 19.1202 44.1117 19.1452C44.2919 19.2765 44.788 19.7048 44.788 20.4435L44.7866 29.1864C44.7866 30.0306 43.9385 30.6497 43.0637 30.4442L41.1023 29.9833C40.8849 29.9118 40.7338 29.7213 40.7259 29.5015L40.4849 22.8142C40.4151 21.9291 39.7167 21.2253 38.9868 21.0179C38.9458 21.0063 38.902 21.022 38.8778 21.0551C38.8532 21.0889 38.8627 21.1355 38.897 21.1606C39.0773 21.2918 39.5734 21.72 39.5734 22.4588L39.5719 29.7464L39.573 29.7466V31.2025C39.573 32.0467 38.7249 32.6659 37.8501 32.4603L32.3102 31.1586C31.54 30.9776 31 30.3296 31 29.5863V20.8298C31 19.9856 31.8481 19.3664 32.7228 19.572L36.2136 20.3922V18.8137C36.2136 17.9695 37.0617 17.3503 37.9365 17.5559L41.427 18.376V16.7975C41.427 15.9533 42.2751 15.3341 43.1499 15.5397L48.6898 16.8414C49.46 17.0224 50 17.6704 50 18.4137V27.1702C50 28.0144 49.1519 28.6336 48.2771 28.428Z" fill="white"/>
<path d="M72 36.5H69.8936L66.5513 31.1781H64.793V36.5H63V22.5H67.3172C68.1528 22.5 68.9014 22.6853 69.5629 23.056C70.2244 23.4267 70.735 23.943 71.0948 24.605C71.4662 25.2537 71.6519 26.0016 71.6519 26.849C71.6519 27.9081 71.3675 28.8149 70.7989 29.5695C70.2302 30.3109 69.47 30.8007 68.5184 31.0391L72 36.5ZM64.793 24.3866V29.3114H67.3172C68.0599 29.3114 68.6577 29.0863 69.1103 28.6362C69.5745 28.1728 69.8066 27.5771 69.8066 26.849C69.8066 26.1208 69.5745 25.5317 69.1103 25.0816C68.6577 24.6183 68.0599 24.3866 67.3172 24.3866H64.793Z" fill="white"/>
<path d="M77.5091 36.5C76.8424 36.5 76.2424 36.3292 75.7091 35.9877C75.1758 35.6335 74.7575 35.1527 74.4545 34.5456C74.1515 33.9257 74 33.2299 74 32.4582V26.5H75.7818V32.3065C75.7818 33.0528 75.9818 33.6601 76.3818 34.1281C76.7818 34.5961 77.297 34.8302 77.9272 34.8302C78.5818 34.8302 79.1272 34.5898 79.5636 34.1091C79.9999 33.6284 80.2182 33.0275 80.2182 32.3065V26.5H82V36.3102H80.7272L80.3091 34.8302C80.006 35.3615 79.606 35.7726 79.109 36.0635C78.6242 36.3545 78.0909 36.5 77.5091 36.5Z" fill="white"/>
<path d="M88.7406 36.5C87.5881 36.5 86.5842 36.1782 85.7287 35.5345C84.8852 34.8779 84.3089 33.9897 84 32.8697L85.7643 32.5607C86.1089 33.2816 86.5189 33.8159 86.9941 34.1634C87.4693 34.4981 88.0515 34.6655 88.7406 34.6655C89.4416 34.6655 90.0118 34.4981 90.4515 34.1634C90.8911 33.8159 91.1108 33.346 91.1108 32.7538C91.1108 32.3161 90.9861 31.9492 90.7366 31.6531C90.499 31.357 90.196 31.1188 89.8277 30.9386C89.4594 30.7584 88.9782 30.5588 88.3841 30.34C87.5881 30.0568 86.9346 29.7735 86.4238 29.4903C85.9129 29.2071 85.4792 28.8081 85.1228 28.2931C84.7783 27.7652 84.606 27.0959 84.606 26.2848C84.606 25.5253 84.7783 24.8622 85.1228 24.2958C85.4792 23.7166 85.9664 23.2724 86.5842 22.9634C87.202 22.6544 87.8911 22.5 88.6515 22.5C89.7089 22.5 90.6178 22.8025 91.3782 23.4076C92.1386 23.9997 92.6792 24.8172 93 25.86L91.2713 26.1689C91.0336 25.5767 90.6951 25.1262 90.2554 24.8172C89.8158 24.4954 89.299 24.3345 88.705 24.3345C88.0634 24.3345 87.5347 24.5018 87.1188 24.8365C86.703 25.1584 86.4951 25.6025 86.4951 26.1689C86.4951 26.5937 86.6139 26.9542 86.8515 27.2503C87.101 27.5465 87.404 27.7846 87.7604 27.9648C88.1287 28.145 88.6159 28.351 89.2218 28.5828C89.994 28.8659 90.6356 29.1556 91.1465 29.4517C91.6693 29.735 92.1088 30.1405 92.4653 30.6682C92.8217 31.1961 93 31.8591 93 32.6572C93 33.4297 92.8099 34.1055 92.4297 34.6848C92.0614 35.2641 91.5505 35.7147 90.897 36.0365C90.2554 36.3455 89.5366 36.5 88.7406 36.5Z" fill="white"/>
<path d="M101 34.8239L100.822 36.5H99.0228C97.9545 36.5 97.1444 36.2402 96.5906 35.7204C96.0368 35.2007 95.7599 34.4535 95.7599 33.4791V28.1192H94V26.4235H95.7599L96.294 23.5H97.6973V26.4235H100.822V28.1192H97.6973V33.4791C97.6973 34.3756 98.1391 34.8239 99.0228 34.8239H101Z" fill="white"/>
<path d="M107 36.5C106.035 36.5 105.175 36.2889 104.418 35.8669C103.661 35.4447 103.069 34.855 102.641 34.0977C102.214 33.3405 102 32.4777 102 31.5093C102 30.541 102.214 29.6781 102.641 28.9208C103.069 28.1635 103.661 27.5738 104.418 27.1518C105.175 26.7173 106.035 26.5 107 26.5C107.965 26.5 108.825 26.7173 109.582 27.1518C110.34 27.5738 110.931 28.1635 111.359 28.9208C111.786 29.6781 112 30.541 112 31.5093C112 32.4777 111.786 33.3405 111.359 34.0977C110.931 34.855 110.34 35.4447 109.582 35.8669C108.825 36.2889 107.965 36.5 107 36.5ZM107 34.824C107.928 34.824 108.679 34.5199 109.253 33.9116C109.839 33.3032 110.132 32.5025 110.132 31.5093C110.132 30.5162 109.839 29.7154 109.253 29.1071C108.679 28.4863 107.928 28.176 107 28.176C106.072 28.176 105.321 28.4863 104.748 29.1071C104.173 29.7154 103.886 30.5162 103.886 31.5093C103.886 32.49 104.173 33.2908 104.748 33.9116C105.321 34.5199 106.072 34.824 107 34.824Z" fill="white"/>
<path d="M114 36.5V26.5H115.084L115.405 27.9314C115.639 27.4284 115.929 27.0674 116.275 26.8482C116.621 26.616 117.033 26.5 117.512 26.5H117.878L118 28.3182H117.145C116.596 28.3182 116.183 28.5181 115.909 28.9178C115.634 29.3176 115.496 29.8591 115.496 30.5425V36.5H114Z" fill="white"/>
<path d="M129 31.4348C129 31.6831 128.994 31.8755 128.982 32.0121H120.924C121.025 32.8687 121.365 33.5515 121.943 34.0605C122.522 34.5695 123.258 34.824 124.151 34.824C124.768 34.824 125.314 34.706 125.793 34.4702C126.283 34.2219 126.654 33.8991 126.905 33.5019L128.642 33.7812C128.265 34.6502 127.654 35.3206 126.811 35.7923C125.981 36.2641 125.056 36.5 124.038 36.5C123.07 36.5 122.201 36.2889 121.434 35.8669C120.667 35.4323 120.069 34.8364 119.642 34.0792C119.214 33.3219 119 32.4652 119 31.5093C119 30.541 119.214 29.6781 119.642 28.9208C120.069 28.1635 120.66 27.5738 121.415 27.1518C122.17 26.7173 123.031 26.5 124 26.5C124.956 26.5 125.811 26.7173 126.566 27.1518C127.334 27.5738 127.931 28.1635 128.359 28.9208C128.786 29.6657 129 30.5037 129 31.4348ZM124 28.1201C123.258 28.1201 122.616 28.3373 122.075 28.7718C121.547 29.2064 121.195 29.7899 121.019 30.5223H126.981C126.818 29.8023 126.466 29.225 125.925 28.7905C125.396 28.3436 124.755 28.1201 124 28.1201Z" fill="white"/>
<path d="M65.6212 18.5C65.1212 18.5 64.6717 18.352 64.2727 18.0559C63.8737 17.7533 63.5606 17.3349 63.3333 16.8007C63.1111 16.2664 63 15.6646 63 14.9952C63 14.3257 63.1111 13.7271 63.3333 13.1993C63.5606 12.6651 63.8712 12.2499 64.2652 11.9538C64.6641 11.6513 65.1136 11.5 65.6136 11.5C66.154 11.5 66.6338 11.6738 67.053 12.0214C67.4773 12.3625 67.7803 12.826 67.9621 13.4117L67.1894 13.5662C67.048 13.2057 66.8384 12.9257 66.5606 12.7262C66.2879 12.5202 65.9798 12.4172 65.6364 12.4172C65.2828 12.4172 64.9672 12.5267 64.6894 12.7455C64.4167 12.9644 64.202 13.2701 64.0455 13.6628C63.8939 14.049 63.8182 14.4931 63.8182 14.9952C63.8182 15.5037 63.8939 15.9543 64.0455 16.3469C64.202 16.7331 64.4192 17.0356 64.697 17.2545C64.9747 17.4733 65.2929 17.5828 65.6515 17.5828C66.0051 17.5828 66.3182 17.4798 66.5909 17.2738C66.8687 17.0614 67.0808 16.7653 67.2273 16.3855L68 16.54C67.8081 17.1386 67.4975 17.6149 67.0682 17.969C66.6389 18.323 66.1566 18.5 65.6212 18.5Z" fill="white"/>
<path d="M74 18.5H72.5635L70.4365 16.4304H70.0913V18.5H69V13.5H70.0913V15.5213H70.4254L72.4633 13.5H73.7773L71.3051 15.9178L74 18.5Z" fill="white"/>
<path d="M76.1224 13.5C76.7029 13.5 77.1595 13.6955 77.4921 14.0866C77.8307 14.4714 78 15.0115 78 15.7067V18.4069H77.3651L77.1565 17.6527C77.0053 17.8948 76.8027 18.0965 76.5488 18.2579C76.2948 18.4193 75.9894 18.5 75.6327 18.5C75.3182 18.5 75.037 18.4348 74.7891 18.3045C74.5412 18.1741 74.3477 17.9941 74.2086 17.7644C74.0695 17.5286 74 17.2647 74 16.973C74 16.5199 74.1754 16.1567 74.5261 15.8836C74.8768 15.6105 75.3847 15.4739 76.0499 15.4739H77.1111C77.0869 15.0953 76.9841 14.8035 76.8027 14.5987C76.6213 14.3876 76.3794 14.2821 76.0771 14.2821C75.8473 14.2821 75.6447 14.338 75.4694 14.4497C75.294 14.5615 75.161 14.7073 75.0703 14.8873L74.2449 14.7477C74.3658 14.3628 74.5986 14.0587 74.9433 13.8352C75.288 13.6117 75.681 13.5 76.1224 13.5ZM75.8231 17.7272C76.2041 17.7272 76.5125 17.5999 76.7483 17.3454C76.9902 17.0847 77.1111 16.7278 77.1111 16.2747V16.2188H76.0771C75.291 16.2188 74.898 16.4609 74.898 16.9451C74.898 17.1809 74.9826 17.3703 75.1519 17.513C75.3212 17.6558 75.545 17.7272 75.8231 17.7272Z" fill="white"/>
<path d="M82.0508 16.6818C81.8959 16.7527 81.7119 16.8075 81.4988 16.8462C81.2857 16.8849 81.0759 16.9043 80.8693 16.9043C80.2688 16.9043 79.8071 16.7366 79.4843 16.4014C79.1614 16.0661 79 15.5922 79 14.9797V13.5H79.9492V14.9797C79.9492 15.6954 80.2946 16.0532 80.9855 16.0532C81.4052 16.0532 81.7603 15.979 82.0508 15.8308V13.5H83V18.5H82.0508V16.6818Z" fill="white"/>
<path d="M86.1224 13.5C86.7029 13.5 87.1595 13.6955 87.4921 14.0866C87.8307 14.4714 88 15.0115 88 15.7067V18.4069H87.3651L87.1565 17.6527C87.0053 17.8948 86.8027 18.0965 86.5488 18.2579C86.2948 18.4193 85.9894 18.5 85.6327 18.5C85.3182 18.5 85.037 18.4348 84.7891 18.3045C84.5412 18.1741 84.3477 17.9941 84.2086 17.7644C84.0695 17.5286 84 17.2647 84 16.973C84 16.5199 84.1754 16.1567 84.5261 15.8836C84.8768 15.6105 85.3847 15.4739 86.0499 15.4739H87.1111C87.0869 15.0953 86.9841 14.8035 86.8027 14.5987C86.6213 14.3876 86.3794 14.2821 86.0771 14.2821C85.8473 14.2821 85.6447 14.338 85.4694 14.4497C85.294 14.5615 85.161 14.7073 85.0703 14.8873L84.2449 14.7477C84.3658 14.3628 84.5986 14.0587 84.9433 13.8352C85.288 13.6117 85.681 13.5 86.1224 13.5ZM85.8231 17.7272C86.2041 17.7272 86.5125 17.5999 86.7483 17.3454C86.9902 17.0847 87.1111 16.7278 87.1111 16.2747V16.2188H86.0771C85.291 16.2188 84.898 16.4609 84.898 16.9451C84.898 17.1809 84.9826 17.3703 85.1519 17.513C85.3212 17.6558 85.545 17.7272 85.8231 17.7272Z" fill="white"/>
<path d="M90.25 18.5H89V13.4875H89.819V17.4335H89.9483L91.75 13.4875H93V18.5H92.181V14.5637H92.0517L90.25 18.5ZM91.0086 12.838C90.6351 12.838 90.3218 12.7281 90.069 12.5083C89.8218 12.2821 89.6753 11.946 89.6293 11.5H90.319C90.3477 11.7068 90.4195 11.8652 90.5345 11.9751C90.6552 12.0785 90.8132 12.1302 91.0086 12.1302C91.204 12.1302 91.3592 12.0785 91.4741 11.9751C91.5948 11.8652 91.6667 11.7068 91.6897 11.5H92.3879C92.3362 11.946 92.1839 12.2821 91.931 12.5083C91.6839 12.7281 91.3764 12.838 91.0086 12.838Z" fill="white"/>
<path d="M96.4298 18.5H95.5702V14.3704H94V13.5H98V14.3704H96.4298V18.5Z" fill="white"/>
<path d="M104 15.9674C104 16.0916 103.997 16.1878 103.991 16.2561H99.9623C100.013 16.6844 100.182 17.0258 100.472 17.2803C100.761 17.5348 101.129 17.662 101.575 17.662C101.884 17.662 102.157 17.603 102.396 17.4851C102.642 17.361 102.827 17.1996 102.953 17.0009L103.821 17.1406C103.632 17.5751 103.327 17.9103 102.906 18.1462C102.491 18.3821 102.028 18.5 101.519 18.5C101.035 18.5 100.601 18.3945 100.217 18.1834C99.8333 17.9662 99.5346 17.6682 99.3208 17.2896C99.1069 16.9109 99 16.4826 99 16.0047C99 15.5205 99.1069 15.0891 99.3208 14.7104C99.5346 14.3318 99.8302 14.0369 100.208 13.8259C100.585 13.6086 101.016 13.5 101.5 13.5C101.978 13.5 102.406 13.6086 102.783 13.8259C103.167 14.0369 103.465 14.3318 103.679 14.7104C103.893 15.0829 104 15.5019 104 15.9674ZM101.5 14.3101C101.129 14.3101 100.808 14.4187 100.538 14.6359C100.274 14.8532 100.097 15.1449 100.009 15.5112H102.991C102.909 15.1511 102.733 14.8625 102.462 14.6453C102.198 14.4218 101.877 14.3101 101.5 14.3101Z" fill="white"/>
<path d="M108.563 18.5H107V13.5H108.024V17.4362H108.185L110.438 13.5H112V18.5H110.976V14.5735H110.815L108.563 18.5Z" fill="white"/>
<path d="M115.102 15.9488C115.36 16.0233 115.574 16.1598 115.745 16.3585C115.915 16.5509 116 16.7899 116 17.0754C116 17.3423 115.921 17.5844 115.764 17.8017C115.606 18.0127 115.379 18.1834 115.083 18.3138C114.793 18.4379 114.455 18.5 114.071 18.5C113.554 18.5 113.11 18.3821 112.738 18.1462C112.366 17.9041 112.12 17.5813 112 17.1778L112.861 17.0382C113.069 17.4851 113.469 17.7086 114.061 17.7086C114.389 17.7086 114.638 17.6496 114.809 17.5317C114.985 17.4075 115.073 17.2368 115.073 17.0196C115.073 16.8271 114.991 16.6719 114.827 16.554C114.67 16.4361 114.414 16.3771 114.061 16.3771H113.418V15.5763H114.061C114.364 15.5763 114.594 15.5205 114.752 15.4088C114.916 15.297 114.998 15.148 114.998 14.9618C114.998 14.7632 114.909 14.6018 114.733 14.4777C114.563 14.3535 114.351 14.2914 114.099 14.2914C113.853 14.2914 113.633 14.3504 113.437 14.4683C113.242 14.5863 113.094 14.7477 112.993 14.9525L112.132 14.8035C112.277 14.3876 112.526 14.068 112.879 13.8445C113.239 13.6148 113.655 13.5 114.128 13.5C114.468 13.5 114.774 13.559 115.045 13.6769C115.322 13.7948 115.537 13.9593 115.688 14.1704C115.846 14.3814 115.924 14.6173 115.924 14.878C115.924 15.1449 115.849 15.3715 115.697 15.5577C115.546 15.7439 115.348 15.8743 115.102 15.9488Z" fill="white"/>
</svg>
