<svg width="137" height="55" viewBox="0 0 137 55" fill="none" xmlns="http://www.w3.org/2000/svg">
<g clip-path="url(#clip0_710_2806)">
<mask id="mask0_710_2806" style="mask-type:luminance" maskUnits="userSpaceOnUse" x="0" y="0" width="238" height="55">
<path d="M237.503 0H0V55H237.503V0Z" fill="white"/>
</mask>
<g mask="url(#mask0_710_2806)">
<path d="M14.9261 0H40.4275C45.6182 0 47.5003 0.537625 49.3975 1.5455C51.2716 2.53019 52.8048 4.05162 53.7981 5.9125C54.8125 7.80313 55.3535 9.67313 55.3535 14.8308V40.1693C55.3535 45.3269 54.8125 47.1969 53.7981 49.082C52.8071 50.9442 51.2759 52.4675 49.403 53.4545C47.5003 54.4624 45.6182 55 40.4275 55H14.9261C9.7353 55 7.85328 54.4624 5.95604 53.4545C4.08195 52.4699 2.54881 50.9484 1.55543 49.0875C0.541081 47.1969 0 45.3269 0 40.1693V14.8308C0 9.67313 0.541081 7.80313 1.55543 5.9125C2.54734 4.05241 4.07846 2.53107 5.95051 1.5455C7.85328 0.537625 9.7353 0 14.9261 0Z" fill="#F6F42E"/>
<path d="M41.5016 11.1592C42.1999 11.1621 42.8687 11.4398 43.3615 11.9315C43.8543 12.4232 44.1309 13.0888 44.1309 13.7827V20.2933H49.6234V13.7827C49.6234 11.6403 48.7684 9.58527 47.2459 8.06815C45.7236 6.55104 43.6578 5.69564 41.5016 5.68945H34.9312V11.1592H41.5016Z" fill="#63666A"/>
<path d="M44.1364 41.2515C44.1364 41.9444 43.8594 42.6089 43.3663 43.0989C42.8733 43.5888 42.2045 43.864 41.5072 43.864H34.9312V49.309H41.5016C43.654 49.309 45.7184 48.4607 47.2421 46.9501C48.7658 45.4397 49.6241 43.3902 49.6289 41.2515V34.7065H44.1364V41.2515Z" fill="#63666A"/>
<path d="M11.2157 13.7827C11.216 13.0889 11.4928 12.4235 11.9855 11.9319C12.4782 11.4403 13.1467 11.1625 13.8449 11.1592H20.4154V5.68945H13.8505C11.6936 5.69454 9.6268 6.54947 8.10346 8.0667C6.5801 9.58392 5.7246 11.6396 5.72461 13.7827V20.2933H11.2157V13.7827Z" fill="#63666A"/>
<path d="M13.8505 43.8654C13.1532 43.8654 12.4844 43.5901 11.9913 43.1002C11.4982 42.6103 11.2212 41.9458 11.2212 41.2529V34.7065H5.72461V41.2515C5.72901 43.3902 6.58702 45.4398 8.1104 46.9505C9.63379 48.4614 11.6981 49.31 13.8505 49.3104H20.4223V43.8654H13.8505Z" fill="#63666A"/>
<path d="M24.5123 40.5861L12.7898 28.9275L16.6646 25.0775L24.5082 32.8779L38.687 18.7759L42.5617 22.6259L24.5123 40.5861Z" fill="#63666A"/>
<path d="M77.5655 35.5907C78.3258 36.4685 78.7311 37.5954 78.703 38.7532C78.7073 39.7487 78.423 40.7245 77.8838 41.5637C77.2724 42.4829 76.4077 43.2079 75.3929 43.6523C74.0857 44.2206 72.6674 44.4922 71.2414 44.4471C70.0326 44.4457 68.8285 44.2979 67.6559 44.0071C66.5712 43.7554 65.5332 43.3359 64.5796 42.7641L66.3426 39.1217C67.036 39.5899 67.8003 39.9449 68.6066 40.1736C69.4151 40.4127 70.2539 40.5359 71.0975 40.5393C71.7897 40.574 72.4777 40.4134 73.0819 40.0759C73.3117 39.9412 73.5012 39.7477 73.6302 39.5155C73.7591 39.2834 73.8231 39.021 73.8153 38.7559C73.8153 37.6495 72.9421 37.0954 71.1957 37.0936H69.1573V34.0397L72.2156 30.7397H65.4625V27.0024H77.8478V30.0274L74.2983 33.8431C75.553 34.0474 76.703 34.6626 77.5655 35.5907Z" fill="#63666A"/>
<path d="M97.792 27.0024V44.0717H92.9099V37.4153H86.2578V44.0717H81.377V27.0024H86.2578V33.4154H92.9099V27.0024H97.792Z" fill="#63666A"/>
<path d="M117.262 44.0714H112.383V40.2847H105.655V44.0714H100.847V34.8356C100.842 34.0269 100.928 33.2204 101.103 32.4307C101.263 31.7212 101.521 31.0373 101.87 30.3984C102.199 29.7999 102.615 29.2524 103.103 28.7732C103.592 28.2987 104.148 27.8984 104.754 27.5852C105.389 27.2601 106.063 27.018 106.761 26.8647C107.514 26.7 108.284 26.6188 109.056 26.6227C109.828 26.6188 110.597 26.7 111.351 26.8647C112.047 27.0184 112.721 27.2607 113.356 27.5852C113.962 27.8972 114.519 28.2966 115.008 28.7704C115.497 29.2498 115.912 29.7973 116.241 30.3957C116.59 31.0345 116.848 31.7184 117.008 32.4279C117.183 33.2172 117.268 34.0234 117.262 34.8314V44.0714ZM109.031 30.6308C108.576 30.6091 108.122 30.6828 107.697 30.8471C107.273 31.0116 106.888 31.263 106.568 31.5851C105.908 32.3771 105.581 33.392 105.656 34.4176V36.5447H112.383V34.4176C112.459 33.3917 112.133 32.3764 111.471 31.5851C111.155 31.2647 110.774 31.0142 110.354 30.8497C109.933 30.6853 109.483 30.6107 109.031 30.6308Z" fill="#63666A"/>
<path d="M125.156 35.9683V44.0712H120.313V27.002H125.156V35.0925H125.278L131.313 27.002H137.113L130.489 35.2423L137.301 44.0698H130.993L125.156 35.9683Z" fill="#63666A"/>
<path d="M73.3621 12.9678V21.6922H70.4049V18.901C69.8804 19.0643 69.3352 19.1527 68.7858 19.1636C67.7107 19.2383 66.6461 18.9139 65.7981 18.2533C65.4428 17.9115 65.1672 17.497 64.99 17.0383C64.8129 16.5797 64.7387 16.0883 64.7726 15.5982V12.9678H67.7285V15.2723C67.693 15.6958 67.8206 16.117 68.0856 16.4507C68.2289 16.5862 68.3997 16.6901 68.5864 16.7556C68.7732 16.8209 68.9718 16.8463 69.1691 16.8302C69.5899 16.8442 70.0096 16.777 70.4049 16.6322V12.9678H73.3621Z" fill="#63666A"/>
<path d="M82.5212 19.4743V21.6922H75.2686V12.9678H82.3593V15.1871H78.1594V16.2101H81.8487V18.3303H78.1594V19.4771L82.5212 19.4743Z" fill="#63666A"/>
<path d="M86.2779 21.1134C85.5374 20.7467 84.9169 20.1788 84.4884 19.4756C84.06 18.7724 83.8412 17.9628 83.8575 17.141C83.8412 16.3189 84.06 15.5091 84.4884 14.8057C84.9169 14.1024 85.5374 13.5341 86.2779 13.1672C87.0689 12.7733 87.9436 12.5748 88.8283 12.5883C89.6239 12.5741 90.4136 12.7264 91.1462 13.0352C91.8077 13.3196 92.3864 13.7651 92.829 14.3305L90.9317 15.9805C90.7085 15.6713 90.4155 15.4183 90.0762 15.2418C89.7369 15.0653 89.3606 14.9703 88.9777 14.9644C88.6965 14.9516 88.4159 14.9975 88.1537 15.0991C87.8916 15.2006 87.6537 15.3557 87.4555 15.5542C87.26 15.7683 87.1089 16.0187 87.0108 16.291C86.9126 16.5634 86.8696 16.8521 86.884 17.141C86.8693 17.4296 86.9122 17.7182 87.0103 17.9903C87.1083 18.2624 87.2597 18.5126 87.4555 18.7264C87.654 18.9245 87.8918 19.0793 88.1539 19.1809C88.416 19.2826 88.6967 19.3286 88.9777 19.3162C89.3602 19.3095 89.7359 19.2139 90.0746 19.037C90.4131 18.86 90.7053 18.6067 90.9276 18.2974L92.8248 19.9474C92.382 20.5117 91.8033 20.9562 91.1421 21.2399C90.4096 21.5491 89.6198 21.7019 88.8241 21.6881C87.9412 21.7024 87.0679 21.5052 86.2779 21.1134Z" fill="#63666A"/>
<path d="M101.799 15.249H99.2392V21.6922H96.3428V15.249H93.7827V12.9678H101.799V15.249Z" fill="#63666A"/>
<path d="M111.914 12.9678V21.6922H108.909V18.4775H106.141V21.6922H103.134V12.9678H106.135V16.0588H108.903V12.9678H111.914Z" fill="#63666A"/>
<path d="M118.428 21.6922H114.016V12.9678H116.965V15.6477H118.808C119.305 15.6404 119.801 15.7016 120.282 15.8292C120.68 15.937 121.052 16.1242 121.375 16.3792C121.673 16.6192 121.905 16.9292 122.052 17.2812C122.21 17.6783 122.287 18.1026 122.279 18.5297C122.288 18.9939 122.2 19.455 122.021 19.8841C121.85 20.2739 121.585 20.6157 121.249 20.8796C120.886 21.1606 120.471 21.3684 120.027 21.4915C119.506 21.6325 118.968 21.7001 118.428 21.6922ZM116.965 17.7047V19.6297H118.224C118.365 19.6378 118.506 19.6158 118.637 19.5652C118.769 19.5146 118.888 19.4365 118.987 19.3364C119.085 19.2362 119.161 19.1162 119.209 18.9843C119.257 18.8524 119.276 18.712 119.265 18.5723C119.273 18.4502 119.253 18.328 119.207 18.2146C119.16 18.1013 119.089 17.9998 118.998 17.9178C118.771 17.7572 118.495 17.6804 118.217 17.7006L116.965 17.7047ZM126.041 21.6922H123.091V12.9678H126.041V21.6922Z" fill="#63666A"/>
<path d="M136.73 21.692H133.799V17.1628L130.767 21.692H127.95V12.958H130.881V17.4955L133.925 12.958H136.73V21.692ZM132.334 12.4589C131.589 12.5229 130.845 12.3333 130.223 11.9213C130.001 11.7189 129.827 11.469 129.715 11.1904C129.603 10.9118 129.557 10.6116 129.578 10.3125H131.562C131.542 10.5302 131.602 10.7475 131.732 10.9244C131.814 10.9949 131.909 11.0479 132.012 11.0804C132.116 11.1128 132.225 11.1238 132.332 11.1127C132.554 11.1332 132.774 11.0654 132.945 10.9244C133.083 10.7513 133.149 10.5323 133.129 10.3125H135.112C135.134 10.6129 135.086 10.9141 134.971 11.193C134.857 11.472 134.68 11.7211 134.454 11.9213C133.828 12.3317 133.081 12.5211 132.334 12.4589Z" fill="#63666A"/>
</g>
</g>
<defs>
<clipPath id="clip0_710_2806">
<rect width="137" height="55" fill="white"/>
</clipPath>
</defs>
</svg>
